<svg xmlns="http://www.w3.org/2000/svg" viewBox="0 0 2000 2000"><defs><style>.cls-1{fill:#fff;}.cls-2{fill:#d7e3fc;}.cls-3{fill:#abcfff;}.cls-4{fill:#edf2fb;}.cls-5{fill:#c1d3fe;}.cls-6{fill:#c3d9fa;}.cls-7{fill:#86b7ff;}.cls-8{fill:#87b7ff;}.cls-9{fill:#feffff;}.cls-10{fill:#ccdbfd;}.cls-11{fill:#abc9ff;}.cls-12{fill:#e4dbfe;}</style></defs><g id="Layer_2" data-name="Layer 2"><g id="ëÎÓÈ_1" data-name="ëÎÓÈ 1"><path class="cls-1" d="M28.8,2000H0V1814.4a5.81,5.81,0,0,0,3.65-2.82,196.57,196.57,0,0,0,16.11-33.81,210.17,210.17,0,0,0,9-34.69,194,194,0,0,0,3-22.07c1-18-2-35.53-6.74-52.76A139.26,139.26,0,0,0,4.89,1625.9c-1.25-1.8-2.35-3.6-4.89-3.5V1459.2A31.57,31.57,0,0,1,14.15,1461a168.08,168.08,0,0,1,47.08,25,52.43,52.43,0,0,1,8.94,7.93c4.81,5.67,9.35,11.61,13.65,17.69a66.75,66.75,0,0,1,11.33,26.21,115,115,0,0,1,1.46,11.86c.37,4.5,1.11,9.08.61,13.5-1.27,11.08-2,22.23-4.39,33.18-3.73,17.16-7.51,34.29-12.82,51-4.83,15.26-11,30-17.18,44.72-2.78,6.63-5.61,13.25-8.06,20-4.53,12.44-5.7,25.34-5.31,38.52a83.61,83.61,0,0,0,5.34,27.28c6.91,18.33,23.83,24.71,41.49,21.14,8.37-1.7,15-6.59,21.43-11.87s12.75-10.55,20.45-13.84c11.56-4.94,23-5.55,34.72.07,16.26,7.81,27,20.4,33.51,36.88,4.36,11,6.16,22.55,8,34.11,2.18,13.92,3.9,27.92,6.57,41.74,3.59,18.54,10.82,35.59,23,50.32,8.23,10,18.81,14.66,31.6,13.79,11-.75,21.62-3.48,30.54-10.44a164.83,164.83,0,0,0,13.71-12.17c8.61-8.37,17-17,22.63-27.76a207.45,207.45,0,0,0,9.15-19.52c6.52-16.28,18.2-27.18,34.13-33.92a14.85,14.85,0,0,1,9.35-.94c4.41,1,8.86,1.79,13.32,2.5a80.17,80.17,0,0,1,31,12.15c12.91,8.4,26.76,14.26,41.32,18.73,9.44,2.91,19.07,5,29.05,4.24,4-.3,7.89-1.2,11.86-1.43,18.57-1.07,35.19-7.81,50.8-17.4,6.66-4.1,11.56-10.23,16.75-15.93a133.83,133.83,0,0,0,24.14-37.38c6.42-14.84,9-30.55,12.36-46.14,1.57-7.35,1.75-14.79,1.75-22.25,0-8-.09-16-.18-24a41.57,41.57,0,0,0-.31-5.58,261.14,261.14,0,0,0-16-60,32.4,32.4,0,0,0-4-6.86c-5-6.89-9.06-14.46-15.24-20.49-1.11-1.08-1.7-2.68-2.57-4a197.88,197.88,0,0,0-19.5-25.26c-10.24-11.3-21.9-21-34-30.17Q520.3,1554.61,505,1543a22.08,22.08,0,0,1-4.09-3.74c-9.7-12.23-17.11-25.6-21.06-40.86-4.34-16.76-7-33.83-9.41-50.93-.57-4-1.2-7.89-1.51-11.86-.72-9.55-2.25-19-1.88-28.66a29.12,29.12,0,0,0-.68-5.53,129.32,129.32,0,0,0-9.19-30.5c-11.15-26.12-28.7-46.52-54.05-59.84-2.82-1.49-5.57-3.13-8.36-4.69a57,57,0,0,0-23.43-7.33,19.39,19.39,0,0,1-4.7-.76c-10.75-3.74-21.86-4.13-33.11-4.09-15.23.06-29.52,3.28-42.89,10.7a71.81,71.81,0,0,0-25.75,24.49c-8.5,13.19-11.5,28-11.91,43.32a291.88,291.88,0,0,0,1,35.09c1,10.88,2.21,21.73,4.21,32.41a434.14,434.14,0,0,0,12,48c2.59,8.38,5,16.84,7.35,25.29,3.74,13.36,5.57,27.09,7,40.83,1.2,11.7,0,23.4-2.29,34.94a73.13,73.13,0,0,1-2.43,10.07c-4.18,12-14,17.67-25.2,21.31a14.92,14.92,0,0,1-10.92-1.14,32.91,32.91,0,0,1-10.95-7.81A78.33,78.33,0,0,1,220.69,1593c-9.87-20.71-14.54-42.8-15.66-65.54-.75-15.15,0-30.38,0-45.57,0-17.57.22-35.17-3.41-52.5-4.54-21.72-10.91-42.87-21.58-62.42-8.42-15.43-17.72-30.28-29.61-43.48a425.89,425.89,0,0,0-41.13-40.15,117.81,117.81,0,0,0-21.83-14.71c-21.46-11.09-44.7-15.15-68.4-17.29-6.35-.57-12.79-.15-19-1.71V1115.2c1.21.48,2.84.61,3.56,1.49,4,4.91,8.41,9.6,10.88,15.59,2.94,7.13,5.84,14.27,8.78,21.39,1.83,4.42,3.64,8.85,5.54,13.23,3.82,8.79,6.37,18,9.53,27a55.55,55.55,0,0,0,21.87,28.62,166.9,166.9,0,0,0,35.22,18.26,135.13,135.13,0,0,0,47.43,8.86c6.13,0,12.27-.19,18.39,0a58,58,0,0,0,17.3-2.35c15.51-4.18,30.3-10.14,42.86-20.47a99.75,99.75,0,0,0,17.26-17.64c8.57-11.59,10.9-25.14,12.61-38.92.72-5.79.15-11.58.18-17.36a67.84,67.84,0,0,0-3.91-22.65c-4.33-12.57-9-25-15.09-36.88-6.32-12.31-12.41-24.73-19.94-36.37a87.2,87.2,0,0,0-5.09-7.14c-3.14-3.94-6.5-7.72-9.64-11.67a169.05,169.05,0,0,0-28.18-28.09c-4.39-3.43-9-6.62-13.32-10.11-12.66-10.22-26.63-18.46-40.39-27-8.59-5.35-17.69-9.82-26.35-15-9.9-5.91-20.48-10.2-30.87-14.93-15.7-7.16-32.32-12-48.55-17.82-3.2-1.15-6.71-1.42-10.08-2.1V825.6a10.54,10.54,0,0,1,3.16.26C16.57,831.4,31,832.49,45,835.43c1.82.39,3.64,1.15,5.44,1.11,14-.32,28.26,2,42-2.54a7,7,0,0,1,1.57-.28c14-1.13,27.11-5.48,39.94-10.55,12.64-5,25.45-9.37,38.35-13.59a41.17,41.17,0,0,1,7-1.54c5.25-.74,10.69-.69,15.75-2.08,8.64-2.36,16.94-.84,25.18,1.14,13.74,3.29,26.67,9,39.8,14.12,8.17,3.18,16.24,6.64,24.43,9.76a303.16,303.16,0,0,0,48.31,13.48c7.53,1.51,15.16,2.66,22.79,3.43,9,.9,18,1.19,27,1.77.79.06,1.57.31,2.36.4a77.23,77.23,0,0,0,8.68.93c17.59.1,35.19.08,52.78,0a57,57,0,0,0,7.15-.51c6.05-.76,12.05-2.07,18.11-2.37a179.54,179.54,0,0,0,36-6c9.5-2.46,18.88-5.46,28.13-8.72,13.8-4.86,27.37-10.24,39.94-18,15.45-9.5,28.57-21.08,37.71-37A117.32,117.32,0,0,0,621.32,761a110.09,110.09,0,0,0,7.45-40.47A35.85,35.85,0,0,0,623,700.91c-3.64-5.56-7.43-11-11.48-16.3s-9-9.14-15.38-11c-5.86-1.66-11.72-3.85-17.72-4.45-7.87-.79-15.89-1.23-23.79,1-8.69,2.43-17.48,4.52-26.28,6.55q-20.94,4.82-41.94,9.33c-6.48,1.38-13,3.15-19.58,3.32-13.8.35-27.67,1.45-41.4-1.36a88.27,88.27,0,0,1-24.78-8.55c-5.14-2.8-8.35-7.08-10.3-12.62-1.64-4.67-1.57-9.41-1.62-14.19-.06-6.13.59-12.37-.34-18.36a206.4,206.4,0,0,0-6.31-28.73c-4.24-13.83-13.42-23.4-27.68-27.39-2.53-.71-5.3-.5-7.88-1.07-13.12-2.92-25.48-.3-36.95,5.93-14.56,7.92-27,18.56-38.21,30.86-9,9.84-18.57,19.13-28.18,28.36a42.06,42.06,0,0,1-18.79,10.16c-5.79,1.52-9.86-.14-12.8-5.36A25.92,25.92,0,0,1,208,634.14c0-6.13-.22-12.27,0-18.39.34-10-2.81-18.83-8.5-26.87-1.37-1.94-2.68-4.1-4.52-5.51-8-6.13-17.41-8-27.11-6.87a73.61,73.61,0,0,0-28.46,9.85c-7.83,4.6-15.65,9.44-21.21,16.68-8.75,11.39-17.79,22.5-27,33.54-7.75,9.31-16.76,17.06-25.82,24.84-4.2,3.61-9.12,6.4-13.74,9.54a16.43,16.43,0,0,1-12.25,2.42c-9-1.45-17.72-3.6-25.1-9.41-2.71-2.13-5.69-3.93-8.39-6.09A7.49,7.49,0,0,0,0,656V638.4c12.47-.67,24-4.67,34.84-10.5,11.61-6.21,21.61-14.43,30.73-23.93a129.36,129.36,0,0,0,25.74-38.21c4-9.25,7.24-18.89,10.37-28.49a66.16,66.16,0,0,0,2.69-31.41C101.83,489.55,93.11,478,79.5,469.69c-3.11-1.9-6.86-3.58-10.41-3.77-9-.48-18.22-1.05-27.1.23-11.52,1.66-22.8,5.1-34.19,7.71-2.57.58-5.2.9-7.8,1.34V440c2,.59,4.09,1.17,6.12,1.77a97.72,97.72,0,0,0,30.59,4.48c3.42-.08,6.8-1.11,10.23-1.31,9.74-.56,18.72-3.74,27.43-7.79s16.39-9.68,23.89-15.77a83,83,0,0,0,16.84-18.95c6.41-9.67,11.17-20,9.82-32.15-.29-2.64,0-5.34-.14-8a25.25,25.25,0,0,0-.87-5.48,123,123,0,0,0-10.19-25.1c-6.57-11.86-13.22-23.65-18.84-36-6.62-14.57-12.27-29.38-15.41-45.14-2.61-13.12-3.52-20.77-2.73-32.93a67.58,67.58,0,0,1,21.91-46.43c3.65-3.42,8.07-6,12.21-8.93a71,71,0,0,1,28.69-11.4,49.89,49.89,0,0,1,18.23.35c9.67,2,17.73,7.57,23.6,15.44,8.32,11.14,15,23.23,18,37.06q.84,3.88,1.54,7.8c2,11,3.84,21.94,4,33.14,0,2.89.74,5.78.83,8.68.14,4.49.1,9,0,13.48-.06,2.1-.69,4.19-.78,6.29-.29,7.16-.34,14.28-1.38,21.45-1.19,8.12-2.05,16.29-3.5,24.38-3,16.73-7,33.24-11.58,49.6-2.52,8.94-5.26,17.83-7.62,26.82-4,15.39-7.8,30.84-10.13,46.64-1.32,8.93-3,17.78-2.8,26.86.13,7.46,0,14.93.08,22.39a28.73,28.73,0,0,0,.26,5.58c3.24,15.48,7.89,30.44,17.84,43.09,5.79,7.36,12.4,13.85,21.4,17.48a63.73,63.73,0,0,0,24.11,4.39,60.89,60.89,0,0,0,33.84-10.2,105.71,105.71,0,0,0,31.42-31.3A155,155,0,0,0,316,480.05c1.55-5.08,2.74-10.29,4.59-15.26,5.86-15.74,9.25-32.14,13.4-48.34.19-.77.24-1.58.38-2.36,1.66-9.68,1.85-19.52,3-29.26,1-8.4,2.67-16.83,2-25.4a14.92,14.92,0,0,1,.35-3.16c.9-6.29,2.19-12.55,2.61-18.87a32.19,32.19,0,0,1,5.08-15.78c6.4-9.79,13-19.52,21.76-27.41,2.77-2.49,5.7-4.78,8.55-7.17,4.48-3.76,8.71-7.87,13.47-11.22,14.34-10.11,28.89-19.91,42.5-31,6.6-5.37,13.42-10.49,19.12-16.86,2.3-2.58,4.33-5.38,6.58-8,4.34-5,9.05-9.78,13.05-15.07C482.05,192.15,491,179,496.5,163.74c5.62-15.53,10.36-31.26,10.78-48a12.6,12.6,0,0,1,.33-4c1.38-3.62.89-7.36,1.14-11.06.31-4.59-1-9-1.35-13.44-.43-5.82-.58-11.61-1.6-17.43a176.09,176.09,0,0,0-7.08-28.56A142.84,142.84,0,0,0,481.58,7.16C480.06,5,478.35,2.88,478.4,0h67.2c-.5,4.54,2,8.21,3.71,12,4.17,9.22,8.57,18.33,13,27.44a253,253,0,0,1,15.34,39.37,339.56,339.56,0,0,1,10,45.08c1.71,11.55.66,22.8-.75,34.13a56.4,56.4,0,0,1-3.22,13.13c-6.39,16.68-15.83,31.48-29.52,43.05A301.13,301.13,0,0,1,514,243.14a178.12,178.12,0,0,0-20.13,14.35c-10.6,8.51-20,18.32-29.75,27.81-16,15.62-28.44,33.76-38.32,53.69-3.3,6.67-6,13.64-8.7,20.58a333.91,333.91,0,0,0-15.67,53.52c-3.4,16.67-6.18,33.42-8.15,50.31a347.24,347.24,0,0,0-2.84,35.73c-.22,16.25,1.09,32.37,2.9,48.51A126.35,126.35,0,0,0,402,582.36c6,14.4,14.45,27.16,27.19,36.82A107.82,107.82,0,0,0,452,632.28c16.76,7.21,34,11.62,52.6,9.73a95.94,95.94,0,0,0,26.95-6.61,81.78,81.78,0,0,0,36.3-29.1c11.63-16.43,17.5-35.14,18-55.38.14-6.65,0-13.32-.15-20-.05-2.39-.38-4.77-.62-7.15-.82-8.19-1.75-16.37-2.46-24.56-.81-9.36.44-18.67,1.84-27.82A182.58,182.58,0,0,1,599.45,422,221.92,221.92,0,0,1,623,383.11,183.22,183.22,0,0,1,651,353.52c12.94-11.12,25.65-22.44,37.57-34.64,10.85-11.1,19.87-23.59,28.06-36.72a69,69,0,0,1,4.92-7.26,77.18,77.18,0,0,0,9.72-15.55c4.81-10.09,9.47-20.26,14.41-30.29a149.44,149.44,0,0,0,12.63-35.23c1.9-9.09,3.46-18.27,4.61-27.48a59.63,59.63,0,0,0,0-15.16c-2.08-15.73-8.2-29.63-19.71-40.91-5.71-5.6-11.35-11.28-16.84-17.08a86.86,86.86,0,0,1-8.66-10.42c-3.48-5.07-6.45-10.62-6.95-16.83a105.46,105.46,0,0,1,.69-25.46c1.54-9.49,4.14-18.68,6.26-28C718.57,8.36,719.22,4.16,720,0h43.2c.13,5.86-.79,12,.59,17.51C767,30.38,770.61,43.18,777,55.05a61.71,61.71,0,0,0,18.89,21.13A52.33,52.33,0,0,0,812.3,84c7.69,2.17,15.37,4.52,23.27,5.29,12.78,1.26,25.53.6,37.74-4.15,3.22-1.25,6.63-2.08,9.68-3.65a93.57,93.57,0,0,0,20.66-14.85,114.84,114.84,0,0,0,17.68-21.52,83.18,83.18,0,0,1,10.43-13.08c3.64-3.68,7.94-5.51,13-4.72,7.14,1.12,14.15,3.05,20,7.48a159.34,159.34,0,0,1,14.49,12.5c9,8.68,17.75,17.61,26.59,26.45a20.71,20.71,0,0,1,2.65,3A156.6,156.6,0,0,0,1022.55,94a128.86,128.86,0,0,0,10.76,10.54c5.21,4.55,10.12,9.47,15.61,13.65,12.83,9.79,27,17.32,42.95,20.16,6.54,1.17,12.84,3.15,19.36,4.22,2.09.34,4.12,1.23,6.21,1.36,13.1.81,26.06.17,38.56-4.38,1.73-.63,3.39-1.46,5.06-2.24,9.19-4.33,17.1-10.7,25.59-16.14a58.72,58.72,0,0,0,8-6.48c5.52-5.1,9.4-11.51,13.61-17.65a70,70,0,0,0,12.6-39.67c0-3.68.93-7.35,1.1-11,.27-6.08,1-12.23-1-18.2-2.57-7.55-5.2-15.07-7.63-22.66-.55-1.72-.41-3.66-.59-5.5h76.8c-.29,4.21-2.86,7.39-5,10.69-12.1,18.5-24.63,36.73-35.27,56.16a210.28,210.28,0,0,0-16.62,38c-7.1,22.65-11,46-15,69.36-2,11.78-3.57,23.65-5.26,35.49a291.09,291.09,0,0,0-2.84,31.76c-.45,13.65,1.13,27.12,3.4,40.5,2.24,13.17,5.82,26,12.44,37.75,7.85,14,18,25.87,31.81,34.08,19.21,11.39,38.49,11.14,57.16-1.43,11.37-7.65,17.67-19,21.43-31.83,5.06-17.26,5-34.69.7-52.09-4.11-16.86-10.54-32.95-16.54-49.18-5.45-14.73-11.18-29.44-13.64-45-2.11-13.33-4.64-26.51-2.83-40.37A99.65,99.65,0,0,1,1322.29,87,30.26,30.26,0,0,1,1336,76.43c6.59-2.53,12.5-1.67,17.86,3a43.47,43.47,0,0,1,12.76,18.07,102.23,102.23,0,0,1,5,21.7,141,141,0,0,1-1.07,44.51c-3,16.2-6.87,32.24-10.06,48.41-1.91,9.64-3.9,19.33-3.55,29.25.15,4.23,1,8.44,1.28,12.68,2.47,32.38,30.85,56.68,55.5,60.27,13.21,1.93,24.22-2,32.91-11.92a57,57,0,0,0,10.17-17.07,79.2,79.2,0,0,0,5-20.08c1.17-11.1,1.87-22.32-1.1-33.37-1.24-4.62-2.43-9.28-3.22-14-1.4-8.39-2.52-16.82-3.68-25.24a99.48,99.48,0,0,1,1-34.1,45.77,45.77,0,0,1,10-20.54c1.37-1.63,3-3,4.32-4.71,2.12-2.72,4.58-5.33,6-8.41a217.18,217.18,0,0,0,9.29-22.92,48,48,0,0,0,1.16-26.82c-5.1-19.91-17.11-34.08-36.51-41.39a26.45,26.45,0,0,1-15-13.59c-2.34-4.77-4.37-9.72-6.27-14.69-.63-1.66-.42-3.64-.6-5.48h54.4A25.66,25.66,0,0,0,1483,4.5c2.74,5.17,5.49,10.35,8.48,15.39,9.82,16.55,21.12,31.92,35.09,45.34A120.14,120.14,0,0,0,1560.13,88c6.79,3.12,13.92,5.58,21.38,6.18,19.73,1.57,35.94-6.14,49-20.43,6.08-6.66,10.89-14.4,15.15-22.46,8.63-16.34,14.81-33.6,19.93-51.28h80c-.58,6.07-1.43,12.13-1.66,18.21-.28,7.45,0,14.91-.06,22.37-.09,7,1.38,13.72,2.63,20.49,2.51,13.53,8.24,25.82,15,37.62,6.57,11.46,15,21.23,26.71,27.94,12.86,7.4,26,9.22,39.39,1.79a47.8,47.8,0,0,0,11.37-8.64,72.26,72.26,0,0,0,16.89-29.49c4.34-14.56,4.13-29.47,2.9-44.32-.45-5.54-.93-11.09-1.25-16.65-.25-4.23-.7-8.45-1-12.67a22.39,22.39,0,0,1,.09-3.17c.32-4.49.67-9,1-13.48h20.8c-1.71,5.58-3.44,11.15-5.14,16.73-2.07,6.79-1.86,13.8-.59,20.54,2.5,13.26,16.73,21.23,25.69,21.94,13.86,1.11,26.36-2.28,36.54-12.32a29.83,29.83,0,0,1,3.55-3.21c15.07-10.67,21-26.19,23.15-43.68H2000V110.4c-16.28-7.94-33.67-11.4-51.57-12.66-10.8-.75-21.27,1.32-31.32,5a63.54,63.54,0,0,0-15.56,8c-9.79,7.18-16.23,17.47-23.12,27.24a17.74,17.74,0,0,0-2.08,5.16c-2.41,8.16-5,16.28-7,24.54a72.68,72.68,0,0,0-2,15c-.34,12-.27,24-.28,36a96,96,0,0,0,.43,13.58c1.91,13.41,3.56,26.9,6.45,40.11,3.87,17.68,8.92,35.07,18,51,4.22,7.4,8.42,14.85,12,22.56a222.1,222.1,0,0,0,20.63,36,166.68,166.68,0,0,0,40.07,39.77c11,7.7,23,13.39,35.37,18.37v36.8c-2.1.24-4.21.41-6.3.74-4.46.72-8.88,1.86-13.36,2.23-19.86,1.61-38.71-1.66-56.09-11.95-8.79-5.2-17.07-11.09-23.36-19.15-11-14.1-20.72-29-27.46-45.74a176.82,176.82,0,0,1-12.4-51.78c-.66-7.94-.68-15.91-1.41-23.88-.95-10.31-.79-20.7-1.73-31.07-1-10.58-1.84-21.16-3.27-31.7a167.6,167.6,0,0,0-10-38.52c-5-12.8-11.72-24.49-22.42-33.53-7.55-6.38-15.84-10.34-26-10.47a49.55,49.55,0,0,0-23.84,5.39,100.34,100.34,0,0,1-22.37,8.37A28.9,28.9,0,0,1,1730.5,194c-7.35-3.39-13.9-7.89-18.38-14.87a16.56,16.56,0,0,1-1.07-2.15c-2.47-5.43-3-11.37-3.36-17.12-.34-5.23.56-10.63,1.54-15.83,2.21-11.75,4.88-23.41,7.24-35.13s5.65-23.21,7.28-35.12a84.81,84.81,0,0,0-.77-28.53c-1.16-5.78-3-11.33-6.86-16a22.28,22.28,0,0,0-17.21-8.66c-7.88-.29-14.67,2.22-21,6.53a128.72,128.72,0,0,0-12.13,9.1,88.21,88.21,0,0,0-9.92,10.35c-6.72,8.21-8.71,18.21-9.26,28.38-1,18.37.18,36.73,1.64,55.05.8,10.06,1.83,20.1,2.83,30.14.83,8.19,1.78,16.37,2.66,24.56.78,7.17,1.16,14.33-.84,21.41-1.11,3.88-2.15,4.83-6,5.17a12.07,12.07,0,0,1-8.91-2.6,123.47,123.47,0,0,1-19.55-18.81c-6.67-7.95-12.88-16.29-19.16-24.55-8.72-11.47-18-22.47-28.59-32.24-10-9.18-21.33-15.93-34.76-18.66-9.52-1.94-18.46-.58-26.6,5.19-6.77,4.79-11.21,11.31-14.42,18.75a84.31,84.31,0,0,0-6.73,29.41,184.65,184.65,0,0,0,2.76,44.5,188.6,188.6,0,0,0,28,69.09c10.51,15.78,22.57,30.24,37.23,42.51,10.7,9,21.93,16.92,34.61,22.73,9.47,4.34,19.15,8,29.73,8.6a102.31,102.31,0,0,0,40-5.63q18.48-6.4,37.15-12.26c7.85-2.46,15.78-4.93,24.2-4.51,7.62.38,14.74,2.31,20.63,7.43a59,59,0,0,1,13.1,16,81.36,81.36,0,0,1,8.48,20.64c2.5,10.6,5,21.24,6.55,32,.91,6.24.46,12.79-.2,19.12-1.3,12.53-5.73,24.29-9.93,36.07-8.67,24.32-17.29,48.66-23.87,73.65-4.89,18.6-8.12,37.42-7.39,56.77.19,5.06.14,10.13.15,15.19,0,11.51,1.89,22.77,4.35,33.95,3.89,17.6,11.36,33.79,20,49.45a87.72,87.72,0,0,0,15.31,20.38,81.1,81.1,0,0,0,26.8,17.09,74.22,74.22,0,0,0,45.43,3.47,50.41,50.41,0,0,0,17.55-7.44A38.27,38.27,0,0,0,1874.53,704a43.28,43.28,0,0,0-.33-21.38c-2.58-10-5.44-20-7.94-30.09-3.21-12.93-5.52-26-5.23-39.41.1-4.23,1-8.44,1.18-12.68a91.53,91.53,0,0,1,5.42-26.49c7.67-21.52,24.51-31.59,45.91-34.57,12.85-1.8,23,5.1,32,13.51,1.47,1.38,2.32,3.57,3.08,5.53a45.28,45.28,0,0,1,1.91,6.91c2,9.61,4,19.24,6,28.86a63.17,63.17,0,0,0,10.65,23.86c8.12,11.5,18.46,19,32.77,20.32v14.4a63.21,63.21,0,0,1-6.06-3.75c-4-3.12-7.66-6.58-11.67-9.64-9.92-7.57-20-15-30.86-21.14-13.86-7.83-28.41-13.17-44.76-12a16.86,16.86,0,0,0-11.39,4.86,40,40,0,0,0-11.88,25.49c-.82,9.79-.17,19.69-.13,29.54a13.44,13.44,0,0,0,.44,3.15c3,11.54,5,23.3,9.69,34.41s8.51,22.36,14.17,32.93c1.87,3.52,4.21,6.8,5.89,10.4a159.59,159.59,0,0,0,14.41,23.86c6.91,9.85,14.75,18.86,24.72,25.73,9,6.18,17.94,12.37,27.3,17.89,6.36,3.75,13.4,6.37,20.13,9.49v97.6a16.55,16.55,0,0,1-3.17-.24,349.79,349.79,0,0,1-44.53-15,121.9,121.9,0,0,1-25-14,33.65,33.65,0,0,1-10.37-12c-3.17-6.3-5.44-12.7-4.88-19.88.18-2.39-.09-4.81,0-7.2.55-9.66-1-19-3.36-28.37a73.46,73.46,0,0,0-27.7-41.75,199.55,199.55,0,0,0-57-29.89,322.34,322.34,0,0,0-36.18-9.47,129.83,129.83,0,0,0-23.63-2.93c-5.84-.14-11.62.6-17.44,1.19a70.27,70.27,0,0,0-22.11,6.18c-4.73,2.17-9.8,4.59-11.78,10.15a143.92,143.92,0,0,0-4.69,14.35,24.85,24.85,0,0,0-.66,10.23c2,10.43,4.45,20.91,9,30.51,9.4,19.73,19.3,39.22,29.28,58.66,4.16,8.1,8.37,16,7.93,25.5,0,1,.61,2.08.58,3.12-.1,4.48,0,9.18-2.57,13-4.34,6.58-10,11.71-17.85,14-2.29.67-4.63,1.2-7,1.73-10.08,2.31-20,5.44-30.56,5a5.66,5.66,0,0,0-2.36.32c-3.58,1.51-7.34,1.19-11,1.19-20,0-40,.11-60-.17a86.13,86.13,0,0,0-25.15,3.47c-10.2,2.95-18.36,8.55-21.67,19.31-1,3.28-1.44,6.74-2.3,10.08-2.25,8.78.78,16.36,6,23a55,55,0,0,0,16.49,13.71,211.83,211.83,0,0,0,20.61,10.45c17,7.31,34.74,11.44,52.82,14.67,5.27.94,10.66.73,15.79,1.79,10.76,2.22,21.69,1.27,32.52,2.54,13.41,1.57,27.08-.55,40.6,1.76,7.29,1.25,14.79,1.26,22.19,1.83a8.27,8.27,0,0,1,7.4,5.24,23.08,23.08,0,0,1,1.65,3.63c2.41,10,9.5,16.79,17.23,22.34,13.42,9.65,27.91,17.24,44.55,20.54a192.06,192.06,0,0,0,36.27,4.12c3.73,0,7.46,0,11.2,0a38.17,38.17,0,0,0,4.78-.25c6.82-.9,13.64-1.88,20.45-2.81,3.41-.47,6.81-1,10.23-1.32,3.18-.25,6.54-.8,9.55-.08,6.6,1.57,13.23,1.32,19.86,1.33a19.78,19.78,0,0,1,10,2.51c5.28,3.06,10.34,6.52,15.34,10,3.68,2.58,7.13,5.49,10.68,8.26v137.6c-1.59,0-3.19.12-4.78.12-17.55,0-35.13-1.21-52.62,1.38-6,.9-12.16,1.38-18.1,2.71-11.92,2.67-23.86,5.37-35.57,8.81-23.54,6.91-46.49,15.31-67.23,28.85-17.83,11.65-33.14,25.77-44.38,44-5.52,9-9.46,18.67-10.54,29a84.35,84.35,0,0,0,6.86,43.64,110.11,110.11,0,0,0,56.39,55,137.17,137.17,0,0,0,33.74,9.21,141.3,141.3,0,0,0,48.37-1.46c15.87-3.25,31.59-7.2,47.4-10.77a101.32,101.32,0,0,1,26.89-2.84c4.52.2,9,.16,13.57.22v160c-9.87-11.16-19.83-22.13-33.09-29.59-19.38-10.9-39.73-17.77-62.26-16.89-15.44.61-27.47,7.26-36.28,19.93-4.32,6.22-6.6,13.34-9,20.38-4,11.84-7.67,23.79-11.37,35.73a99.84,99.84,0,0,1-9.12,20.37c-3.75,6.49-8.29,12.36-14.86,16.37-9.24,5.64-18.5,6.13-27.86.42-2.27-1.38-4.48-2.88-6.64-4.43q-20.37-14.73-40.69-29.52c-15.34-11.18-31.62-20.74-49.35-27.56-20.27-7.8-41.22-12.16-63.1-11.74-15.75.3-31.19,1.84-46.44,6.15-21.26,6-39.41,17.21-55.58,31.82-15,13.54-26.14,30.1-35.51,47.84-8.09,15.32-14.36,31.45-20.35,47.68a352.22,352.22,0,0,0-14.21,49.81c-2.33,11.15-4.72,22.33-5.49,33.78-.58,8.72-2.46,17.39-2.6,26.11-.29,18.07-.93,36.15,1,54.23,1,9,1.93,17.92,3.23,26.86a218.53,218.53,0,0,0,13.9,50.61c1.88,4.67,3.73,9.36,5.59,14h-54.4c-.27-1.57-.44-3.15-.82-4.69-2.59-10.33-5-20.72-5.44-31.38-.45-12.78-.24-25.58-.35-38.38-.07-8.56,1.56-16.92,2.73-25.35,1.87-13.42,4.92-26.67,5.7-40.25.32-5.57,1-11.12,1.62-16.66.78-6.59,1.78-13.16,2.57-19.75.69-5.81,1.6-11.62,1.77-17.45.3-10.66.51-21.34,0-32a69.72,69.72,0,0,0-7.25-28.42,36.84,36.84,0,0,0-12.27-14.44,54.6,54.6,0,0,0-31.69-9.35c-14.91.14-27.18,6.56-36.39,18.52-6.62,8.6-9.07,18.56-9.67,29.09-.38,6.65-.42,13.32-.31,20a114.81,114.81,0,0,1-1.4,19.08c-.6,4-1.75,7.61-4.9,10.5a21.93,21.93,0,0,1-8.8-9.57c-3-5.93-6.07-11.86-8.84-17.92-3.23-7.07-4.9-14.66-6.05-22.28-1.45-9.71-2.35-19.52-3.27-29.31a294.55,294.55,0,0,0-6.83-41.67c-4.57-18.94-10.63-37.34-20.82-54.18-12.38-20.47-30.15-33.34-53.38-38.8-10.63-2.5-21.1-2.42-31.23,2.06-11,4.89-19.42,12.9-26.19,22.76-9.45,13.79-13.83,29.34-15.07,45.73-1.1,14.62-1,29.32,1.78,43.79a344.27,344.27,0,0,0,11.54,44.79c6.52,19.54,15.79,37.86,25.7,55.83a179,179,0,0,0,14.76,22.77,612.34,612.34,0,0,0,42.6,49.72c9.93,10.39,19.54,21.11,28.88,32,10.35,12.11,18,25.81,20.92,41.66,1.8,9.57,1.46,19.07-2.2,28.27-.68,1.72-1.23,3.5-1.84,5.25h-80c-1-4.39-2-8.8-3.1-13.15a59.92,59.92,0,0,0-2.58-7.47c-1.2-2.94-2.76-5.73-3.9-8.69-3.43-9-6.87-17.89-12.28-25.91-3.27-4.84-7-9.48-9.46-14.73s-6.11-9.92-9.44-14.57c-5.4-7.53-11.85-14.3-17.93-21.33-4.69-5.43-9.67-10.62-14.19-16.19-7.69-9.5-15.11-19.21-22.65-28.83a12.48,12.48,0,0,1-1.4-1.93c-2.34-4.46-4.79-8.88-6.92-13.45-2.95-6.34-7.25-11.72-11.43-17.23a117.33,117.33,0,0,1-7.92-11.92c-5.67-9.71-9.54-20.2-12.72-30.95-1-3.32-2.3-6.55-3-9.91-1.61-7.25-2.88-14.57-4.41-21.83a87.66,87.66,0,0,1-2.36-20.54c.11-3.73.59-7.61-.23-11.17-1.64-7.14-.88-14.32-1.28-21.47-.62-11.14.46-22.26-1.25-33.47s-2.82-22.67-5.49-33.74c-2-8.48-4.67-16.86-9.5-24.45a208.08,208.08,0,0,0-13-18.11,83.11,83.11,0,0,0-21.93-19.48,28.67,28.67,0,0,0-6.6-2.62c-5.84-1.8-12-2.82-17.52-5.33-9.07-4.12-18.44-5-28.07-4.31-12,.84-22.86,4.79-31.29,13.83-3.44,3.69-7,7.38-9.73,11.58-3.44,5.31-6.5,10.82-7.9,17.28a180.86,180.86,0,0,0-4.44,36.26c0,2.66.08,5.34-.15,8-.61,6.75-2.68,13-7.09,18.29-1.44,1.72-2.93,2.19-4.94,1.32a43.82,43.82,0,0,1-4.22-2.25c-8.25-4.74-14.45-11.75-20.1-19.12-6.31-8.22-11.87-17-18.72-24.83-9.33-10.71-19.37-20-32.49-26.22-18.55-8.79-37.69-10.61-57.53-7.31a166.47,166.47,0,0,0-22.42,5.45,66.22,66.22,0,0,0-17.87,8.65c-2.18,1.5-4,3.58-6.08,5.17-9.69,7.24-16.75,16-18.75,28.48a50.44,50.44,0,0,0,0,18.17c2.47,12.45,8.13,23.54,14.88,34.15a259.37,259.37,0,0,0,17.85,24.47,147.38,147.38,0,0,0,18.66,19.55c3.83,3.25,7.3,6.95,11.27,10,7.14,5.52,14.3,11.09,21.89,15.94,6.47,4.14,13.57,7.26,20.35,10.92,9.37,5,18.83,9.92,28,15.34a84.57,84.57,0,0,1,16,11.87c11.23,10.91,19.36,23.92,26.62,37.6,5.86,11,6.08,22.45,2.32,34-4.58,14.15-12.41,26.41-22.59,37.18-4.57,4.83-9.79,9-14.61,13.54-9.32,8.79-20.25,15.46-29.74,24-10.67,9.65-21.51,19-30.2,30.6-9.08,12.09-13.16,25.91-14.33,40.77H721.6a24.06,24.06,0,0,1,0-4c1.18-7.87,2.3-15.76,3.73-23.59,1.77-9.7,3.06-19.4,2.79-29.3-.18-6.65-.06-13.32,0-20a84.38,84.38,0,0,0-1.69-19c-2.55-11.51-5.89-22.69-13-32.35-2.19-3-5-5.54-7.2-8.53a72.85,72.85,0,0,0-20-18.09c-9.49-6.06-19.48-9.5-30.92-8.66-4.41.33-8.59,1.07-12,3.63-10.29,7.62-17,17.55-17.77,30.68A89.91,89.91,0,0,0,627.8,1897a27.94,27.94,0,0,1,1,6.27c0,4.77-3.3,6.66-7.4,4.23-3-1.76-5.72-3.89-8.69-5.66-3.65-2.18-7.35-4.24-11.88-4.14-7.18.16-14.31.21-21.44,1.48-13.94,2.48-24.51,9.78-32.41,21.28-6.34,9.22-9.48,19.77-10.68,30.59-1.32,11.87-1.3,24,2.8,35.53,1.6,4.51,3.28,9,4.92,13.47H475.2c-.16-.78-.08-1.74-.52-2.3-2.93-3.77-5.79-7.63-9-11.12-4.71-5.08-9.76-9.85-14.61-14.8a121.29,121.29,0,0,0-38.66-26.36,101.57,101.57,0,0,0-31.61-7.64,77.93,77.93,0,0,0-23,1.45c-13.43,2.76-25.21,8.59-34.57,18.59-11.07,11.83-16.62,26.38-19.19,42.18H206.4c-5.82-18.21-11.26-36.56-17.59-54.59-5.63-16-12.63-31.53-22.79-45.39-9.39-12.81-20.53-23.57-34.6-31.21-14.42-7.83-29.35-11.18-45.9-8.35-15.34,2.63-28.79,8.78-41.35,17.61-7.26,5.1-13,11.77-19.35,17.8-5.32,5-9,11.15-12,17.73a12,12,0,0,0-1.47,4.51c-.11,6.92-.95,14,.27,20.72A291.35,291.35,0,0,0,23,1983.51Q25.87,1991.76,28.8,2000Zm814.58-574.36c2.68-4.73,1.79-9-1.76-12.85-.56-2.32-1.09-4.65-1.68-7-2.59-10.31-5.3-20.57-9.4-30.44-4.27-10.32-8-20.85-12.18-31.21a118.28,118.28,0,0,0-5.64-11.47,10,10,0,0,0-3.06-3.58c-4.49-2.94-9.35-5.37-14.71-5.86a58.51,58.51,0,0,0-29.51,5.19c-4.74,2.13-8.68,5.47-10.64,10.35a169.32,169.32,0,0,0-7.43,21c-2.63,10.27-4.43,20.75-6.5,31.16a72.09,72.09,0,0,1-5.81,17.34c-4.09,8.42-10.43,13.93-19.8,15.73a17,17,0,0,0-5.22,1.85c-7.14,4.12-14.3,8.23-21.26,12.64-9.66,6.13-19.19,12.45-27.38,20.59-3.77,3.74-8,7-11.74,10.78-5.2,5.32-10,11-15.16,16.4-4.22,4.44-8.62,8.72-13,13a19.17,19.17,0,0,0-5.25,7.9c-2.4,7.61-4.79,15.22-7,22.89a47.59,47.59,0,0,0-1.19,7.83c-1.18,10.84,1,21.2,4.89,31.23,4.64,12,11.72,22.15,23.48,28.16,8.42,4.3,16.86,4.54,24.81-1.37,2.12-1.58,4.45-3.06,6.11-5.06,4.22-5.12,8.59-10.21,12.06-15.84,6.7-10.87,13.38-21.73,21.66-31.51,9.66-11.41,21.22-19.94,36-23.78,13.12-3.42,26.59-5,39.81-7.81,8.82-1.9,17.69-3.7,26.32-6.29,10.13-3,19.16-8.33,25.3-17.2,10.74-15.52,15.8-33,16.1-51.77C844.64,1433,843.8,1429.33,843.38,1425.64Zm359.77-393.08c-.1-12.76.29-25.5-1.13-38.28a207.88,207.88,0,0,0-4.47-26.67c-1.32-5.42-2.77-10.81-3.81-16.28-1-5-1-10.07-2.18-15-4-17.35-7.81-34.8-14.27-51.46a174.54,174.54,0,0,0-11.24-23.75,193.74,193.74,0,0,0-21.93-30.36,106,106,0,0,0-34.61-26.45c-18.17-8.76-36.62-7.93-54.89-.4-14.89,6.14-26.59,16.67-36.71,28.87a74.8,74.8,0,0,0-14.41,28.31c-3.2,11.73-2.94,23.9-1.39,35.73,1.76,13.39,5.28,26.55,7.92,39.83,1.6,8.06,3,16.16,4.44,24.26.91,5.23,1.82,10.46,2.45,15.73.85,7.12,1.86,14.25,2,21.4.24,10.62.67,21.25-1,31.89-.89,5.73-.64,11.64-1.87,17.42-2.33,11-5.59,21.74-11.25,31.43-11.34,19.41-28,31.83-50.38,35.73-11.52,2-21.55-.88-29.81-9.55-5.3-5.56-8.29-12.36-11-19.31-5.47-14-7.56-28.78-7.84-43.74-.13-7.14.74-14.31,1.25-21.45.62-8.75.87-17.56,2.13-26.23,1.53-10.49,3.33-21,5.49-31.37a577.3,577.3,0,0,1,16.14-60c8.41-26.11,19.53-51.18,29.57-76.66,4.68-11.88,9.52-23.72,13.57-35.83s7.34-24.44,10.69-36.76c2.65-9.74,4.91-19.67,5.5-29.72,1.11-19.15,1.49-38.37-4.53-57-1.8-5.55-3.5-11.26-6.22-16.37C967,627.26,942,618.78,917.35,630.09c-13.66,6.28-24.39,16-33.34,27.84a225.12,225.12,0,0,0-29.45,52c-4.67,11.6-9.92,23-14.68,34.53A307.43,307.43,0,0,0,827.1,780.5c-2.18,7.94-4.19,15.93-6.23,23.91-1.71,6.69-3.3,13.41-5,20.1-3.46,13.38-6,27-11,40a53.68,53.68,0,0,1-6.47,12.75c-6.77,9.19-13.64,18.31-23.07,25.22-9,6.61-17.58,13.87-27.34,19.37Q728.16,933,709.23,945.6a159.63,159.63,0,0,0-28.15,23.47c-3.28,3.5-6.88,6.7-10.13,10.23-4.69,5.07-9.41,10.16-13.75,15.53-13.69,17-23.36,36.15-30.9,56.5a264.05,264.05,0,0,0-13.23,53.3,162.27,162.27,0,0,0-1.79,17.44c-.34,8.52-.11,17.06-.25,25.59a196.93,196.93,0,0,0,3.21,36.49c3.66,21.45,11.28,41.6,20.12,61.23a156.86,156.86,0,0,0,22,35.13c11.43,13.88,25.37,24.22,42.95,29.14a51,51,0,0,0,36.5-3.06,17.13,17.13,0,0,0,7.31-6,65.42,65.42,0,0,1,15.43-16,21.43,21.43,0,0,0,4.15-4.73c4.86-6.81,7.31-14.76,10.36-22.41,5.51-13.84,10.37-27.94,16.19-41.65,6.19-14.56,14.59-27.8,26.35-38.69a33,33,0,0,1,10.85-6.51c5.1-2,9-.36,12.08,3.38a37.74,37.74,0,0,1,5.47,8.76,126.9,126.9,0,0,1,8.95,32.14c1.43,9.46,2.16,19,3.52,28.45,1.44,10.06.87,20.15,2.34,30.2s.83,20.15,1.64,30.25c1,13,2.05,25.94,3.26,38.91a303.39,303.39,0,0,0,5.22,34.64,152.27,152.27,0,0,0,17.76,46.83,83.55,83.55,0,0,0,16.49,20.44c11,9.64,23.46,15.41,38.5,14.6a72.76,72.76,0,0,0,21.69-4.89c8.24-3.1,15.65-7.79,22.84-12.9a87.79,87.79,0,0,0,22.15-22.76,51.23,51.23,0,0,0,9-27.72c.62-25.8,1.32-51.65-2.89-77.29-.48-2.88-1-5.75-1.47-8.63-1.94-12.06-3.89-24.11-5.77-36.17-1.91-12.34-4-24.66-4.16-37.19-.07-6.13.14-12.27-.11-18.4-.43-10.18,3.69-18.7,9.65-26.42a20.71,20.71,0,0,1,7.94-6.45c11.31-4.65,22.3-4.43,32.12,4,3,2.59,6,5.31,9,7.88,5.08,4.26,10.14,8.57,15.38,12.65,6.63,5.14,14.65,7.47,22.31,10.5a58.37,58.37,0,0,0,24.23,4c15.32-.62,27.61-7.12,37.47-18.55,2.77-3.23,4.88-7.09,7.91-10,5.58-5.4,8-12.47,11.32-19.13a62,62,0,0,0,2.38-5.92c3.78-10.22,7.87-20.32,9.66-31.17,1.12-6.81,2.52-13.57,4-20.31a289.66,289.66,0,0,0,5-29c1-9,1.48-18,1.79-27C1203.38,1049.63,1203.15,1041.09,1203.15,1032.56ZM1675.8,1558.7c7.62,3.77,15.73,7.72,23.78,11.8a113.57,113.57,0,0,1,10.45,5.86c10.49,6.82,21.13,13.38,31.9,19.78,16.65,9.9,34.67,14.61,53.68,16.42a11.75,11.75,0,0,0,3.19,0c8.1-1.44,16.28-2.35,23.9-5.93,9.89-4.65,17.11-11.55,20.57-22.11a105.06,105.06,0,0,0,3.7-17.12c2.28-15,1.79-29.71-4-44a61.51,61.51,0,0,0-16.38-23.34c-9.4-8.3-20.13-14.83-30.75-21.46-6.32-3.94-12.94-7.68-18.4-12.64-12.62-11.46-24.92-23.3-34.62-37.51-7.08-10.37-11.31-21.66-11.65-34.27a88.4,88.4,0,0,1,1.38-18.26,121.81,121.81,0,0,1,13.41-37.39q8.68-15.74,17.22-31.56c2.28-4.22,4.23-8.62,6.61-12.78,7.68-13.43,14.83-27.08,20.1-41.69,4.88-13.54,9.56-27,10.49-41.6a113.08,113.08,0,0,0-.08-20.57c-2-16.88-10.71-30.08-22.32-41.32-13-12.64-29.47-19-47.42-20.8-15.86-1.62-31.39.23-46.16,6.59a65.38,65.38,0,0,0-21.18,14.07c-9.87,10.09-16.33,22.27-20.88,35.51-1.9,5.54-3.76,11.1-5.21,16.77-2,7.71-3.65,15.51-5.2,23.32-2.13,10.69-3.79,21.47-7.78,31.7-4.3,11-11.36,19-23,22.72a116,116,0,0,1-15.54,3.44c-7.68,1.33-15.39,1-23.09.31-9-.8-17.95-2-26.95-2.57-7.17-.44-14.39-.06-21.59-.25-16.76-.42-32.81,3.42-48.48,8.62a279.26,279.26,0,0,0-43.87,19.21c-14.14,7.58-27.38,16.5-38.43,28.3q-6.82,7.27-13.3,14.87a186.05,186.05,0,0,0-21.35,30.83c-9.13,16.56-17.87,33.36-26.07,50.4a224.18,224.18,0,0,0-15.76,43.47c-2.8,11.37-4.61,22.87-6.37,34.44-1.52,10-.75,20.17-2.44,30.2-1.15,6.78.06,13.77,1,20.65.92,6.57.83,13.33,2.22,19.79,4.66,21.69,11.46,42.65,23.13,61.75,4.45,7.28,9.14,14.42,14.94,20.7,10,10.77,22.26,18.16,35.86,23.32,17.38,6.6,34,3.54,50.07-4.71a27.84,27.84,0,0,0,5.68-4.35c8.69-7.82,14.64-17.42,18.76-28.34,4.79-12.7,9.68-25.37,15.67-37.59,3.86-7.88,7.07-16.08,10.73-24.07,3.77-8.24,7.72-16.4,13.27-23.65,8.49-11.07,19-19.31,32.55-23.28,2.2-.64,4.15-.89,6.14.18,9.33,5,19.38,8.93,27,16.76,3.91,4,7.8,8.05,11.93,11.83a168.08,168.08,0,0,0,13.41,11.31,147.41,147.41,0,0,0,16.65,11c10.35,5.69,21.15,10,33.41,7.06.77-.19,1.61-.06,2.39-.21,14.11-2.7,25.06-10,32.16-22.59,2.08-3.71,3.68-7.69,5.64-11.48C1671.68,1562.17,1672.49,1559.77,1675.8,1558.7ZM676.68,631.83c0,10.11-.3,20.23,1.69,30.24.26,1.3.18,2.66.47,3.95,2.51,11.14,4.77,22.35,7.67,33.39,4.62,17.62,11.57,34.25,22.13,49.28,7,9.94,15.17,18.5,25.68,24.7,8.2,4.83,17,8,26.57,7.14A64.93,64.93,0,0,0,786.76,773c14.77-8.05,25.55-20,32.79-35,6.2-12.79,9.69-26.44,9.4-40.84-.14-6.66.45-13.44-.62-19.95-2-12-4.44-24-6.49-36.05a99.7,99.7,0,0,1-.73-25.45c.75-8.73,2.76-17.33,7.44-25,1.52-2.49,2.67-5.21,4-7.82a80.21,80.21,0,0,1,27.86-31.13,54.23,54.23,0,0,1,33.33-9,131.65,131.65,0,0,1,22,3.35c23.44,5.29,46.11,12.84,67.54,23.9,5.91,3,12,5.72,18.12,8.37,13.53,5.89,27.55,5.57,41.45,2.08,8.35-2.09,15.06-7.22,17.19-16.14,2-8.5,1.46-16.95-3.23-24.69a41.14,41.14,0,0,0-4.09-5.91c-3.75-4.29-6.09-9.39-8.3-14.51a29,29,0,0,1,.92-26.13c7.29-14,19-22,33.92-25.62,6.68-1.64,13.59-2.35,20.43-3.31,8.14-1.15,16.29-2.25,24.46-3.11,12.84-1.36,23.92-7,34.47-13.88,8.45-5.5,12.45-13.69,12.42-23.65a43.12,43.12,0,0,0-10-28c-1.69-2.05-3.19-4.27-5-6.17-3.9-4-7.87-7.93-12-11.69-5.58-5.11-12.58-7.93-19.21-11.31-9.34-4.78-15.94-12.32-20.92-21.32a18.4,18.4,0,0,1-2.47-11.5c1.8-12.53,5.75-24.43,12.74-35,6.88-10.37,11.13-21.74,14.74-33.45,1.74-5.63,2.89-11.43,2.12-17.31-1-7.36-1-14.83-2.94-22.07-3.58-13.31-8.57-25.78-19.58-34.93-1.84-1.53-3.4-3.39-5.15-5a74.94,74.94,0,0,0-25.56-16c-17.59-6.4-35.56-11.11-54.57-9.84-2.12.14-4.27,0-6.39.13-2.64.22-5.26.6-7.88,1a183.64,183.64,0,0,0-26.3,6.4,57.33,57.33,0,0,0-16.5,7.74c-5,3.57-9.68,7.55-14.92,10.62-9.79,5.71-17.7,13.67-25.79,21.29-5.75,5.42-10.17,12.26-15.11,18.52-4.45,5.64-8.58,11.54-13.23,17-9.16,10.77-21.31,16.62-34.84,19.62a215.58,215.58,0,0,1-24.37,3.8c-12.43,1.29-24.78,3.07-37.32,2.79a28.71,28.71,0,0,0-6.33.59,98.57,98.57,0,0,0-30.63,11.12c-8.53,5-16.48,10.48-22.6,18.64-4.33,5.79-8,11.87-11.86,17.92-4,6.27-5.77,13.08-7.43,20.07-.55,2.32-1.13,4.63-1.57,7-.68,3.64-1.19,7.31-1.89,10.95a36.54,36.54,0,0,0,0,15.75,21,21,0,0,1,.12,3.19c1.47,16.86,8.86,30.39,22.56,40.45,8.7,6.38,18.64,9.07,29.17,9.44,10.38.36,20.78,0,31.18,0a29.46,29.46,0,0,0,4-.19Q823.78,421,842,416.63c12.64-3.07,25-7.27,38-9.07,13.84-1.92,27.58-2.08,41.25.69,9.87,2,16.51,7.77,20,17.48,2.63,7.28.41,13-4,18.44a23.48,23.48,0,0,1-4.89,4.06,79.15,79.15,0,0,1-30,12.49c-4.41.89-9,1-13.37,2-9,2.07-18.15,1.93-27,.89-12-1.4-23.92-1-35.88-1.22a99.74,99.74,0,0,0-15.86,1.26,150.36,150.36,0,0,0-50.51,16.58c-11.75,6.34-22.84,13.62-32.2,23.33-6.84,7.1-14,13.92-20.85,21a85.49,85.49,0,0,0-18.75,30.36,151.52,151.52,0,0,0-8.15,34c-1.7,13.74-3.21,27.45-3,41.3C676.69,630.76,676.68,631.3,676.68,631.83Zm771.39-221.39c0,3.91.06,7.38,0,10.84a47.92,47.92,0,0,1-6.21,22.86,25.41,25.41,0,0,1-14.29,12.09c-4.18,1.41-8.34,1.41-12.6,1.5a13.61,13.61,0,0,1-10.11-4c-4-3.92-8.18-7.71-11.63-12.09a135.7,135.7,0,0,0-17.74-19.25A118.78,118.78,0,0,0,1326.33,397c-14.1-3.6-27.29-1.49-40.08,5.31a110.13,110.13,0,0,0-22.48,16.42,138.69,138.69,0,0,0-15.15,16.4c-8.45,10.68-16.25,21.6-21.21,34.49-4.54,11.79-6.36,24.08-8.12,36.42-.59,4.18-.43,8.42-1.21,12.66-.72,3.83,0,7.93.17,11.9.12,2.11.83,4.2.83,6.29,0,12.92,3.13,25.28,6.76,37.5a173.69,173.69,0,0,0,25.48,51.24,156.1,156.1,0,0,0,14.36,18.08,73.33,73.33,0,0,0,32.37,19.62c9.89,2.93,19.9,3.49,29.89.62a66.08,66.08,0,0,0,20.6-10.26,143.76,143.76,0,0,0,12.32-10.13c5.89-5.36,12.11-10.52,17.22-16.58,9.51-11.27,19.69-21.59,32.45-29.21,12.17-7.26,24.55-13.59,38.87-15.83,14-2.19,27.54-1.79,40.72,3.61,6.29,2.58,11.69,6.42,14.6,12.86,3.2,7.07,3.33,14.56,1.7,21.91a51.34,51.34,0,0,1-11.11,22.75q-11.2,13-22.69,25.7c-5.16,5.72-10.68,11.09-15.61,17.08-10,12.12-19.83,24.25-28,37.7a366.93,366.93,0,0,0-19.7,37.44,113.93,113.93,0,0,0-8.52,24.86c-1.12,5.45-1.73,11-2.92,16.44-1.78,8.2-1.58,16.51-.58,24.64A85.91,85.91,0,0,0,1408,859.31a65.34,65.34,0,0,0,25.62,25.54c13.88,7.66,29,9.9,44.47,11,11,.82,21.73-1.12,32.41-3.21A148.56,148.56,0,0,0,1574.58,862c8.16-6.64,15.35-14,21-22.76,8.82-13.78,15.44-28.38,17.62-44.91,1.46-11.08,3.09-22.07,2.87-33.27-.06-3.2.11-6.4,0-9.59q-.81-19.51-1.74-39c0-.79-.19-1.58-.29-2.37-.91-7.63-2.1-15.24-2.65-22.89-.6-8.47.43-17-1.57-25.44a12.93,12.93,0,0,1-.06-4c.43-5,1.27-10,1.34-15a109.82,109.82,0,0,1,4.51-28.2c3.8-13.69,10.36-25.62,20.57-35.42,9.62-9.23,18.59-19.07,27.26-29.15,8.83-10.26,17.3-20.89,25.28-31.83,9.59-13.16,17.44-27.33,22.09-43.12a159.69,159.69,0,0,0,3.59-17.12,79.54,79.54,0,0,0,.38-27c-2.59-15.24-9.08-28.91-21.38-39.06-14.36-11.85-29.92-16.31-48.14-9-12.88,5.2-25.31,11.23-37.65,17.48a139.72,139.72,0,0,1-33.74,11.92,21.66,21.66,0,0,1-16.8-2.93,43.27,43.27,0,0,1-11.52-10.89c-5.94-7.87-8.44-17.18-10.86-26.41a278.12,278.12,0,0,0-8.08-26.65c-3.79-10.22-9.34-19.27-17.87-26-7.82-6.2-16.81-10.4-27.07-10.36-10.85.06-20.93,2.8-30,9.14a22.88,22.88,0,0,0-9.11,11.75,50.28,50.28,0,0,0-2.36,12.45c-.68,10.7,1.71,21.13,3.73,31.53C1446.23,386.06,1448.65,398.29,1448.07,410.44Zm-216,1015.18h-.16c0-6.93.1-13.87,0-20.8-.1-5.66,1.14-11.06,2.6-16.47,2.6-9.64,9.53-15,18.1-18.87a16.42,16.42,0,0,1,12.44-.31,37.76,37.76,0,0,1,12,6.16,84.93,84.93,0,0,0,7.63,5.78c4.93,3.14,9.83,6.39,16.15,6.06a29.56,29.56,0,0,0,10.68-3c7.8-3.51,13.51-9.59,18.13-16.44,9.92-14.71,16.38-31.06,20.73-48.18,6.08-23.94,10.15-48.3,14.43-72.61a173.71,173.71,0,0,1,14.83-46.17c6-12.26,13.9-23.22,22-34.14,8.32-11.17,19.44-18,31.83-23.18a36.7,36.7,0,0,1,10.82-2.52,63.7,63.7,0,0,1,28.28,3.55c6.21,2.34,12.1,5.51,18.23,8.08,7.85,3.29,15.71,6.55,23.7,9.46a27.8,27.8,0,0,0,18.06.22,32.41,32.41,0,0,0,15.17-10c9.48-11.09,13.24-24.24,12.88-38.4a159.65,159.65,0,0,0-2.12-23,206,206,0,0,0-8.36-32.33c-3.36-9.69-9-18.11-14.7-26.43a67.48,67.48,0,0,0-27.54-23.65c-9.27-4.26-18.32-3.28-26.1,3.48-8.14,7.09-14.44,15.65-17.83,26-2.73,8.34-5.79,16.63-7.7,25.17-2.59,11.6-10.29,17.76-20.72,21a18.73,18.73,0,0,1-11-.19c-11-3.72-19.71-10.29-24.55-21.35a57.24,57.24,0,0,1-4.65-19.28,160,160,0,0,1,4-45.91c2.83-12.53,7.2-24.5,12.08-36.29a58.53,58.53,0,0,0,4.57-28.06,31,31,0,0,0-8-18.72c-7.06-7.68-16.11-11.38-26.23-11.88-15.13-.75-28.18,4.94-39.22,15-11.44,10.41-18.52,24-25.34,37.51a151.22,151.22,0,0,0-10.43,27.56,241,241,0,0,0-9.16,60.47c-.06,3.47-.14,6.94,0,10.4.48,9,.8,18.06,1.77,27,1.15,10.54,3,21,4.39,31.52,1.78,13.14,2.85,26.42,5.37,39.42,2.09,10.81.77,21.29-1.19,31.64a164.19,164.19,0,0,1-11.22,35.71c-3.79,8.57-8.86,16.42-15.94,22.73-5.65,5-11.86,7.4-19.78,5.44a73.38,73.38,0,0,1-18.46-7.37c-8.81-5-17.39-10.34-26.23-15.24-9-5-18.86-7.87-29.15-6.29-14.18,2.17-27,8.31-38.42,16.8a178.77,178.77,0,0,0-33,32.35c-10.55,13.25-18.59,27.92-25.34,43.31a148.92,148.92,0,0,0-9.43,27.94c-2,9.08-3.43,18.23-4.85,27.41-1.55,10-.73,19.66,1,29.29,1.07,5.93,3,11.83,7,16.82,7,8.82,14.36,10,22.46,8.15a55.24,55.24,0,0,0,25.62-14,320.6,320.6,0,0,0,28.49-31.24c5.38-6.58,11.17-12.87,17.15-18.91,3.33-3.38,7.38-6.06,11.21-8.92a6,6,0,0,1,9.51,5.08,107.32,107.32,0,0,1-2.84,22.88c-2,8.26-3.79,16.57-5.46,24.9-3,14.83-5.81,29.68-8.68,44.53-1.46,7.57-2.83,15.15-2.62,22.92.09,3.46.12,6.93,0,10.39-.3,7.22,2,13.69,5.8,19.62a95.71,95.71,0,0,0,9,12.15,44.71,44.71,0,0,0,8.48,7.2c6.26,4.26,12.19,3.56,18.06-1.71,7-6.27,9.31-14.8,11.32-23.33,2.59-11,2-22.22,1.63-33.39-.12-4-1.12-7.9-1.24-11.86C1231.94,1439.49,1232.09,1432.55,1232.09,1425.62Zm-825.6-198.43c8.19,1.07,17.32-.93,26.29-3.38,9.21-2.52,18.47-5.12,26.39-10.94,6.8-5,12.74-10.88,15.43-18.87,2.44-7.23,4.49-14.76,3.92-22.64a66.26,66.26,0,0,1,0-8.8c.71-10.92-2.37-21-6.34-31-1.38-3.46-2.27-7.12-3.81-10.49-2.05-4.47-.79-8.63,1.57-12.09,2.19-3.2,5.51-5.71,8.64-8.14a10.26,10.26,0,0,1,5.23-1.64c7.55-.68,14.8.27,21.68,3.85a138.91,138.91,0,0,1,25.56,17.61c6.49,5.49,12.89,11.15,20.32,15.36,8.28,4.7,16.88,5,24.92-.36,4.86-3.22,9.21-7.31,11.84-12.74,1.39-2.86,3.22-5.76,3.61-8.8,1.25-9.7.38-19.21-5.43-27.57-4.09-5.88-8.13-11.82-13.4-16.8-3.68-3.48-7.06-7.29-10.82-10.67a32,32,0,0,1-8.93-14c-2-6.19-2.82-12.85,1.89-18.21,5.24-6,10.67-11.86,17.36-16.43,9-6.14,17.94-12.37,26.64-18.91,6-4.5,11.63-9.62,13-17.55a70.56,70.56,0,0,0,.79-11.9c0-12.57-8-27.31-18.49-34.59a77,77,0,0,0-18.44-9.38A92.6,92.6,0,0,0,555,913.26c-5.29-.58-10.54-1.58-15.84-1-6.84.69-13.61,2.14-20.45,2.8-10.88,1-21.42,3.61-32,6.2-11.59,2.84-23,6-35.29,5.45a67.82,67.82,0,0,1-22.37-5.12c-13.6-5.52-26-13.38-38.22-21.49-10.85-7.22-21.43-14.83-32.31-22a104.63,104.63,0,0,0-16-9c-11.91-5.13-23.52-11.41-37-11.78-9-3-18-.86-26.74,1.13-19.18,4.38-35.15,14.91-49.27,28.2-12.7,11.95-20.69,26.88-25.75,43.46-2,6.69-3.11,13.57-1.84,20.48,3.92,21.28,16.54,36.12,35.81,44.87,13.08,5.94,27,9.67,41.67,9.48a42.71,42.71,0,0,1,7.11.77,50.82,50.82,0,0,0,17.44-.06,44.67,44.67,0,0,1,6.31-.73c4.52-.15,9-.7,13.44-1.29,14.78-2,29.2-5.46,43.6-9.07a100.77,100.77,0,0,1,20.45-2.72c6.87-.3,12.57,2.22,17.95,5.66,4.29,2.74,8,6.47,8.49,12a35.23,35.23,0,0,1-1,12.63c-3.05,10.86-8.94,19.7-17,27.47-12.26,11.85-26.91,18.83-43.34,22.42-12.76,2.79-25.19,6.38-36.9,12.36-16.38,8.36-22,22.78-23.13,39.89,1.43,8.64,2.64,17.34,6.63,25.31,2,4,4.13,8.06,6,12.16,4.67,10,11.39,18.58,18.43,26.91a66.67,66.67,0,0,0,10.88,10.56c10.43,7.76,20.88,15.42,33.23,20.29C380.15,1224.19,392.17,1227.93,406.49,1227.19Zm814.63-439c3.27,1.91,5.33,3,7.27,4.27,6.78,4.4,12.4,10.16,17.52,16.27a161.1,161.1,0,0,0,22.14,21.79,54.21,54.21,0,0,0,23.36,11.53c13.87,2.88,25.51-1.82,32.7-13.84a33,33,0,0,0,3.71-7.94c3.44-12.43,3.26-24.76-2.45-36.55-3.12-6.45-6.83-12.63-10.32-18.91a21,21,0,0,0-2.32-3.24c-6-7.08-12-14.24-18.16-21.19-10.13-11.38-22.53-20.29-33.87-30.35a195.79,195.79,0,0,1-28.11-30.35c-6.16-8.34-10.45-17-12.26-27.25-2.11-11.94-7.3-22.77-13.89-32.87a76.21,76.21,0,0,0-8.74-11.36c-11-11.32-23.84-19.11-39.86-21.66-12.37-2-22.59,1.45-31.5,9.57a65.1,65.1,0,0,0-8.18,9.76c-10.94,14.91-15.24,31.38-11.39,49.72.77,3.64,1.37,7.32,1.78,11,.68,6.06-2.08,10.32-8,12a36.84,36.84,0,0,1-9.4,1.33c-8.8.12-17.59-.14-26.39-.11a38.88,38.88,0,0,0-19,5.35c-8.06,4.49-13.16,11.51-16.6,19.82-7.7,18.59-3.77,37.16,13.39,49.63,14.28,10.39,30.7,15.89,48.1,18,9.74,1.18,19.63,1.15,29.46,1.64,2.13.11,4.26.11,6.39.19a26.1,26.1,0,0,1,18.46,8.11c8.76,9,16.35,18.81,21.68,30.38,4.77,10.38,9,21,15.22,30.75,6.34,9.86,12.62,19.77,21.52,27.6a40.27,40.27,0,0,0,30.9,10.35c10.49-.83,19.66-11.15,18.9-20.2-.44-5.11-1-9.92-3.21-14.65-3.77-8-9.29-14.9-13.84-22.41-4-6.59-7.9-13.25-11.51-20.06C1222.24,799.92,1221,795.05,1221.12,788.23ZM542.65,1319.76c-2.36.14-5,.35-7.57.42a53.55,53.55,0,0,0-22.32,5.14c-3.35,1.64-6.66,3.36-10,5-7.27,3.43-12.35,9-16,16-6.48,12.66-8.54,26.29-8,40.19.34,8.76,2.6,17.39,8.57,24.4,2.42,2.84,5,5.52,7.68,8.13a56.45,56.45,0,0,0,25.14,14.69c11,3,21.86,6.65,32.58,10.55,7.73,2.82,15.16,6.44,22.67,9.84,5.17,2.34,10.48,4.26,16.17,3.11a33.4,33.4,0,0,0,15.77-7.32c4.09-3.61,6.8-8,7.23-13.7,1.06-14.27-2.37-27.33-9.33-39.76-4-7.15-7.33-14.7-10.79-22.15-1.09-2.33-2.31-4.79-1.61-7.77a19.68,19.68,0,0,1,15.17-2.71c9.86,2.15,19.63,1.66,28.54-3.74,3.82-2.32,7.43-4.78,10.34-8.55,4.42-5.71,5.46-12.39,5.4-18.78a41.18,41.18,0,0,0-7.06-22.53c-7.75-11.65-18.68-19.61-30.83-25.87a87.68,87.68,0,0,1-13.62-8.16c-6.3-4.88-12.14-10.34-15.66-17.82-3.28-7-6.92-13.75-10.29-20.68A65.6,65.6,0,0,0,557,1215.46a18.87,18.87,0,0,0-4.77-2.75c-11.31-4.54-24.84.15-31.65,9-10.86,14-14.8,29.61-9.48,47.14,2.77,9.14,7,17.16,14,23.72,4.47,4.2,8.81,8.53,13.1,12.9a35.68,35.68,0,0,1,4.46,5.58C544.36,1313.6,544.73,1316.41,542.65,1319.76Z"/><path class="cls-2" d="M0,1249.6c6.26,1.56,12.7,1.14,19.05,1.71,23.7,2.14,46.94,6.2,68.4,17.29a117.81,117.81,0,0,1,21.83,14.71,425.89,425.89,0,0,1,41.13,40.15c11.89,13.2,21.19,28,29.61,43.48,10.67,19.55,17,40.7,21.58,62.42,3.63,17.33,3.38,34.93,3.41,52.5,0,15.19-.73,30.42,0,45.57,1.12,22.74,5.79,44.83,15.66,65.54a78.33,78.33,0,0,0,12.06,18.75,32.91,32.91,0,0,0,10.95,7.81,14.92,14.92,0,0,0,10.92,1.14c11.21-3.64,21-9.31,25.2-21.31a73.13,73.13,0,0,0,2.43-10.07c2.28-11.54,3.49-23.24,2.29-34.94-1.42-13.74-3.25-27.47-7-40.83-2.37-8.45-4.76-16.91-7.35-25.29a434.14,434.14,0,0,1-12-48c-2-10.68-3.19-21.53-4.21-32.41a291.88,291.88,0,0,1-1-35.09c.41-15.34,3.41-30.13,11.91-43.32a71.81,71.81,0,0,1,25.75-24.49c13.37-7.42,27.66-10.64,42.89-10.7,11.25,0,22.36.35,33.11,4.09a19.39,19.39,0,0,0,4.7.76,57,57,0,0,1,23.43,7.33c2.79,1.56,5.54,3.2,8.36,4.69,25.35,13.32,42.9,33.72,54.05,59.84a129.32,129.32,0,0,1,9.19,30.5,29.12,29.12,0,0,1,.68,5.53c-.37,9.62,1.16,19.11,1.88,28.66.31,4,.94,7.91,1.51,11.86,2.45,17.1,5.07,34.17,9.41,50.93,3.95,15.26,11.36,28.63,21.06,40.86A22.08,22.08,0,0,0,505,1543q15.26,11.61,30.57,23.14c12.13,9.17,23.79,18.87,34,30.17a197.88,197.88,0,0,1,19.5,25.26c.87,1.34,1.46,2.94,2.57,4,6.18,6,10.24,13.6,15.24,20.49a32.4,32.4,0,0,1,4,6.86,261.14,261.14,0,0,1,16,60,41.57,41.57,0,0,1,.31,5.58c.09,8,.18,16,.18,24,0,7.46-.18,14.9-1.75,22.25-3.34,15.59-5.94,31.3-12.36,46.14a133.83,133.83,0,0,1-24.14,37.38c-5.19,5.7-10.09,11.83-16.75,15.93-15.61,9.59-32.23,16.33-50.8,17.4-4,.23-7.89,1.13-11.86,1.43-10,.76-19.61-1.33-29.05-4.24-14.56-4.47-28.41-10.33-41.32-18.73a80.17,80.17,0,0,0-31-12.15c-4.46-.71-8.91-1.51-13.32-2.5a14.85,14.85,0,0,0-9.35.94c-15.93,6.74-27.61,17.64-34.13,33.92a207.45,207.45,0,0,1-9.15,19.52c-5.65,10.74-14,19.39-22.63,27.76a164.83,164.83,0,0,1-13.71,12.17c-8.92,7-19.51,9.69-30.54,10.44-12.79.87-23.37-3.83-31.6-13.79-12.16-14.73-19.39-31.78-23-50.32-2.67-13.82-4.39-27.82-6.57-41.74-1.82-11.56-3.62-23.14-8-34.11-6.56-16.48-17.25-29.07-33.51-36.88-11.72-5.62-23.16-5-34.72-.07-7.7,3.29-14.06,8.59-20.45,13.84S104.66,1797.3,96.29,1799c-17.66,3.57-34.58-2.81-41.49-21.14a83.61,83.61,0,0,1-5.34-27.28c-.39-13.18.78-26.08,5.31-38.52,2.45-6.75,5.28-13.37,8.06-20C69,1677.33,75.18,1662.6,80,1647.34c5.31-16.76,9.09-33.89,12.82-51,2.39-11,3.12-22.1,4.39-33.18.5-4.42-.24-9-.61-13.5a115,115,0,0,0-1.46-11.86,66.75,66.75,0,0,0-11.33-26.21c-4.3-6.08-8.84-12-13.65-17.69a52.43,52.43,0,0,0-8.94-7.93,168.08,168.08,0,0,0-47.08-25A31.57,31.57,0,0,0,0,1459.2Z"/><path class="cls-3" d="M478.4,0c0,2.88,1.66,5,3.18,7.16a142.84,142.84,0,0,1,17.14,34.17,176.09,176.09,0,0,1,7.08,28.56c1,5.82,1.17,11.61,1.6,17.43.33,4.48,1.66,8.85,1.35,13.44-.25,3.7.24,7.44-1.14,11.06a12.6,12.6,0,0,0-.33,4c-.42,16.7-5.16,32.43-10.78,48-5.5,15.21-14.45,28.41-24.11,41.15-4,5.29-8.71,10-13.05,15.07-2.25,2.61-4.28,5.41-6.58,8-5.7,6.37-12.52,11.49-19.12,16.86-13.61,11.1-28.16,20.9-42.5,31-4.76,3.35-9,7.46-13.47,11.22-2.85,2.39-5.78,4.68-8.55,7.17-8.79,7.89-15.36,17.62-21.76,27.41a32.19,32.19,0,0,0-5.08,15.78c-.42,6.32-1.71,12.58-2.61,18.87a14.92,14.92,0,0,0-.35,3.16c.66,8.57-1,17-2,25.4-1.13,9.74-1.32,19.58-3,29.26-.14.78-.19,1.59-.38,2.36-4.15,16.2-7.54,32.6-13.4,48.34-1.85,5-3,10.18-4.59,15.26a155,155,0,0,1-19.11,40.22,105.71,105.71,0,0,1-31.42,31.3,60.89,60.89,0,0,1-33.84,10.2,63.73,63.73,0,0,1-24.11-4.39c-9-3.63-15.61-10.12-21.4-17.48-10-12.65-14.6-27.61-17.84-43.09a28.73,28.73,0,0,1-.26-5.58c0-7.46.05-14.93-.08-22.39-.16-9.08,1.48-17.93,2.8-26.86,2.33-15.8,6.09-31.25,10.13-46.64,2.36-9,5.1-17.88,7.62-26.82C193,352.16,197,335.65,200,318.92c1.45-8.09,2.31-16.26,3.5-24.38,1-7.17,1.09-14.29,1.38-21.45.09-2.1.72-4.19.78-6.29.13-4.49.17-9,0-13.48-.09-2.9-.8-5.79-.83-8.68-.14-11.2-2-22.18-4-33.14q-.71-3.92-1.54-7.8c-3-13.83-9.67-25.92-18-37.06-5.87-7.87-13.93-13.48-23.6-15.44a49.89,49.89,0,0,0-18.23-.35,71,71,0,0,0-28.69,11.4c-4.14,2.89-8.56,5.51-12.21,8.93a67.58,67.58,0,0,0-21.91,46.43c-.79,12.16.12,19.81,2.73,32.93,3.14,15.76,8.79,30.57,15.41,45.14,5.62,12.38,12.27,24.17,18.84,36a123,123,0,0,1,10.19,25.1,25.25,25.25,0,0,1,.87,5.48c.16,2.65-.15,5.35.14,8,1.35,12.15-3.41,22.48-9.82,32.15a83,83,0,0,1-16.84,18.95c-7.5,6.09-15.15,11.7-23.89,15.77s-17.69,7.23-27.43,7.79c-3.43.2-6.81,1.23-10.23,1.31a97.72,97.72,0,0,1-30.59-4.48c-2-.6-4.08-1.18-6.12-1.77V110.4c3.65,1.55,7.31,3.06,10.93,4.67a35,35,0,0,0,13.85,2.75,45.85,45.85,0,0,0,7.83-1c6.66-1.06,12.84-3.24,17.88-8,9.66-9,12.24-20.4,9.63-32.78-1.68-8-4.59-15.77-7.46-23.45C46.89,37.16,39.78,22.32,32.57,7.53,31.41,5.15,30,2.83,30.4,0h176a444.71,444.71,0,0,0,17,48.09,97.87,97.87,0,0,0,17.22,26.69c6.21,7,15.67,9,22.43,5.43a38.21,38.21,0,0,0,10.76-8.08,95,95,0,0,0,15.34-23.2,157,157,0,0,0,11.53-36.37c.8-4.12,2.52-8.19,1.73-12.56Z"/><path class="cls-2" d="M1480,2000c-1.86-4.68-3.71-9.37-5.59-14a218.53,218.53,0,0,1-13.9-50.61c-1.3-8.94-2.25-17.89-3.23-26.86-2-18.08-1.34-36.16-1-54.23.14-8.72,2-17.39,2.6-26.11.77-11.45,3.16-22.63,5.49-33.78a352.22,352.22,0,0,1,14.21-49.81c6-16.23,12.26-32.36,20.35-47.68,9.37-17.74,20.53-34.3,35.51-47.84,16.17-14.61,34.32-25.81,55.58-31.82,15.25-4.31,30.69-5.85,46.44-6.15,21.88-.42,42.83,3.94,63.1,11.74,17.73,6.82,34,16.38,49.35,27.56q20.3,14.82,40.69,29.52c2.16,1.55,4.37,3,6.64,4.43,9.36,5.71,18.62,5.22,27.86-.42,6.57-4,11.11-9.88,14.86-16.37a99.84,99.84,0,0,0,9.12-20.37c3.7-11.94,7.38-23.89,11.37-35.73,2.37-7,4.65-14.16,9-20.38,8.81-12.67,20.84-19.32,36.28-19.93,22.53-.88,42.88,6,62.26,16.89,13.26,7.46,23.22,18.43,33.09,29.59v201.6a11.52,11.52,0,0,0-1.61,1.67q-12.47,19.44-26.67,37.65c-5.52,7.11-11.1,14.18-14.72,22.59a62.21,62.21,0,0,0-4.06,37.37c1.92,9.87,4.49,19.62,6.45,29.48,1.49,7.52,3.12,15.11,3.53,22.72.53,9.76,1.08,19.64-1.32,29.32H1880c3-7.71,7.88-14.35,12.34-21.22q3.67-5.65,7.08-11.47a7.68,7.68,0,0,0,.14-8.45c-9.22-1.83-17.24.62-24.22,6.65a45,45,0,0,0-9.34,10.75,64.46,64.46,0,0,0-8.4,23.74h-112c1-4.13,2.14-8.23,3-12.38a143.13,143.13,0,0,1,18.18-44.89c8.94-14.64,20.31-27.28,32.7-39.08a146.46,146.46,0,0,1,23.69-18.81c4.75-2.95,9.61-5.72,14.5-8.41,14.62-8,26.08-19.28,33.72-34.12a60.58,60.58,0,0,0,6.91-24.39c.32-5.84.09-11.72.14-17.58a22.07,22.07,0,0,0-6.55-15.8c-1.83-1.93-3.75-3.78-5.65-5.66a48.91,48.91,0,0,0-29.87-13.81,98.25,98.25,0,0,0-33.28,2.2c-19.13,4.53-35.44,14.19-49.76,27.39a235.32,235.32,0,0,0-28.18,31.49,156.43,156.43,0,0,0-20.72,35.86c-8.63,21.49-15.31,43.65-21.12,66-6.21,23.9-11.84,48-17.73,71.94Z"/><path class="cls-3" d="M763.2,2000c1.17-14.86,5.25-28.68,14.33-40.77,8.69-11.57,19.53-21,30.2-30.6,9.49-8.58,20.42-15.25,29.74-24,4.82-4.54,10-8.71,14.61-13.54,10.18-10.77,18-23,22.59-37.18,3.76-11.6,3.54-23-2.32-34-7.26-13.68-15.39-26.69-26.62-37.6a84.57,84.57,0,0,0-16-11.87c-9.15-5.42-18.61-10.3-28-15.34-6.78-3.66-13.88-6.78-20.35-10.92-7.59-4.85-14.75-10.42-21.89-15.94-4-3.07-7.44-6.77-11.27-10a147.38,147.38,0,0,1-18.66-19.55,259.37,259.37,0,0,1-17.85-24.47c-6.75-10.61-12.41-21.7-14.88-34.15a50.44,50.44,0,0,1,0-18.17c2-12.49,9.06-21.24,18.75-28.48,2.13-1.59,3.9-3.67,6.08-5.17a66.22,66.22,0,0,1,17.87-8.65A166.47,166.47,0,0,1,762,1574c19.84-3.3,39-1.48,57.53,7.31,13.12,6.21,23.16,15.51,32.49,26.22,6.85,7.87,12.41,16.61,18.72,24.83,5.65,7.37,11.85,14.38,20.1,19.12a43.82,43.82,0,0,0,4.22,2.25c2,.87,3.5.4,4.94-1.32,4.41-5.3,6.48-11.54,7.09-18.29.23-2.65.12-5.33.15-8a180.86,180.86,0,0,1,4.44-36.26c1.4-6.46,4.46-12,7.9-17.28,2.73-4.2,6.29-7.89,9.73-11.58,8.43-9,19.26-13,31.29-13.83,9.63-.67,19,.19,28.07,4.31,5.51,2.51,11.68,3.53,17.52,5.33a28.67,28.67,0,0,1,6.6,2.62,83.11,83.11,0,0,1,21.93,19.48,208.08,208.08,0,0,1,13,18.11c4.83,7.59,7.45,16,9.5,24.45,2.67,11.07,3.78,22.47,5.49,33.74s.63,22.33,1.25,33.47c.4,7.15-.36,14.33,1.28,21.47.82,3.56.34,7.44.23,11.17a87.66,87.66,0,0,0,2.36,20.54c1.53,7.26,2.8,14.58,4.41,21.83.74,3.36,2.06,6.59,3,9.91,3.18,10.75,7,21.24,12.72,30.95a117.33,117.33,0,0,0,7.92,11.92c4.18,5.51,8.48,10.89,11.43,17.23,2.13,4.57,4.58,9,6.92,13.45a12.48,12.48,0,0,0,1.4,1.93c7.54,9.62,15,19.33,22.65,28.83,4.52,5.57,9.5,10.76,14.19,16.19,6.08,7,12.53,13.8,17.93,21.33,3.33,4.65,7,9.2,9.44,14.57s6.19,9.89,9.46,14.73c5.41,8,8.85,17,12.28,25.91,1.14,3,2.7,5.75,3.9,8.69a59.92,59.92,0,0,1,2.58,7.47c1.15,4.35,2.08,8.76,3.1,13.15Z"/><path class="cls-4" d="M2000,638.4c-14.31-1.31-24.65-8.82-32.77-20.32a63.17,63.17,0,0,1-10.65-23.86c-2-9.62-4-19.25-6-28.86a45.28,45.28,0,0,0-1.91-6.91c-.76-2-1.61-4.15-3.08-5.53-9-8.41-19.16-15.31-32-13.51-21.4,3-38.24,13.05-45.91,34.57a91.53,91.53,0,0,0-5.42,26.49c-.19,4.24-1.08,8.45-1.18,12.68-.29,13.39,2,26.48,5.23,39.41,2.5,10.07,5.36,20,7.94,30.09a43.28,43.28,0,0,1,.33,21.38A38.27,38.27,0,0,1,1859,726.59a50.41,50.41,0,0,1-17.55,7.44,74.22,74.22,0,0,1-45.43-3.47,81.1,81.1,0,0,1-26.8-17.09,87.72,87.72,0,0,1-15.31-20.38c-8.67-15.66-16.14-31.85-20-49.45-2.46-11.18-4.34-22.44-4.35-33.95,0-5.06,0-10.13-.15-15.19-.73-19.35,2.5-38.17,7.39-56.77,6.58-25,15.2-49.33,23.87-73.65,4.2-11.78,8.63-23.54,9.93-36.07.66-6.33,1.11-12.88.2-19.12-1.56-10.76-4-21.4-6.55-32a81.36,81.36,0,0,0-8.48-20.64,59,59,0,0,0-13.1-16c-5.89-5.12-13-7.05-20.63-7.43-8.42-.42-16.35,2.05-24.2,4.51q-18.66,5.87-37.15,12.26a102.31,102.31,0,0,1-40,5.63c-10.58-.63-20.26-4.26-29.73-8.6-12.68-5.81-23.91-13.77-34.61-22.73-14.66-12.27-26.72-26.73-37.23-42.51a188.6,188.6,0,0,1-28-69.09,184.65,184.65,0,0,1-2.76-44.5,84.31,84.31,0,0,1,6.73-29.41c3.21-7.44,7.65-14,14.42-18.75,8.14-5.77,17.08-7.13,26.6-5.19,13.43,2.73,24.78,9.48,34.76,18.66,10.62,9.77,19.87,20.77,28.59,32.24,6.28,8.26,12.49,16.6,19.16,24.55a123.47,123.47,0,0,0,19.55,18.81,12.07,12.07,0,0,0,8.91,2.6c3.83-.34,4.87-1.29,6-5.17,2-7.08,1.62-14.24.84-21.41-.88-8.19-1.83-16.37-2.66-24.56-1-10-2-20.08-2.83-30.14-1.46-18.32-2.64-36.68-1.64-55.05.55-10.17,2.54-20.17,9.26-28.38a88.21,88.21,0,0,1,9.92-10.35,128.72,128.72,0,0,1,12.13-9.1c6.28-4.31,13.07-6.82,21-6.53a22.28,22.28,0,0,1,17.21,8.66c3.84,4.66,5.7,10.21,6.86,16a84.81,84.81,0,0,1,.77,28.53c-1.63,11.91-4.92,23.41-7.28,35.12s-5,23.38-7.24,35.13c-1,5.2-1.88,10.6-1.54,15.83.38,5.75.89,11.69,3.36,17.12a16.56,16.56,0,0,0,1.07,2.15c4.48,7,11,11.48,18.38,14.87a28.9,28.9,0,0,0,19.46,1.73,100.34,100.34,0,0,0,22.37-8.37,49.55,49.55,0,0,1,23.84-5.39c10.2.13,18.49,4.09,26,10.47,10.7,9,17.43,20.73,22.42,33.53a167.6,167.6,0,0,1,10,38.52c1.43,10.54,2.3,21.12,3.27,31.7.94,10.37.78,20.76,1.73,31.07.73,8,.75,15.94,1.41,23.88a176.82,176.82,0,0,0,12.4,51.78c6.74,16.7,16.46,31.64,27.46,45.74,6.29,8.06,14.57,13.95,23.36,19.15,17.38,10.29,36.23,13.56,56.09,11.95,4.48-.37,8.9-1.51,13.36-2.23,2.09-.33,4.2-.5,6.3-.74Z"/><path class="cls-4" d="M720,0c-.78,4.16-1.43,8.36-2.36,12.49-2.12,9.32-4.72,18.51-6.26,28A105.46,105.46,0,0,0,710.69,66c.5,6.21,3.47,11.76,6.95,16.83A86.86,86.86,0,0,0,726.3,93.2c5.49,5.8,11.13,11.48,16.84,17.08,11.51,11.28,17.63,25.18,19.71,40.91a59.63,59.63,0,0,1,0,15.16c-1.15,9.21-2.71,18.39-4.61,27.48a149.44,149.44,0,0,1-12.63,35.23c-4.94,10-9.6,20.2-14.41,30.29a77.18,77.18,0,0,1-9.72,15.55,69,69,0,0,0-4.92,7.26c-8.19,13.13-17.21,25.62-28.06,36.72-11.92,12.2-24.63,23.52-37.57,34.64A183.22,183.22,0,0,0,623,383.11,221.92,221.92,0,0,0,599.45,422a182.58,182.58,0,0,0-15.09,49.45c-1.4,9.15-2.65,18.46-1.84,27.82.71,8.19,1.64,16.37,2.46,24.56.24,2.38.57,4.76.62,7.15.13,6.66.29,13.33.15,20-.45,20.24-6.32,39-18,55.38a81.78,81.78,0,0,1-36.3,29.1A95.94,95.94,0,0,1,504.55,642c-18.63,1.89-35.84-2.52-52.6-9.73a107.82,107.82,0,0,1-22.79-13.1C416.42,609.52,408,596.76,402,582.36a126.35,126.35,0,0,1-8.61-34.72c-1.81-16.14-3.12-32.26-2.9-48.51a347.24,347.24,0,0,1,2.84-35.73c2-16.89,4.75-33.64,8.15-50.31a333.91,333.91,0,0,1,15.67-53.52c2.67-6.94,5.4-13.91,8.7-20.58,9.88-19.93,22.3-38.07,38.32-53.69,9.73-9.49,19.15-19.3,29.75-27.81A178.12,178.12,0,0,1,514,243.14a301.13,301.13,0,0,0,40.11-28.92c13.69-11.57,23.13-26.37,29.52-43.05A56.4,56.4,0,0,0,586.87,158c1.41-11.33,2.46-22.58.75-34.13a339.56,339.56,0,0,0-10-45.08,253,253,0,0,0-15.34-39.37c-4.4-9.11-8.8-18.22-13-27.44-1.73-3.81-4.21-7.48-3.71-12Z"/><path class="cls-5" d="M0,656a7.49,7.49,0,0,1,5.88,1.87c2.7,2.16,5.68,4,8.39,6.09,7.38,5.81,16.13,8,25.1,9.41A16.43,16.43,0,0,0,51.62,671c4.62-3.14,9.54-5.93,13.74-9.54,9.06-7.78,18.07-15.53,25.82-24.84,9.18-11,18.22-22.15,27-33.54,5.56-7.24,13.38-12.08,21.21-16.68a73.61,73.61,0,0,1,28.46-9.85c9.7-1.17,19.11.74,27.11,6.87,1.84,1.41,3.15,3.57,4.52,5.51,5.69,8,8.84,16.87,8.5,26.87-.2,6.12,0,12.26,0,18.39a25.92,25.92,0,0,0,3.65,12.92c2.94,5.22,7,6.88,12.8,5.36a42.06,42.06,0,0,0,18.79-10.16c9.61-9.23,19.21-18.52,28.18-28.36C282.58,601.6,295,591,309.6,583c11.47-6.23,23.83-8.85,36.95-5.93,2.58.57,5.35.36,7.88,1.07,14.26,4,23.44,13.56,27.68,27.39a206.4,206.4,0,0,1,6.31,28.73c.93,6,.28,12.23.34,18.36.05,4.78,0,9.52,1.62,14.19,1.95,5.54,5.16,9.82,10.3,12.62A88.27,88.27,0,0,0,425.46,688c13.73,2.81,27.6,1.71,41.4,1.36,6.55-.17,13.1-1.94,19.58-3.32q21-4.48,41.94-9.33c8.8-2,17.59-4.12,26.28-6.55,7.9-2.2,15.92-1.76,23.79-1,6,.6,11.86,2.79,17.72,4.45,6.4,1.81,11.41,5.81,15.38,11s7.84,10.74,11.48,16.3a35.85,35.85,0,0,1,5.74,19.63A110.09,110.09,0,0,1,621.32,761a117.32,117.32,0,0,1-7.88,17.37c-9.14,16-22.26,27.54-37.71,37-12.57,7.74-26.14,13.12-39.94,18-9.25,3.26-18.63,6.26-28.13,8.72a179.54,179.54,0,0,1-36,6c-6.06.3-12.06,1.61-18.11,2.37a57,57,0,0,1-7.15.51c-17.59,0-35.19.06-52.78,0a77.23,77.23,0,0,1-8.68-.93c-.79-.09-1.57-.34-2.36-.4-9-.58-18-.87-27-1.77-7.63-.77-15.26-1.92-22.79-3.43A303.16,303.16,0,0,1,284.43,831c-8.19-3.12-16.26-6.58-24.43-9.76-13.13-5.1-26.06-10.83-39.8-14.12-8.24-2-16.54-3.5-25.18-1.14-5.06,1.39-10.5,1.34-15.75,2.08a41.17,41.17,0,0,0-7,1.54c-12.9,4.22-25.71,8.6-38.35,13.59-12.83,5.07-26,9.42-39.94,10.55a7,7,0,0,0-1.57.28c-13.78,4.55-28,2.22-42,2.54-1.8,0-3.62-.72-5.44-1.11-14-2.94-28.4-4-41.81-9.57A10.54,10.54,0,0,0,0,825.6Z"/><path class="cls-6" d="M2000,1112c-3.55-2.77-7-5.68-10.68-8.26-5-3.51-10.06-7-15.34-10a19.78,19.78,0,0,0-10-2.51c-6.63,0-13.26.24-19.86-1.33-3-.72-6.37-.17-9.55.08-3.42.27-6.82.85-10.23,1.32-6.81.93-13.63,1.91-20.45,2.81a38.17,38.17,0,0,1-4.78.25c-3.74,0-7.47,0-11.2,0a192.06,192.06,0,0,1-36.27-4.12c-16.64-3.3-31.13-10.89-44.55-20.54-7.73-5.55-14.82-12.31-17.23-22.34a23.08,23.08,0,0,0-1.65-3.63,8.27,8.27,0,0,0-7.4-5.24c-7.4-.57-14.9-.58-22.19-1.83-13.52-2.31-27.19-.19-40.6-1.76-10.83-1.27-21.76-.32-32.52-2.54-5.13-1.06-10.52-.85-15.79-1.79-18.08-3.23-35.85-7.36-52.82-14.67a211.83,211.83,0,0,1-20.61-10.45,55,55,0,0,1-16.49-13.71c-5.2-6.63-8.23-14.21-6-23,.86-3.34,1.29-6.8,2.3-10.08,3.31-10.76,11.47-16.36,21.67-19.31a86.13,86.13,0,0,1,25.15-3.47c20,.28,40,.16,60,.17,3.71,0,7.47.32,11-1.19a5.66,5.66,0,0,1,2.36-.32c10.53.44,20.48-2.69,30.56-5,2.32-.53,4.66-1.06,7-1.73,7.8-2.29,13.51-7.42,17.85-14,2.53-3.84,2.47-8.54,2.57-13,0-1-.62-2.09-.58-3.12.44-9.48-3.77-17.4-7.93-25.5-10-19.44-19.88-38.93-29.28-58.66-4.58-9.6-7-20.08-9-30.51a24.85,24.85,0,0,1,.66-10.23,143.92,143.92,0,0,1,4.69-14.35c2-5.56,7.05-8,11.78-10.15a70.27,70.27,0,0,1,22.11-6.18c5.82-.59,11.6-1.33,17.44-1.19a129.83,129.83,0,0,1,23.63,2.93,322.34,322.34,0,0,1,36.18,9.47,199.55,199.55,0,0,1,57,29.89,73.46,73.46,0,0,1,27.7,41.75c2.36,9.32,3.91,18.71,3.36,28.37-.14,2.39.13,4.81,0,7.2-.56,7.18,1.71,13.58,4.88,19.88a33.65,33.65,0,0,0,10.37,12,121.9,121.9,0,0,0,25,14,349.79,349.79,0,0,0,44.53,15,16.55,16.55,0,0,0,3.17.24Z"/><path class="cls-7" d="M1291.2,2000c.61-1.75,1.16-3.53,1.84-5.25,3.66-9.2,4-18.7,2.2-28.27-3-15.85-10.57-29.55-20.92-41.66-9.34-10.92-19-21.64-28.88-32a612.34,612.34,0,0,1-42.6-49.72,179,179,0,0,1-14.76-22.77c-9.91-18-19.18-36.29-25.7-55.83a344.27,344.27,0,0,1-11.54-44.79c-2.76-14.47-2.88-29.17-1.78-43.79,1.24-16.39,5.62-31.94,15.07-45.73,6.77-9.86,15.15-17.87,26.19-22.76,10.13-4.48,20.6-4.56,31.23-2.06,23.23,5.46,41,18.33,53.38,38.8,10.19,16.84,16.25,35.24,20.82,54.18a294.55,294.55,0,0,1,6.83,41.67c.92,9.79,1.82,19.6,3.27,29.31,1.15,7.62,2.82,15.21,6.05,22.28,2.77,6.06,5.8,12,8.84,17.92a21.93,21.93,0,0,0,8.8,9.57c3.15-2.89,4.3-6.53,4.9-10.5a114.81,114.81,0,0,0,1.4-19.08c-.11-6.66-.07-13.33.31-20,.6-10.53,3-20.49,9.67-29.09,9.21-12,21.48-18.38,36.39-18.52a54.6,54.6,0,0,1,31.69,9.35,36.84,36.84,0,0,1,12.27,14.44,69.72,69.72,0,0,1,7.25,28.42c.47,10.64.26,21.32,0,32-.17,5.83-1.08,11.64-1.77,17.45-.79,6.59-1.79,13.16-2.57,19.75-.65,5.54-1.3,11.09-1.62,16.66-.78,13.58-3.83,26.83-5.7,40.25-1.17,8.43-2.8,16.79-2.73,25.35.11,12.8-.1,25.6.35,38.38.39,10.66,2.85,21,5.44,31.38.38,1.54.55,3.12.82,4.69Z"/><path class="cls-8" d="M1427.2,0c.18,1.84,0,3.82.6,5.48,1.9,5,3.93,9.92,6.27,14.69a26.45,26.45,0,0,0,15,13.59c19.4,7.31,31.41,21.48,36.51,41.39a48,48,0,0,1-1.16,26.82,217.18,217.18,0,0,1-9.29,22.92c-1.4,3.08-3.86,5.69-6,8.41-1.31,1.67-2.95,3.08-4.32,4.71a45.77,45.77,0,0,0-10,20.54,99.48,99.48,0,0,0-1,34.1c1.16,8.42,2.28,16.85,3.68,25.24.79,4.71,2,9.37,3.22,14,3,11.05,2.27,22.27,1.1,33.37a79.2,79.2,0,0,1-5,20.08,57,57,0,0,1-10.17,17.07c-8.69,10-19.7,13.85-32.91,11.92-24.65-3.59-53-27.89-55.5-60.27-.32-4.24-1.13-8.45-1.28-12.68-.35-9.92,1.64-19.61,3.55-29.25,3.19-16.17,7.08-32.21,10.06-48.41a141,141,0,0,0,1.07-44.51,102.23,102.23,0,0,0-5-21.7,43.47,43.47,0,0,0-12.76-18.07c-5.36-4.67-11.27-5.53-17.86-3A30.26,30.26,0,0,0,1322.29,87a99.65,99.65,0,0,0-18.75,46.89c-1.81,13.86.72,27,2.83,40.37,2.46,15.58,8.19,30.29,13.64,45,6,16.23,12.43,32.32,16.54,49.18,4.25,17.4,4.36,34.83-.7,52.09-3.76,12.82-10.06,24.18-21.43,31.83-18.67,12.57-38,12.82-57.16,1.43-13.84-8.21-24-20.12-31.81-34.08-6.62-11.79-10.2-24.58-12.44-37.75-2.27-13.38-3.85-26.85-3.4-40.5a291.09,291.09,0,0,1,2.84-31.76c1.69-11.84,3.22-23.71,5.26-35.49,4-23.32,7.88-46.71,15-69.36a210.28,210.28,0,0,1,16.62-38c10.64-19.43,23.17-37.66,35.27-56.16,2.16-3.3,4.73-6.48,5-10.69Z"/><path class="cls-6" d="M0,923.2c3.37.68,6.88.95,10.08,2.1,16.23,5.82,32.85,10.66,48.55,17.82,10.39,4.73,21,9,30.87,14.93,8.66,5.16,17.76,9.63,26.35,15,13.76,8.56,27.73,16.8,40.39,27,4.34,3.49,8.93,6.68,13.32,10.11a169.05,169.05,0,0,1,28.18,28.09c3.14,4,6.5,7.73,9.64,11.67a87.2,87.2,0,0,1,5.09,7.14c7.53,11.64,13.62,24.06,19.94,36.37,6.11,11.88,10.76,24.31,15.09,36.88a67.84,67.84,0,0,1,3.91,22.65c0,5.78.54,11.57-.18,17.36-1.71,13.78-4,27.33-12.61,38.92a99.75,99.75,0,0,1-17.26,17.64c-12.56,10.33-27.35,16.29-42.86,20.47a58,58,0,0,1-17.3,2.35c-6.12-.22-12.26,0-18.39,0a135.13,135.13,0,0,1-47.43-8.86,166.9,166.9,0,0,1-35.22-18.26,55.55,55.55,0,0,1-21.87-28.62c-3.16-9-5.71-18.24-9.53-27-1.9-4.38-3.71-8.81-5.54-13.23-2.94-7.12-5.84-14.26-8.78-21.39-2.47-6-6.85-10.68-10.88-15.59-.72-.88-2.35-1-3.56-1.49Z"/><path class="cls-2" d="M2000,1457.6c-4.52-.06-9,0-13.57-.22a101.32,101.32,0,0,0-26.89,2.84c-15.81,3.57-31.53,7.52-47.4,10.77a141.3,141.3,0,0,1-48.37,1.46,137.17,137.17,0,0,1-33.74-9.21,110.11,110.11,0,0,1-56.39-55,84.35,84.35,0,0,1-6.86-43.64c1.08-10.37,5-20.08,10.54-29,11.24-18.27,26.55-32.39,44.38-44,20.74-13.54,43.69-21.94,67.23-28.85,11.71-3.44,23.65-6.14,35.57-8.81,5.94-1.33,12.07-1.81,18.1-2.71,17.49-2.59,35.07-1.33,52.62-1.38,1.59,0,3.19-.08,4.78-.12Z"/><path class="cls-3" d="M1212.8,0c.18,1.84,0,3.78.59,5.5,2.43,7.59,5.06,15.11,7.63,22.66,2,6,1.26,12.12,1,18.2-.17,3.7-1.06,7.37-1.1,11a70,70,0,0,1-12.6,39.67c-4.21,6.14-8.09,12.55-13.61,17.65a58.72,58.72,0,0,1-8,6.48c-8.49,5.44-16.4,11.81-25.59,16.14-1.67.78-3.33,1.61-5.06,2.24-12.5,4.55-25.46,5.19-38.56,4.38-2.09-.13-4.12-1-6.21-1.36-6.52-1.07-12.82-3.05-19.36-4.22-16-2.84-30.12-10.37-42.95-20.16-5.49-4.18-10.4-9.1-15.61-13.65A128.86,128.86,0,0,1,1022.55,94a156.6,156.6,0,0,1-14.08-17.3,20.71,20.71,0,0,0-2.65-3C997,64.92,988.22,56,979.23,47.31a159.34,159.34,0,0,0-14.49-12.5c-5.84-4.43-12.85-6.36-20-7.48-5-.79-9.35,1-13,4.72a83.18,83.18,0,0,0-10.43,13.08,114.84,114.84,0,0,1-17.68,21.52A93.57,93.57,0,0,1,883,81.5c-3,1.57-6.46,2.4-9.68,3.65-12.21,4.75-25,5.41-37.74,4.15-7.9-.77-15.58-3.12-23.27-5.29a52.33,52.33,0,0,1-16.43-7.83A61.71,61.71,0,0,1,777,55.05c-6.37-11.87-10-24.67-13.19-37.54C762.41,12,763.33,5.86,763.2,0Z"/><path class="cls-3" d="M2000,440c-12.38-5-24.4-10.67-35.37-18.37a166.68,166.68,0,0,1-40.07-39.77,222.1,222.1,0,0,1-20.63-36c-3.59-7.71-7.79-15.16-12-22.56-9.08-15.92-14.13-33.31-18-51-2.89-13.21-4.54-26.7-6.45-40.11a96,96,0,0,1-.43-13.58c0-12-.06-24,.28-36a72.68,72.68,0,0,1,2-15c2-8.26,4.6-16.38,7-24.54a17.74,17.74,0,0,1,2.08-5.16c6.89-9.77,13.33-20.06,23.12-27.24a63.54,63.54,0,0,1,15.56-8c10.05-3.66,20.52-5.73,31.32-5,17.9,1.26,35.29,4.72,51.57,12.66Z"/><path class="cls-9" d="M1665.6,2000c5.89-24,11.52-48,17.73-71.94,5.81-22.4,12.49-44.56,21.12-66a156.43,156.43,0,0,1,20.72-35.86,235.32,235.32,0,0,1,28.18-31.49c14.32-13.2,30.63-22.86,49.76-27.39a98.25,98.25,0,0,1,33.28-2.2,48.91,48.91,0,0,1,29.87,13.81c1.9,1.88,3.82,3.73,5.65,5.66a22.07,22.07,0,0,1,6.55,15.8c0,5.86.18,11.74-.14,17.58a60.58,60.58,0,0,1-6.91,24.39c-7.64,14.84-19.1,26.07-33.72,34.12-4.89,2.69-9.75,5.46-14.5,8.41a146.46,146.46,0,0,0-23.69,18.81c-12.39,11.8-23.76,24.44-32.7,39.08a143.13,143.13,0,0,0-18.18,44.89c-.88,4.15-2,8.25-3,12.38Z"/><path class="cls-4" d="M544,2000c-1.64-4.49-3.32-9-4.92-13.47-4.1-11.58-4.12-23.66-2.8-35.53,1.2-10.82,4.34-21.37,10.68-30.59,7.9-11.5,18.47-18.8,32.41-21.28,7.13-1.27,14.26-1.32,21.44-1.48,4.53-.1,8.23,2,11.88,4.14,3,1.77,5.72,3.9,8.69,5.66,4.1,2.43,7.42.54,7.4-4.23a27.94,27.94,0,0,0-1-6.27,89.91,89.91,0,0,1-2.31-26.14c.78-13.13,7.48-23.06,17.77-30.68,3.45-2.56,7.63-3.3,12-3.63,11.44-.84,21.43,2.6,30.92,8.66a72.85,72.85,0,0,1,20,18.09c2.21,3,5,5.54,7.2,8.53,7.08,9.66,10.42,20.84,13,32.35a84.38,84.38,0,0,1,1.69,19c0,6.66-.15,13.33,0,20,.27,9.9-1,19.6-2.79,29.3-1.43,7.83-2.55,15.72-3.73,23.59a24.06,24.06,0,0,0,0,4Z"/><path class="cls-3" d="M28.8,2000q-2.93-8.25-5.83-16.49a291.35,291.35,0,0,1-11.34-44.68c-1.22-6.71-.38-13.8-.27-20.72a12,12,0,0,1,1.47-4.51c3-6.58,6.67-12.7,12-17.73,6.36-6,12.09-12.7,19.35-17.8,12.56-8.83,26-15,41.35-17.61,16.55-2.83,31.48.52,45.9,8.35,14.07,7.64,25.21,18.4,34.6,31.21,10.16,13.86,17.16,29.35,22.79,45.39,6.33,18,11.77,36.38,17.59,54.59Z"/><path class="cls-5" d="M2000,824c-6.73-3.12-13.77-5.74-20.13-9.49-9.36-5.52-18.35-11.71-27.3-17.89-10-6.87-17.81-15.88-24.72-25.73A159.59,159.59,0,0,1,1913.44,747c-1.68-3.6-4-6.88-5.89-10.4-5.66-10.57-9.55-21.91-14.17-32.93s-6.73-22.87-9.69-34.41a13.44,13.44,0,0,1-.44-3.15c0-9.85-.69-19.75.13-29.54a40,40,0,0,1,11.88-25.49,16.86,16.86,0,0,1,11.39-4.86c16.35-1.15,30.9,4.19,44.76,12,10.89,6.14,20.94,13.57,30.86,21.14,4,3.06,7.7,6.52,11.67,9.64a63.21,63.21,0,0,0,6.06,3.75Z"/><path class="cls-4" d="M0,475.2c2.6-.44,5.23-.76,7.8-1.34,11.39-2.61,22.67-6.05,34.19-7.71,8.88-1.28,18.09-.71,27.1-.23,3.55.19,7.3,1.87,10.41,3.77,13.61,8.31,22.33,19.86,24.87,36.17a66.16,66.16,0,0,1-2.69,31.41c-3.13,9.6-6.35,19.24-10.37,28.49A129.36,129.36,0,0,1,65.57,604c-9.12,9.5-19.12,17.72-30.73,23.93C24,633.73,12.47,637.73,0,638.4Z"/><path class="cls-2" d="M1857.6,0c-.34,4.49-.69,9-1,13.48a22.39,22.39,0,0,0-.09,3.17c.32,4.22.77,8.44,1,12.67.32,5.56.8,11.11,1.25,16.65,1.23,14.85,1.44,29.76-2.9,44.32A72.26,72.26,0,0,1,1839,119.78a47.8,47.8,0,0,1-11.37,8.64c-13.39,7.43-26.53,5.61-39.39-1.79-11.66-6.71-20.14-16.48-26.71-27.94-6.76-11.8-12.49-24.09-15-37.62-1.25-6.77-2.72-13.52-2.63-20.49.1-7.46-.22-14.92.06-22.37.23-6.08,1.08-12.14,1.66-18.21Z"/><path class="cls-2" d="M1665.6,0c-5.12,17.68-11.3,34.94-19.93,51.28-4.26,8.06-9.07,15.8-15.15,22.46-13.07,14.29-29.28,22-49,20.43-7.46-.6-14.59-3.06-21.38-6.18a120.14,120.14,0,0,1-33.53-22.76c-14-13.42-25.27-28.79-35.09-45.34-3-5-5.74-10.22-8.48-15.39A25.66,25.66,0,0,1,1481.6,0Z"/><path class="cls-3" d="M304,2000c2.57-15.8,8.12-30.35,19.19-42.18,9.36-10,21.14-15.83,34.57-18.59a77.93,77.93,0,0,1,23-1.45,101.57,101.57,0,0,1,31.61,7.64A121.29,121.29,0,0,1,451,1971.78c4.85,5,9.9,9.72,14.61,14.8,3.24,3.49,6.1,7.35,9,11.12.44.56.36,1.52.52,2.3Z"/><path class="cls-9" d="M1961.6,2000c2.4-9.68,1.85-19.56,1.32-29.32-.41-7.61-2-15.2-3.53-22.72-2-9.86-4.53-19.61-6.45-29.48a62.21,62.21,0,0,1,4.06-37.37c3.62-8.41,9.2-15.48,14.72-22.59q14.16-18.26,26.67-37.65a11.52,11.52,0,0,1,1.61-1.67V2000Z"/><path class="cls-1" d="M30.4,0c-.37,2.83,1,5.15,2.17,7.53,7.21,14.79,14.32,29.63,20.09,45.06,2.87,7.68,5.78,15.46,7.46,23.45,2.61,12.38,0,23.75-9.63,32.78-5,4.71-11.22,6.89-17.88,8a45.85,45.85,0,0,1-7.83,1,35,35,0,0,1-13.85-2.75C7.31,113.46,3.65,112,0,110.4V0Z"/><path class="cls-1" d="M302.4,0c.79,4.37-.93,8.44-1.73,12.56a157,157,0,0,1-11.53,36.37,95,95,0,0,1-15.34,23.2A38.21,38.21,0,0,1,263,80.21c-6.76,3.54-16.22,1.58-22.43-5.43a97.87,97.87,0,0,1-17.22-26.69A444.71,444.71,0,0,1,206.4,0Z"/><path class="cls-2" d="M0,1622.4c2.54-.1,3.64,1.7,4.89,3.5A139.26,139.26,0,0,1,25,1668.25c4.78,17.23,7.76,34.8,6.74,52.76a194,194,0,0,1-3,22.07,210.17,210.17,0,0,1-9,34.69,196.57,196.57,0,0,1-16.11,33.81A5.81,5.81,0,0,1,0,1814.4Z"/><path class="cls-2" d="M1961.6,0c-2.18,17.49-8.08,33-23.15,43.68a29.83,29.83,0,0,0-3.55,3.21c-10.18,10-22.68,13.43-36.54,12.32-9-.71-23.19-8.68-25.69-21.94-1.27-6.74-1.48-13.75.59-20.54,1.7-5.58,3.43-11.15,5.14-16.73Z"/><path class="cls-9" d="M1857.6,2000a64.46,64.46,0,0,1,8.4-23.74,45,45,0,0,1,9.34-10.75c7-6,15-8.48,24.22-6.65a7.68,7.68,0,0,1-.14,8.45q-3.4,5.82-7.08,11.47c-4.46,6.87-9.32,13.51-12.34,21.22Z"/><path class="cls-3" d="M1203.15,1032.56c0,8.53.23,17.07-.06,25.6-.31,9-.79,18.08-1.79,27a289.66,289.66,0,0,1-5,29c-1.46,6.74-2.86,13.5-4,20.31-1.79,10.85-5.88,21-9.66,31.17a62,62,0,0,1-2.38,5.92c-3.28,6.66-5.74,13.73-11.32,19.13-3,2.93-5.14,6.79-7.91,10-9.86,11.43-22.15,17.93-37.47,18.55a58.37,58.37,0,0,1-24.23-4c-7.66-3-15.68-5.36-22.31-10.5-5.24-4.08-10.3-8.39-15.38-12.65-3.06-2.57-6-5.29-9-7.88-9.82-8.39-20.81-8.61-32.12-4a20.71,20.71,0,0,0-7.94,6.45c-6,7.72-10.08,16.24-9.65,26.42.25,6.13,0,12.27.11,18.4.16,12.53,2.25,24.85,4.16,37.19,1.88,12.06,3.83,24.11,5.77,36.17.46,2.88,1,5.75,1.47,8.63,4.21,25.64,3.51,51.49,2.89,77.29a51.23,51.23,0,0,1-9,27.72,87.79,87.79,0,0,1-22.15,22.76c-7.19,5.11-14.6,9.8-22.84,12.9a72.76,72.76,0,0,1-21.69,4.89c-15,.81-27.5-5-38.5-14.6a83.55,83.55,0,0,1-16.49-20.44,152.27,152.27,0,0,1-17.76-46.83,303.39,303.39,0,0,1-5.22-34.64c-1.21-13-2.23-25.93-3.26-38.91-.81-10.1-.19-20.3-1.64-30.25s-.9-20.14-2.34-30.2c-1.36-9.43-2.09-19-3.52-28.45a126.9,126.9,0,0,0-8.95-32.14,37.74,37.74,0,0,0-5.47-8.76c-3.11-3.74-7-5.37-12.08-3.38a33,33,0,0,0-10.85,6.51c-11.76,10.89-20.16,24.13-26.35,38.69-5.82,13.71-10.68,27.81-16.19,41.65-3,7.65-5.5,15.6-10.36,22.41a21.43,21.43,0,0,1-4.15,4.73,65.42,65.42,0,0,0-15.43,16,17.13,17.13,0,0,1-7.31,6,51,51,0,0,1-36.5,3.06c-17.58-4.92-31.52-15.26-42.95-29.14a156.86,156.86,0,0,1-22-35.13c-8.84-19.63-16.46-39.78-20.12-61.23a196.93,196.93,0,0,1-3.21-36.49c.14-8.53-.09-17.07.25-25.59a162.27,162.27,0,0,1,1.79-17.44,264.05,264.05,0,0,1,13.23-53.3c7.54-20.35,17.21-39.54,30.9-56.5,4.34-5.37,9.06-10.46,13.75-15.53,3.25-3.53,6.85-6.73,10.13-10.23a159.63,159.63,0,0,1,28.15-23.47Q728.18,933,748,921.82c9.76-5.5,18.33-12.76,27.34-19.37,9.43-6.91,16.3-16,23.07-25.22a53.68,53.68,0,0,0,6.47-12.75c5-13,7.51-26.59,11-40,1.73-6.69,3.32-13.41,5-20.1,2-8,4-16,6.23-23.91a307.43,307.43,0,0,1,12.78-36.09c4.76-11.57,10-22.93,14.68-34.53a225.12,225.12,0,0,1,29.45-52c9-11.86,19.68-21.56,33.34-27.84,24.61-11.31,49.64-2.83,62.06,20.46,2.72,5.11,4.42,10.82,6.22,16.37,6,18.61,5.64,37.83,4.53,57-.59,10.05-2.85,20-5.5,29.72-3.35,12.32-6.64,24.67-10.69,36.76s-8.89,24-13.57,35.83c-10,25.48-21.16,50.55-29.57,76.66a577.3,577.3,0,0,0-16.14,60c-2.16,10.42-4,20.88-5.49,31.37-1.26,8.67-1.51,17.48-2.13,26.23-.51,7.14-1.38,14.31-1.25,21.45.28,15,2.37,29.7,7.84,43.74,2.71,7,5.7,13.75,11,19.31,8.26,8.67,18.29,11.55,29.81,9.55,22.42-3.9,39-16.32,50.38-35.73,5.66-9.69,8.92-20.43,11.25-31.43,1.23-5.78,1-11.69,1.87-17.42,1.65-10.64,1.22-21.27,1-31.89-.17-7.15-1.18-14.28-2-21.4-.63-5.27-1.54-10.5-2.45-15.73-1.42-8.1-2.84-16.2-4.44-24.26-2.64-13.28-6.16-26.44-7.92-39.83-1.55-11.83-1.81-24,1.39-35.73a74.8,74.8,0,0,1,14.41-28.31c10.12-12.2,21.82-22.73,36.71-28.87,18.27-7.53,36.72-8.36,54.89.4a106,106,0,0,1,34.61,26.45,193.74,193.74,0,0,1,21.93,30.36,174.54,174.54,0,0,1,11.24,23.75c6.46,16.66,10.24,34.11,14.27,51.46,1.14,4.9,1.23,10,2.18,15,1,5.47,2.49,10.86,3.81,16.28a207.88,207.88,0,0,1,4.47,26.67C1203.44,1007.06,1203.05,1019.8,1203.15,1032.56Z"/><path class="cls-3" d="M1675.8,1558.7c-3.31,1.07-4.12,3.47-5.19,5.55-2,3.79-3.56,7.77-5.64,11.48-7.1,12.62-18,19.89-32.16,22.59-.78.15-1.62,0-2.39.21-12.26,3-23.06-1.37-33.41-7.06a147.41,147.41,0,0,1-16.65-11,168.08,168.08,0,0,1-13.41-11.31c-4.13-3.78-8-7.81-11.93-11.83-7.61-7.83-17.66-11.72-27-16.76-2-1.07-3.94-.82-6.14-.18-13.6,4-24.06,12.21-32.55,23.28-5.55,7.25-9.5,15.41-13.27,23.65-3.66,8-6.87,16.19-10.73,24.07-6,12.22-10.88,24.89-15.67,37.59-4.12,10.92-10.07,20.52-18.76,28.34a27.84,27.84,0,0,1-5.68,4.35c-16,8.25-32.69,11.31-50.07,4.71-13.6-5.16-25.91-12.55-35.86-23.32-5.8-6.28-10.49-13.42-14.94-20.7-11.67-19.1-18.47-40.06-23.13-61.75-1.39-6.46-1.3-13.22-2.22-19.79-1-6.88-2.18-13.87-1-20.65,1.69-10,.92-20.15,2.44-30.2,1.76-11.57,3.57-23.07,6.37-34.44a224.18,224.18,0,0,1,15.76-43.47c8.2-17,16.94-33.84,26.07-50.4a186.05,186.05,0,0,1,21.35-30.83q6.46-7.59,13.3-14.87c11-11.8,24.29-20.72,38.43-28.3a279.26,279.26,0,0,1,43.87-19.21c15.67-5.2,31.72-9,48.48-8.62,7.2.19,14.42-.19,21.59.25,9,.56,18,1.77,26.95,2.57,7.7.68,15.41,1,23.09-.31a116,116,0,0,0,15.54-3.44c11.62-3.73,18.68-11.7,23-22.72,4-10.23,5.65-21,7.78-31.7,1.55-7.81,3.24-15.61,5.2-23.32,1.45-5.67,3.31-11.23,5.21-16.77,4.55-13.24,11-25.42,20.88-35.51a65.38,65.38,0,0,1,21.18-14.07c14.77-6.36,30.3-8.21,46.16-6.59,18,1.84,34.39,8.16,47.42,20.8,11.61,11.24,20.36,24.44,22.32,41.32a113.08,113.08,0,0,1,.08,20.57c-.93,14.62-5.61,28.06-10.49,41.6-5.27,14.61-12.42,28.26-20.1,41.69-2.38,4.16-4.33,8.56-6.61,12.78q-8.54,15.82-17.22,31.56a121.81,121.81,0,0,0-13.41,37.39,88.4,88.4,0,0,0-1.38,18.26c.34,12.61,4.57,23.9,11.65,34.27,9.7,14.21,22,26,34.62,37.51,5.46,5,12.08,8.7,18.4,12.64,10.62,6.63,21.35,13.16,30.75,21.46a61.51,61.51,0,0,1,16.38,23.34c5.74,14.25,6.23,29,4,44a105.06,105.06,0,0,1-3.7,17.12c-3.46,10.56-10.68,17.46-20.57,22.11-7.62,3.58-15.8,4.49-23.9,5.93a11.75,11.75,0,0,1-3.19,0c-19-1.81-37-6.52-53.68-16.42-10.77-6.4-21.41-13-31.9-19.78a113.57,113.57,0,0,0-10.45-5.86C1691.53,1566.42,1683.42,1562.47,1675.8,1558.7Z"/><path class="cls-2" d="M676.68,631.83c0-.53,0-1.07,0-1.6-.17-13.85,1.34-27.56,3-41.3a151.52,151.52,0,0,1,8.15-34,85.49,85.49,0,0,1,18.75-30.36c6.87-7.08,14-13.9,20.85-21,9.36-9.71,20.45-17,32.2-23.33a150.36,150.36,0,0,1,50.51-16.58A99.74,99.74,0,0,1,826,462.38c12,.19,23.9-.18,35.88,1.22,8.89,1,18.05,1.18,27-.89,4.37-1,9-1.1,13.37-2a79.15,79.15,0,0,0,30-12.49,23.48,23.48,0,0,0,4.89-4.06c4.42-5.41,6.64-11.16,4-18.44-3.52-9.71-10.16-15.49-20-17.48-13.67-2.77-27.41-2.61-41.25-.69-13,1.8-25.32,6-38,9.07q-18.21,4.41-36.73,7.13a29.46,29.46,0,0,1-4,.19c-10.4,0-20.8.35-31.18,0-10.53-.37-20.47-3.06-29.17-9.44-13.7-10.06-21.09-23.59-22.56-40.45a21,21,0,0,0-.12-3.19,36.54,36.54,0,0,1,0-15.75c.7-3.64,1.21-7.31,1.89-10.95.44-2.35,1-4.66,1.57-7,1.66-7,3.44-13.8,7.43-20.07C733,311.06,736.7,305,741,299.19c6.12-8.16,14.07-13.66,22.6-18.64a98.57,98.57,0,0,1,30.63-11.12,28.71,28.71,0,0,1,6.33-.59c12.54.28,24.89-1.5,37.32-2.79a215.58,215.58,0,0,0,24.37-3.8c13.53-3,25.68-8.85,34.84-19.62,4.65-5.46,8.78-11.36,13.23-17,4.94-6.26,9.36-13.1,15.11-18.52,8.09-7.62,16-15.58,25.79-21.29,5.24-3.07,10-7,14.92-10.62a57.33,57.33,0,0,1,16.5-7.74,183.64,183.64,0,0,1,26.3-6.4c2.62-.41,5.24-.79,7.88-1,2.12-.18,4.27,0,6.39-.13,19-1.27,37,3.44,54.57,9.84a74.94,74.94,0,0,1,25.56,16c1.75,1.64,3.31,3.5,5.15,5,11,9.15,16,21.62,19.58,34.93,2,7.24,2,14.71,2.94,22.07.77,5.88-.38,11.68-2.12,17.31-3.61,11.71-7.86,23.08-14.74,33.45-7,10.54-10.94,22.44-12.74,35a18.4,18.4,0,0,0,2.47,11.5c5,9,11.58,16.54,20.92,21.32,6.63,3.38,13.63,6.2,19.21,11.31,4.12,3.76,8.09,7.7,12,11.69,1.85,1.9,3.35,4.12,5,6.17a43.12,43.12,0,0,1,10,28c0,10-4,18.15-12.42,23.65C1148.1,454,1137,459.67,1124.18,461c-8.17.86-16.32,2-24.46,3.11-6.84,1-13.75,1.67-20.43,3.31-14.88,3.64-26.63,11.61-33.92,25.62a29,29,0,0,0-.92,26.13c2.21,5.12,4.55,10.22,8.3,14.51a41.14,41.14,0,0,1,4.09,5.91c4.69,7.74,5.26,16.19,3.23,24.69-2.13,8.92-8.84,14.05-17.19,16.14-13.9,3.49-27.92,3.81-41.45-2.08-6.1-2.65-12.21-5.32-18.12-8.37-21.43-11.06-44.1-18.61-67.54-23.9a131.65,131.65,0,0,0-22-3.35,54.23,54.23,0,0,0-33.33,9,80.21,80.21,0,0,0-27.86,31.13c-1.34,2.61-2.49,5.33-4,7.82-4.68,7.71-6.69,16.31-7.44,25a99.7,99.7,0,0,0,.73,25.45c2,12,4.5,24,6.49,36.05,1.07,6.51.48,13.29.62,19.95.29,14.4-3.2,28.05-9.4,40.84-7.24,14.94-18,26.91-32.79,35a64.93,64.93,0,0,1-25.87,7.56c-9.53.81-18.37-2.31-26.57-7.14-10.51-6.2-18.7-14.76-25.68-24.7-10.56-15-17.51-31.66-22.13-49.28-2.9-11-5.16-22.25-7.67-33.39-.29-1.29-.21-2.65-.47-3.95C676.38,652.06,676.71,641.94,676.68,631.83Z"/><path class="cls-2" d="M1448.07,410.44c.58-12.15-1.84-24.38-4.22-36.65-2-10.4-4.41-20.83-3.73-31.53a50.28,50.28,0,0,1,2.36-12.45,22.88,22.88,0,0,1,9.11-11.75c9.1-6.34,19.18-9.08,30-9.14,10.26,0,19.25,4.16,27.07,10.36,8.53,6.74,14.08,15.79,17.87,26a278.12,278.12,0,0,1,8.08,26.65c2.42,9.23,4.92,18.54,10.86,26.41A43.27,43.27,0,0,0,1557,409.24a21.66,21.66,0,0,0,16.8,2.93,139.72,139.72,0,0,0,33.74-11.92c12.34-6.25,24.77-12.28,37.65-17.48,18.22-7.35,33.78-2.89,48.14,9,12.3,10.15,18.79,23.82,21.38,39.06a79.54,79.54,0,0,1-.38,27,159.69,159.69,0,0,1-3.59,17.12c-4.65,15.79-12.5,30-22.09,43.12-8,10.94-16.45,21.57-25.28,31.83-8.67,10.08-17.64,19.92-27.26,29.15-10.21,9.8-16.77,21.73-20.57,35.42a109.82,109.82,0,0,0-4.51,28.2c-.07,5-.91,10-1.34,15a12.93,12.93,0,0,0,.06,4c2,8.41,1,17,1.57,25.44.55,7.65,1.74,15.26,2.65,22.89.1.79.26,1.58.29,2.37q.9,19.51,1.74,39c.13,3.19,0,6.39,0,9.59.22,11.2-1.41,22.19-2.87,33.27-2.18,16.53-8.8,31.13-17.62,44.91-5.62,8.78-12.81,16.12-21,22.76a148.56,148.56,0,0,1-64.12,30.74c-10.68,2.09-21.45,4-32.41,3.21-15.43-1.15-30.59-3.39-44.47-11A65.34,65.34,0,0,1,1408,859.31,85.91,85.91,0,0,1,1397.25,827c-1-8.13-1.2-16.44.58-24.64,1.19-5.44,1.8-11,2.92-16.44a113.93,113.93,0,0,1,8.52-24.86,366.93,366.93,0,0,1,19.7-37.44c8.21-13.45,18.07-25.58,28-37.7,4.93-6,10.45-11.36,15.61-17.08q11.49-12.72,22.69-25.7a51.34,51.34,0,0,0,11.11-22.75c1.63-7.35,1.5-14.84-1.7-21.91-2.91-6.44-8.31-10.28-14.6-12.86-13.18-5.4-26.72-5.8-40.72-3.61-14.32,2.24-26.7,8.57-38.87,15.83-12.76,7.62-22.94,17.94-32.45,29.21-5.11,6.06-11.33,11.22-17.22,16.58a143.76,143.76,0,0,1-12.32,10.13,66.08,66.08,0,0,1-20.6,10.26c-10,2.87-20,2.31-29.89-.62a73.33,73.33,0,0,1-32.37-19.62,156.1,156.1,0,0,1-14.36-18.08,173.69,173.69,0,0,1-25.48-51.24c-3.63-12.22-6.79-24.58-6.76-37.5,0-2.09-.71-4.18-.83-6.29-.22-4-.89-8.07-.17-11.9.78-4.24.62-8.48,1.21-12.66,1.76-12.34,3.58-24.63,8.12-36.42,5-12.89,12.76-23.81,21.21-34.49a138.69,138.69,0,0,1,15.15-16.4,110.13,110.13,0,0,1,22.48-16.42c12.79-6.8,26-8.91,40.08-5.31a118.78,118.78,0,0,1,49.15,25.32,135.7,135.7,0,0,1,17.74,19.25c3.45,4.38,7.64,8.17,11.63,12.09a13.61,13.61,0,0,0,10.11,4c4.26-.09,8.42-.09,12.6-1.5a25.41,25.41,0,0,0,14.29-12.09,47.92,47.92,0,0,0,6.21-22.86C1448.13,417.82,1448.07,414.35,1448.07,410.44Z"/><path class="cls-10" d="M1232.09,1425.62c0,6.93-.15,13.87.06,20.79.12,4,1.12,7.9,1.24,11.86.34,11.17,1,22.42-1.63,33.39-2,8.53-4.33,17.06-11.32,23.33-5.87,5.27-11.8,6-18.06,1.71a44.71,44.71,0,0,1-8.48-7.2,95.71,95.71,0,0,1-9-12.15c-3.76-5.93-6.1-12.4-5.8-19.62.15-3.46.12-6.93,0-10.39-.21-7.77,1.16-15.35,2.62-22.92,2.87-14.85,5.7-29.7,8.68-44.53,1.67-8.33,3.46-16.64,5.46-24.9a107.32,107.32,0,0,0,2.84-22.88,6,6,0,0,0-9.51-5.08c-3.83,2.86-7.88,5.54-11.21,8.92-6,6-11.77,12.33-17.15,18.91a320.6,320.6,0,0,1-28.49,31.24,55.24,55.24,0,0,1-25.62,14c-8.1,1.87-15.46.67-22.46-8.15-4-5-5.91-10.89-7-16.82-1.75-9.63-2.57-19.28-1-29.29,1.42-9.18,2.87-18.33,4.85-27.41a148.92,148.92,0,0,1,9.43-27.94c6.75-15.39,14.79-30.06,25.34-43.31a178.77,178.77,0,0,1,33-32.35c11.42-8.49,24.24-14.63,38.42-16.8,10.29-1.58,20.11,1.29,29.15,6.29,8.84,4.9,17.42,10.28,26.23,15.24a73.38,73.38,0,0,0,18.46,7.37c7.92,2,14.13-.42,19.78-5.44,7.08-6.31,12.15-14.16,15.94-22.73a164.19,164.19,0,0,0,11.22-35.71c2-10.35,3.28-20.83,1.19-31.64-2.52-13-3.59-26.28-5.37-39.42-1.42-10.51-3.24-21-4.39-31.52-1-9-1.29-18-1.77-27-.19-3.46-.11-6.93,0-10.4a241,241,0,0,1,9.16-60.47A151.22,151.22,0,0,1,1317.25,955c6.82-13.53,13.9-27.1,25.34-37.51,11-10,24.09-15.73,39.22-15,10.12.5,19.17,4.2,26.23,11.88a31,31,0,0,1,8,18.72,58.53,58.53,0,0,1-4.57,28.06c-4.88,11.79-9.25,23.76-12.08,36.29a160,160,0,0,0-4,45.91,57.24,57.24,0,0,0,4.65,19.28c4.84,11.06,13.59,17.63,24.55,21.35a18.73,18.73,0,0,0,11,.19c10.43-3.29,18.13-9.45,20.72-21,1.91-8.54,5-16.83,7.7-25.17,3.39-10.4,9.69-19,17.83-26,7.78-6.76,16.83-7.74,26.1-3.48a67.48,67.48,0,0,1,27.54,23.65c5.72,8.32,11.34,16.74,14.7,26.43a206,206,0,0,1,8.36,32.33,159.65,159.65,0,0,1,2.12,23c.36,14.16-3.4,27.31-12.88,38.4a32.41,32.41,0,0,1-15.17,10,27.8,27.8,0,0,1-18.06-.22c-8-2.91-15.85-6.17-23.7-9.46-6.13-2.57-12-5.74-18.23-8.08a63.7,63.7,0,0,0-28.28-3.55,36.7,36.7,0,0,0-10.82,2.52c-12.39,5.21-23.51,12-31.83,23.18-8.14,10.92-16.07,21.88-22,34.14a173.71,173.71,0,0,0-14.83,46.17c-4.28,24.31-8.35,48.67-14.43,72.61-4.35,17.12-10.81,33.47-20.73,48.18-4.62,6.85-10.33,12.93-18.13,16.44a29.56,29.56,0,0,1-10.68,3c-6.32.33-11.22-2.92-16.15-6.06a84.93,84.93,0,0,1-7.63-5.78,37.76,37.76,0,0,0-12-6.16,16.42,16.42,0,0,0-12.44.31c-8.57,3.82-15.5,9.23-18.1,18.87-1.46,5.41-2.7,10.81-2.6,16.47.13,6.93,0,13.87,0,20.8Z"/><path class="cls-4" d="M406.49,1227.19c-14.32.74-26.34-3-38.36-7.74-12.35-4.87-22.8-12.53-33.23-20.29A66.67,66.67,0,0,1,324,1188.6c-7-8.33-13.76-16.92-18.43-26.91-1.92-4.1-4-8.11-6-12.16-4-8-5.2-16.67-6.63-25.31,1.13-17.11,6.75-31.53,23.13-39.89,11.71-6,24.14-9.57,36.9-12.36,16.43-3.59,31.08-10.57,43.34-22.42,8-7.77,13.93-16.61,17-27.47a35.23,35.23,0,0,0,1-12.63c-.45-5.52-4.2-9.25-8.49-12-5.38-3.44-11.08-6-17.95-5.66a100.77,100.77,0,0,0-20.45,2.72c-14.4,3.61-28.82,7.11-43.6,9.07-4.48.59-8.92,1.14-13.44,1.29a44.67,44.67,0,0,0-6.31.73,50.82,50.82,0,0,1-17.44.06,42.71,42.71,0,0,0-7.11-.77c-14.66.19-28.59-3.54-41.67-9.48-19.27-8.75-31.89-23.59-35.81-44.87-1.27-6.91-.2-13.79,1.84-20.48,5.06-16.58,13-31.51,25.75-43.46,14.12-13.29,30.09-23.82,49.27-28.2,8.71-2,17.7-4.1,26.74-1.13,13.45.37,25.06,6.65,37,11.78a104.63,104.63,0,0,1,16,9c10.88,7.17,21.46,14.78,32.31,22,12.2,8.11,24.62,16,38.22,21.49a67.82,67.82,0,0,0,22.37,5.12c12.25.6,23.7-2.61,35.29-5.45,10.56-2.59,21.1-5.16,32-6.2,6.84-.66,13.61-2.11,20.45-2.8,5.3-.53,10.55.47,15.84,1a92.6,92.6,0,0,1,20.88,4.87,77,77,0,0,1,18.44,9.38c10.49,7.28,18.49,22,18.49,34.59A70.56,70.56,0,0,1,612,974c-1.35,7.93-7,13-13,17.55-8.7,6.54-17.65,12.77-26.64,18.91-6.69,4.57-12.12,10.44-17.36,16.43-4.71,5.36-3.92,12-1.89,18.21a32,32,0,0,0,8.93,14c3.76,3.38,7.14,7.19,10.82,10.67,5.27,5,9.31,10.92,13.4,16.8,5.81,8.36,6.68,17.87,5.43,27.57-.39,3-2.22,5.94-3.61,8.8-2.63,5.43-7,9.52-11.84,12.74-8,5.33-16.64,5.06-24.92.36-7.43-4.21-13.83-9.87-20.32-15.36a138.91,138.91,0,0,0-25.56-17.61c-6.88-3.58-14.13-4.53-21.68-3.85a10.26,10.26,0,0,0-5.23,1.64c-3.13,2.43-6.45,4.94-8.64,8.14-2.36,3.46-3.62,7.62-1.57,12.09,1.54,3.37,2.43,7,3.81,10.49,4,10,7.05,20.06,6.34,31a66.26,66.26,0,0,0,0,8.8c.57,7.88-1.48,15.41-3.92,22.64-2.69,8-8.63,13.89-15.43,18.87-7.92,5.82-17.18,8.42-26.39,10.94C423.81,1226.26,414.68,1228.26,406.49,1227.19Z"/><path class="cls-2" d="M1221.12,788.23c-.13,6.82,1.12,11.69,3.47,16.14,3.61,6.81,7.51,13.47,11.51,20.06,4.55,7.51,10.07,14.38,13.84,22.41,2.22,4.73,2.77,9.54,3.21,14.65.76,9-8.41,19.37-18.9,20.2a40.27,40.27,0,0,1-30.9-10.35c-8.9-7.83-15.18-17.74-21.52-27.6-6.22-9.7-10.45-20.37-15.22-30.75-5.33-11.57-12.92-21.33-21.68-30.38a26.1,26.1,0,0,0-18.46-8.11c-2.13-.08-4.26-.08-6.39-.19-9.83-.49-19.72-.46-29.46-1.64-17.4-2.12-33.82-7.62-48.1-18-17.16-12.47-21.09-31-13.39-49.63,3.44-8.31,8.54-15.33,16.6-19.82a38.88,38.88,0,0,1,19-5.35c8.8,0,17.59.23,26.39.11a36.84,36.84,0,0,0,9.4-1.33c6-1.68,8.71-5.94,8-12-.41-3.69-1-7.37-1.78-11-3.85-18.34.45-34.81,11.39-49.72a65.1,65.1,0,0,1,8.18-9.76c8.91-8.12,19.13-11.54,31.5-9.57,16,2.55,28.86,10.34,39.86,21.66a76.21,76.21,0,0,1,8.74,11.36c6.59,10.1,11.78,20.93,13.89,32.87,1.81,10.21,6.1,18.91,12.26,27.25a195.79,195.79,0,0,0,28.11,30.35c11.34,10.06,23.74,19,33.87,30.35,6.18,7,12.13,14.11,18.16,21.19a21,21,0,0,1,2.32,3.24c3.49,6.28,7.2,12.46,10.32,18.91,5.71,11.79,5.89,24.12,2.45,36.55a33,33,0,0,1-3.71,7.94c-7.19,12-18.83,16.72-32.7,13.84a54.21,54.21,0,0,1-23.36-11.53,161.1,161.1,0,0,1-22.14-21.79c-5.12-6.11-10.74-11.87-17.52-16.27C1226.45,791.24,1224.39,790.14,1221.12,788.23Z"/><path class="cls-11" d="M843.38,1425.64c.42,3.69,1.26,7.38,1.2,11-.3,18.8-5.36,36.25-16.1,51.77-6.14,8.87-15.17,14.17-25.3,17.2-8.63,2.59-17.5,4.39-26.32,6.29-13.22,2.85-26.69,4.39-39.81,7.81-14.76,3.84-26.32,12.37-36,23.78-8.28,9.78-15,20.64-21.66,31.51-3.47,5.63-7.84,10.72-12.06,15.84-1.66,2-4,3.48-6.11,5.06-8,5.91-16.39,5.67-24.81,1.37-11.76-6-18.84-16.15-23.48-28.16-3.88-10-6.07-20.39-4.89-31.23a47.59,47.59,0,0,1,1.19-7.83c2.2-7.67,4.59-15.28,7-22.89a19.17,19.17,0,0,1,5.25-7.9c4.39-4.28,8.79-8.56,13-13,5.13-5.39,10-11.08,15.16-16.4,3.71-3.79,8-7,11.74-10.78,8.19-8.14,17.72-14.46,27.38-20.59,7-4.41,14.12-8.52,21.26-12.64a17,17,0,0,1,5.22-1.85c9.37-1.8,15.71-7.31,19.8-15.73a72.09,72.09,0,0,0,5.81-17.34c2.07-10.41,3.87-20.89,6.5-31.16a169.32,169.32,0,0,1,7.43-21c2-4.88,5.9-8.22,10.64-10.35a58.51,58.51,0,0,1,29.51-5.19c5.36.49,10.22,2.92,14.71,5.86a10,10,0,0,1,3.06,3.58,118.28,118.28,0,0,1,5.64,11.47c4.17,10.36,7.91,20.89,12.18,31.21,4.1,9.87,6.81,20.13,9.4,30.44.59,2.32,1.12,4.65,1.68,7A29.92,29.92,0,0,0,843.38,1425.64Z"/><path class="cls-2" d="M542.65,1319.76c2.08-3.35,1.71-6.16,0-8.76a35.68,35.68,0,0,0-4.46-5.58c-4.29-4.37-8.63-8.7-13.1-12.9-7-6.56-11.22-14.58-14-23.72-5.32-17.53-1.38-33.13,9.48-47.14,6.81-8.8,20.34-13.49,31.65-9a18.87,18.87,0,0,1,4.77,2.75,65.6,65.6,0,0,1,17.78,22.23c3.37,6.93,7,13.71,10.29,20.68,3.52,7.48,9.36,12.94,15.66,17.82a87.68,87.68,0,0,0,13.62,8.16c12.15,6.26,23.08,14.22,30.83,25.87a41.18,41.18,0,0,1,7.06,22.53c.06,6.39-1,13.07-5.4,18.78-2.91,3.77-6.52,6.23-10.34,8.55-8.91,5.4-18.68,5.89-28.54,3.74a19.68,19.68,0,0,0-15.17,2.71c-.7,3,.52,5.44,1.61,7.77,3.46,7.45,6.79,15,10.79,22.15,7,12.43,10.39,25.49,9.33,39.76-.43,5.74-3.14,10.09-7.23,13.7a33.4,33.4,0,0,1-15.77,7.32c-5.69,1.15-11-.77-16.17-3.11-7.51-3.4-14.94-7-22.67-9.84-10.72-3.9-21.58-7.56-32.58-10.55A56.45,56.45,0,0,1,495,1419c-2.66-2.61-5.26-5.29-7.68-8.13-6-7-8.23-15.64-8.57-24.4-.54-13.9,1.52-27.53,8-40.19,3.64-7.1,8.72-12.62,16-16,3.37-1.59,6.68-3.31,10-5a53.55,53.55,0,0,1,22.32-5.14C537.69,1320.11,540.29,1319.9,542.65,1319.76Z"/><path class="cls-12" d="M843.38,1425.64a29.92,29.92,0,0,1-1.76-12.85C845.17,1416.67,846.06,1420.91,843.38,1425.64Z"/></g></g></svg>