<svg xmlns="http://www.w3.org/2000/svg" xmlns:xlink="http://www.w3.org/1999/xlink" viewBox="0 0 500 500"><defs><style>.cls-1{fill:none;}.cls-2{fill:#e69ab3;}.cls-3{fill:#fff;}.cls-4{fill:#f4d2dd;}.cls-5{fill:#e9a4bb;}.cls-6{fill:url(#New_Pattern_Swatch_2);}</style><pattern id="New_Pattern_Swatch_2" data-name="New Pattern Swatch 2" width="500" height="500" patternTransform="translate(-469.81 -676.8)" patternUnits="userSpaceOnUse" viewBox="0 0 500 500"><rect class="cls-1" width="500" height="500"/><path class="cls-2" d="M27.5,27C16,25.8,10,25,0,25V0H25C25,10,26,15.8,27.5,27Z"/><path class="cls-3" d="M55,29c-10,0-16-.8-27.5-2C26,15.8,25,10,25,0H50C50.17,9.59,52.55,19.79,55,29Z"/><path class="cls-4" d="M80,29H55c-2.45-9.21-4.83-19.41-5-29H75C75.17,9.59,77.55,19.79,80,29Z"/><path class="cls-3" d="M105,29H80c-2.45-9.21-4.83-19.41-5-29h25C100.17,9.59,102.55,19.79,105,29Z"/><path class="cls-5" d="M130,29H105c-2.45-9.21-4.83-19.41-5-29h25C125.17,9.59,127.55,19.79,130,29Z"/><path class="cls-3" d="M155,29H130c-2.45-9.21-4.83-19.41-5-29h25C150.17,9.59,152.55,19.79,155,29Z"/><path class="cls-2" d="M180,29H155c-2.45-9.21-4.83-19.41-5-29h25C175.17,9.59,177.55,19.79,180,29Z"/><path class="cls-3" d="M205,29H180c-2.45-9.21-4.83-19.41-5-29h25C200.17,9.59,202.55,19.79,205,29Z"/><path class="cls-4" d="M227.5,27C219,28.2,215,29,205,29c-2.45-9.21-4.83-19.41-5-29h25C225,10,226,15.8,227.5,27Z"/><path class="cls-3" d="M250,25c-10,0-14,.8-22.5,2C226,15.8,225,10,225,0h25Z"/><path class="cls-3" d="M30,54c-9.89-1.77-19.91-3.84-30-4V25c10,0,16,.8,27.5,2C29,38.2,30,44,30,54Z"/><path class="cls-5" d="M60,58c-10.09-.16-20.11-2.23-30-4,0-10-1-15.8-2.5-27C39,28.2,45,29,55,29,57.45,38.21,59.83,48.41,60,58Z"/><path class="cls-3" d="M85,58H60c-.17-9.59-2.55-19.79-5-29H80C82.45,38.21,84.83,48.41,85,58Z"/><path class="cls-2" d="M110,58H85c-.17-9.59-2.55-19.79-5-29h25C107.45,38.21,109.83,48.41,110,58Z"/><path class="cls-3" d="M135,58H110c-.17-9.59-2.55-19.79-5-29h25C132.45,38.21,134.83,48.41,135,58Z"/><path class="cls-4" d="M160,58H135c-.17-9.59-2.55-19.79-5-29h25C157.45,38.21,159.83,48.41,160,58Z"/><path class="cls-3" d="M185,58H160c-.17-9.59-2.55-19.79-5-29h25C182.45,38.21,184.83,48.41,185,58Z"/><path class="cls-5" d="M210,58H185c-.17-9.59-2.55-19.79-5-29h25C207.45,38.21,209.83,48.41,210,58Z"/><path class="cls-3" d="M230,54c-7,2.4-10,4-20,4-.17-9.59-2.55-19.79-5-29,10,0,14-.8,22.5-2C229,38.2,230,44,230,54Z"/><path class="cls-2" d="M250,50c-10,0-13,1.6-20,4,0-10-1-15.8-2.5-27,8.5-1.2,12.5-2,22.5-2Z"/><path class="cls-5" d="M272.75,22.5C264.1,24,260,25,250,25V0h25C275,10,274.1,14,272.75,22.5Z"/><path class="cls-3" d="M295.5,20c-10,0-14.1,1-22.75,2.5C274.1,14,275,10,275,0h25C300,10,298.2,13,295.5,20Z"/><path class="cls-2" d="M320.5,20h-25c2.7-7,4.5-10,4.5-20h25C325,10,323.2,13,320.5,20Z"/><path class="cls-3" d="M345.5,20h-25c2.7-7,4.5-10,4.5-20h25C350,10,348.2,13,345.5,20Z"/><path class="cls-4" d="M370.5,20h-25c2.7-7,4.5-10,4.5-20h25C375,10,373.2,13,370.5,20Z"/><path class="cls-3" d="M395.5,20h-25c2.7-7,4.5-10,4.5-20h25C400,10,398.2,13,395.5,20Z"/><path class="cls-5" d="M420.5,20h-25c2.7-7,4.5-10,4.5-20h25C425,10,423.2,13,420.5,20Z"/><path class="cls-3" d="M445.5,20h-25c2.7-7,4.5-10,4.5-20h25C450,10,448.2,13,445.5,20Z"/><path class="cls-2" d="M472.75,22.5C461.4,21,455.5,20,445.5,20c2.7-7,4.5-10,4.5-20h25C475,10,474.1,14,472.75,22.5Z"/><path class="cls-3" d="M500,25c-10,0-15.9-1-27.25-2.5C474.1,14,475,10,475,0h25Z"/><path class="cls-3" d="M270.5,45c-7.3,3-10.5,5-20.5,5V25c10,0,14.1-1,22.75-2.5C271.4,31,270.5,35,270.5,45Z"/><path class="cls-4" d="M291,40c-10,0-13.2,2-20.5,5,0-10,.9-14,2.25-22.5C281.4,21,285.5,20,295.5,20,292.8,27,291,30,291,40Z"/><path class="cls-3" d="M316,40H291c0-10,1.8-13,4.5-20h25C317.8,27,316,30,316,40Z"/><path class="cls-5" d="M341,40H316c0-10,1.8-13,4.5-20h25C342.8,27,341,30,341,40Z"/><path class="cls-3" d="M366,40H341c0-10,1.8-13,4.5-20h25C367.8,27,366,30,366,40Z"/><path class="cls-2" d="M391,40H366c0-10,1.8-13,4.5-20h25C392.8,27,391,30,391,40Z"/><path class="cls-3" d="M416,40H391c0-10,1.8-13,4.5-20h25C417.8,27,416,30,416,40Z"/><path class="cls-4" d="M441,40H416c0-10,1.8-13,4.5-20h25C442.8,27,441,30,441,40Z"/><path class="cls-3" d="M470.5,45c-9.66-2.21-19.52-4.81-29.5-5,0-10,1.8-13,4.5-20,10,0,15.9,1,27.25,2.5C471.4,31,470.5,35,470.5,45Z"/><path class="cls-5" d="M500,50c-10-.19-19.84-2.79-29.5-5,0-10,.9-14,2.25-22.5C484.1,24,490,25,500,25Z"/><path class="cls-2" d="M30,79c-9.89-1.77-19.91-3.84-30-4V50c10.09.16,20.11,2.23,30,4Z"/><path class="cls-3" d="M60,83c-10.09-.16-20.11-2.23-30-4V54c9.89,1.77,19.91,3.84,30,4Z"/><path class="cls-4" d="M81.75,79.5C73.7,81.6,70,83,60,83V58H85C85,68,83.7,71.6,81.75,79.5Z"/><path class="cls-3" d="M103.5,76c-10,0-13.7,1.4-21.75,3.5C83.7,71.6,85,68,85,58h25C110,68,107.4,70.2,103.5,76Z"/><path class="cls-5" d="M128.5,76h-25c3.9-5.8,6.5-8,6.5-18h25C135,68,132.4,70.2,128.5,76Z"/><path class="cls-3" d="M153.5,76h-25c3.9-5.8,6.5-8,6.5-18h25C160,68,157.4,70.2,153.5,76Z"/><path class="cls-2" d="M181.75,79.5c-9.16-1.77-18.89-3.4-28.25-3.5,3.9-5.8,6.5-8,6.5-18h25C185,68,183.7,71.6,181.75,79.5Z"/><path class="cls-3" d="M210,83c-9.36-.1-19.09-1.73-28.25-3.5C183.7,71.6,185,68,185,58h25Z"/><path class="cls-4" d="M230,79c-7,2.4-10,4-20,4V58c10,0,13-1.6,20-4Z"/><path class="cls-3" d="M250,75c-10,0-13,1.6-20,4V54c7-2.4,10-4,20-4Z"/><path class="cls-3" d="M30,104c-9.89-1.77-19.91-3.84-30-4V75c10.09.16,20.11,2.23,30,4Z"/><path class="cls-5" d="M60,108c-10.09-.16-20.11-2.23-30-4V79c9.89,1.77,19.91,3.84,30,4Z"/><path class="cls-3" d="M78.5,101c-6.1,4.2-8.5,7-18.5,7V83c10,0,13.7-1.4,21.75-3.5C79.8,87.4,78.5,91,78.5,101Z"/><path class="cls-2" d="M97,94c-10,0-12.4,2.8-18.5,7,0-10,1.3-13.6,3.25-21.5,8-2.1,11.75-3.5,21.75-3.5C99.6,81.8,97,84,97,94Z"/><path class="cls-3" d="M122,94H97c0-10,2.6-12.2,6.5-18h25C124.6,81.8,122,84,122,94Z"/><path class="cls-4" d="M147,94H122c0-10,2.6-12.2,6.5-18h25C149.6,81.8,147,84,147,94Z"/><path class="cls-3" d="M178.5,101c-10.18-3-20.77-6.63-31.5-7,0-10,2.6-12.2,6.5-18,9.36.1,19.09,1.73,28.25,3.5C179.8,87.4,178.5,91,178.5,101Z"/><path class="cls-5" d="M210,108c-10.73-.37-21.32-4-31.5-7,0-10,1.3-13.6,3.25-21.5,9.16,1.77,18.89,3.4,28.25,3.5Z"/><path class="cls-3" d="M230,104c-7,2.4-10,4-20,4V83c10,0,13-1.6,20-4Z"/><path class="cls-2" d="M250,100c-10,0-13,1.6-20,4V79c7-2.4,10-4,20-4Z"/><path class="cls-5" d="M270.5,70c-7.3,3-10.5,5-20.5,5V50c10,0,13.2-2,20.5-5Z"/><path class="cls-3" d="M291,65c-10,0-13.2,2-20.5,5V45c7.3-3,10.5-5,20.5-5Z"/><path class="cls-2" d="M319.25,68.25C310.06,66.6,300.37,65.09,291,65V40h25C316.09,49.37,317.6,59.06,319.25,68.25Z"/><path class="cls-3" d="M347.5,71.5c-9.37-.09-19.06-1.6-28.25-3.25C317.6,59.06,316.09,49.37,316,40h25C341.34,50.7,344.72,61.28,347.5,71.5Z"/><path class="cls-4" d="M372.5,71.5h-25c-2.78-10.22-6.16-20.8-6.5-31.5h25C366.34,50.7,369.72,61.28,372.5,71.5Z"/><path class="cls-3" d="M397.5,71.5h-25c-2.78-10.22-6.16-20.8-6.5-31.5h25C391.34,50.7,394.72,61.28,397.5,71.5Z"/><path class="cls-5" d="M419.25,68.25c-8.05,2-11.75,3.25-21.75,3.25-2.78-10.22-6.16-20.8-6.5-31.5h25C416.09,49.37,417.6,59.06,419.25,68.25Z"/><path class="cls-3" d="M441,65c-10,0-13.7,1.3-21.75,3.25C417.6,59.06,416.09,49.37,416,40h25Z"/><path class="cls-2" d="M470.5,70c-9.66-2.21-19.52-4.81-29.5-5V40c10,.19,19.84,2.79,29.5,5Z"/><path class="cls-3" d="M500,75c-10-.19-19.84-2.79-29.5-5V45c9.66,2.21,19.52,4.81,29.5,5Z"/><path class="cls-3" d="M270.5,95c-7.3,3-10.5,5-20.5,5V75c10,0,13.2-2,20.5-5Z"/><path class="cls-4" d="M291,90c-10,0-13.2,2-20.5,5V70c7.3-3,10.5-5,20.5-5Z"/><path class="cls-3" d="M322.5,96.5c-10.22-2.78-20.8-6.16-31.5-6.5V65c9.37.09,19.06,1.6,28.25,3.25C320.9,77.44,322.41,87.13,322.5,96.5Z"/><path class="cls-5" d="M354,103c-10.7-.34-21.28-3.72-31.5-6.5-.09-9.37-1.6-19.06-3.25-28.25,9.19,1.65,18.88,3.16,28.25,3.25C350.28,81.72,353.66,92.3,354,103Z"/><path class="cls-3" d="M379,103H354c-.34-10.7-3.72-21.28-6.5-31.5h25C375.28,81.72,378.66,92.3,379,103Z"/><path class="cls-2" d="M404,103H379c-.34-10.7-3.72-21.28-6.5-31.5h25C400.28,81.72,403.66,92.3,404,103Z"/><path class="cls-3" d="M422.5,96.5c-6.1,3.9-8.5,6.5-18.5,6.5-.34-10.7-3.72-21.28-6.5-31.5,10,0,13.7-1.3,21.75-3.25C420.9,77.44,422.41,87.13,422.5,96.5Z"/><path class="cls-4" d="M441,90c-10,0-12.4,2.6-18.5,6.5-.09-9.37-1.6-19.06-3.25-28.25C427.3,66.3,431,65,441,65Z"/><path class="cls-3" d="M470.5,95c-9.66-2.21-19.52-4.81-29.5-5V65c10,.19,19.84,2.79,29.5,5Z"/><path class="cls-5" d="M500,100c-10-.19-19.84-2.79-29.5-5V70c9.66,2.21,19.52,4.81,29.5,5Z"/><path class="cls-2" d="M30,129c-9.89-1.77-19.91-3.84-30-4V100c10.09.16,20.11,2.23,30,4Z"/><path class="cls-3" d="M60,133c-10.09-.16-20.11-2.23-30-4V104c9.89,1.77,19.91,3.84,30,4Z"/><path class="cls-4" d="M78.5,126c-6.1,4.2-8.5,7-18.5,7V108c10,0,12.4-2.8,18.5-7Z"/><path class="cls-3" d="M97,119c-10,0-12.4,2.8-18.5,7V101c6.1-4.2,8.5-7,18.5-7Z"/><circle class="cls-5" cx="109.5" cy="106.5" r="17.68"/><circle class="cls-3" cx="134.5" cy="106.5" r="17.68"/><path class="cls-2" d="M178.5,126c-10.18-3-20.77-6.63-31.5-7V94c10.73.37,21.32,4,31.5,7Z"/><path class="cls-3" d="M210,133c-10.73-.37-21.32-4-31.5-7V101c10.18,3,20.77,6.63,31.5,7Z"/><path class="cls-4" d="M230,129c-7,2.4-10,4-20,4V108c10,0,13-1.6,20-4Z"/><path class="cls-3" d="M250,125c-10,0-13,1.6-20,4V104c7-2.4,10-4,20-4Z"/><path class="cls-3" d="M30,154c-9.89-1.77-19.91-3.84-30-4V125c10.09.16,20.11,2.23,30,4Z"/><path class="cls-5" d="M60,158c-10.09-.16-20.11-2.23-30-4V129c9.89,1.77,19.91,3.84,30,4Z"/><path class="cls-3" d="M78.5,151c-6.1,4.2-8.5,7-18.5,7V133c10,0,12.4-2.8,18.5-7Z"/><path class="cls-2" d="M97,144c-10,0-12.4,2.8-18.5,7V126c6.1-4.2,8.5-7,18.5-7Z"/><circle class="cls-3" cx="109.5" cy="131.5" r="17.68"/><circle class="cls-4" cx="134.5" cy="131.5" r="17.68"/><path class="cls-3" d="M178.5,151c-10.18-3-20.77-6.63-31.5-7V119c10.73.37,21.32,4,31.5,7Z"/><path class="cls-5" d="M210,158c-10.73-.37-21.32-4-31.5-7V126c10.18,3,20.77,6.63,31.5,7Z"/><path class="cls-3" d="M230,154c-7,2.4-10,4-20,4V133c10,0,13-1.6,20-4Z"/><path class="cls-2" d="M250,150c-10,0-13,1.6-20,4V129c7-2.4,10-4,20-4Z"/><path class="cls-5" d="M270.5,120c-7.3,3-10.5,5-20.5,5V100c10,0,13.2-2,20.5-5Z"/><path class="cls-3" d="M291,115c-10,0-13.2,2-20.5,5V95c7.3-3,10.5-5,20.5-5Z"/><path class="cls-2" d="M322.5,121.5c-10.22-2.78-20.8-6.16-31.5-6.5V90c10.7.34,21.28,3.72,31.5,6.5Z"/><path class="cls-3" d="M354,128c-10.7-.34-21.28-3.72-31.5-6.5v-25c10.22,2.78,20.8,6.16,31.5,6.5Z"/><circle class="cls-4" cx="366.5" cy="115.5" r="17.68"/><circle class="cls-3" cx="391.5" cy="115.5" r="17.68"/><path class="cls-5" d="M422.5,121.5c-6.1,3.9-8.5,6.5-18.5,6.5V103c10,0,12.4-2.6,18.5-6.5Z"/><path class="cls-3" d="M441,115c-10,0-12.4,2.6-18.5,6.5v-25C428.6,92.6,431,90,441,90Z"/><path class="cls-2" d="M470.5,120c-9.66-2.21-19.52-4.81-29.5-5V90c10,.19,19.84,2.79,29.5,5Z"/><path class="cls-3" d="M500,125c-10-.19-19.84-2.79-29.5-5V95c9.66,2.21,19.52,4.81,29.5,5Z"/><path class="cls-3" d="M270.5,145c-7.3,3-10.5,5-20.5,5V125c10,0,13.2-2,20.5-5Z"/><path class="cls-4" d="M291,140c-10,0-13.2,2-20.5,5V120c7.3-3,10.5-5,20.5-5Z"/><path class="cls-3" d="M322.5,146.5c-10.22-2.78-20.8-6.16-31.5-6.5V115c10.7.34,21.28,3.72,31.5,6.5Z"/><path class="cls-5" d="M354,153c-10.7-.34-21.28-3.72-31.5-6.5v-25c10.22,2.78,20.8,6.16,31.5,6.5Z"/><circle class="cls-3" cx="366.5" cy="140.5" r="17.68"/><circle class="cls-2" cx="391.5" cy="140.5" r="17.68"/><path class="cls-3" d="M422.5,146.5c-6.1,3.9-8.5,6.5-18.5,6.5V128c10,0,12.4-2.6,18.5-6.5Z"/><path class="cls-4" d="M441,140c-10,0-12.4,2.6-18.5,6.5v-25c6.1-3.9,8.5-6.5,18.5-6.5Z"/><path class="cls-3" d="M470.5,145c-9.66-2.21-19.52-4.81-29.5-5V115c10,.19,19.84,2.79,29.5,5Z"/><path class="cls-5" d="M500,150c-10-.19-19.84-2.79-29.5-5V120c9.66,2.21,19.52,4.81,29.5,5Z"/><path class="cls-2" d="M30,179c-9.89-1.77-19.91-3.84-30-4V150c10.09.16,20.11,2.23,30,4Z"/><path class="cls-3" d="M60,183c-10.09-.16-20.11-2.23-30-4V154c9.89,1.77,19.91,3.84,30,4Z"/><path class="cls-4" d="M81.75,179.5C73.7,181.6,70,183,60,183V158c10,0,12.4-2.8,18.5-7C78.6,160.45,80.1,170.22,81.75,179.5Z"/><path class="cls-3" d="M103.5,176c-10,0-13.7,1.4-21.75,3.5-1.65-9.28-3.15-19.05-3.25-28.5,6.1-4.2,8.5-7,18.5-7C97.36,154.86,100.73,165.61,103.5,176Z"/><path class="cls-5" d="M128.5,176h-25c-2.77-10.39-6.14-21.14-6.5-32h25C122.36,154.86,125.73,165.61,128.5,176Z"/><path class="cls-3" d="M153.5,176h-25c-2.77-10.39-6.14-21.14-6.5-32h25C147.36,154.86,150.73,165.61,153.5,176Z"/><path class="cls-2" d="M181.75,179.5c-9.16-1.77-18.89-3.4-28.25-3.5-2.77-10.39-6.14-21.14-6.5-32,10.73.37,21.32,4,31.5,7C178.6,160.45,180.1,170.22,181.75,179.5Z"/><path class="cls-3" d="M210,183c-9.36-.1-19.09-1.73-28.25-3.5-1.65-9.28-3.15-19.05-3.25-28.5,10.18,3,20.77,6.63,31.5,7Z"/><path class="cls-4" d="M230,179c-7,2.4-10,4-20,4V158c10,0,13-1.6,20-4Z"/><path class="cls-3" d="M250,175c-10,0-13,1.6-20,4V154c7-2.4,10-4,20-4Z"/><path class="cls-3" d="M30,204c-9.89-1.77-19.91-3.84-30-4V175c10.09.16,20.11,2.23,30,4Z"/><path class="cls-5" d="M60,208c-10.09-.16-20.11-2.23-30-4V179c9.89,1.77,19.91,3.84,30,4Z"/><path class="cls-3" d="M85,208H60V183c10,0,13.7-1.4,21.75-3.5C83.4,188.78,84.9,198.55,85,208Z"/><path class="cls-2" d="M110,208H85c-.1-9.45-1.6-19.22-3.25-28.5,8-2.1,11.75-3.5,21.75-3.5C106.27,186.39,109.64,197.14,110,208Z"/><path class="cls-3" d="M135,208H110c-.36-10.86-3.73-21.61-6.5-32h25C131.27,186.39,134.64,197.14,135,208Z"/><path class="cls-4" d="M160,208H135c-.36-10.86-3.73-21.61-6.5-32h25C156.27,186.39,159.64,197.14,160,208Z"/><path class="cls-3" d="M185,208H160c-.36-10.86-3.73-21.61-6.5-32,9.36.1,19.09,1.73,28.25,3.5C183.4,188.78,184.9,198.55,185,208Z"/><path class="cls-5" d="M210,208H185c-.1-9.45-1.6-19.22-3.25-28.5,9.16,1.77,18.89,3.4,28.25,3.5Z"/><path class="cls-3" d="M230,204c-7,2.4-10,4-20,4V183c10,0,13-1.6,20-4Z"/><path class="cls-2" d="M250,200c-10,0-13,1.6-20,4V179c7-2.4,10-4,20-4Z"/><path class="cls-5" d="M270.5,170c-7.3,3-10.5,5-20.5,5V150c10,0,13.2-2,20.5-5Z"/><path class="cls-3" d="M291,165c-10,0-13.2,2-20.5,5V145c7.3-3,10.5-5,20.5-5Z"/><path class="cls-2" d="M319.25,168.25c-9.19-1.65-18.88-3.16-28.25-3.25V140c10.7.34,21.28,3.72,31.5,6.5C322.5,156.5,321.2,160.2,319.25,168.25Z"/><path class="cls-3" d="M347.5,171.5c-9.37-.09-19.06-1.6-28.25-3.25,1.95-8.05,3.25-11.75,3.25-21.75,10.22,2.78,20.8,6.16,31.5,6.5C354,163,351.4,165.4,347.5,171.5Z"/><path class="cls-4" d="M372.5,171.5h-25c3.9-6.1,6.5-8.5,6.5-18.5h25C379,163,376.4,165.4,372.5,171.5Z"/><path class="cls-3" d="M397.5,171.5h-25c3.9-6.1,6.5-8.5,6.5-18.5h25C404,163,401.4,165.4,397.5,171.5Z"/><path class="cls-5" d="M419.25,168.25c-8.05,1.95-11.75,3.25-21.75,3.25,3.9-6.1,6.5-8.5,6.5-18.5,10,0,12.4-2.6,18.5-6.5C422.5,156.5,421.2,160.2,419.25,168.25Z"/><path class="cls-3" d="M441,165c-10,0-13.7,1.3-21.75,3.25,1.95-8.05,3.25-11.75,3.25-21.75,6.1-3.9,8.5-6.5,18.5-6.5Z"/><path class="cls-2" d="M470.5,170c-9.66-2.21-19.52-4.81-29.5-5V140c10,.19,19.84,2.79,29.5,5Z"/><path class="cls-3" d="M500,175c-10-.19-19.84-2.79-29.5-5V145c9.66,2.21,19.52,4.81,29.5,5Z"/><path class="cls-3" d="M270.5,195c-7.3,3-10.5,5-20.5,5V175c10,0,13.2-2,20.5-5Z"/><path class="cls-4" d="M291,190c-10,0-13.2,2-20.5,5V170c7.3-3,10.5-5,20.5-5Z"/><path class="cls-3" d="M316,190H291V165c9.37.09,19.06,1.6,28.25,3.25C317.3,176.3,316,180,316,190Z"/><path class="cls-5" d="M341,190H316c0-10,1.3-13.7,3.25-21.75,9.19,1.65,18.88,3.16,28.25,3.25C343.6,177.6,341,180,341,190Z"/><path class="cls-3" d="M366,190H341c0-10,2.6-12.4,6.5-18.5h25C368.6,177.6,366,180,366,190Z"/><path class="cls-2" d="M391,190H366c0-10,2.6-12.4,6.5-18.5h25C393.6,177.6,391,180,391,190Z"/><path class="cls-3" d="M416,190H391c0-10,2.6-12.4,6.5-18.5,10,0,13.7-1.3,21.75-3.25C417.3,176.3,416,180,416,190Z"/><path class="cls-4" d="M441,190H416c0-10,1.3-13.7,3.25-21.75C427.3,166.3,431,165,441,165Z"/><path class="cls-3" d="M470.5,195c-9.66-2.21-19.52-4.81-29.5-5V165c10,.19,19.84,2.79,29.5,5Z"/><path class="cls-5" d="M500,200c-10-.19-19.84-2.79-29.5-5V170c9.66,2.21,19.52,4.81,29.5,5Z"/><path class="cls-2" d="M27.5,227C16,225.8,10,225,0,225V200c10.09.16,20.11,2.23,30,4C30,214,29,218.2,27.5,227Z"/><path class="cls-3" d="M55,229c-10,0-16-.8-27.5-2,1.5-8.8,2.5-13,2.5-23,9.89,1.77,19.91,3.84,30,4C60,218,58,221.4,55,229Z"/><path class="cls-4" d="M80,229H55c3-7.6,5-11,5-21H85C85,218,83,221.4,80,229Z"/><path class="cls-3" d="M105,229H80c3-7.6,5-11,5-21h25C110,218,108,221.4,105,229Z"/><path class="cls-5" d="M130,229H105c3-7.6,5-11,5-21h25C135,218,133,221.4,130,229Z"/><path class="cls-3" d="M155,229H130c3-7.6,5-11,5-21h25C160,218,158,221.4,155,229Z"/><path class="cls-2" d="M180,229H155c3-7.6,5-11,5-21h25C185,218,183,221.4,180,229Z"/><path class="cls-3" d="M205,229H180c3-7.6,5-11,5-21h25C210,218,208,221.4,205,229Z"/><path class="cls-4" d="M227.5,227c-8.5,1.2-12.5,2-22.5,2,3-7.6,5-11,5-21,10,0,13-1.6,20-4C230,214,229,218.2,227.5,227Z"/><path class="cls-3" d="M250,225c-10,0-14,.8-22.5,2,1.5-8.8,2.5-13,2.5-23,7-2.4,10-4,20-4Z"/><path class="cls-3" d="M25,250H0V225c10,0,16,.8,27.5,2C26,235.8,25,240,25,250Z"/><path class="cls-5" d="M50,250H25c0-10,1-14.2,2.5-23C39,228.2,45,229,55,229,52,236.6,50,240,50,250Z"/><path class="cls-3" d="M75,250H50c0-10,2-13.4,5-21H80C77,236.6,75,240,75,250Z"/><path class="cls-2" d="M100,250H75c0-10,2-13.4,5-21h25C102,236.6,100,240,100,250Z"/><path class="cls-3" d="M125,250H100c0-10,2-13.4,5-21h25C127,236.6,125,240,125,250Z"/><path class="cls-4" d="M150,250H125c0-10,2-13.4,5-21h25C152,236.6,150,240,150,250Z"/><path class="cls-3" d="M175,250H150c0-10,2-13.4,5-21h25C177,236.6,175,240,175,250Z"/><path class="cls-5" d="M200,250H175c0-10,2-13.4,5-21h25C202,236.6,200,240,200,250Z"/><path class="cls-3" d="M225,250H200c0-10,2-13.4,5-21,10,0,14-.8,22.5-2C226,235.8,225,240,225,250Z"/><path class="cls-2" d="M250,250H225c0-10,1-14.2,2.5-23,8.5-1.2,12.5-2,22.5-2Z"/><path class="cls-5" d="M272.75,222.5C264.1,224,260,225,250,225V200c10,0,13.2-2,20.5-5C270.5,205,271.4,211,272.75,222.5Z"/><path class="cls-3" d="M295.5,220c-10,0-14.1,1-22.75,2.5C271.4,211,270.5,205,270.5,195c7.3-3,10.5-5,20.5-5C291.18,200.11,293.52,210.14,295.5,220Z"/><path class="cls-2" d="M320.5,220h-25c-2-9.86-4.32-19.89-4.5-30h25C316.18,200.11,318.52,210.14,320.5,220Z"/><path class="cls-3" d="M345.5,220h-25c-2-9.86-4.32-19.89-4.5-30h25C341.18,200.11,343.52,210.14,345.5,220Z"/><path class="cls-4" d="M370.5,220h-25c-2-9.86-4.32-19.89-4.5-30h25C366.18,200.11,368.52,210.14,370.5,220Z"/><path class="cls-3" d="M395.5,220h-25c-2-9.86-4.32-19.89-4.5-30h25C391.18,200.11,393.52,210.14,395.5,220Z"/><path class="cls-5" d="M420.5,220h-25c-2-9.86-4.32-19.89-4.5-30h25C416.18,200.11,418.52,210.14,420.5,220Z"/><path class="cls-3" d="M445.5,220h-25c-2-9.86-4.32-19.89-4.5-30h25C441.18,200.11,443.52,210.14,445.5,220Z"/><path class="cls-2" d="M472.75,222.5C461.4,221,455.5,220,445.5,220c-2-9.86-4.32-19.89-4.5-30,10,.19,19.84,2.79,29.5,5C470.5,205,471.4,211,472.75,222.5Z"/><path class="cls-3" d="M500,225c-10,0-15.9-1-27.25-2.5C471.4,211,470.5,205,470.5,195c9.66,2.21,19.52,4.81,29.5,5Z"/><path class="cls-3" d="M275,250H250V225c10,0,14.1-1,22.75-2.5C274.1,234,275,240,275,250Z"/><path class="cls-4" d="M300,250H275c0-10-.9-16-2.25-27.5,8.65-1.5,12.75-2.5,22.75-2.5C297.48,229.86,299.82,239.89,300,250Z"/><path class="cls-3" d="M325,250H300c-.18-10.11-2.52-20.14-4.5-30h25C322.48,229.86,324.82,239.89,325,250Z"/><path class="cls-5" d="M350,250H325c-.18-10.11-2.52-20.14-4.5-30h25C347.48,229.86,349.82,239.89,350,250Z"/><path class="cls-3" d="M375,250H350c-.18-10.11-2.52-20.14-4.5-30h25C372.48,229.86,374.82,239.89,375,250Z"/><path class="cls-2" d="M400,250H375c-.18-10.11-2.52-20.14-4.5-30h25C397.48,229.86,399.82,239.89,400,250Z"/><path class="cls-3" d="M425,250H400c-.18-10.11-2.52-20.14-4.5-30h25C422.48,229.86,424.82,239.89,425,250Z"/><path class="cls-4" d="M450,250H425c-.18-10.11-2.52-20.14-4.5-30h25C447.48,229.86,449.82,239.89,450,250Z"/><path class="cls-3" d="M475,250H450c-.18-10.11-2.52-20.14-4.5-30,10,0,15.9,1,27.25,2.5C474.1,234,475,240,475,250Z"/><path class="cls-5" d="M500,250H475c0-10-.9-16-2.25-27.5C484.1,224,490,225,500,225Z"/><path class="cls-2" d="M23,277.5C14.2,276,10,275,0,275V250H25C25,260,24.2,266,23,277.5Z"/><path class="cls-3" d="M46,280c-10,0-14.2-1-23-2.5C24.2,266,25,260,25,250H50C49.84,260.09,47.77,270.11,46,280Z"/><path class="cls-4" d="M71,280H46c1.77-9.89,3.84-19.91,4-30H75C74.84,260.09,72.77,270.11,71,280Z"/><path class="cls-3" d="M96,280H71c1.77-9.89,3.84-19.91,4-30h25C99.84,260.09,97.77,270.11,96,280Z"/><path class="cls-5" d="M121,280H96c1.77-9.89,3.84-19.91,4-30h25C124.84,260.09,122.77,270.11,121,280Z"/><path class="cls-3" d="M146,280H121c1.77-9.89,3.84-19.91,4-30h25C149.84,260.09,147.77,270.11,146,280Z"/><path class="cls-2" d="M171,280H146c1.77-9.89,3.84-19.91,4-30h25C174.84,260.09,172.77,270.11,171,280Z"/><path class="cls-3" d="M196,280H171c1.77-9.89,3.84-19.91,4-30h25C199.84,260.09,197.77,270.11,196,280Z"/><path class="cls-4" d="M223,277.5c-11.2,1.5-17,2.5-27,2.5,1.77-9.89,3.84-19.91,4-30h25C225,260,224.2,266,223,277.5Z"/><path class="cls-3" d="M250,275c-10,0-15.8,1-27,2.5,1.2-11.5,2-17.5,2-27.5h25Z"/><path class="cls-3" d="M21,305c-7.6-3-11-5-21-5V275c10,0,14.2,1,23,2.5C21.8,289,21,295,21,305Z"/><path class="cls-5" d="M42,310c-10,0-13.4-2-21-5,0-10,.8-16,2-27.5,8.8,1.5,13,2.5,23,2.5C44.23,289.89,42.16,299.91,42,310Z"/><path class="cls-3" d="M67,310H42c.16-10.09,2.23-20.11,4-30H71C69.23,289.89,67.16,299.91,67,310Z"/><path class="cls-2" d="M92,310H67c.16-10.09,2.23-20.11,4-30H96C94.23,289.89,92.16,299.91,92,310Z"/><path class="cls-3" d="M117,310H92c.16-10.09,2.23-20.11,4-30h25C119.23,289.89,117.16,299.91,117,310Z"/><path class="cls-4" d="M142,310H117c.16-10.09,2.23-20.11,4-30h25C144.23,289.89,142.16,299.91,142,310Z"/><path class="cls-3" d="M167,310H142c.16-10.09,2.23-20.11,4-30h25C169.23,289.89,167.16,299.91,167,310Z"/><path class="cls-5" d="M192,310H167c.16-10.09,2.23-20.11,4-30h25C194.23,289.89,192.16,299.91,192,310Z"/><path class="cls-3" d="M221,305c-9.21,2.45-19.41,4.83-29,5,.16-10.09,2.23-20.11,4-30,10,0,15.8-1,27-2.5C221.8,289,221,295,221,305Z"/><path class="cls-2" d="M250,300c-9.59.17-19.79,2.55-29,5,0-10,.8-16,2-27.5,11.2-1.5,17-2.5,27-2.5Z"/><path class="cls-5" d="M277.25,271.5C265.9,273.6,260,275,250,275V250h25C275,260,275.9,263.6,277.25,271.5Z"/><path class="cls-3" d="M304.5,268c-10,0-15.9,1.4-27.25,3.5C275.9,263.6,275,260,275,250h25C300,260,301.8,262.2,304.5,268Z"/><path class="cls-2" d="M329.5,268h-25c-2.7-5.8-4.5-8-4.5-18h25C325,260,326.8,262.2,329.5,268Z"/><path class="cls-3" d="M354.5,268h-25c-2.7-5.8-4.5-8-4.5-18h25C350,260,351.8,262.2,354.5,268Z"/><path class="cls-4" d="M379.5,268h-25c-2.7-5.8-4.5-8-4.5-18h25C375,260,376.8,262.2,379.5,268Z"/><path class="cls-3" d="M404.5,268h-25c-2.7-5.8-4.5-8-4.5-18h25C400,260,401.8,262.2,404.5,268Z"/><path class="cls-5" d="M429.5,268h-25c-2.7-5.8-4.5-8-4.5-18h25C425,260,426.8,262.2,429.5,268Z"/><path class="cls-3" d="M454.5,268h-25c-2.7-5.8-4.5-8-4.5-18h25C450,260,451.8,262.2,454.5,268Z"/><path class="cls-2" d="M477.25,271.5c-8.65-2.1-12.75-3.5-22.75-3.5-2.7-5.8-4.5-8-4.5-18h25C475,260,475.9,263.6,477.25,271.5Z"/><path class="cls-3" d="M500,275c-10,0-14.1-1.4-22.75-3.5C475.9,263.6,475,260,475,250h25Z"/><path class="cls-3" d="M279.5,293c-9.51,3-19.38,6.7-29.5,7V275c10,0,15.9-1.4,27.25-3.5C278.6,279.4,279.5,283,279.5,293Z"/><path class="cls-4" d="M309,286c-10.12.3-20,4-29.5,7,0-10-.9-13.6-2.25-21.5,11.35-2.1,17.25-3.5,27.25-3.5C307.2,273.8,309,276,309,286Z"/><path class="cls-3" d="M334,286H309c0-10-1.8-12.2-4.5-18h25C332.2,273.8,334,276,334,286Z"/><path class="cls-5" d="M359,286H334c0-10-1.8-12.2-4.5-18h25C357.2,273.8,359,276,359,286Z"/><path class="cls-3" d="M384,286H359c0-10-1.8-12.2-4.5-18h25C382.2,273.8,384,276,384,286Z"/><path class="cls-2" d="M409,286H384c0-10-1.8-12.2-4.5-18h25C407.2,273.8,409,276,409,286Z"/><path class="cls-3" d="M434,286H409c0-10-1.8-12.2-4.5-18h25C432.2,273.8,434,276,434,286Z"/><path class="cls-4" d="M459,286H434c0-10-1.8-12.2-4.5-18h25C457.2,273.8,459,276,459,286Z"/><path class="cls-3" d="M479.5,293c-7.3-4.2-10.5-7-20.5-7,0-10-1.8-12.2-4.5-18,10,0,14.1,1.4,22.75,3.5C478.6,279.4,479.5,283,479.5,293Z"/><path class="cls-5" d="M500,300c-10,0-13.2-2.8-20.5-7,0-10-.9-13.6-2.25-21.5C485.9,273.6,490,275,500,275Z"/><path class="cls-2" d="M21,330c-7.6-3-11-5-21-5V300c10,0,13.4,2,21,5Z"/><path class="cls-3" d="M42,335c-10,0-13.4-2-21-5V305c7.6,3,11,5,21,5Z"/><path class="cls-4" d="M63.75,331.5C55.7,333.6,52,335,42,335V310H67C67,320,65.7,323.6,63.75,331.5Z"/><path class="cls-3" d="M85.5,328c-10,0-13.7,1.4-21.75,3.5C65.7,323.6,67,320,67,310H92C92,320,89.4,322.2,85.5,328Z"/><path class="cls-5" d="M110.5,328h-25c3.9-5.8,6.5-8,6.5-18h25C117,320,114.4,322.2,110.5,328Z"/><path class="cls-3" d="M135.5,328h-25c3.9-5.8,6.5-8,6.5-18h25C142,320,139.4,322.2,135.5,328Z"/><path class="cls-2" d="M163.75,331.5c-9.16-1.77-18.89-3.4-28.25-3.5,3.9-5.8,6.5-8,6.5-18h25C167,320,165.7,323.6,163.75,331.5Z"/><path class="cls-3" d="M192,335c-9.36-.1-19.09-1.73-28.25-3.5C165.7,323.6,167,320,167,310h25Z"/><path class="cls-4" d="M221,330c-9.21,2.45-19.41,4.83-29,5V310c9.59-.17,19.79-2.55,29-5Z"/><path class="cls-3" d="M250,325c-9.59.17-19.79,2.55-29,5V305c9.21-2.45,19.41-4.83,29-5Z"/><path class="cls-3" d="M21,355c-7.6-3-11-5-21-5V325c10,0,13.4,2,21,5Z"/><path class="cls-5" d="M42,360c-10,0-13.4-2-21-5V330c7.6,3,11,5,21,5Z"/><path class="cls-3" d="M60.5,353c-6.1,4.2-8.5,7-18.5,7V335c10,0,13.7-1.4,21.75-3.5C61.8,339.4,60.5,343,60.5,353Z"/><path class="cls-2" d="M79,346c-10,0-12.4,2.8-18.5,7,0-10,1.3-13.6,3.25-21.5,8-2.1,11.75-3.5,21.75-3.5C81.6,333.8,79,336,79,346Z"/><path class="cls-3" d="M104,346H79c0-10,2.6-12.2,6.5-18h25C106.6,333.8,104,336,104,346Z"/><path class="cls-4" d="M129,346H104c0-10,2.6-12.2,6.5-18h25C131.6,333.8,129,336,129,346Z"/><path class="cls-3" d="M160.5,353c-10.18-3-20.77-6.63-31.5-7,0-10,2.6-12.2,6.5-18,9.36.1,19.09,1.73,28.25,3.5C161.8,339.4,160.5,343,160.5,353Z"/><path class="cls-5" d="M192,360c-10.73-.37-21.32-4-31.5-7,0-10,1.3-13.6,3.25-21.5,9.16,1.77,18.89,3.4,28.25,3.5Z"/><path class="cls-3" d="M221,355c-9.21,2.45-19.41,4.83-29,5V335c9.59-.17,19.79-2.55,29-5Z"/><path class="cls-2" d="M250,350c-9.59.17-19.79,2.55-29,5V330c9.21-2.45,19.41-4.83,29-5Z"/><path class="cls-5" d="M279.5,318c-9.51,3-19.38,6.7-29.5,7V300c10.12-.3,20-4,29.5-7Z"/><path class="cls-3" d="M309,311c-10.12.3-20,4-29.5,7V293c9.51-3,19.38-6.7,29.5-7Z"/><path class="cls-2" d="M337.25,314.5c-9.16-1.77-18.89-3.4-28.25-3.5V286h25C334.1,295.45,335.6,305.22,337.25,314.5Z"/><path class="cls-3" d="M365.5,318c-9.36-.1-19.09-1.73-28.25-3.5-1.65-9.28-3.15-19.05-3.25-28.5h25C359.36,296.86,362.73,307.61,365.5,318Z"/><path class="cls-4" d="M390.5,318h-25c-2.77-10.39-6.14-21.14-6.5-32h25C384.36,296.86,387.73,307.61,390.5,318Z"/><path class="cls-3" d="M415.5,318h-25c-2.77-10.39-6.14-21.14-6.5-32h25C409.36,296.86,412.73,307.61,415.5,318Z"/><path class="cls-5" d="M437.25,314.5c-8.05,2.1-11.75,3.5-21.75,3.5-2.77-10.39-6.14-21.14-6.5-32h25C434.1,295.45,435.6,305.22,437.25,314.5Z"/><path class="cls-3" d="M459,311c-10,0-13.7,1.4-21.75,3.5-1.65-9.28-3.15-19.05-3.25-28.5h25Z"/><path class="cls-2" d="M479.5,318c-7.3-4.2-10.5-7-20.5-7V286c10,0,13.2,2.8,20.5,7Z"/><path class="cls-3" d="M500,325c-10,0-13.2-2.8-20.5-7V293c7.3,4.2,10.5,7,20.5,7Z"/><path class="cls-3" d="M279.5,343c-9.51,3-19.38,6.7-29.5,7V325c10.12-.3,20-4,29.5-7Z"/><path class="cls-4" d="M309,336c-10.12.3-20,4-29.5,7V318c9.51-3,19.38-6.7,29.5-7Z"/><path class="cls-3" d="M340.5,343c-10.18-3-20.77-6.63-31.5-7V311c9.36.1,19.09,1.73,28.25,3.5C338.9,323.78,340.4,333.55,340.5,343Z"/><path class="cls-5" d="M372,350c-10.73-.37-21.32-4-31.5-7-.1-9.45-1.6-19.22-3.25-28.5,9.16,1.77,18.89,3.4,28.25,3.5C368.27,328.39,371.64,339.14,372,350Z"/><path class="cls-3" d="M397,350H372c-.36-10.86-3.73-21.61-6.5-32h25C393.27,328.39,396.64,339.14,397,350Z"/><path class="cls-2" d="M422,350H397c-.36-10.86-3.73-21.61-6.5-32h25C418.27,328.39,421.64,339.14,422,350Z"/><path class="cls-3" d="M440.5,343c-6.1,4.2-8.5,7-18.5,7-.36-10.86-3.73-21.61-6.5-32,10,0,13.7-1.4,21.75-3.5C438.9,323.78,440.4,333.55,440.5,343Z"/><path class="cls-4" d="M459,336c-10,0-12.4,2.8-18.5,7-.1-9.45-1.6-19.22-3.25-28.5C445.3,312.4,449,311,459,311Z"/><path class="cls-3" d="M479.5,343c-7.3-4.2-10.5-7-20.5-7V311c10,0,13.2,2.8,20.5,7Z"/><path class="cls-5" d="M500,350c-10,0-13.2-2.8-20.5-7V318c7.3,4.2,10.5,7,20.5,7Z"/><path class="cls-2" d="M21,380c-7.6-3-11-5-21-5V350c10,0,13.4,2,21,5Z"/><path class="cls-3" d="M42,385c-10,0-13.4-2-21-5V355c7.6,3,11,5,21,5Z"/><path class="cls-4" d="M60.5,378c-6.1,4.2-8.5,7-18.5,7V360c10,0,12.4-2.8,18.5-7Z"/><path class="cls-3" d="M79,371c-10,0-12.4,2.8-18.5,7V353c6.1-4.2,8.5-7,18.5-7Z"/><circle class="cls-5" cx="91.5" cy="358.5" r="17.68"/><circle class="cls-3" cx="116.5" cy="358.5" r="17.68"/><path class="cls-2" d="M160.5,378c-10.18-3-20.77-6.63-31.5-7V346c10.73.37,21.32,4,31.5,7Z"/><path class="cls-3" d="M192,385c-10.73-.37-21.32-4-31.5-7V353c10.18,3,20.77,6.63,31.5,7Z"/><path class="cls-4" d="M221,380c-9.21,2.45-19.41,4.83-29,5V360c9.59-.17,19.79-2.55,29-5Z"/><path class="cls-3" d="M250,375c-9.59.17-19.79,2.55-29,5V355c9.21-2.45,19.41-4.83,29-5Z"/><path class="cls-3" d="M21,405c-7.6-3-11-5-21-5V375c10,0,13.4,2,21,5Z"/><path class="cls-5" d="M42,410c-10,0-13.4-2-21-5V380c7.6,3,11,5,21,5Z"/><path class="cls-3" d="M60.5,403c-6.1,4.2-8.5,7-18.5,7V385c10,0,12.4-2.8,18.5-7Z"/><path class="cls-2" d="M79,396c-10,0-12.4,2.8-18.5,7V378c6.1-4.2,8.5-7,18.5-7Z"/><circle class="cls-3" cx="91.5" cy="383.5" r="17.68"/><circle class="cls-4" cx="116.5" cy="383.5" r="17.68"/><path class="cls-3" d="M160.5,403c-10.18-3-20.77-6.63-31.5-7V371c10.73.37,21.32,4,31.5,7Z"/><path class="cls-5" d="M192,410c-10.73-.37-21.32-4-31.5-7V378c10.18,3,20.77,6.63,31.5,7Z"/><path class="cls-3" d="M221,405c-9.21,2.45-19.41,4.83-29,5V385c9.59-.17,19.79-2.55,29-5Z"/><path class="cls-2" d="M250,400c-9.59.17-19.79,2.55-29,5V380c9.21-2.45,19.41-4.83,29-5Z"/><path class="cls-5" d="M279.5,368c-9.51,3-19.38,6.7-29.5,7V350c10.12-.3,20-4,29.5-7Z"/><path class="cls-3" d="M309,361c-10.12.3-20,4-29.5,7V343c9.51-3,19.38-6.7,29.5-7Z"/><path class="cls-2" d="M340.5,368c-10.18-3-20.77-6.63-31.5-7V336c10.73.37,21.32,4,31.5,7Z"/><path class="cls-3" d="M372,375c-10.73-.37-21.32-4-31.5-7V343c10.18,3,20.77,6.63,31.5,7Z"/><circle class="cls-4" cx="384.5" cy="362.5" r="17.68"/><circle class="cls-3" cx="409.5" cy="362.5" r="17.68"/><path class="cls-5" d="M440.5,368c-6.1,4.2-8.5,7-18.5,7V350c10,0,12.4-2.8,18.5-7Z"/><path class="cls-3" d="M459,361c-10,0-12.4,2.8-18.5,7V343c6.1-4.2,8.5-7,18.5-7Z"/><path class="cls-2" d="M479.5,368c-7.3-4.2-10.5-7-20.5-7V336c10,0,13.2,2.8,20.5,7Z"/><path class="cls-3" d="M500,375c-10,0-13.2-2.8-20.5-7V343c7.3,4.2,10.5,7,20.5,7Z"/><path class="cls-3" d="M279.5,393c-9.51,3-19.38,6.7-29.5,7V375c10.12-.3,20-4,29.5-7Z"/><path class="cls-4" d="M309,386c-10.12.3-20,4-29.5,7V368c9.51-3,19.38-6.7,29.5-7Z"/><path class="cls-3" d="M340.5,393c-10.18-3-20.77-6.63-31.5-7V361c10.73.37,21.32,4,31.5,7Z"/><path class="cls-5" d="M372,400c-10.73-.37-21.32-4-31.5-7V368c10.18,3,20.77,6.63,31.5,7Z"/><circle class="cls-3" cx="384.5" cy="387.5" r="17.68"/><circle class="cls-2" cx="409.5" cy="387.5" r="17.68"/><path class="cls-3" d="M440.5,393c-6.1,4.2-8.5,7-18.5,7V375c10,0,12.4-2.8,18.5-7Z"/><path class="cls-4" d="M459,386c-10,0-12.4,2.8-18.5,7V368c6.1-4.2,8.5-7,18.5-7Z"/><path class="cls-3" d="M479.5,393c-7.3-4.2-10.5-7-20.5-7V361c10,0,13.2,2.8,20.5,7Z"/><path class="cls-5" d="M500,400c-10,0-13.2-2.8-20.5-7V368c7.3,4.2,10.5,7,20.5,7Z"/><path class="cls-2" d="M21,430c-7.6-3-11-5-21-5V400c10,0,13.4,2,21,5Z"/><path class="cls-3" d="M42,435c-10,0-13.4-2-21-5V405c7.6,3,11,5,21,5Z"/><path class="cls-4" d="M63.75,431.5C55.7,433.6,52,435,42,435V410c10,0,12.4-2.8,18.5-7C60.6,412.45,62.1,422.22,63.75,431.5Z"/><path class="cls-3" d="M85.5,428c-10,0-13.7,1.4-21.75,3.5-1.65-9.28-3.15-19.05-3.25-28.5,6.1-4.2,8.5-7,18.5-7C79.36,406.86,82.73,417.61,85.5,428Z"/><path class="cls-5" d="M110.5,428h-25c-2.77-10.39-6.14-21.14-6.5-32h25C104.36,406.86,107.73,417.61,110.5,428Z"/><path class="cls-3" d="M135.5,428h-25c-2.77-10.39-6.14-21.14-6.5-32h25C129.36,406.86,132.73,417.61,135.5,428Z"/><path class="cls-2" d="M163.75,431.5c-9.16-1.77-18.89-3.4-28.25-3.5-2.77-10.39-6.14-21.14-6.5-32,10.73.37,21.32,4,31.5,7C160.6,412.45,162.1,422.22,163.75,431.5Z"/><path class="cls-3" d="M192,435c-9.36-.1-19.09-1.73-28.25-3.5-1.65-9.28-3.15-19.05-3.25-28.5,10.18,3,20.77,6.63,31.5,7Z"/><path class="cls-4" d="M221,430c-9.21,2.45-19.41,4.83-29,5V410c9.59-.17,19.79-2.55,29-5Z"/><path class="cls-3" d="M250,425c-9.59.17-19.79,2.55-29,5V405c9.21-2.45,19.41-4.83,29-5Z"/><path class="cls-3" d="M21,455c-7.6-3-11-5-21-5V425c10,0,13.4,2,21,5Z"/><path class="cls-5" d="M42,460c-10,0-13.4-2-21-5V430c7.6,3,11,5,21,5Z"/><path class="cls-3" d="M67,460H42V435c10,0,13.7-1.4,21.75-3.5C65.4,440.78,66.9,450.55,67,460Z"/><path class="cls-2" d="M92,460H67c-.1-9.45-1.6-19.22-3.25-28.5,8-2.1,11.75-3.5,21.75-3.5C88.27,438.39,91.64,449.14,92,460Z"/><path class="cls-3" d="M117,460H92c-.36-10.86-3.73-21.61-6.5-32h25C113.27,438.39,116.64,449.14,117,460Z"/><path class="cls-4" d="M142,460H117c-.36-10.86-3.73-21.61-6.5-32h25C138.27,438.39,141.64,449.14,142,460Z"/><path class="cls-3" d="M167,460H142c-.36-10.86-3.73-21.61-6.5-32,9.36.1,19.09,1.73,28.25,3.5C165.4,440.78,166.9,450.55,167,460Z"/><path class="cls-5" d="M192,460H167c-.1-9.45-1.6-19.22-3.25-28.5,9.16,1.77,18.89,3.4,28.25,3.5Z"/><path class="cls-3" d="M221,455c-9.21,2.45-19.41,4.83-29,5V435c9.59-.17,19.79-2.55,29-5Z"/><path class="cls-2" d="M250,450c-9.59.17-19.79,2.55-29,5V430c9.21-2.45,19.41-4.83,29-5Z"/><path class="cls-5" d="M279.5,418c-9.51,3-19.38,6.7-29.5,7V400c10.12-.3,20-4,29.5-7Z"/><path class="cls-3" d="M309,411c-10.12.3-20,4-29.5,7V393c9.51-3,19.38-6.7,29.5-7Z"/><path class="cls-2" d="M337.25,414.5c-9.16-1.77-18.89-3.4-28.25-3.5V386c10.73.37,21.32,4,31.5,7C340.5,403,339.2,406.6,337.25,414.5Z"/><path class="cls-3" d="M365.5,418c-9.36-.1-19.09-1.73-28.25-3.5,1.95-7.9,3.25-11.5,3.25-21.5,10.18,3,20.77,6.63,31.5,7C372,410,369.4,412.2,365.5,418Z"/><path class="cls-4" d="M390.5,418h-25c3.9-5.8,6.5-8,6.5-18h25C397,410,394.4,412.2,390.5,418Z"/><path class="cls-3" d="M415.5,418h-25c3.9-5.8,6.5-8,6.5-18h25C422,410,419.4,412.2,415.5,418Z"/><path class="cls-5" d="M437.25,414.5c-8.05,2.1-11.75,3.5-21.75,3.5,3.9-5.8,6.5-8,6.5-18,10,0,12.4-2.8,18.5-7C440.5,403,439.2,406.6,437.25,414.5Z"/><path class="cls-3" d="M459,411c-10,0-13.7,1.4-21.75,3.5,1.95-7.9,3.25-11.5,3.25-21.5,6.1-4.2,8.5-7,18.5-7Z"/><path class="cls-2" d="M479.5,418c-7.3-4.2-10.5-7-20.5-7V386c10,0,13.2,2.8,20.5,7Z"/><path class="cls-3" d="M500,425c-10,0-13.2-2.8-20.5-7V393c7.3,4.2,10.5,7,20.5,7Z"/><path class="cls-3" d="M279.5,443c-9.51,3-19.38,6.7-29.5,7V425c10.12-.3,20-4,29.5-7Z"/><path class="cls-4" d="M309,436c-10.12.3-20,4-29.5,7V418c9.51-3,19.38-6.7,29.5-7Z"/><path class="cls-3" d="M334,436H309V411c9.36.1,19.09,1.73,28.25,3.5C335.3,422.4,334,426,334,436Z"/><path class="cls-5" d="M359,436H334c0-10,1.3-13.6,3.25-21.5,9.16,1.77,18.89,3.4,28.25,3.5C361.6,423.8,359,426,359,436Z"/><path class="cls-3" d="M384,436H359c0-10,2.6-12.2,6.5-18h25C386.6,423.8,384,426,384,436Z"/><path class="cls-2" d="M409,436H384c0-10,2.6-12.2,6.5-18h25C411.6,423.8,409,426,409,436Z"/><path class="cls-3" d="M434,436H409c0-10,2.6-12.2,6.5-18,10,0,13.7-1.4,21.75-3.5C435.3,422.4,434,426,434,436Z"/><path class="cls-4" d="M459,436H434c0-10,1.3-13.6,3.25-21.5C445.3,412.4,449,411,459,411Z"/><path class="cls-3" d="M479.5,443c-7.3-4.2-10.5-7-20.5-7V411c10,0,13.2,2.8,20.5,7Z"/><path class="cls-5" d="M500,450c-10,0-13.2-2.8-20.5-7V418c7.3,4.2,10.5,7,20.5,7Z"/><path class="cls-2" d="M23,477.5C14.2,476,10,475,0,475V450c10,0,13.4,2,21,5C21,465,21.8,469,23,477.5Z"/><path class="cls-3" d="M46,480c-10,0-14.2-1-23-2.5C21.8,469,21,465,21,455c7.6,3,11,5,21,5C42,470,43.6,473,46,480Z"/><path class="cls-4" d="M71,480H46c-2.4-7-4-10-4-20H67C67,470,68.6,473,71,480Z"/><path class="cls-3" d="M96,480H71c-2.4-7-4-10-4-20H92C92,470,93.6,473,96,480Z"/><path class="cls-5" d="M121,480H96c-2.4-7-4-10-4-20h25C117,470,118.6,473,121,480Z"/><path class="cls-3" d="M146,480H121c-2.4-7-4-10-4-20h25C142,470,143.6,473,146,480Z"/><path class="cls-2" d="M171,480H146c-2.4-7-4-10-4-20h25C167,470,168.6,473,171,480Z"/><path class="cls-3" d="M196,480H171c-2.4-7-4-10-4-20h25C192,470,193.6,473,196,480Z"/><path class="cls-4" d="M223,477.5c-11.2,1.5-17,2.5-27,2.5-2.4-7-4-10-4-20,9.59-.17,19.79-2.55,29-5C221,465,221.8,469,223,477.5Z"/><path class="cls-3" d="M250,475c-10,0-15.8,1-27,2.5-1.2-8.5-2-12.5-2-22.5,9.21-2.45,19.41-4.83,29-5Z"/><path class="cls-3" d="M25,500H0V475c10,0,14.2,1,23,2.5C24.2,486,25,490,25,500Z"/><path class="cls-5" d="M50,500H25c0-10-.8-14-2-22.5,8.8,1.5,13,2.5,23,2.5C48.4,487,50,490,50,500Z"/><path class="cls-3" d="M75,500H50c0-10-1.6-13-4-20H71C73.4,487,75,490,75,500Z"/><path class="cls-2" d="M100,500H75c0-10-1.6-13-4-20H96C98.4,487,100,490,100,500Z"/><path class="cls-3" d="M125,500H100c0-10-1.6-13-4-20h25C123.4,487,125,490,125,500Z"/><path class="cls-4" d="M150,500H125c0-10-1.6-13-4-20h25C148.4,487,150,490,150,500Z"/><path class="cls-3" d="M175,500H150c0-10-1.6-13-4-20h25C173.4,487,175,490,175,500Z"/><path class="cls-5" d="M200,500H175c0-10-1.6-13-4-20h25C198.4,487,200,490,200,500Z"/><path class="cls-3" d="M225,500H200c0-10-1.6-13-4-20,10,0,15.8-1,27-2.5C224.2,486,225,490,225,500Z"/><path class="cls-2" d="M250,500H225c0-10-.8-14-2-22.5,11.2-1.5,17-2.5,27-2.5Z"/><path class="cls-5" d="M277.25,471.5C265.9,473.6,260,475,250,475V450c10.12-.3,20-4,29.5-7A249.48,249.48,0,0,1,277.25,471.5Z"/><path class="cls-3" d="M304.5,468c-10,0-15.9,1.4-27.25,3.5A249.48,249.48,0,0,0,279.5,443c9.51-3,19.38-6.7,29.5-7C308.76,446.76,306.44,457.47,304.5,468Z"/><path class="cls-2" d="M329.5,468h-25c1.94-10.53,4.26-21.24,4.5-32h25C333.76,446.76,331.44,457.47,329.5,468Z"/><path class="cls-3" d="M354.5,468h-25c1.94-10.53,4.26-21.24,4.5-32h25C358.76,446.76,356.44,457.47,354.5,468Z"/><path class="cls-4" d="M379.5,468h-25c1.94-10.53,4.26-21.24,4.5-32h25C383.76,446.76,381.44,457.47,379.5,468Z"/><path class="cls-3" d="M404.5,468h-25c1.94-10.53,4.26-21.24,4.5-32h25C408.76,446.76,406.44,457.47,404.5,468Z"/><path class="cls-5" d="M429.5,468h-25c1.94-10.53,4.26-21.24,4.5-32h25C433.76,446.76,431.44,457.47,429.5,468Z"/><path class="cls-3" d="M454.5,468h-25c1.94-10.53,4.26-21.24,4.5-32h25C458.76,446.76,456.44,457.47,454.5,468Z"/><path class="cls-2" d="M477.25,471.5c-8.65-2.1-12.75-3.5-22.75-3.5,1.94-10.53,4.26-21.24,4.5-32,10,0,13.2,2.8,20.5,7A249.48,249.48,0,0,1,477.25,471.5Z"/><path class="cls-3" d="M500,475c-10,0-14.1-1.4-22.75-3.5A249.48,249.48,0,0,0,479.5,443c7.3,4.2,10.5,7,20.5,7Z"/><path class="cls-3" d="M275,500H250V475c10,0,15.9-1.4,27.25-3.5A249.48,249.48,0,0,0,275,500Z"/><path class="cls-4" d="M300,500H275a249.48,249.48,0,0,1,2.25-28.5c11.35-2.1,17.25-3.5,27.25-3.5C302.56,478.53,300.24,489.24,300,500Z"/><path class="cls-3" d="M325,500H300c.24-10.76,2.56-21.47,4.5-32h25C327.56,478.53,325.24,489.24,325,500Z"/><path class="cls-5" d="M350,500H325c.24-10.76,2.56-21.47,4.5-32h25C352.56,478.53,350.24,489.24,350,500Z"/><path class="cls-3" d="M375,500H350c.24-10.76,2.56-21.47,4.5-32h25C377.56,478.53,375.24,489.24,375,500Z"/><path class="cls-2" d="M400,500H375c.24-10.76,2.56-21.47,4.5-32h25C402.56,478.53,400.24,489.24,400,500Z"/><path class="cls-3" d="M425,500H400c.24-10.76,2.56-21.47,4.5-32h25C427.56,478.53,425.24,489.24,425,500Z"/><path class="cls-4" d="M450,500H425c.24-10.76,2.56-21.47,4.5-32h25C452.56,478.53,450.24,489.24,450,500Z"/><path class="cls-3" d="M475,500H450c.24-10.76,2.56-21.47,4.5-32,10,0,14.1,1.4,22.75,3.5A249.48,249.48,0,0,0,475,500Z"/><path class="cls-5" d="M500,500H475a249.48,249.48,0,0,1,2.25-28.5C485.9,473.6,490,475,500,475Z"/></pattern></defs><g id="Layer_2" data-name="Layer 2"><g id="PATTERN"><rect class="cls-6" width="500" height="500"/></g></g></svg>