<?xml version="1.0" standalone="no"?>
<!DOCTYPE svg PUBLIC "-//W3C//DTD SVG 1.1//EN" "http://www.w3.org/Graphics/SVG/1.1/DTD/svg11.dtd" >
<svg xmlns="http://www.w3.org/2000/svg" xmlns:xlink="http://www.w3.org/1999/xlink" version="1.1">
<metadata>
Created by FontForge 20200314 at Wed Dec 27 07:20:53 2006
 By Unknown
Copyright 2006 House Industries/Brand Design Co., Inc. All Rights Reserved.
</metadata>
<defs>
<font id="BurbankSmall-Medium" horiz-adv-x="615" >
  <font-face 
    font-family="Burbank Small Medium"
    font-weight="500"
    font-variant="small-caps"
    font-stretch="normal"
    units-per-em="1000"
    panose-1="0 0 0 0 0 0 0 0 0 0"
    ascent="750"
    descent="-250"
    x-height="502"
    cap-height="695"
    bbox="-39 -272 1131 962"
    underline-thickness="50"
    underline-position="-100"
    unicode-range="U+0020-FB04"
  />
<missing-glyph horiz-adv-x="260" 
 />
    <glyph glyph-name="fi" unicode="fi" horiz-adv-x="644" 
d="M355 434c0 0 -65 1 -159 0c-1 -184 1 -432 1 -432s-39 1 -86 -1c0 0 -3 247 -3 433l-77 -1s0 24 -1 71c0 0 29 -2 79 -2v30c0 119 51 180 167 180c27 0 58 -4 92 -11c0 0 -3 -25 -7 -69c-32 8 -59 12 -80 12c-64 0 -84 -33 -84 -115v-28c46 0 92 0 159 1
c0 0 -1 -26 -1 -68zM473 12c0 0 2 112 -2 479c0 0 35 0 86 1c0 0 0 -173 4 -479c0 0 -37 0 -88 -1zM515 555c-38 0 -67 23 -67 63c0 38 28 62 67 62c41 0 64 -30 64 -61c0 -40 -26 -64 -64 -64z" />
    <glyph glyph-name="fl" unicode="fl" horiz-adv-x="623" 
d="M355 434c0 0 -65 1 -159 0c-1 -184 1 -432 1 -432s-39 1 -86 -1c0 0 -3 247 -3 433l-77 -1s0 24 -1 71c0 0 29 -2 79 -2v30c0 119 51 180 167 180c27 0 58 -4 92 -11c0 0 -3 -25 -7 -69c-32 8 -59 12 -80 12c-64 0 -84 -33 -84 -115v-28c46 0 92 0 159 1
c0 0 -1 -26 -1 -68zM546 13c-55 0 -88 1 -88 1c3 477 1 669 1 669c61 -1 89 -1 89 -1c-5 -554 -2 -669 -2 -669z" />
    <glyph glyph-name="ff" unicode="ff" horiz-adv-x="771" 
d="M733 444c0 0 -65 1 -159 0c-1 -184 1 -452 1 -452s-39 1 -86 -1c0 0 -3 267 -3 453l-77 -1s0 24 -1 71c0 0 29 -2 79 -2v20c0 119 51 180 167 180c27 0 58 -4 92 -11c0 0 -3 -25 -7 -69c-32 8 -59 12 -80 12c-64 0 -84 -33 -84 -115v-18c46 0 92 0 159 1
c0 0 -1 -26 -1 -68zM345 424c0 0 -55 1 -149 0c-1 -184 1 -412 1 -412s-39 1 -86 -1c0 0 -3 227 -3 413l-77 -1s0 24 -1 71c0 0 29 -2 79 -2v20c0 119 51 180 167 180c27 0 58 -4 92 -11c0 0 -3 -25 -7 -69c-32 8 -59 12 -80 12c-64 0 -84 -33 -84 -115v-18c46 0 82 0 149 1
c0 0 -1 -26 -1 -68z" />
    <glyph glyph-name="ffi" unicode="ffi" horiz-adv-x="1022" 
d="M733 444c0 0 -65 1 -159 0c-1 -184 1 -452 1 -452s-39 1 -86 -1c0 0 -3 267 -3 453l-77 -1s0 24 -1 71c0 0 29 -2 79 -2v20c0 119 51 180 167 180c27 0 58 -4 92 -11c0 0 -3 -25 -7 -69c-32 8 -59 12 -80 12c-64 0 -84 -33 -84 -115v-18c46 0 92 0 159 1
c0 0 -1 -26 -1 -68zM345 424c0 0 -55 1 -149 0c-1 -184 1 -412 1 -412s-39 1 -86 -1c0 0 -3 227 -3 413l-77 -1s0 24 -1 71c0 0 29 -2 79 -2v20c0 119 51 180 167 180c27 0 58 -4 92 -11c0 0 -3 -25 -7 -69c-32 8 -59 12 -80 12c-64 0 -84 -33 -84 -115v-18c46 0 82 0 149 1
c0 0 -1 -26 -1 -68zM851 12c0 0 2 112 -2 479c0 0 35 0 86 1c0 0 0 -173 4 -479c0 0 -37 0 -88 -1zM893 555c-38 0 -67 23 -67 63c0 38 28 62 67 62c41 0 64 -30 64 -61c0 -40 -26 -64 -64 -64z" />
    <glyph glyph-name="ffl" unicode="ffl" horiz-adv-x="1001" 
d="M733 444c0 0 -65 1 -159 0c-1 -184 1 -452 1 -452s-39 1 -86 -1c0 0 -3 267 -3 453l-77 -1s0 24 -1 71c0 0 29 -2 79 -2v20c0 119 51 180 167 180c27 0 58 -4 92 -11c0 0 -3 -25 -7 -69c-32 8 -59 12 -80 12c-64 0 -84 -33 -84 -115v-18c46 0 92 0 159 1
c0 0 -1 -26 -1 -68zM345 424c0 0 -55 1 -149 0c-1 -184 1 -412 1 -412s-39 1 -86 -1c0 0 -3 227 -3 413l-77 -1s0 24 -1 71c0 0 29 -2 79 -2v20c0 119 51 180 167 180c27 0 58 -4 92 -11c0 0 -3 -25 -7 -69c-32 8 -59 12 -80 12c-64 0 -84 -33 -84 -115v-18c46 0 82 0 149 1
c0 0 -1 -26 -1 -68zM924 13c-55 0 -88 1 -88 1c3 477 1 669 1 669c61 -1 89 -1 89 -1c-5 -554 -2 -669 -2 -669z" />
    <glyph glyph-name=".notdef" horiz-adv-x="260" 
 />
    <glyph glyph-name="Lslash" unicode="&#x141;" horiz-adv-x="556" 
d="M25 274c0 0 2 29 1 79c0 0 35 10 90 27l-4 309s28 -1 92 0c0 0 -1 -91 0 -280c43 14 90 30 146 50c0 0 -1 -30 1 -76c0 0 -57 -17 -146 -47l3 -256c208 -5 314 -5 314 -5c0 -52 -1 -78 -1 -78c-244 6 -403 6 -403 6s0 119 -2 303z" />
    <glyph glyph-name="lslash" unicode="&#x142;" horiz-adv-x="305" 
d="M279 402l-84 -33c-1 -283 1 -366 1 -366c-55 0 -89 1 -89 1l2 330c-56 -22 -84 -34 -84 -34c1 49 0 72 0 72c30 11 58 22 84 33c1 191 0 288 0 288c60 -1 88 -1 88 -1l-2 -253c54 22 85 37 85 37c-2 -52 -1 -74 -1 -74z" />
    <glyph glyph-name="Scaron" unicode="&#x160;" horiz-adv-x="605" 
d="M301 -20c-153 6 -244 84 -254 244c0 0 30 2 96 10c4 -113 64 -176 160 -179c82 -2 156 38 156 113c0 53 -21 99 -189 148c-144 42 -204 109 -204 212c0 108 95 186 237 186c135 0 227 -77 240 -222c0 0 -38 -6 -91 -12c-1 90 -53 157 -149 157c-92 0 -147 -42 -147 -108
c0 -71 51 -108 182 -147c186 -55 215 -131 215 -211c0 -116 -111 -196 -252 -191zM409 921c0 0 16 -15 45 -37c0 0 -54 -57 -120 -137c0 0 -20 1 -67 0c0 0 -46 53 -121 133c0 0 14 10 44 38c0 0 48 -55 111 -119c0 0 36 36 108 122z" />
    <glyph glyph-name="scaron" unicode="&#x161;" horiz-adv-x="515" 
d="M254 -23c-111 0 -205 55 -219 187c0 0 31 1 84 8c16 -91 62 -124 139 -126c74 -2 120 32 120 78c0 35 -17 61 -144 93c-128 33 -175 81 -175 159c0 86 79 144 195 144c108 0 181 -62 205 -169c0 0 -32 -3 -80 -11c-17 71 -65 115 -133 115c-66 0 -101 -35 -101 -79
c0 -47 39 -72 134 -94c146 -34 186 -78 186 -152c0 -101 -88 -153 -211 -153zM359 726c0 0 16 -15 45 -37c0 0 -54 -57 -120 -137c0 0 -20 1 -67 0c0 0 -46 53 -121 133c0 0 14 10 44 38c0 0 48 -55 111 -119c0 0 36 36 108 122z" />
    <glyph glyph-name="Yacute" unicode="&#xdd;" horiz-adv-x="608" 
d="M249 -10c-1 11 0 115 -4 217c0 0 -59 135 -223 474c0 0 31 1 99 5c0 0 46 -110 170 -378c0 0 69 131 196 397c0 0 40 -1 99 -3c0 0 -99 -182 -250 -494c0 0 -1 -80 3 -217c0 0 -35 1 -90 -1zM295 754c-36 27 -47 35 -47 35c85 105 130 169 130 169c42 -30 62 -44 62 -44
c-97 -102 -145 -160 -145 -160z" />
    <glyph glyph-name="yacute" unicode="&#xfd;" horiz-adv-x="493" 
d="M478 517l-250 -753c-62 14 -84 18 -84 18c35 99 55 160 64 191c-120 328 -193 511 -193 511c61 3 95 5 95 5c72 -218 128 -378 143 -422c92 293 138 456 138 456c64 -5 87 -6 87 -6zM237 559c-36 27 -47 35 -47 35c85 105 130 169 130 169c42 -30 62 -44 62 -44
c-97 -102 -145 -160 -145 -160z" />
    <glyph glyph-name="Thorn" unicode="&#xde;" horiz-adv-x="592" 
d="M78 5c0 0 4 271 -1 689c0 0 36 -3 90 -3c0 0 -1 -45 -2 -119c28 2 55 3 80 3c220 0 312 -94 312 -218c0 -152 -126 -231 -319 -231c-22 0 -46 1 -70 3c1 -41 2 -82 4 -123c0 0 -38 1 -94 -1zM165 501c0 -84 0 -183 2 -300c28 -3 55 -4 79 -4c135 0 220 57 220 154
c0 86 -66 153 -223 153c-24 0 -50 -1 -78 -3z" />
    <glyph glyph-name="thorn" unicode="&#xfe;" horiz-adv-x="591" 
d="M71 -214c2 411 -1 895 -1 895c31 -1 90 1 90 1c-3 -97 -4 -215 -4 -280c35 76 102 118 172 118c136 0 212 -117 212 -269c1 -174 -90 -269 -220 -269c-61 0 -125 32 -164 93c3 -187 8 -288 8 -288c-43 1 -93 -1 -93 -1zM309 43c79 0 141 69 141 206
c0 111 -48 207 -143 207c-80 0 -148 -100 -148 -207c0 -114 63 -206 150 -206z" />
    <glyph glyph-name="Zcaron" unicode="&#x17d;" horiz-adv-x="560" 
d="M500 -2c-198 4 -444 5 -444 5c1 41 1 68 1 68c183 289 295 471 342 549c-216 -2 -338 -6 -338 -6c0 52 -1 80 -1 80c289 2 440 7 440 7c2 -47 2 -72 2 -72c-192 -303 -297 -473 -342 -547c138 -3 342 -3 342 -3c-1 -59 -2 -81 -2 -81zM388 921c0 0 16 -15 45 -37
c0 0 -54 -57 -120 -137c0 0 -20 1 -67 0c0 0 -46 53 -121 133c0 0 14 10 44 38c0 0 48 -55 111 -119c0 0 36 36 108 122z" />
    <glyph glyph-name="zcaron" unicode="&#x17e;" horiz-adv-x="502" 
d="M445 -3c-285 9 -390 8 -390 8c1 47 2 63 2 63c228 290 283 363 283 363c-224 -2 -277 -6 -277 -6c0 52 -2 73 -2 73c258 2 380 4 380 4c0 -41 1 -62 1 -62c-191 -244 -281 -366 -281 -366c208 -4 286 -2 286 -2c-2 -51 -2 -75 -2 -75zM360 726c0 0 16 -15 45 -37
c0 0 -54 -57 -120 -137c0 0 -20 1 -67 0c0 0 -46 53 -121 133c0 0 14 10 44 38c0 0 48 -55 111 -119c0 0 36 36 108 122z" />
    <glyph glyph-name="onehalf" unicode="&#xbd;" horiz-adv-x="804" 
d="M127 300c1 168 -1 286 -2 332c-42 -23 -82 -46 -82 -46c-12 31 -23 54 -23 54c75 41 123 70 123 70c24 -3 48 -4 48 -4c0 -206 4 -405 4 -405c-34 -1 -68 -1 -68 -1zM174 -20c-37 7 -54 8 -54 8c274 441 436 715 436 715c36 -6 58 -7 58 -7
c-306 -497 -440 -716 -440 -716zM759 47v-58c-164 4 -293 4 -293 4c-2 24 -2 62 -2 62c139 65 230 144 230 225c0 48 -26 76 -75 76c-59 0 -80 -39 -84 -102c0 0 -30 5 -66 7c1 94 63 147 150 147c96 0 145 -51 145 -126c0 -92 -96 -181 -213 -237c135 -2 208 2 208 2z" />
    <glyph glyph-name="onequarter" unicode="&#xbc;" horiz-adv-x="782" 
d="M127 300c1 168 -1 286 -2 332c-42 -23 -82 -46 -82 -46c-12 31 -23 54 -23 54c75 41 123 70 123 70c24 -3 48 -4 48 -4c0 -206 4 -405 4 -405c-34 -1 -68 -1 -68 -1zM174 -20c-37 7 -54 8 -54 8c274 441 436 715 436 715c36 -6 58 -7 58 -7
c-306 -497 -440 -716 -440 -716zM640 -10c0 31 0 61 1 91l-231 -3s0 16 -1 47c125 167 207 281 207 281c55 -2 89 -2 89 -2c-1 -160 -1 -206 -1 -273l43 1v-51h-43v-90c-34 0 -64 -1 -64 -1zM642 349c-85 -113 -141 -189 -163 -219h162c1 126 1 198 1 219z" />
    <glyph glyph-name="onesuperior" unicode="&#xb9;" horiz-adv-x="280" 
d="M127 300c1 168 -1 286 -2 332c-42 -23 -82 -46 -82 -46c-12 31 -23 54 -23 54c75 41 123 70 123 70c24 -3 48 -4 48 -4c0 -206 4 -405 4 -405c-34 -1 -68 -1 -68 -1z" />
    <glyph glyph-name="threequarters" unicode="&#xbe;" horiz-adv-x="881" 
d="M200 287c-99 0 -161 51 -170 135c0 0 32 4 72 12c7 -66 40 -94 99 -94c61 0 93 27 93 68c0 33 -20 54 -45 63c-28 10 -71 11 -103 9v50c48 -3 87 0 110 12c20 9 34 29 34 56c0 42 -30 73 -87 73c-48 0 -76 -30 -84 -84c-42 6 -71 9 -71 9c10 80 69 125 156 125
c93 0 155 -46 155 -116c0 -52 -39 -92 -98 -99c68 -8 103 -50 103 -101c0 -69 -64 -118 -164 -118zM273 -20c-37 7 -54 8 -54 8c274 441 436 715 436 715c36 -6 58 -7 58 -7c-306 -497 -440 -716 -440 -716zM739 -10c0 31 0 61 1 91l-231 -3s0 16 -1 47
c125 167 207 281 207 281c55 -2 89 -2 89 -2c-1 -160 -1 -206 -1 -273l43 1v-51h-43v-90c-34 0 -64 -1 -64 -1zM741 349c-85 -113 -141 -189 -163 -219h162c1 126 1 198 1 219z" />
    <glyph glyph-name="threesuperior" unicode="&#xb3;" horiz-adv-x="404" 
d="M200 287c-99 0 -161 51 -170 135c0 0 32 4 72 12c7 -66 40 -94 99 -94c61 0 93 27 93 68c0 33 -20 54 -45 63c-28 10 -71 11 -103 9v50c48 -3 87 0 110 12c20 9 34 29 34 56c0 42 -30 73 -87 73c-48 0 -76 -30 -84 -84c-42 6 -71 9 -71 9c10 80 69 125 156 125
c93 0 155 -46 155 -116c0 -52 -39 -92 -98 -99c68 -8 103 -50 103 -101c0 -69 -64 -118 -164 -118z" />
    <glyph glyph-name="twosuperior" unicode="&#xb2;" horiz-adv-x="380" 
d="M335 358v-58c-164 4 -293 4 -293 4c-2 24 -2 62 -2 62c139 65 230 144 230 225c0 48 -26 76 -75 76c-59 0 -80 -39 -84 -102c0 0 -30 5 -66 7c1 94 63 147 150 147c96 0 145 -51 145 -126c0 -92 -96 -181 -213 -237c135 -2 208 2 208 2z" />
    <glyph glyph-name="minus" unicode="&#x2212;" horiz-adv-x="484" 
d="M439 365c-1 -45 -1 -74 -1 -74c-212 4 -393 1 -393 1c1 47 0 74 0 74c195 -4 394 -1 394 -1z" />
    <glyph glyph-name="multiply" unicode="&#xd7;" horiz-adv-x="508" 
d="M99 115c0 0 -16 16 -49 46c0 0 71 74 160 170c-86 93 -155 166 -155 166c31 30 48 48 48 48c47 -53 100 -112 151 -167l156 173s21 -23 48 -48c0 0 -72 -75 -161 -171c87 -94 158 -168 158 -168c-34 -30 -50 -46 -50 -46c-47 52 -100 112 -152 167
c-51 -56 -106 -116 -154 -170z" />
    <glyph glyph-name="space" unicode=" " horiz-adv-x="260" 
 />
    <glyph glyph-name="exclam" unicode="!" horiz-adv-x="315" 
d="M159 -13c-46 0 -74 31 -74 76c0 39 24 73 73 73c47 0 72 -35 72 -76c0 -44 -32 -73 -71 -73zM117 192c0 0 -3 217 -13 517c0 0 51 -2 102 0c0 0 -4 -242 -6 -516c0 0 -37 1 -83 -1z" />
    <glyph glyph-name="quotedbl" unicode="&#x22;" horiz-adv-x="384" 
d="M79 421c0 0 -1 104 -9 275c0 0 28 0 76 2c0 0 -2 -95 -3 -274c0 0 -26 0 -64 -3zM238 415c0 0 2 104 0 296c0 0 25 -2 76 -1c0 0 -6 -120 -12 -297c0 0 -31 2 -64 2z" />
    <glyph glyph-name="numbersign" unicode="#" horiz-adv-x="612" 
d="M381 52c0 0 1 63 1 142l-156 -1c1 -45 2 -88 4 -128c0 0 -31 2 -72 2c0 0 0 53 1 125l-113 -2s1 26 -1 69c0 0 42 -1 114 -1c0 60 0 120 -1 193c-34 0 -71 -1 -108 -2c0 0 1 26 -1 68h108c0 42 -1 84 -2 125c0 0 28 -1 71 1c0 0 -1 -52 -1 -126l155 1c0 47 -1 94 -2 139
c0 0 31 -2 70 1c0 0 -1 -55 -1 -139c37 0 76 1 117 2c0 0 -2 -28 -2 -66h-115c0 -58 1 -122 2 -196l118 2s-2 -27 -1 -68c0 0 -48 1 -116 1c0 -46 1 -94 2 -142c0 0 -29 2 -71 0zM225 452c0 -61 0 -124 1 -194h156l-1 196c-45 0 -98 -1 -156 -2z" />
    <glyph glyph-name="dollar" unicode="$" horiz-adv-x="553" 
d="M328 -132c-47 1 -83 0 -83 0c3 60 4 98 4 112c-118 12 -211 82 -214 220c0 0 43 3 92 10c2 -108 61 -158 154 -158c87 0 146 47 146 103c0 52 -25 90 -165 130c-147 42 -211 90 -211 192c0 97 71 178 195 188c-1 66 -4 112 -4 112c60 -1 88 -1 88 -1
c-3 -59 -5 -94 -5 -114c118 -19 186 -104 187 -228c0 0 -33 -1 -89 -9c1 94 -44 169 -148 169c-84 0 -133 -51 -133 -110c0 -57 40 -92 173 -132c170 -51 203 -113 203 -189c0 -98 -87 -167 -191 -182c-1 -65 1 -113 1 -113z" />
    <glyph glyph-name="percent" unicode="%" horiz-adv-x="789" 
d="M594 -18c-104 0 -157 80 -157 182c0 94 57 184 158 184c104 0 159 -82 159 -183c0 -122 -67 -183 -160 -183zM192 302c-103 0 -157 79 -157 185c0 94 57 181 159 181c103 0 158 -76 158 -184c0 -111 -72 -182 -160 -182zM212 -20c-37 7 -54 8 -54 8
c274 441 408 668 408 668c36 -6 58 -7 58 -7zM192 355c58 0 90 56 91 132c0 72 -29 129 -89 129c-55 0 -90 -57 -90 -130c0 -81 31 -131 88 -131zM596 35c58 0 88 56 88 126c0 81 -28 133 -91 133c-53 0 -86 -58 -86 -127c0 -82 34 -132 89 -132z" />
    <glyph glyph-name="ampersand" unicode="&#x26;" horiz-adv-x="702" 
d="M289 -35c-146 0 -239 83 -239 197c0 100 63 149 138 187c-45 61 -69 123 -69 183c0 116 79 187 196 187c110 0 178 -72 178 -160c0 -128 -98 -178 -190 -224c50 -53 117 -106 199 -160c20 47 32 106 33 179c45 -6 75 -7 75 -7c-2 -86 -17 -157 -42 -214
c37 -23 77 -45 119 -68c0 0 -14 -20 -39 -62c-42 21 -82 42 -120 64c-55 -67 -135 -102 -239 -102zM230 298c-52 -31 -90 -67 -90 -128c0 -85 71 -136 161 -136c61 0 118 24 160 74c-94 61 -173 125 -231 190zM415 551c0 58 -41 101 -104 101c-59 0 -107 -46 -107 -120
c0 -49 20 -98 57 -149c81 37 154 77 154 168z" />
    <glyph glyph-name="quotesingle" unicode="'" horiz-adv-x="216" 
d="M71 420c0 0 2 90 -1 285c0 0 26 -2 76 -2c0 0 -5 -107 -12 -284c0 0 -28 1 -63 1z" />
    <glyph glyph-name="parenleft" unicode="(" horiz-adv-x="302" 
d="M186 -137c-81 149 -116 296 -116 437c0 172 43 330 123 451c44 -18 74 -28 74 -28c-73 -124 -105 -267 -105 -418c0 -137 27 -258 104 -414c-46 -14 -80 -28 -80 -28z" />
    <glyph glyph-name="parenright" unicode=")" horiz-adv-x="302" 
d="M116 -139c0 0 -34 15 -81 28c69 143 105 274 105 420c0 143 -33 295 -104 416c0 0 31 12 75 32c81 -127 121 -289 121 -452c0 -148 -39 -298 -116 -444z" />
    <glyph glyph-name="asterisk" unicode="*" horiz-adv-x="420" 
d="M143 325l-62 30c44 70 74 120 85 140c-71 12 -126 18 -126 18c8 35 14 66 14 66c60 -18 107 -29 128 -34c-3 80 -10 149 -10 149c42 0 75 1 75 1l-10 -152c72 16 131 32 131 32c5 -38 12 -67 12 -67c-56 -7 -99 -12 -122 -14c42 -68 86 -137 86 -137
c-36 -15 -61 -29 -61 -29l-70 142c-37 -70 -70 -145 -70 -145z" />
    <glyph glyph-name="plus" unicode="+" horiz-adv-x="528" 
d="M224 104c1 63 2 130 2 192c-99 0 -175 -1 -175 -1c1 43 -1 75 -1 75c56 -2 118 -3 177 -3l-1 184c47 -2 75 -2 75 -2c-1 -66 -2 -127 -2 -182c99 0 179 1 179 1c-3 -47 -2 -73 -2 -73c-57 1 -119 1 -177 1c0 -117 2 -191 2 -191c-45 0 -77 -1 -77 -1z" />
    <glyph glyph-name="comma" unicode="," horiz-adv-x="267" 
d="M81 -158c-25 30 -38 41 -38 41c50 39 71 89 78 109c-36 3 -61 33 -61 73c0 39 28 76 74 76s73 -37 73 -88c0 -85 -56 -158 -126 -211z" />
    <glyph glyph-name="hyphen" unicode="-" horiz-adv-x="371" 
d="M36 303c0 54 -1 79 -1 79c225 -5 301 -3 301 -3c-3 -61 -2 -76 -2 -76c-199 2 -298 0 -298 0z" />
    <glyph glyph-name="period" unicode="." horiz-adv-x="264" 
d="M132 -10c-46 0 -72 32 -72 77c0 47 30 76 71 76c47 0 73 -35 73 -73c0 -50 -28 -80 -72 -80z" />
    <glyph glyph-name="slash" unicode="/" horiz-adv-x="444" 
d="M35 -112c157 447 289 845 289 845c51 -2 85 0 85 0c-214 -610 -289 -845 -289 -845c-49 1 -85 0 -85 0z" />
    <glyph glyph-name="zero" unicode="0" horiz-adv-x="643" 
d="M322 -22c-147 0 -272 104 -272 353c0 211 109 343 272 343c169 0 271 -123 271 -339c0 -218 -104 -357 -271 -357zM326 57c103 0 175 94 175 279c0 152 -62 261 -177 261c-118 0 -181 -111 -181 -261c0 -172 59 -279 183 -279z" />
    <glyph glyph-name="one" unicode="1" horiz-adv-x="382" 
d="M181 -3c2 296 -1 512 -2 562c-71 -39 -135 -75 -135 -75c-18 45 -29 70 -29 70c123 66 192 109 192 109c34 -6 57 -8 57 -8c0 -334 8 -657 8 -657c-51 -2 -91 -1 -91 -1z" />
    <glyph glyph-name="two" unicode="2" horiz-adv-x="572" 
d="M521 -3c-269 7 -479 7 -479 7c-2 38 -2 85 -2 85c299 175 395 278 395 394c0 67 -57 120 -130 120c-112 0 -166 -74 -168 -191c0 0 -44 6 -96 12c11 174 107 253 262 253c122 0 229 -73 229 -195c0 -156 -134 -275 -368 -401c220 -5 358 2 358 2c-1 -46 -1 -86 -1 -86z
" />
    <glyph glyph-name="three" unicode="3" horiz-adv-x="598" 
d="M304 -23c-152 0 -260 65 -269 228c0 0 33 2 93 10c5 -118 65 -163 179 -163c88 0 153 47 153 125c0 46 -30 84 -88 101c-37 11 -84 16 -155 16c0 0 0 36 -1 71c19 -1 35 -2 51 -2c50 0 86 6 120 20c37 15 65 52 65 99c0 81 -63 126 -153 126c-88 0 -144 -46 -157 -152
c-54 12 -95 19 -95 19c26 148 129 206 254 206c142 0 244 -76 244 -191c0 -88 -59 -144 -135 -158c86 -17 143 -77 143 -158c0 -121 -109 -197 -249 -197z" />
    <glyph glyph-name="four" unicode="4" horiz-adv-x="587" 
d="M398 -1c0 49 1 98 2 144c-100 0 -234 -1 -374 -3c0 0 -1 23 0 75l338 459c86 -2 123 -2 123 -2c-2 -194 -2 -346 -2 -457c24 0 48 0 72 1c0 0 -1 -30 -1 -72h-70c0 -91 1 -144 1 -144c-54 -1 -89 -1 -89 -1zM402 602c-148 -201 -248 -341 -282 -388h280
c2 218 2 359 2 388z" />
    <glyph glyph-name="five" unicode="5" horiz-adv-x="597" 
d="M314 -22c-139 0 -227 68 -257 186c55 9 99 21 99 21c18 -99 79 -137 161 -137c95 0 157 71 157 172c0 85 -49 155 -148 155c-72 0 -126 -37 -162 -107c0 0 -39 5 -88 7c0 0 6 175 8 386c0 0 266 0 447 4c0 0 -1 -32 -1 -78c0 0 -212 1 -360 -2c-2 -47 -6 -132 -8 -226
c45 53 111 83 185 83c136 0 221 -89 222 -226c0 -145 -99 -238 -255 -238z" />
    <glyph glyph-name="six" unicode="6" horiz-adv-x="613" 
d="M322 -26c-165 0 -272 119 -272 345c0 221 103 357 274 357c123 0 201 -59 230 -183c-56 -3 -102 -11 -102 -11c-16 78 -53 121 -129 121c-109 0 -179 -97 -179 -278v-23c44 64 119 111 206 111c143 0 228 -89 228 -204c0 -152 -110 -235 -256 -235zM342 340
c-82 0 -148 -44 -191 -111c23 -129 93 -181 179 -181c91 0 150 65 150 153c1 81 -53 139 -138 139z" />
    <glyph glyph-name="seven" unicode="7" horiz-adv-x="519" 
d="M172 -9c-7 243 83 442 232 593c-127 1 -379 -2 -379 -2c1 45 0 80 0 80c222 1 472 4 472 4c1 -56 2 -84 2 -84c-162 -169 -236 -331 -230 -591c-59 1 -97 0 -97 0z" />
    <glyph glyph-name="eight" unicode="8" horiz-adv-x="609" 
d="M309 -27c-174 0 -269 74 -269 197c0 86 60 149 156 174c-87 28 -132 89 -132 163c0 90 81 171 241 171c162 0 243 -76 243 -169c0 -79 -46 -137 -135 -165c98 -29 155 -95 156 -176c0 -129 -117 -195 -260 -195zM306 44c99 0 166 46 166 125c0 78 -77 130 -183 145
c-93 -19 -153 -65 -153 -140c0 -81 66 -130 170 -130zM324 371c81 15 132 59 132 129c-1 67 -52 112 -151 112c-89 0 -150 -42 -150 -112c0 -65 58 -108 169 -129z" />
    <glyph glyph-name="nine" unicode="9" horiz-adv-x="607" 
d="M291 -23c-143 0 -229 76 -251 216c52 3 97 9 97 9c16 -105 71 -147 155 -147c100 0 173 68 173 292v5c-42 -60 -114 -99 -204 -99c-142 0 -219 94 -219 208c0 129 98 218 249 218c159 0 265 -115 265 -337c1 -254 -105 -365 -265 -365zM283 323c71 0 137 40 177 98
c-17 121 -79 184 -171 184c-95 0 -152 -64 -152 -148c0 -87 60 -134 146 -134z" />
    <glyph glyph-name="colon" unicode=":" horiz-adv-x="286" 
d="M143 -14c-42 0 -72 29 -72 78c0 45 29 77 73 77c54 0 72 -40 72 -77c0 -50 -29 -78 -73 -78zM142 269c-44 0 -72 31 -72 79c0 44 28 75 73 75c46 0 72 -34 72 -75c0 -53 -31 -79 -73 -79z" />
    <glyph glyph-name="semicolon" unicode=";" horiz-adv-x="286" 
d="M95 -157c-21 22 -39 36 -40 37c42 33 68 88 78 112c-35 1 -65 28 -65 69c0 46 31 80 74 80c49 0 74 -44 74 -89c0 -73 -59 -164 -121 -209zM142 270c-39 0 -72 27 -72 81c0 38 27 73 74 73c38 0 71 -30 71 -73c0 -48 -27 -81 -73 -81z" />
    <glyph glyph-name="less" unicode="&#x3c;" horiz-adv-x="525" 
d="M470 153c0 0 -3 -37 -2 -83c0 0 -195 101 -423 211c0 0 2 35 2 81c0 0 173 85 418 210c0 0 -2 -33 -2 -86c0 0 -155 -72 -342 -164c58 -29 214 -105 349 -169z" />
    <glyph glyph-name="equal" unicode="=" horiz-adv-x="517" 
d="M62 196c0 0 0 18 -2 67c0 0 170 -1 397 2c0 0 -2 -25 -1 -69c0 0 -157 2 -394 0zM457 393c-238 4 -397 2 -397 2c2 48 2 69 2 69c218 -2 395 0 395 0c-1 -51 0 -71 0 -71z" />
    <glyph glyph-name="greater" unicode="&#x3e;" horiz-adv-x="516" 
d="M57 69c0 51 -2 80 -2 80c153 74 296 148 344 173c-181 91 -336 166 -336 166s1 30 -2 84c246 -128 408 -209 408 -209c0 -46 2 -79 2 -79c-223 -116 -414 -215 -414 -215z" />
    <glyph glyph-name="question" unicode="?" horiz-adv-x="592" 
d="M231 180c0 100 -3 184 -3 184c159 -8 218 41 218 138c0 73 -50 137 -148 137c-97 0 -145 -61 -166 -169c0 0 -35 11 -92 20c21 131 111 225 252 225c167 0 250 -102 250 -207c0 -134 -85 -203 -220 -209c-3 -58 -1 -117 -1 -117c-59 0 -90 -2 -90 -2zM281 -18
c-48 0 -72 30 -72 74c0 41 29 70 71 70c45 0 70 -30 70 -74c0 -43 -28 -70 -69 -70z" />
    <glyph glyph-name="at" unicode="@" horiz-adv-x="1009" 
d="M504 522c78 0 133 -67 147 -145c5 21 11 56 20 111c0 0 36 -2 83 0c0 0 -47 -214 -66 -332c-2 -13 -4 -36 -4 -48c0 -46 26 -70 61 -70c65 0 137 96 137 260c0 185 -138 333 -347 333c-276 0 -408 -203 -408 -412c0 -210 136 -358 343 -358c79 0 159 14 224 40l17 -65
c-83 -26 -164 -39 -244 -39c-267 0 -412 197 -412 424c0 248 178 473 485 473c259 0 414 -188 414 -388c0 -203 -90 -334 -214 -334c-86 0 -134 50 -136 142c-47 -85 -112 -135 -188 -135c-105 0 -169 89 -169 214c0 94 43 196 100 253c46 46 95 76 157 76zM511 455
c-34 0 -65 -17 -93 -45c-49 -49 -84 -139 -84 -221s34 -143 100 -143c36 0 70 19 100 49c48 48 85 126 85 204c0 83 -43 156 -108 156z" />
    <glyph glyph-name="A" unicode="A" horiz-adv-x="625" 
d="M27 22c0 0 85 262 212 680c76 2 132 2 132 2s111 -360 227 -725c0 0 -48 0 -94 -2c0 0 -21 70 -55 185c-38 1 -141 3 -290 3c-14 -48 -27 -97 -40 -145c0 0 -45 2 -92 2zM301 652c-20 -68 -69 -232 -122 -417c82 -1 130 -1 249 -1c-34 115 -78 259 -127 418z" />
    <glyph glyph-name="B" unicode="B" horiz-adv-x="632" 
d="M85 -3c0 0 -1 333 -8 699c78 12 146 19 204 18c190 -2 274 -74 274 -186c0 -80 -50 -149 -162 -170c134 -15 195 -86 195 -174c0 -139 -115 -201 -309 -202c-58 0 -123 5 -194 15zM171 64c47 -7 89 -10 126 -10c136 0 199 46 199 132c0 78 -55 129 -269 129
c-19 0 -38 0 -59 -1c1 -134 2 -218 3 -250zM167 632c0 -91 0 -169 1 -239c20 -1 39 -1 58 -1c187 0 241 48 241 128c0 83 -69 121 -188 121c-34 0 -71 -3 -112 -9z" />
    <glyph glyph-name="C" unicode="C" horiz-adv-x="661" 
d="M349 -20c-200 0 -290 151 -290 368c0 223 102 367 292 367c149 0 224 -94 246 -238c-63 -9 -93 -17 -93 -17c-17 112 -62 177 -155 177c-134 0 -195 -127 -195 -286c0 -164 59 -292 195 -292c99 0 159 59 173 202c57 -9 95 -13 95 -13c-20 -180 -113 -268 -268 -268z" />
    <glyph glyph-name="D" unicode="D" horiz-adv-x="660" 
d="M171 73c15 -1 29 -1 43 -1c188 0 293 73 293 280c0 163 -93 271 -281 271c-20 0 -39 -1 -61 -3c1 -291 6 -547 6 -547zM78 2c3 384 -1 687 -1 687c54 8 97 11 148 11c258 0 376 -144 376 -349c0 -231 -129 -357 -400 -357c-36 0 -79 3 -123 8z" />
    <glyph glyph-name="E" unicode="E" horiz-adv-x="561" 
d="M85 4c0 0 -1 286 -8 690c0 0 189 2 426 7c0 0 0 -26 1 -75c0 0 -157 -1 -337 -5c0 0 0 -97 2 -260c19 0 152 -1 296 1c0 0 0 -31 1 -79c0 0 -155 3 -296 1c1 -62 2 -132 4 -208l340 -4s0 -28 -1 -75c0 0 -231 6 -428 7z" />
    <glyph glyph-name="F" unicode="F" horiz-adv-x="533" 
d="M85 2c0 0 -1 289 -8 692c0 0 218 3 416 6c0 0 1 -32 1 -80c0 0 -174 -1 -326 -4c0 0 0 -91 2 -274c26 0 117 -1 286 2c0 0 0 -33 1 -81c0 0 -115 2 -286 0l4 -260c-54 -1 -93 -1 -90 -1z" />
    <glyph glyph-name="G" unicode="G" horiz-adv-x="674" 
d="M353 -24c-186 0 -294 126 -294 372c0 200 98 368 296 368c135 0 222 -81 244 -220c0 0 -30 -5 -85 -18c-18 104 -76 163 -162 163c-133 0 -200 -121 -200 -287c0 -183 57 -301 209 -301c103 0 180 77 174 230c-19 0 -95 0 -222 -2c0 0 0 29 -1 79c0 0 74 -2 300 0
c5 -31 7 -60 7 -87c0 -186 -105 -297 -266 -297z" />
    <glyph glyph-name="H" unicode="H" horiz-adv-x="637" 
d="M470 -21v271c-40 1 -138 1 -301 -1l3 -229s-51 0 -91 -1c0 0 1 249 -4 656c0 0 40 0 88 1c0 0 1 -140 3 -345c29 -1 128 -3 301 -2c0 111 -2 243 -3 387c0 0 40 0 91 1c0 0 0 -329 3 -738c0 0 -45 1 -90 0z" />
    <glyph glyph-name="I" unicode="I" horiz-adv-x="269" 
d="M91 -1c0 0 0 305 -4 695c0 0 32 1 90 1c0 0 1 -333 5 -696c0 0 -41 1 -91 0z" />
    <glyph glyph-name="J" unicode="J" horiz-adv-x="534" 
d="M257 -19c-151 0 -215 95 -215 265c0 20 1 40 3 62c0 0 33 -2 92 -3c-1 -19 -2 -37 -2 -54c0 -132 43 -187 123 -187c79 0 127 52 127 206c0 250 -4 432 -4 432s34 0 95 3c0 0 -1 -169 -1 -452c0 -181 -80 -272 -218 -272z" />
    <glyph glyph-name="K" unicode="K" horiz-adv-x="622" 
d="M499 -23c-114 162 -194 272 -231 323c-47 -58 -82 -103 -102 -129c1 -101 3 -155 3 -155c-51 1 -91 -1 -91 -1c1 407 -1 660 -1 660c51 -2 89 -1 89 -1c-1 -159 -1 -289 0 -392c206 270 320 427 320 427c64 -4 100 -6 100 -6c-146 -188 -228 -301 -256 -340
c155 -222 270 -379 270 -379c-68 -3 -101 -7 -101 -7z" />
    <glyph glyph-name="L" unicode="L" horiz-adv-x="521" 
d="M83 3c0 0 -1 302 -6 686c0 0 26 -1 90 0c0 0 -1 -191 4 -607c208 -5 316 -5 316 -5c-1 -52 -1 -80 -1 -80c-244 6 -403 6 -403 6z" />
    <glyph glyph-name="M" unicode="M" horiz-adv-x="890" 
d="M74 22c0 0 8 234 21 653c0 0 62 1 129 5c0 0 114 -308 208 -555c36 93 136 355 222 592c0 0 64 -1 131 -5c0 0 13 -347 31 -732c0 0 -45 0 -93 -1c0 0 -3 287 -15 660c-33 -86 -150 -390 -226 -599c0 0 -56 0 -101 1c0 0 -98 270 -213 565c-1 -73 -4 -324 -5 -587
c0 0 -44 2 -89 3z" />
    <glyph glyph-name="N" unicode="N" horiz-adv-x="656" 
d="M80 20c0 0 2 244 -3 652c0 0 43 3 98 6c0 0 150 -275 321 -577c-1 85 -3 352 -11 615c0 0 36 -1 86 -1c0 0 1 -285 8 -730l-102 -7s-139 256 -318 572c0 -80 1 -307 7 -532c0 0 -38 1 -86 2z" />
    <glyph glyph-name="O" unicode="O" horiz-adv-x="700" 
d="M350 -23c-175 0 -290 132 -290 362c0 234 114 377 294 377c176 0 286 -146 286 -375c0 -234 -111 -364 -290 -364zM349 54c110 0 195 92 195 291c0 189 -74 295 -193 295c-126 0 -195 -117 -195 -295c0 -180 74 -291 193 -291z" />
    <glyph glyph-name="P" unicode="P" horiz-adv-x="589" 
d="M82 9c0 0 1 255 -5 674c49 6 96 9 139 9c209 0 341 -69 341 -226c0 -164 -142 -228 -324 -228c-21 0 -42 0 -63 2l4 -230s-48 1 -92 -1zM167 613c1 -170 0 -217 1 -299c29 -3 56 -4 81 -4c145 0 216 58 216 158c0 84 -59 148 -224 148c-23 0 -47 -1 -74 -3z" />
    <glyph glyph-name="Q" unicode="Q" horiz-adv-x="698" 
d="M350 -22c-182 0 -291 137 -291 356c0 258 133 380 290 380c193 0 290 -149 290 -380c0 -133 -40 -232 -108 -292c79 -106 116 -154 116 -154c-52 -32 -75 -50 -75 -50c-46 68 -85 124 -111 161c-33 -14 -71 -21 -111 -21zM351 56c111 0 192 82 192 287
c0 184 -74 294 -196 294c-115 0 -193 -121 -193 -296c0 -187 78 -285 197 -285z" />
    <glyph glyph-name="R" unicode="R" horiz-adv-x="624" 
d="M501 -26c0 0 -70 130 -173 311c-27 -3 -56 -4 -87 -4c-23 0 -48 1 -73 3c0 -56 1 -155 4 -266c0 0 -49 1 -90 -1c0 0 1 244 -5 665c72 14 136 20 193 20c195 0 301 -75 301 -207c0 -98 -54 -164 -160 -195l181 -313s-37 -4 -91 -13zM167 360c36 -5 69 -7 99 -7
c142 0 214 43 214 137c0 87 -63 136 -199 136c-34 0 -74 -4 -117 -11c1 -180 3 -255 3 -255z" />
    <glyph glyph-name="S" unicode="S" horiz-adv-x="605" 
d="M301 -20c-153 6 -244 84 -254 244c0 0 30 2 96 10c4 -113 64 -176 160 -179c82 -2 156 38 156 113c0 53 -21 99 -189 148c-144 42 -204 109 -204 212c0 108 95 186 237 186c135 0 227 -77 240 -222c0 0 -38 -6 -91 -12c-1 90 -53 157 -149 157c-92 0 -147 -42 -147 -108
c0 -71 51 -108 182 -147c186 -55 215 -131 215 -211c0 -116 -111 -196 -252 -191z" />
    <glyph glyph-name="T" unicode="T" horiz-adv-x="551" 
d="M28 616c0 0 0 36 -1 81c0 0 245 0 497 4c0 0 -1 -39 0 -82h-203c0 -86 1 -298 5 -629c0 0 -42 0 -92 -1c0 0 0 252 -3 629c-66 0 -137 -1 -203 -2z" />
    <glyph glyph-name="U" unicode="U" horiz-adv-x="633" 
d="M322 -14c-180 0 -253 111 -253 304c0 95 -2 385 -2 385s36 -2 93 -1c0 0 -2 -273 -2 -375c0 -164 52 -232 167 -232c111 0 153 78 153 237c0 124 -1 408 -1 408s27 -1 89 2c0 0 -2 -282 -2 -414c0 -202 -75 -314 -242 -314z" />
    <glyph glyph-name="V" unicode="V" horiz-adv-x="613" 
d="M370 -23l-134 2c-126 416 -209 680 -209 680c57 0 96 2 96 2c73 -266 155 -534 180 -616c107 371 191 659 191 659l92 -5c-118 -385 -216 -722 -216 -722z" />
    <glyph glyph-name="W" unicode="W" horiz-adv-x="883" 
d="M589 -12c-90 368 -136 542 -153 603c-99 -365 -152 -579 -152 -579c-88 4 -128 7 -128 7c-65 389 -118 666 -119 675c50 1 90 3 90 3c43 -279 82 -498 100 -595c111 400 149 556 149 556c79 0 121 -1 121 -1c92 -353 139 -528 157 -592c95 520 114 657 114 657
c64 -3 88 -3 88 -3c-111 -574 -135 -725 -135 -725c-70 -2 -132 -6 -132 -6z" />
    <glyph glyph-name="X" unicode="X" horiz-adv-x="619" 
d="M137 17c-81 1 -108 1 -108 1c141 216 200 309 215 333c-21 35 -88 144 -203 323c54 0 91 3 104 4c0 0 50 -88 156 -262c129 211 180 300 180 300c76 -1 102 -2 102 -2c-130 -203 -202 -318 -229 -361c153 -250 236 -369 236 -369c-77 -3 -104 -5 -104 -5
c-89 151 -156 255 -189 306c-105 -168 -160 -268 -160 -268z" />
    <glyph glyph-name="Y" unicode="Y" horiz-adv-x="608" 
d="M249 -10c-1 11 0 115 -4 217c0 0 -59 135 -223 474c0 0 31 1 99 5c0 0 46 -110 170 -378c0 0 69 131 196 397c0 0 40 -1 99 -3c0 0 -99 -182 -250 -494c0 0 -1 -80 3 -217c0 0 -35 1 -90 -1z" />
    <glyph glyph-name="Z" unicode="Z" horiz-adv-x="560" 
d="M500 -2c-198 4 -444 5 -444 5c1 41 1 68 1 68c183 289 295 471 342 549c-216 -2 -338 -6 -338 -6c0 52 -1 80 -1 80c289 2 440 7 440 7c2 -47 2 -72 2 -72c-192 -303 -297 -473 -342 -547c138 -3 342 -3 342 -3c-1 -59 -2 -81 -2 -81z" />
    <glyph glyph-name="bracketleft" unicode="[" horiz-adv-x="339" 
d="M297 -117c0 0 -97 3 -206 3c0 0 2 255 -4 846c0 0 80 0 204 2c0 0 0 -29 2 -68c0 0 -48 0 -114 -2c0 0 -2 -443 1 -705c0 0 48 -2 119 -2c0 0 -2 -29 -2 -74z" />
    <glyph glyph-name="backslash" unicode="\" horiz-adv-x="444" 
d="M409 -111c0 0 -36 1 -86 0c0 0 -75 234 -288 845c0 0 33 -2 85 0c0 0 131 -398 289 -845z" />
    <glyph glyph-name="bracketright" unicode="]" horiz-adv-x="339" 
d="M44 -120c0 42 -2 70 -2 73c65 0 113 2 120 2c2 214 -1 669 -2 717c-59 3 -105 2 -113 2c2 36 1 65 1 69c114 -2 192 -2 203 -2c-4 -480 -2 -747 -1 -858c-94 1 -195 -3 -206 -3z" />
    <glyph glyph-name="asciicircum" unicode="^" horiz-adv-x="508" 
d="M463 308c0 0 -23 3 -82 1c0 0 -39 108 -128 323c-22 -55 -71 -178 -127 -329c0 0 -28 3 -81 3c0 0 61 143 163 396c0 0 36 -2 93 0c0 0 55 -143 162 -394z" />
    <glyph glyph-name="underscore" unicode="_" horiz-adv-x="481" 
d="M18 -81c1 41 0 58 -1 72c88 -2 284 -2 449 0c-1 -46 -1 -60 -1 -73c-83 1 -317 2 -447 1z" />
    <glyph glyph-name="grave" unicode="`" horiz-adv-x="580" 
d="M323 556c0 0 -47 56 -144 158c0 0 20 14 62 45c0 0 46 -64 130 -168c0 0 -12 -8 -48 -35z" />
    <glyph glyph-name="a" unicode="a" horiz-adv-x="544" 
d="M218 -16c-96 0 -168 51 -168 149c0 111 107 177 337 186v10c0 74 -35 126 -111 126c-63 0 -105 -31 -128 -107c0 0 -32 12 -79 21c33 98 105 150 212 150c119 0 192 -68 195 -206c5 -173 1 -329 1 -329s-26 -1 -75 -2c0 0 2 48 3 120c-32 -69 -94 -118 -187 -118z
M391 229v32c-183 -10 -252 -53 -252 -123c0 -53 37 -85 100 -86c84 -1 152 59 152 177z" />
    <glyph glyph-name="b" unicode="b" horiz-adv-x="592" 
d="M72 -18c0 0 3 62 -2 696c0 0 27 -2 89 -1c0 0 -2 -130 -3 -278c33 76 97 118 177 118c125 0 204 -109 204 -267c0 -172 -86 -268 -219 -268c-78 0 -139 38 -171 115c0 -38 1 -80 3 -116c0 0 -43 0 -78 1zM310 43c82 0 137 67 137 212c0 106 -46 196 -132 196
c-81 0 -157 -77 -157 -212c0 -115 70 -196 152 -196z" />
    <glyph glyph-name="c" unicode="c" horiz-adv-x="553" 
d="M288 -22c-157 0 -234 119 -232 271c0 151 86 268 231 268c122 0 188 -68 211 -176c-53 -5 -88 -14 -88 -14c-15 66 -46 120 -124 120c-94 0 -142 -84 -142 -200c0 -119 48 -198 143 -198c68 0 108 34 132 127c0 0 24 -7 84 -15c-27 -126 -97 -183 -215 -183z" />
    <glyph glyph-name="d" unicode="d" horiz-adv-x="592" 
d="M522 -18c0 0 -45 1 -81 1c0 0 2 48 4 121c-32 -84 -109 -122 -185 -122c-121 0 -205 104 -205 261c0 163 86 274 211 274c81 0 140 -48 170 -107c-1 63 -2 160 -5 276c0 0 21 -1 91 1c0 0 -3 -315 0 -705zM284 46c85 0 151 78 151 196c-5 116 -53 209 -156 209
c-84 0 -134 -92 -134 -203c0 -118 45 -202 139 -202z" />
    <glyph glyph-name="e" unicode="e" horiz-adv-x="556" 
d="M285 -21c-158 0 -230 122 -229 271c0 146 85 267 239 267c154 -1 221 -139 199 -278c0 0 -104 -1 -348 -9c5 -111 54 -183 142 -183c60 0 110 28 136 110c0 0 17 -7 80 -21c-34 -97 -107 -157 -219 -157zM291 451c-80 0 -130 -61 -142 -155c45 1 127 5 264 11
c-2 77 -42 144 -122 144z" />
    <glyph glyph-name="f" unicode="f" horiz-adv-x="393" 
d="M355 434c0 0 -65 1 -159 0c-1 -184 1 -432 1 -432s-39 1 -86 -1c0 0 -3 247 -3 433l-77 -1s0 24 -1 71c0 0 29 -2 79 -2v20c0 119 51 180 167 180c27 0 58 -4 92 -11c0 0 -3 -25 -7 -69c-32 8 -59 12 -80 12c-64 0 -84 -33 -84 -115v-18c46 0 92 0 159 1
c0 0 -1 -26 -1 -68z" />
    <glyph glyph-name="g" unicode="g" horiz-adv-x="541" 
d="M265 129c-15 0 -29 1 -43 3c-27 -16 -39 -33 -39 -45c0 -24 29 -38 120 -45c171 -14 218 -61 218 -136c0 -110 -122 -178 -272 -178c-139 0 -219 58 -219 139c0 60 54 107 112 134c-29 17 -40 41 -40 64c0 26 21 59 63 82c-77 31 -126 99 -125 185c1 112 90 191 221 191
c43 0 80 -9 112 -23c8 22 23 65 49 144c0 0 33 -14 88 -34c0 0 -27 -39 -88 -142c41 -36 64 -87 64 -141c0 -125 -103 -198 -221 -198zM263 193c81 0 135 44 135 136c0 68 -47 128 -136 128c-83 0 -135 -48 -135 -128c0 -83 51 -136 136 -136zM436 -103c0 59 -98 70 -246 80
c-48 -30 -71 -65 -71 -98c0 -49 49 -82 138 -82c109 0 179 45 179 100z" />
    <glyph glyph-name="h" unicode="h" horiz-adv-x="561" 
d="M73 19c0 0 1 273 -3 657c0 0 32 0 89 1c0 0 -2 -145 -1 -291c36 80 100 128 180 128c101 0 152 -64 155 -182c5 -192 1 -352 1 -352h-87s4 137 1 322c-2 89 -25 137 -95 137c-95 0 -152 -112 -154 -220c-1 -86 1 -199 1 -199s-37 0 -87 -1z" />
    <glyph glyph-name="i" unicode="i" horiz-adv-x="261" 
d="M90 2c0 0 2 132 -2 499c0 0 35 0 86 1c0 0 0 -193 4 -499c0 0 -37 0 -88 -1zM132 565c-38 0 -67 23 -67 63c0 38 28 62 67 62c41 0 64 -30 64 -61c0 -40 -26 -64 -64 -64z" />
    <glyph glyph-name="j" unicode="j" horiz-adv-x="261" 
d="M132 566c-44 0 -67 29 -67 63c0 37 29 61 65 61c41 0 66 -27 66 -61c0 -40 -28 -63 -64 -63zM-38 -207c0 0 2 34 3 82c19 -4 36 -6 51 -6c46 0 73 21 74 77c2 245 -2 555 -2 555c59 -1 85 1 85 1s5 -253 3 -561c0 -109 -66 -153 -156 -153c-18 0 -38 2 -58 5z" />
    <glyph glyph-name="k" unicode="k" horiz-adv-x="517" 
d="M402 -21c-88 140 -143 226 -168 263l-76 -86c1 -98 2 -138 2 -138c-52 2 -88 2 -88 2c2 473 -2 657 -2 657c58 -2 88 -1 88 -1c-1 -201 -1 -330 0 -429c168 198 224 271 224 271c65 -4 106 -4 106 -4c-110 -121 -167 -187 -193 -218c131 -208 202 -313 202 -313
c-68 -1 -95 -4 -95 -4z" />
    <glyph glyph-name="l" unicode="l" horiz-adv-x="240" 
d="M163 3c-55 0 -88 1 -88 1c3 477 1 689 1 689c61 -1 89 -1 89 -1c-5 -554 -2 -689 -2 -689z" />
    <glyph glyph-name="m" unicode="m" horiz-adv-x="866" 
d="M73 19c0 0 1 187 -3 466c0 0 33 0 76 -1c0 0 -3 -53 -3 -121c36 91 110 151 184 151c87 0 129 -59 139 -147c32 83 106 128 176 128c112 0 153 -83 156 -193c4 -148 2 -322 2 -322s-34 2 -88 1c0 0 4 165 0 305c-2 83 -28 134 -94 134c-85 0 -140 -94 -141 -199
c-1 -90 1 -184 1 -184s-39 -1 -87 0c0 0 3 130 -1 278c-1 73 -26 124 -83 124c-68 0 -148 -85 -148 -218c-1 -98 2 -201 2 -201s-37 -1 -88 -1z" />
    <glyph glyph-name="n" unicode="n" horiz-adv-x="558" 
d="M405 -22c0 0 2 169 1 324c0 82 -21 136 -95 136c-88 0 -152 -99 -153 -209c-2 -71 0 -209 0 -209s-47 1 -88 0c0 0 3 182 1 466c0 0 39 -1 74 1c0 0 -3 -63 -2 -125c34 97 112 152 196 151c112 0 149 -82 152 -183c2 -64 2 -351 2 -351c-31 -1 -88 -1 -88 -1z" />
    <glyph glyph-name="o" unicode="o" horiz-adv-x="580" 
d="M289 -20c-148 0 -234 104 -234 272c0 159 94 265 235 265c143 0 235 -104 235 -266c0 -177 -99 -271 -236 -271zM290 47c85 0 144 69 145 204c0 114 -48 199 -144 199c-84 0 -146 -76 -146 -196c0 -141 59 -207 145 -207z" />
    <glyph glyph-name="p" unicode="p" horiz-adv-x="594" 
d="M70 -214c3 368 0 710 0 710c30 0 80 1 80 1c-2 -57 -1 -76 -1 -98c36 74 110 119 180 119c135 0 210 -121 210 -268c0 -160 -80 -270 -215 -270c-62 0 -130 32 -169 94c3 -190 9 -287 9 -287c-39 0 -94 -1 -94 -1zM315 42c81 0 134 78 134 207c0 107 -51 206 -137 206
c-97 0 -154 -110 -154 -209c0 -112 66 -204 157 -204z" />
    <glyph glyph-name="q" unicode="q" horiz-adv-x="593" 
d="M430 -213c6 154 8 254 9 305c-34 -73 -94 -112 -170 -112c-137 0 -214 113 -214 269c0 157 84 271 212 271c85 0 147 -49 179 -126c-1 75 -4 119 -4 119c60 -1 81 0 81 0c-3 -445 0 -725 0 -725c-60 0 -93 -1 -93 -1zM280 42c87 0 157 86 157 204c-1 98 -54 210 -156 210
c-79 0 -136 -92 -136 -205c0 -116 50 -209 135 -209z" />
    <glyph glyph-name="r" unicode="r" horiz-adv-x="378" 
d="M71 1c0 0 1 229 -1 484c0 0 33 -1 76 1c0 0 -2 -61 -2 -131c33 98 113 149 204 152c0 0 0 -31 -1 -82c-128 -15 -186 -92 -189 -234c-2 -97 2 -189 2 -189s-33 -1 -89 -1z" />
    <glyph glyph-name="s" unicode="s" horiz-adv-x="515" 
d="M254 -23c-111 0 -205 55 -219 187c0 0 31 1 84 8c16 -91 62 -124 139 -126c74 -2 120 32 120 78c0 35 -17 61 -144 93c-128 33 -175 81 -175 159c0 86 79 144 195 144c108 0 181 -62 205 -169c0 0 -32 -3 -80 -11c-17 71 -65 115 -133 115c-66 0 -101 -35 -101 -79
c0 -47 39 -72 134 -94c146 -34 186 -78 186 -152c0 -101 -88 -153 -211 -153z" />
    <glyph glyph-name="t" unicode="t" horiz-adv-x="427" 
d="M392 26c-47 -20 -93 -30 -134 -30c-85 0 -150 50 -152 170c-2 87 -2 183 -2 267h-78c0 52 -1 71 -1 71l79 -2c1 83 2 142 2 142c47 0 86 -1 86 -1s-2 -58 -3 -142c115 -1 189 0 189 0c-1 -53 -1 -70 -1 -70c-73 1 -135 2 -188 2c-1 -78 0 -168 2 -254
c2 -69 24 -106 80 -106c27 0 62 9 106 27c9 -52 15 -74 15 -74z" />
    <glyph glyph-name="u" unicode="u" horiz-adv-x="555" 
d="M240 -3c-107 0 -173 73 -173 208c0 112 -2 283 -2 283s29 -2 89 -2c0 0 -2 -107 -2 -270c0 -101 29 -147 109 -147c71 0 134 79 137 213c3 112 -1 241 -1 241s24 -1 88 -1c0 0 -3 -219 0 -532c0 0 -36 0 -78 1c0 0 2 55 3 134c-32 -83 -95 -128 -170 -128z" />
    <glyph glyph-name="v" unicode="v" horiz-adv-x="494" 
d="M303 4c-71 2 -108 2 -108 2c-123 339 -180 482 -180 482c57 2 91 6 91 6c74 -226 124 -366 143 -418c87 267 142 442 142 442c64 -3 88 -3 88 -3c-119 -345 -176 -511 -176 -511z" />
    <glyph glyph-name="w" unicode="w" horiz-adv-x="738" 
d="M251 6c-81 0 -112 2 -112 2c-78 333 -119 490 -119 490c52 1 82 4 82 4c48 -214 82 -356 97 -418c64 232 113 416 113 416c65 0 98 1 98 1c65 -241 106 -377 121 -425c70 288 107 448 107 448c57 -3 80 -3 80 -3c-90 -347 -131 -525 -131 -525c-69 -2 -111 -3 -111 -3
c-63 246 -100 374 -114 422c-84 -288 -111 -409 -111 -409z" />
    <glyph glyph-name="x" unicode="x" horiz-adv-x="536" 
d="M30 4c105 139 162 219 184 249c-119 167 -182 250 -182 250c64 0 102 2 102 2c64 -95 107 -156 131 -190c98 132 147 205 147 205c63 -5 94 -6 94 -6c-111 -140 -173 -224 -195 -254c124 -185 194 -279 194 -279c-64 -1 -100 -4 -100 -4c-72 112 -118 181 -144 218
c-92 -132 -129 -191 -129 -191c-71 2 -102 0 -102 0z" />
    <glyph glyph-name="y" unicode="y" horiz-adv-x="493" 
d="M478 517l-250 -753c-62 14 -84 18 -84 18c35 99 55 160 64 191c-120 328 -193 511 -193 511c61 3 95 5 95 5c72 -218 128 -378 143 -422c92 293 138 456 138 456c64 -5 87 -6 87 -6z" />
    <glyph glyph-name="z" unicode="z" horiz-adv-x="502" 
d="M445 -3c-285 9 -390 8 -390 8c1 47 2 63 2 63c228 290 283 363 283 363c-224 -2 -277 -6 -277 -6c0 52 -2 73 -2 73c258 2 380 4 380 4c0 -41 1 -62 1 -62c-191 -244 -281 -366 -281 -366c208 -4 286 -2 286 -2c-2 -51 -2 -75 -2 -75z" />
    <glyph glyph-name="braceleft" unicode="{" horiz-adv-x="378" 
d="M338 -112c-22 -4 -45 -7 -65 -7c-100 0 -139 45 -139 145l8 149c0 72 -22 110 -111 107l2 81c88 -4 110 21 110 86c0 47 -10 114 -10 165c0 89 44 126 129 126c23 0 47 -4 69 -9c-1 -46 0 -67 0 -67c-16 2 -30 3 -42 3c-51 0 -69 -25 -69 -78c0 -44 9 -104 9 -150
c0 -68 -16 -102 -85 -118c67 -16 82 -58 82 -127l-6 -138c0 -75 18 -101 83 -101c10 0 21 1 33 2c0 -48 2 -69 2 -69z" />
    <glyph glyph-name="bar" unicode="|" horiz-adv-x="303" 
d="M113 -116c0 0 1 432 -3 854c0 0 26 -2 81 -2c0 0 -2 -356 2 -850c0 0 -31 0 -80 -2z" />
    <glyph glyph-name="braceright" unicode="}" horiz-adv-x="378" 
d="M40 -118c0 0 2 23 2 68c15 -2 29 -3 41 -3c57 0 78 24 78 90c0 48 -9 111 -9 163c0 65 18 106 83 121c-63 13 -85 47 -85 119c0 51 10 112 10 155c0 54 -26 74 -76 74c-11 0 -24 -1 -37 -3c0 0 2 26 1 68c21 5 44 8 65 8c93 0 134 -39 134 -124c0 -53 -12 -116 -12 -165
c0 -69 26 -95 110 -90c0 -39 1 -76 2 -80c-84 4 -111 -29 -111 -101c0 -52 11 -119 11 -174c0 -91 -43 -132 -138 -133c-22 0 -47 2 -69 7z" />
    <glyph glyph-name="asciitilde" unicode="~" horiz-adv-x="511" 
d="M112 534c0 0 -31 7 -67 11c4 107 51 168 126 168c83 0 116 -107 169 -107c28 0 56 23 59 106c0 0 32 -4 67 -7c-1 -119 -58 -169 -127 -169c-83 0 -120 107 -166 107c-31 0 -54 -24 -61 -109z" />
    <glyph glyph-name="Adieresis" unicode="&#xc4;" horiz-adv-x="625" 
d="M27 22c0 0 85 262 212 680c76 2 132 2 132 2s111 -360 227 -725c0 0 -48 0 -94 -2c0 0 -21 70 -55 185c-38 1 -141 3 -290 3c-14 -48 -27 -97 -40 -145c0 0 -45 2 -92 2zM301 652c-20 -68 -69 -232 -122 -417c82 -1 130 -1 249 -1c-34 115 -78 259 -127 418zM223 777
c-32 0 -56 23 -56 58c0 34 26 54 57 54c38 0 57 -28 57 -56c0 -36 -24 -56 -58 -56zM404 778c-31 0 -55 22 -55 58c0 30 23 53 56 53c29 0 53 -20 53 -55c0 -33 -21 -56 -54 -56z" />
    <glyph glyph-name="Aring" unicode="&#xc5;" horiz-adv-x="625" 
d="M27 22c0 0 85 262 212 680c76 2 132 2 132 2s111 -360 227 -725c0 0 -48 0 -94 -2c0 0 -21 70 -55 185c-38 1 -141 3 -290 3c-14 -48 -27 -97 -40 -145c0 0 -45 2 -92 2zM301 652c-20 -68 -69 -232 -122 -417c82 -1 130 -1 249 -1c-34 115 -78 259 -127 418zM310 751
c-70 0 -114 48 -114 106c0 59 45 105 114 105c81 0 118 -52 118 -105c0 -64 -50 -106 -118 -106zM312 793c39 0 66 22 66 64c0 37 -21 65 -65 65s-66 -28 -66 -64c0 -35 22 -65 65 -65z" />
    <glyph glyph-name="Ccedilla" unicode="&#xc7;" horiz-adv-x="661" 
d="M617 248c-20 -174 -107 -262 -252 -268c-1 -9 -3 -27 -4 -50c74 0 105 -37 105 -72c0 -53 -53 -86 -132 -86c-32 0 -74 11 -103 28c0 0 9 19 19 47c29 -17 57 -25 84 -25c33 0 60 13 60 35c0 23 -22 38 -96 29c0 0 8 35 17 96c-176 16 -256 161 -256 366
c0 223 102 367 292 367c149 0 224 -94 246 -238c-63 -9 -93 -17 -93 -17c-17 112 -62 177 -155 177c-134 0 -195 -127 -195 -286c0 -164 59 -292 195 -292c99 0 159 59 173 202c57 -9 95 -13 95 -13z" />
    <glyph glyph-name="Eacute" unicode="&#xc9;" horiz-adv-x="561" 
d="M85 4c0 0 -1 286 -8 690c0 0 189 2 426 7c0 0 0 -26 1 -75c0 0 -157 -1 -337 -5c0 0 0 -97 2 -260c19 0 152 -1 296 1c0 0 0 -31 1 -79c0 0 -155 3 -296 1c1 -62 2 -132 4 -208l340 -4s0 -28 -1 -75c0 0 -231 6 -428 7zM291 754c-36 27 -47 35 -47 35
c85 105 130 169 130 169c42 -30 62 -44 62 -44c-97 -102 -145 -160 -145 -160z" />
    <glyph glyph-name="Ntilde" unicode="&#xd1;" horiz-adv-x="656" 
d="M80 20c0 0 2 244 -3 652c0 0 43 3 98 6c0 0 150 -275 321 -577c-1 85 -3 352 -11 615c0 0 36 -1 86 -1c0 0 1 -285 8 -730l-102 -7s-139 256 -318 572c0 -80 1 -307 7 -532c0 0 -38 1 -86 2zM212 774c0 0 -20 6 -54 10c3 78 41 125 104 125c64 0 94 -84 135 -84
c24 0 38 16 46 73c0 0 18 -5 55 -11c-9 -95 -47 -121 -100 -121c-67 0 -100 84 -140 84c-25 0 -41 -26 -46 -76z" />
    <glyph glyph-name="Odieresis" unicode="&#xd6;" horiz-adv-x="700" 
d="M350 -23c-175 0 -290 132 -290 362c0 234 114 377 294 377c176 0 286 -146 286 -375c0 -234 -111 -364 -290 -364zM349 54c110 0 195 92 195 291c0 189 -74 295 -193 295c-126 0 -195 -117 -195 -295c0 -180 74 -291 193 -291zM261 777c-32 0 -56 23 -56 58
c0 34 26 54 57 54c38 0 57 -28 57 -56c0 -36 -24 -56 -58 -56zM442 778c-31 0 -55 22 -55 58c0 30 23 53 56 53c29 0 53 -20 53 -55c0 -33 -21 -56 -54 -56z" />
    <glyph glyph-name="Udieresis" unicode="&#xdc;" horiz-adv-x="633" 
d="M322 -14c-180 0 -253 111 -253 304c0 95 -2 385 -2 385s36 -2 93 -1c0 0 -2 -273 -2 -375c0 -164 52 -232 167 -232c111 0 153 78 153 237c0 124 -1 408 -1 408s27 -1 89 2c0 0 -2 -282 -2 -414c0 -202 -75 -314 -242 -314zM227 777c-32 0 -56 23 -56 58
c0 34 26 54 57 54c38 0 57 -28 57 -56c0 -36 -24 -56 -58 -56zM408 778c-31 0 -55 22 -55 58c0 30 23 53 56 53c29 0 53 -20 53 -55c0 -33 -21 -56 -54 -56z" />
    <glyph glyph-name="aacute" unicode="&#xe1;" horiz-adv-x="544" 
d="M218 -16c-96 0 -168 51 -168 149c0 111 107 177 337 186v10c0 74 -35 126 -111 126c-63 0 -105 -31 -128 -107c0 0 -32 12 -79 21c33 98 105 150 212 150c119 0 192 -68 195 -206c5 -173 1 -329 1 -329s-26 -1 -75 -2c0 0 2 48 3 120c-32 -69 -94 -118 -187 -118z
M391 229v32c-183 -10 -252 -53 -252 -123c0 -53 37 -85 100 -86c84 -1 152 59 152 177zM265 559c-36 27 -47 35 -47 35c85 105 130 169 130 169c42 -30 62 -44 62 -44c-97 -102 -145 -160 -145 -160z" />
    <glyph glyph-name="agrave" unicode="&#xe0;" horiz-adv-x="544" 
d="M218 -16c-96 0 -168 51 -168 149c0 111 107 177 337 186v10c0 74 -35 126 -111 126c-63 0 -105 -31 -128 -107c0 0 -32 12 -79 21c33 98 105 150 212 150c119 0 192 -68 195 -206c5 -173 1 -329 1 -329s-26 -1 -75 -2c0 0 2 48 3 120c-32 -69 -94 -118 -187 -118z
M391 229v32c-183 -10 -252 -53 -252 -123c0 -53 37 -85 100 -86c84 -1 152 59 152 177zM282 556c0 0 -47 56 -144 158c0 0 20 14 62 45c0 0 46 -64 130 -168c0 0 -12 -8 -48 -35z" />
    <glyph glyph-name="acircumflex" unicode="&#xe2;" horiz-adv-x="544" 
d="M218 -16c-96 0 -168 51 -168 149c0 111 107 177 337 186v10c0 74 -35 126 -111 126c-63 0 -105 -31 -128 -107c0 0 -32 12 -79 21c33 98 105 150 212 150c119 0 192 -68 195 -206c5 -173 1 -329 1 -329s-26 -1 -75 -2c0 0 2 48 3 120c-32 -69 -94 -118 -187 -118z
M391 229v32c-183 -10 -252 -53 -252 -123c0 -53 37 -85 100 -86c84 -1 152 59 152 177zM165 552c0 0 -16 15 -45 37c0 0 52 57 118 137c0 0 24 -1 71 0c0 0 44 -53 119 -133c0 0 -14 -10 -44 -38c0 0 -48 55 -111 119c0 0 -39 -37 -108 -122z" />
    <glyph glyph-name="adieresis" unicode="&#xe4;" horiz-adv-x="544" 
d="M218 -16c-96 0 -168 51 -168 149c0 111 107 177 337 186v10c0 74 -35 126 -111 126c-63 0 -105 -31 -128 -107c0 0 -32 12 -79 21c33 98 105 150 212 150c119 0 192 -68 195 -206c5 -173 1 -329 1 -329s-26 -1 -75 -2c0 0 2 48 3 120c-32 -69 -94 -118 -187 -118z
M391 229v32c-183 -10 -252 -53 -252 -123c0 -53 37 -85 100 -86c84 -1 152 59 152 177zM185 582c-32 0 -56 23 -56 58c0 34 26 54 57 54c38 0 57 -28 57 -56c0 -36 -24 -56 -58 -56zM366 583c-31 0 -55 22 -55 58c0 30 23 53 56 53c29 0 53 -20 53 -55
c0 -33 -21 -56 -54 -56z" />
    <glyph glyph-name="atilde" unicode="&#xe3;" horiz-adv-x="544" 
d="M218 -16c-96 0 -168 51 -168 149c0 111 107 177 337 186v10c0 74 -35 126 -111 126c-63 0 -105 -31 -128 -107c0 0 -32 12 -79 21c33 98 105 150 212 150c119 0 192 -68 195 -206c5 -173 1 -329 1 -329s-26 -1 -75 -2c0 0 2 48 3 120c-32 -69 -94 -118 -187 -118z
M391 229v32c-183 -10 -252 -53 -252 -123c0 -53 37 -85 100 -86c84 -1 152 59 152 177zM158 579c0 0 -20 6 -54 10c3 78 41 125 104 125c64 0 94 -84 135 -84c24 0 38 16 46 73c0 0 18 -5 55 -11c-9 -95 -47 -121 -100 -121c-67 0 -100 84 -140 84c-25 0 -41 -26 -46 -76z
" />
    <glyph glyph-name="aring" unicode="&#xe5;" horiz-adv-x="544" 
d="M218 -16c-96 0 -168 51 -168 149c0 111 107 177 337 186v10c0 74 -35 126 -111 126c-63 0 -105 -31 -128 -107c0 0 -32 12 -79 21c33 98 105 150 212 150c119 0 192 -68 195 -206c5 -173 1 -329 1 -329s-26 -1 -75 -2c0 0 2 48 3 120c-32 -69 -94 -118 -187 -118z
M391 229v32c-183 -10 -252 -53 -252 -123c0 -53 37 -85 100 -86c84 -1 152 59 152 177zM272 556c-70 0 -114 48 -114 106c0 59 45 105 114 105c81 0 118 -52 118 -105c0 -64 -50 -106 -118 -106zM274 598c39 0 66 22 66 64c0 37 -21 65 -65 65s-66 -28 -66 -64
c0 -35 22 -65 65 -65z" />
    <glyph glyph-name="ccedilla" unicode="&#xe7;" horiz-adv-x="553" 
d="M503 161c-25 -117 -87 -174 -191 -182l-3 -46c74 0 105 -37 105 -72c0 -53 -53 -86 -132 -86c-32 0 -74 11 -103 28c0 0 9 19 19 47c29 -17 57 -25 84 -25c33 0 60 13 60 35c0 23 -22 38 -96 29c0 0 7 33 16 90c-140 13 -208 126 -206 270c0 151 86 268 231 268
c122 0 188 -68 211 -176c-53 -5 -88 -14 -88 -14c-15 66 -46 120 -124 120c-94 0 -142 -84 -142 -200c0 -119 48 -198 143 -198c68 0 108 34 132 127c0 0 24 -7 84 -15z" />
    <glyph glyph-name="eacute" unicode="&#xe9;" horiz-adv-x="556" 
d="M285 -21c-158 0 -230 122 -229 271c0 146 85 267 239 267c154 -1 221 -139 199 -278c0 0 -104 -1 -348 -9c5 -111 54 -183 142 -183c60 0 110 28 136 110c0 0 17 -7 80 -21c-34 -97 -107 -157 -219 -157zM291 451c-80 0 -130 -61 -142 -155c45 1 127 5 264 11
c-2 77 -42 144 -122 144zM271 559c-36 27 -47 35 -47 35c85 105 130 169 130 169c42 -30 62 -44 62 -44c-97 -102 -145 -160 -145 -160z" />
    <glyph glyph-name="egrave" unicode="&#xe8;" horiz-adv-x="556" 
d="M285 -21c-158 0 -230 122 -229 271c0 146 85 267 239 267c154 -1 221 -139 199 -278c0 0 -104 -1 -348 -9c5 -111 54 -183 142 -183c60 0 110 28 136 110c0 0 17 -7 80 -21c-34 -97 -107 -157 -219 -157zM291 451c-80 0 -130 -61 -142 -155c45 1 127 5 264 11
c-2 77 -42 144 -122 144zM288 556c0 0 -47 56 -144 158c0 0 20 14 62 45c0 0 46 -64 130 -168c0 0 -12 -8 -48 -35z" />
    <glyph glyph-name="ecircumflex" unicode="&#xea;" horiz-adv-x="556" 
d="M285 -21c-158 0 -230 122 -229 271c0 146 85 267 239 267c154 -1 221 -139 199 -278c0 0 -104 -1 -348 -9c5 -111 54 -183 142 -183c60 0 110 28 136 110c0 0 17 -7 80 -21c-34 -97 -107 -157 -219 -157zM291 451c-80 0 -130 -61 -142 -155c45 1 127 5 264 11
c-2 77 -42 144 -122 144zM171 552c0 0 -16 15 -45 37c0 0 52 57 118 137c0 0 24 -1 71 0c0 0 44 -53 119 -133c0 0 -14 -10 -44 -38c0 0 -48 55 -111 119c0 0 -39 -37 -108 -122z" />
    <glyph glyph-name="edieresis" unicode="&#xeb;" horiz-adv-x="556" 
d="M285 -21c-158 0 -230 122 -229 271c0 146 85 267 239 267c154 -1 221 -139 199 -278c0 0 -104 -1 -348 -9c5 -111 54 -183 142 -183c60 0 110 28 136 110c0 0 17 -7 80 -21c-34 -97 -107 -157 -219 -157zM291 451c-80 0 -130 -61 -142 -155c45 1 127 5 264 11
c-2 77 -42 144 -122 144zM191 582c-32 0 -56 23 -56 58c0 34 26 54 57 54c38 0 57 -28 57 -56c0 -36 -24 -56 -58 -56zM372 583c-31 0 -55 22 -55 58c0 30 23 53 56 53c29 0 53 -20 53 -55c0 -33 -21 -56 -54 -56z" />
    <glyph glyph-name="iacute" unicode="&#xed;" horiz-adv-x="261" 
d="M90 2c0 0 2 132 -2 499c0 0 35 0 86 1c0 0 0 -193 4 -499c0 0 -37 0 -88 -1zM124 559c-36 27 -47 35 -47 35c85 105 130 169 130 169c42 -30 62 -44 62 -44c-97 -102 -145 -160 -145 -160z" />
    <glyph glyph-name="igrave" unicode="&#xec;" horiz-adv-x="261" 
d="M90 2c0 0 2 132 -2 499c0 0 35 0 86 1c0 0 0 -193 4 -499c0 0 -37 0 -88 -1zM141 556c0 0 -47 56 -144 158c0 0 20 14 62 45c0 0 46 -64 130 -168c0 0 -12 -8 -48 -35z" />
    <glyph glyph-name="icircumflex" unicode="&#xee;" horiz-adv-x="261" 
d="M90 2c0 0 2 132 -2 499c0 0 35 0 86 1c0 0 0 -193 4 -499c0 0 -37 0 -88 -1zM24 552c0 0 -16 15 -45 37c0 0 52 57 118 137c0 0 24 -1 71 0c0 0 44 -53 119 -133c0 0 -14 -10 -44 -38c0 0 -48 55 -111 119c0 0 -39 -37 -108 -122z" />
    <glyph glyph-name="idieresis" unicode="&#xef;" horiz-adv-x="261" 
d="M90 2c0 0 2 132 -2 499c0 0 35 0 86 1c0 0 0 -193 4 -499c0 0 -37 0 -88 -1zM44 582c-32 0 -56 23 -56 58c0 34 26 54 57 54c38 0 57 -28 57 -56c0 -36 -24 -56 -58 -56zM225 583c-31 0 -55 22 -55 58c0 30 23 53 56 53c29 0 53 -20 53 -55c0 -33 -21 -56 -54 -56z" />
    <glyph glyph-name="ntilde" unicode="&#xf1;" horiz-adv-x="558" 
d="M405 -22c0 0 2 169 1 324c0 82 -21 136 -95 136c-88 0 -152 -99 -153 -209c-2 -71 0 -209 0 -209s-47 1 -88 0c0 0 3 182 1 466c0 0 39 -1 74 1c0 0 -3 -63 -2 -125c34 97 112 152 196 151c112 0 149 -82 152 -183c2 -64 2 -351 2 -351c-31 -1 -88 -1 -88 -1zM175 579
c0 0 -20 6 -54 10c3 78 41 125 104 125c64 0 94 -84 135 -84c24 0 38 16 46 73c0 0 18 -5 55 -11c-9 -95 -47 -121 -100 -121c-67 0 -100 84 -140 84c-25 0 -41 -26 -46 -76z" />
    <glyph glyph-name="oacute" unicode="&#xf3;" horiz-adv-x="580" 
d="M289 -20c-148 0 -234 104 -234 272c0 159 94 265 235 265c143 0 235 -104 235 -266c0 -177 -99 -271 -236 -271zM290 47c85 0 144 69 145 204c0 114 -48 199 -144 199c-84 0 -146 -76 -146 -196c0 -141 59 -207 145 -207zM281 559c-36 27 -47 35 -47 35
c85 105 130 169 130 169c42 -30 62 -44 62 -44c-97 -102 -145 -160 -145 -160z" />
    <glyph glyph-name="ograve" unicode="&#xf2;" horiz-adv-x="580" 
d="M289 -20c-148 0 -234 104 -234 272c0 159 94 265 235 265c143 0 235 -104 235 -266c0 -177 -99 -271 -236 -271zM290 47c85 0 144 69 145 204c0 114 -48 199 -144 199c-84 0 -146 -76 -146 -196c0 -141 59 -207 145 -207zM298 556c0 0 -47 56 -144 158c0 0 20 14 62 45
c0 0 46 -64 130 -168c0 0 -12 -8 -48 -35z" />
    <glyph glyph-name="ocircumflex" unicode="&#xf4;" horiz-adv-x="580" 
d="M289 -20c-148 0 -234 104 -234 272c0 159 94 265 235 265c143 0 235 -104 235 -266c0 -177 -99 -271 -236 -271zM290 47c85 0 144 69 145 204c0 114 -48 199 -144 199c-84 0 -146 -76 -146 -196c0 -141 59 -207 145 -207zM181 552c0 0 -16 15 -45 37c0 0 52 57 118 137
c0 0 24 -1 71 0c0 0 44 -53 119 -133c0 0 -14 -10 -44 -38c0 0 -48 55 -111 119c0 0 -39 -37 -108 -122z" />
    <glyph glyph-name="odieresis" unicode="&#xf6;" horiz-adv-x="580" 
d="M289 -20c-148 0 -234 104 -234 272c0 159 94 265 235 265c143 0 235 -104 235 -266c0 -177 -99 -271 -236 -271zM290 47c85 0 144 69 145 204c0 114 -48 199 -144 199c-84 0 -146 -76 -146 -196c0 -141 59 -207 145 -207zM201 582c-32 0 -56 23 -56 58c0 34 26 54 57 54
c38 0 57 -28 57 -56c0 -36 -24 -56 -58 -56zM382 583c-31 0 -55 22 -55 58c0 30 23 53 56 53c29 0 53 -20 53 -55c0 -33 -21 -56 -54 -56z" />
    <glyph glyph-name="otilde" unicode="&#xf5;" horiz-adv-x="580" 
d="M289 -20c-148 0 -234 104 -234 272c0 159 94 265 235 265c143 0 235 -104 235 -266c0 -177 -99 -271 -236 -271zM290 47c85 0 144 69 145 204c0 114 -48 199 -144 199c-84 0 -146 -76 -146 -196c0 -141 59 -207 145 -207zM174 579c0 0 -20 6 -54 10c3 78 41 125 104 125
c64 0 94 -84 135 -84c24 0 38 16 46 73c0 0 18 -5 55 -11c-9 -95 -47 -121 -100 -121c-67 0 -100 84 -140 84c-25 0 -41 -26 -46 -76z" />
    <glyph glyph-name="uacute" unicode="&#xfa;" horiz-adv-x="555" 
d="M240 -3c-107 0 -173 73 -173 208c0 112 -2 283 -2 283s29 -2 89 -2c0 0 -2 -107 -2 -270c0 -101 29 -147 109 -147c71 0 134 79 137 213c3 112 -1 241 -1 241s24 -1 88 -1c0 0 -3 -219 0 -532c0 0 -36 0 -78 1c0 0 2 55 3 134c-32 -83 -95 -128 -170 -128zM266 559
c-36 27 -47 35 -47 35c85 105 130 169 130 169c42 -30 62 -44 62 -44c-97 -102 -145 -160 -145 -160z" />
    <glyph glyph-name="ugrave" unicode="&#xf9;" horiz-adv-x="555" 
d="M240 -3c-107 0 -173 73 -173 208c0 112 -2 283 -2 283s29 -2 89 -2c0 0 -2 -107 -2 -270c0 -101 29 -147 109 -147c71 0 134 79 137 213c3 112 -1 241 -1 241s24 -1 88 -1c0 0 -3 -219 0 -532c0 0 -36 0 -78 1c0 0 2 55 3 134c-32 -83 -95 -128 -170 -128zM283 556
c0 0 -47 56 -144 158c0 0 20 14 62 45c0 0 46 -64 130 -168c0 0 -12 -8 -48 -35z" />
    <glyph glyph-name="ucircumflex" unicode="&#xfb;" horiz-adv-x="555" 
d="M240 -3c-107 0 -173 73 -173 208c0 112 -2 283 -2 283s29 -2 89 -2c0 0 -2 -107 -2 -270c0 -101 29 -147 109 -147c71 0 134 79 137 213c3 112 -1 241 -1 241s24 -1 88 -1c0 0 -3 -219 0 -532c0 0 -36 0 -78 1c0 0 2 55 3 134c-32 -83 -95 -128 -170 -128zM166 552
c0 0 -16 15 -45 37c0 0 52 57 118 137c0 0 24 -1 71 0c0 0 44 -53 119 -133c0 0 -14 -10 -44 -38c0 0 -48 55 -111 119c0 0 -39 -37 -108 -122z" />
    <glyph glyph-name="udieresis" unicode="&#xfc;" horiz-adv-x="555" 
d="M240 -3c-107 0 -173 73 -173 208c0 112 -2 283 -2 283s29 -2 89 -2c0 0 -2 -107 -2 -270c0 -101 29 -147 109 -147c71 0 134 79 137 213c3 112 -1 241 -1 241s24 -1 88 -1c0 0 -3 -219 0 -532c0 0 -36 0 -78 1c0 0 2 55 3 134c-32 -83 -95 -128 -170 -128zM186 582
c-32 0 -56 23 -56 58c0 34 26 54 57 54c38 0 57 -28 57 -56c0 -36 -24 -56 -58 -56zM367 583c-31 0 -55 22 -55 58c0 30 23 53 56 53c29 0 53 -20 53 -55c0 -33 -21 -56 -54 -56z" />
    <glyph glyph-name="dagger" unicode="&#x2020;" horiz-adv-x="374" 
d="M35 517c0 0 2 20 1 66c0 0 34 -2 116 -3v123s23 0 70 1c0 0 -1 -51 -1 -124h117s-1 -23 1 -66c0 0 -46 1 -119 2c0 -88 0 -197 2 -307c0 0 -25 2 -72 1c0 0 1 135 2 307h-117z" />
    <glyph glyph-name="degree" unicode="&#xb0;" horiz-adv-x="348" 
d="M175 427c-74 0 -140 52 -140 147c0 73 50 138 138 138c91 0 140 -60 140 -138c0 -85 -51 -147 -138 -147zM175 480c45 0 77 33 77 92c0 44 -28 90 -77 90c-51 0 -78 -45 -78 -88c0 -51 29 -94 78 -94z" />
    <glyph glyph-name="cent" unicode="&#xa2;" horiz-adv-x="587" 
d="M259 -66c3 61 4 103 4 113c-137 21 -208 141 -208 296c0 160 74 281 207 302c-1 63 -4 114 -4 114c44 -1 88 1 88 1l-6 -113c107 -13 177 -86 193 -205c-57 -5 -89 -12 -89 -12c-19 93 -54 146 -138 146c-108 0 -161 -102 -161 -227c0 -149 64 -228 162 -228
c73 0 121 34 142 140c0 0 30 -8 88 -17c-20 -119 -92 -186 -196 -198c0 -69 3 -112 3 -112c-51 1 -85 0 -85 0z" />
    <glyph glyph-name="sterling" unicode="&#xa3;" horiz-adv-x="587" 
d="M145 259h-89c0 40 -1 74 -1 74c21 -1 41 -1 60 -1c-21 43 -44 91 -44 147c0 123 104 197 235 197c147 0 226 -86 241 -225c0 0 -30 -4 -94 -15c-4 97 -51 161 -147 161c-93 0 -141 -59 -141 -119c0 -47 29 -96 52 -147c122 0 207 1 207 1c-1 -43 1 -76 1 -76
c-69 1 -131 2 -184 2c1 -8 2 -16 2 -24c0 -60 -28 -119 -73 -155c30 -1 127 -3 369 0c0 0 -3 -32 -2 -85c0 0 -113 4 -478 6c0 0 1 42 1 77c52 32 89 80 89 153c0 9 -1 19 -4 29z" />
    <glyph glyph-name="section" unicode="&#xa7;" horiz-adv-x="621" 
d="M319 -200c-166 0 -255 69 -269 209c57 9 89 17 89 17c17 -113 74 -150 180 -150c74 0 146 40 146 108c0 47 -26 82 -186 106c-142 21 -214 63 -214 159c0 66 64 113 120 130c-67 23 -113 86 -113 153c0 103 84 184 238 184c141 0 223 -74 239 -206
c-62 -7 -87 -13 -87 -13c-9 95 -64 147 -151 147c-93 0 -147 -42 -147 -106c0 -63 47 -94 190 -116c166 -26 212 -72 212 -152c0 -62 -45 -117 -103 -146c57 -19 97 -65 99 -131c0 -128 -120 -193 -243 -193zM158 262c0 -54 35 -86 243 -115c44 25 73 63 73 101
c0 70 -43 88 -234 111c-60 -29 -82 -65 -82 -97z" />
    <glyph glyph-name="bullet" unicode="&#x2022;" horiz-adv-x="351" 
d="M177 206c-68 0 -132 49 -132 137c0 79 51 135 132 135c76 0 129 -55 129 -134c0 -89 -61 -138 -129 -138z" />
    <glyph glyph-name="paragraph" unicode="&#xb6;" horiz-adv-x="658" 
d="M50 395c0 197 150 312 397 309c45 -1 83 -4 134 -12c0 0 -4 -351 7 -883c0 0 -29 3 -95 3l4 809c-31 2 -67 1 -100 -2c0 -43 0 -414 3 -800c0 0 -44 1 -89 0c0 0 1 146 -2 284c-157 29 -259 128 -259 292z" />
    <glyph glyph-name="germandbls" unicode="&#xdf;" horiz-adv-x="598" 
d="M70 20c0 0 2 242 2 413c0 172 87 274 241 274c142 0 218 -94 218 -189c0 -92 -73 -155 -161 -167c118 -16 173 -88 173 -174c0 -125 -88 -193 -227 -193c-28 0 -57 2 -89 7c0 0 3 23 4 67c22 -4 43 -6 63 -6c100 0 158 43 158 130c0 77 -59 138 -210 133c0 0 2 28 1 70
c118 -8 198 28 198 129c0 65 -45 122 -133 122c-94 0 -149 -71 -149 -209c0 -208 2 -408 2 -408c-55 1 -91 1 -91 1z" />
    <glyph glyph-name="registered" unicode="&#xae;" horiz-adv-x="494" 
d="M251 252c-143 0 -221 103 -221 230c0 120 78 229 214 229c138 0 220 -103 220 -233c0 -143 -95 -226 -213 -226zM252 286c92 0 174 67 174 186c0 129 -76 205 -185 205c-100 0 -174 -78 -174 -198c0 -115 71 -193 185 -193zM291 357c0 0 -15 42 -39 98
c-14 -2 -29 -3 -44 -2c0 -16 0 -48 2 -93c0 0 -21 1 -52 0c0 0 2 84 2 251c24 4 46 6 65 6c87 0 123 -36 123 -79c0 -33 -20 -57 -51 -71c5 -14 19 -49 46 -102c0 0 -22 -2 -52 -8zM209 491c7 -1 15 -1 21 -1c45 0 68 15 68 44c0 23 -16 44 -65 44c-7 0 -16 -1 -25 -2
c0 -56 1 -85 1 -85z" />
    <glyph glyph-name="copyright" unicode="&#xa9;" horiz-adv-x="735" 
d="M370 122c-110 0 -185 89 -185 195c0 116 76 207 185 207c90 0 153 -48 170 -136c-45 -3 -77 -10 -77 -10c-15 57 -37 85 -93 85c-69 0 -112 -63 -112 -145c0 -79 49 -130 116 -130c43 0 74 22 93 76c37 -8 72 -14 72 -14c-28 -88 -86 -128 -169 -128zM362 -24
c-182 0 -312 127 -312 353c0 176 112 343 322 343c187 0 313 -146 313 -350c0 -221 -126 -346 -323 -346zM367 18c152 0 271 94 271 302c0 183 -105 309 -269 309c-175 0 -273 -136 -273 -310c0 -197 112 -301 271 -301z" />
    <glyph glyph-name="trademark" unicode="&#x2122;" horiz-adv-x="734" 
d="M316 373c0 0 5 127 8 298c0 0 37 -1 82 2c0 0 46 -120 94 -231c17 48 54 153 88 253c0 0 38 -3 83 -5c0 0 3 -135 15 -328c0 0 -27 -1 -58 -3c0 0 -2 126 -8 279c-18 -48 -57 -151 -88 -243c0 0 -30 0 -64 2c0 0 -46 113 -94 227c-1 -52 -2 -158 2 -251c0 0 -25 1 -60 0z
M30 640c0 0 1 16 2 52c0 0 105 -2 255 3c0 0 -1 -23 -1 -55c0 0 -42 1 -95 1c0 -54 0 -158 3 -286c0 0 -23 2 -61 0c0 0 2 127 0 286z" />
    <glyph glyph-name="acute" unicode="&#xb4;" horiz-adv-x="580" 
d="M292 559c-36 27 -47 35 -47 35c85 105 130 169 130 169c42 -30 62 -44 62 -44c-97 -102 -145 -160 -145 -160z" />
    <glyph glyph-name="dieresis" unicode="&#xa8;" horiz-adv-x="580" 
d="M197 582c-32 0 -56 23 -56 58c0 34 26 54 57 54c38 0 57 -28 57 -56c0 -36 -24 -56 -58 -56zM378 583c-31 0 -55 22 -55 58c0 30 23 53 56 53c29 0 53 -20 53 -55c0 -33 -21 -56 -54 -56z" />
    <glyph glyph-name="AE" unicode="&#xc6;" horiz-adv-x="870" 
d="M783 284c0 0 -114 3 -281 1c21 -69 45 -143 69 -220c0 0 90 -1 252 5c0 0 -2 -28 -1 -74c0 0 -95 0 -323 -7l-48 173c-42 1 -148 3 -289 3c-14 -46 -28 -95 -43 -147c0 0 -45 2 -92 1c0 0 93 282 215 684c368 -5 577 -2 577 -2s0 -28 2 -75c0 0 -113 3 -419 1
c0 0 31 -112 78 -268c19 0 125 -1 302 1c0 0 -1 -34 1 -76zM309 655c-14 -46 -57 -188 -126 -420c52 -1 142 -2 248 -1c-32 115 -74 260 -122 421z" />
    <glyph glyph-name="Oslash" unicode="&#xd8;" horiz-adv-x="700" 
d="M174 -87c0 0 -18 10 -60 31c0 0 19 37 51 102c-69 64 -105 171 -105 301c0 221 107 369 295 369c45 0 86 -10 123 -29l43 90s15 -8 66 -33c0 0 -19 -36 -51 -98c66 -63 104 -166 104 -300c0 -236 -111 -368 -292 -368c-49 0 -92 10 -129 29c-15 -30 -30 -62 -45 -94z
M348 53c119 0 196 102 196 295c0 85 -17 160 -51 212c-61 -119 -145 -289 -239 -480c27 -18 58 -27 94 -27zM155 348c0 -93 17 -167 51 -218c58 119 141 287 236 483c-26 18 -57 29 -92 29c-123 0 -195 -122 -195 -294z" />
    <glyph glyph-name="yen" unicode="&#xa5;" horiz-adv-x="610" 
d="M91 192c0 0 0 28 -2 67c0 0 42 0 128 1c-26 59 -80 174 -182 387c0 0 32 0 97 4c0 0 86 -201 170 -383c0 0 64 121 197 413c0 0 36 -3 96 -4c0 0 -99 -186 -208 -413c42 1 79 1 131 3c0 0 -2 -32 -1 -67c0 0 -55 0 -169 -2c0 0 -1 -25 -1 -64l173 4s0 -30 1 -65
c0 0 -58 0 -173 -1l3 -84s-36 0 -93 -1c0 0 1 33 1 83l-172 -4s1 29 1 67c0 0 58 -1 170 0l-2 63z" />
    <glyph glyph-name="ordfeminine" unicode="&#xaa;" horiz-adv-x="439" 
d="M178 287c-80 0 -133 48 -133 119c0 69 71 139 262 143v8c0 57 -24 94 -86 94c-45 0 -81 -28 -95 -71c0 0 -23 8 -69 19c22 66 85 107 167 107c111 0 160 -68 160 -181c0 -77 -3 -229 -3 -229s-22 1 -64 2l4 99c-25 -70 -73 -110 -143 -110zM310 485v19
c-143 -5 -190 -52 -190 -100c0 -42 33 -63 76 -63c59 0 114 62 114 144z" />
    <glyph glyph-name="ordmasculine" unicode="&#xba;" horiz-adv-x="452" 
d="M226 284c-117 0 -186 80 -186 218c0 115 71 208 187 208c123 0 185 -93 185 -214c0 -139 -87 -212 -186 -212zM226 343c75 0 108 61 108 153c0 86 -34 156 -106 156c-70 0 -110 -65 -110 -149c0 -106 39 -160 108 -160z" />
    <glyph glyph-name="ae" unicode="&#xe6;" horiz-adv-x="880" 
d="M620 -22c-98 0 -165 51 -192 135c-32 -85 -107 -130 -199 -130c-117 0 -179 59 -179 146c0 100 114 166 338 168v16c0 77 -31 138 -116 138c-68 0 -100 -42 -120 -103c0 0 -26 11 -78 24c28 91 108 147 196 147c91 0 150 -43 176 -109c33 62 94 107 180 107
c150 0 213 -122 199 -275c0 0 -83 1 -349 -6c5 -120 60 -190 143 -190c60 0 107 29 133 108c0 0 15 -7 76 -25c-32 -107 -125 -151 -208 -151zM243 50c80 0 148 61 148 172v14c-201 -6 -252 -47 -252 -110c0 -41 33 -76 104 -76zM623 452c-83 0 -132 -64 -144 -155
c41 0 133 2 266 7c-1 82 -45 148 -122 148z" />
    <glyph glyph-name="oslash" unicode="&#xf8;" horiz-adv-x="580" 
d="M290 -16c-38 0 -70 6 -99 17c-11 -21 -22 -44 -33 -67c0 0 -21 12 -57 30c0 0 14 25 37 69c-57 47 -84 124 -84 219c0 145 76 269 239 269c31 0 60 -6 85 -15c11 21 21 43 32 65c0 0 18 -8 61 -28c0 0 -14 -25 -37 -69c59 -47 92 -126 92 -220c0 -164 -87 -270 -236 -270
zM291 50c87 0 144 72 144 205c0 58 -13 110 -40 146c-44 -84 -105 -200 -172 -335c19 -11 42 -16 68 -16zM144 252c0 -61 12 -109 34 -143c44 84 102 199 169 334c-17 8 -35 12 -56 12c-94 0 -147 -90 -147 -203z" />
    <glyph glyph-name="questiondown" unicode="&#xbf;" horiz-adv-x="592" 
d="M361 367c0 -100 3 -184 3 -184c-159 8 -218 -41 -218 -138c0 -73 50 -137 148 -137c97 0 145 61 166 169c0 0 35 -11 92 -20c-21 -131 -111 -225 -252 -225c-167 0 -250 102 -250 207c0 134 85 203 220 209c3 58 1 117 1 117c59 0 90 2 90 2zM311 565c48 0 72 -30 72 -74
c0 -41 -29 -70 -71 -70c-45 0 -70 30 -70 74c0 43 28 70 69 70z" />
    <glyph glyph-name="exclamdown" unicode="&#xa1;" horiz-adv-x="315" 
d="M156 569c46 0 74 -31 74 -76c0 -39 -24 -73 -73 -73c-47 0 -72 35 -72 76c0 44 32 73 71 73zM198 364c0 0 3 -217 13 -517c0 0 -51 2 -102 0c0 0 4 242 6 516c0 0 37 -1 83 1z" />
    <glyph glyph-name="florin" unicode="&#x192;" horiz-adv-x="541" 
d="M443 344l-128 3c-21 -106 -41 -223 -65 -324c-30 -123 -86 -172 -180 -172c-23 0 -48 3 -75 9c0 0 4 23 9 70c18 -4 34 -6 49 -6c59 0 88 33 107 110c25 102 45 211 65 314c-66 1 -97 0 -97 0c3 54 2 70 2 70c41 -1 77 -2 109 -2l18 89c25 118 81 170 168 170
c27 0 58 -4 91 -13c-9 -44 -11 -70 -11 -70c-23 8 -43 11 -60 11c-54 0 -83 -37 -99 -107l-18 -82c80 0 114 1 114 1c0 -50 1 -71 1 -71z" />
    <glyph glyph-name="guillemotleft" unicode="&#xab;" horiz-adv-x="446" 
d="M161 100c0 0 -43 84 -131 242c0 0 64 97 142 229c0 0 26 -3 75 -4c0 0 -67 -103 -141 -227c0 0 47 -91 128 -232c0 0 -29 -1 -73 -8zM336 101c0 0 -45 86 -132 235c0 0 55 85 130 213c0 0 31 -3 74 -5c0 0 -61 -93 -129 -211c0 0 45 -83 132 -230c0 0 -29 1 -75 -2z" />
    <glyph glyph-name="guillemotright" unicode="&#xbb;" horiz-adv-x="449" 
d="M107 100c0 0 -30 3 -72 5c0 0 65 97 136 219c0 0 -48 95 -125 233c0 0 30 1 74 6c0 0 43 -86 126 -242c0 0 -63 -94 -139 -221zM284 103c0 0 -26 4 -75 6c0 0 64 97 133 216c0 0 -49 97 -126 233c0 0 29 0 76 4c0 0 47 -94 127 -239c0 0 -67 -101 -135 -220z" />
    <glyph glyph-name="ellipsis" unicode="&#x2026;" horiz-adv-x="739" 
d="M133 -6c-41 0 -73 27 -73 77c0 38 29 72 72 72c42 0 74 -31 74 -72c-1 -47 -30 -77 -73 -77zM369 -26c-39 0 -72 27 -72 74c0 46 32 74 73 74c45 0 71 -32 71 -71c0 -47 -28 -77 -72 -77zM609 -8c-41 0 -73 26 -73 75c0 42 29 73 72 73s71 -32 71 -73
c0 -48 -29 -75 -70 -75z" />
    <glyph glyph-name="Agrave" unicode="&#xc0;" horiz-adv-x="625" 
d="M27 22c0 0 85 262 212 680c76 2 132 2 132 2s111 -360 227 -725c0 0 -48 0 -94 -2c0 0 -21 70 -55 185c-38 1 -141 3 -290 3c-14 -48 -27 -97 -40 -145c0 0 -45 2 -92 2zM301 652c-20 -68 -69 -232 -122 -417c82 -1 130 -1 249 -1c-34 115 -78 259 -127 418zM320 751
c0 0 -47 56 -144 158c0 0 20 14 62 45c0 0 46 -64 130 -168c0 0 -12 -8 -48 -35z" />
    <glyph glyph-name="Atilde" unicode="&#xc3;" horiz-adv-x="625" 
d="M27 22c0 0 85 262 212 680c76 2 132 2 132 2s111 -360 227 -725c0 0 -48 0 -94 -2c0 0 -21 70 -55 185c-38 1 -141 3 -290 3c-14 -48 -27 -97 -40 -145c0 0 -45 2 -92 2zM301 652c-20 -68 -69 -232 -122 -417c82 -1 130 -1 249 -1c-34 115 -78 259 -127 418zM196 774
c0 0 -20 6 -54 10c3 78 41 125 104 125c64 0 94 -84 135 -84c24 0 38 16 46 73c0 0 18 -5 55 -11c-9 -95 -47 -121 -100 -121c-67 0 -100 84 -140 84c-25 0 -41 -26 -46 -76z" />
    <glyph glyph-name="Otilde" unicode="&#xd5;" horiz-adv-x="700" 
d="M350 -23c-175 0 -290 132 -290 362c0 234 114 377 294 377c176 0 286 -146 286 -375c0 -234 -111 -364 -290 -364zM349 54c110 0 195 92 195 291c0 189 -74 295 -193 295c-126 0 -195 -117 -195 -295c0 -180 74 -291 193 -291zM234 774c0 0 -20 6 -54 10
c3 78 41 125 104 125c64 0 94 -84 135 -84c24 0 38 16 46 73c0 0 18 -5 55 -11c-9 -95 -47 -121 -100 -121c-67 0 -100 84 -140 84c-25 0 -41 -26 -46 -76z" />
    <glyph glyph-name="OE" unicode="&#x152;" horiz-adv-x="1020" 
d="M925 281c0 0 -141 3 -291 1c1 -69 2 -140 4 -204c0 0 141 -6 335 -5c0 0 -2 -37 -2 -78c0 0 -58 7 -415 13c0 0 2 26 1 97c-33 -86 -119 -136 -218 -136c-180 0 -280 153 -280 368c0 218 106 374 288 374c88 0 167 -53 204 -128c0 28 -1 63 -2 109c0 0 110 -2 415 6
c0 0 0 -35 2 -74c0 0 -148 0 -333 -5c0 0 -1 -117 0 -261c43 0 156 -2 291 1c0 0 -1 -38 1 -78zM348 45c104 0 196 83 196 294c0 173 -71 297 -199 297c-120 0 -191 -121 -191 -295c0 -180 74 -296 194 -296z" />
    <glyph glyph-name="oe" unicode="&#x153;" horiz-adv-x="938" 
d="M674 -27c-101 0 -167 51 -198 131c-38 -72 -108 -118 -190 -118c-137 0 -231 97 -231 273c0 149 90 264 230 264c104 0 167 -61 195 -132c34 77 100 120 196 120c150 0 216 -121 198 -275c0 0 -77 0 -348 -10c6 -122 61 -186 149 -186c62 0 102 34 138 109
c0 0 25 -9 73 -27c-32 -82 -103 -149 -212 -149zM293 54c83 0 141 71 141 198c0 105 -41 204 -142 204c-95 0 -148 -88 -148 -198c0 -133 57 -204 149 -204zM664 449c-69 0 -123 -58 -136 -157c54 2 159 5 263 11c3 88 -47 146 -127 146z" />
    <glyph glyph-name="endash" unicode="&#x2013;" horiz-adv-x="472" 
d="M436 381c-1 -61 1 -79 1 -79c-260 5 -402 2 -402 2c2 57 1 77 1 77c281 -2 400 0 400 0z" />
    <glyph glyph-name="emdash" unicode="&#x2014;" horiz-adv-x="568" 
d="M36 300c0 0 1 32 -1 77c0 0 229 -1 498 2c0 0 -3 -32 -1 -79c0 0 -217 3 -496 0z" />
    <glyph glyph-name="quotedblleft" unicode="&#x201c;" horiz-adv-x="453" 
d="M327 437c-43 0 -77 30 -77 93c0 58 46 150 119 201c25 -26 39 -38 39 -38c-39 -33 -62 -80 -73 -106c41 -5 62 -41 62 -70c0 -56 -37 -80 -70 -80zM129 452c-43 0 -74 35 -74 91c0 72 58 154 123 199c19 -20 36 -36 36 -36c-39 -33 -63 -76 -74 -100
c43 -10 60 -41 60 -76c0 -49 -30 -78 -71 -78z" />
    <glyph glyph-name="quotedblright" unicode="&#x201d;" horiz-adv-x="452" 
d="M275 426c-21 24 -37 39 -37 39c43 36 65 83 72 104c-37 5 -60 40 -60 77c0 44 32 75 73 75c44 0 74 -35 74 -88c0 -76 -56 -159 -122 -207zM83 412c-22 22 -38 40 -38 40c42 33 62 79 71 104c-37 4 -61 34 -61 72c0 44 32 78 74 78c48 0 73 -41 73 -88
c0 -78 -55 -159 -119 -206z" />
    <glyph glyph-name="quoteleft" unicode="&#x2018;" horiz-adv-x="257" 
d="M174 735c22 -22 38 -40 38 -40c-42 -34 -63 -80 -71 -105c36 -3 61 -34 61 -71c0 -44 -27 -78 -69 -78c-44 0 -78 35 -78 88c0 78 55 159 119 206z" />
    <glyph glyph-name="quoteright" unicode="&#x2019;" horiz-adv-x="260" 
d="M131 718c43 0 74 -35 74 -91c0 -72 -58 -154 -123 -199l-37 36c40 32 63 75 75 100c-43 10 -60 41 -60 76c0 49 30 78 71 78z" />
    <glyph glyph-name="divide" unicode="&#xf7;" horiz-adv-x="517" 
d="M51 366c193 -3 398 0 416 0c-1 -44 0 -72 0 -75c-177 4 -399 1 -417 1c1 39 1 74 1 74zM257 576c33 0 57 -26 57 -64s-23 -64 -58 -64c-37 0 -57 24 -57 64c0 42 23 64 58 64zM258 210c35 0 57 -25 57 -67c0 -37 -24 -60 -58 -60c-37 0 -57 25 -57 60c0 46 24 67 58 67z
" />
    <glyph glyph-name="ydieresis" unicode="&#xff;" horiz-adv-x="493" 
d="M478 517l-250 -753c-62 14 -84 18 -84 18c35 99 55 160 64 191c-120 328 -193 511 -193 511c61 3 95 5 95 5c72 -218 128 -378 143 -422c92 293 138 456 138 456c64 -5 87 -6 87 -6zM157 582c-32 0 -56 23 -56 58c0 34 26 54 57 54c38 0 57 -28 57 -56
c0 -36 -24 -56 -58 -56zM338 583c-31 0 -55 22 -55 58c0 30 23 53 56 53c29 0 53 -20 53 -55c0 -33 -21 -56 -54 -56z" />
    <glyph glyph-name="Ydieresis" unicode="&#x178;" horiz-adv-x="608" 
d="M249 -10c-1 11 0 115 -4 217c0 0 -59 135 -223 474c0 0 31 1 99 5c0 0 46 -110 170 -378c0 0 69 131 196 397c0 0 40 -1 99 -3c0 0 -99 -182 -250 -494c0 0 -1 -80 3 -217c0 0 -35 1 -90 -1zM215 777c-32 0 -56 23 -56 58c0 34 26 54 57 54c38 0 57 -28 57 -56
c0 -36 -24 -56 -58 -56zM396 778c-31 0 -55 22 -55 58c0 30 23 53 56 53c29 0 53 -20 53 -55c0 -33 -21 -56 -54 -56z" />
    <glyph glyph-name="fraction" unicode="&#x2044;" horiz-adv-x="494" 
d="M54 -20c-37 7 -54 8 -54 8c274 441 436 715 436 715c36 -6 58 -7 58 -7c-306 -497 -440 -716 -440 -716z" />
    <glyph glyph-name="Euro" unicode="&#x20ac;" horiz-adv-x="703" 
d="M26 360c0 0 0 31 -1 65c0 0 19 0 90 1c30 150 129 244 277 244c150 0 221 -84 248 -220c-47 -4 -87 -14 -87 -14c-19 100 -65 158 -160 158c-97 0 -160 -59 -184 -166l208 4l-2 -65s-44 0 -216 -3c0 0 -3 -35 -1 -71c58 1 129 2 231 5c0 0 -1 -34 0 -65
c0 0 -44 0 -224 -3c20 -109 81 -177 184 -177c90 0 158 42 177 196c55 -4 92 -5 92 -5c-19 -171 -112 -270 -270 -268c-161 0 -251 101 -275 253c-27 -1 -52 -2 -84 -2c0 0 1 27 1 65c0 0 31 -1 76 0c-2 41 1 70 1 70z" />
    <glyph glyph-name="guilsinglleft" unicode="&#x2039;" horiz-adv-x="275" 
d="M165 560c0 0 26 -4 75 -6c0 0 -64 -97 -133 -216c0 0 49 -97 126 -233c0 0 -29 0 -76 -4c0 0 -47 94 -127 239c0 0 67 101 135 220z" />
    <glyph glyph-name="guilsinglright" unicode="&#x203a;" horiz-adv-x="282" 
d="M121 571c0 0 43 -84 131 -242c0 0 -64 -97 -142 -229c0 0 -26 3 -75 4c0 0 67 103 141 227c0 0 -47 91 -128 232c0 0 29 1 73 8z" />
    <glyph glyph-name="daggerdbl" unicode="&#x2021;" horiz-adv-x="384" 
d="M344 386c0 0 -2 -20 -1 -66c0 0 -35 1 -116 2v-112s-23 0 -70 -1c0 0 0 45 1 114h-117s1 23 -1 66c0 0 45 -1 118 -2v140h-118s2 20 1 66c0 0 35 -2 117 -3l-1 114s25 -2 72 -1c0 0 -1 -44 -2 -113h116s-1 -23 1 -66c0 0 -45 1 -117 2v-140c36 -1 72 0 117 0z" />
    <glyph glyph-name="periodcentered" unicode="&#xb7;" horiz-adv-x="286" 
d="M143 268c-42 0 -72 29 -72 78c0 45 29 77 73 77c54 0 72 -40 72 -77c0 -50 -29 -78 -73 -78z" />
    <glyph glyph-name="quotesinglbase" unicode="&#x201a;" horiz-adv-x="257" 
d="M83 -155c-22 22 -38 40 -38 40c42 34 62 80 71 105c-37 3 -61 33 -61 71c0 44 27 78 69 78c44 0 78 -35 78 -88c0 -78 -55 -159 -119 -206z" />
    <glyph glyph-name="quotedblbase" unicode="&#x201e;" horiz-adv-x="443" 
d="M126 135c43 0 77 -30 77 -93c0 -58 -46 -150 -119 -201c-25 26 -39 38 -39 38c38 33 62 80 73 106c-41 5 -62 40 -62 70c0 56 37 80 70 80zM314 151c43 0 74 -35 74 -91c0 -72 -58 -154 -123 -199l-37 36c40 33 63 76 75 100c-43 10 -60 41 -60 76c0 49 30 78 71 78z" />
    <glyph glyph-name="perthousand" unicode="&#x2030;" horiz-adv-x="1166" 
d="M594 -18c-104 0 -157 80 -157 182c0 94 57 184 158 184c104 0 159 -82 159 -183c0 -122 -67 -183 -160 -183zM974 358c103 0 157 -79 157 -185c0 -94 -53 -181 -155 -181c-103 0 -162 76 -162 184c0 111 72 182 160 182zM192 302c-103 0 -157 79 -157 185
c0 94 57 181 159 181c103 0 158 -76 158 -184c0 -111 -72 -182 -160 -182zM212 -20c-37 7 -54 8 -54 8c274 441 408 668 408 668c36 -6 58 -7 58 -7zM192 355c58 0 90 56 91 132c0 72 -29 129 -89 129c-55 0 -90 -57 -90 -130c0 -81 31 -131 88 -131zM974 305
c-58 0 -90 -56 -91 -132c0 -72 29 -129 89 -129c55 0 90 57 90 130c0 81 -31 131 -88 131zM596 35c58 0 88 56 88 126c0 81 -28 133 -91 133c-53 0 -86 -58 -86 -127c0 -82 34 -132 89 -132z" />
    <glyph glyph-name="Acircumflex" unicode="&#xc2;" horiz-adv-x="625" 
d="M27 22c0 0 85 262 212 680c76 2 132 2 132 2s111 -360 227 -725c0 0 -48 0 -94 -2c0 0 -21 70 -55 185c-38 1 -141 3 -290 3c-14 -48 -27 -97 -40 -145c0 0 -45 2 -92 2zM301 652c-20 -68 -69 -232 -122 -417c82 -1 130 -1 249 -1c-34 115 -78 259 -127 418zM203 747
c0 0 -16 15 -45 37c0 0 52 57 118 137c0 0 24 -1 71 0c0 0 44 -53 119 -133c0 0 -14 -10 -44 -38c0 0 -48 55 -111 119c0 0 -39 -37 -108 -122z" />
    <glyph glyph-name="Ecircumflex" unicode="&#xca;" horiz-adv-x="561" 
d="M85 4c0 0 -1 286 -8 690c0 0 189 2 426 7c0 0 0 -26 1 -75c0 0 -157 -1 -337 -5c0 0 0 -97 2 -260c19 0 152 -1 296 1c0 0 0 -31 1 -79c0 0 -155 3 -296 1c1 -62 2 -132 4 -208l340 -4s0 -28 -1 -75c0 0 -231 6 -428 7zM191 747c0 0 -16 15 -45 37c0 0 52 57 118 137
c0 0 24 -1 71 0c0 0 44 -53 119 -133c0 0 -14 -10 -44 -38c0 0 -48 55 -111 119c0 0 -39 -37 -108 -122z" />
    <glyph glyph-name="Aacute" unicode="&#xc1;" horiz-adv-x="625" 
d="M27 22c0 0 85 262 212 680c76 2 132 2 132 2s111 -360 227 -725c0 0 -48 0 -94 -2c0 0 -21 70 -55 185c-38 1 -141 3 -290 3c-14 -48 -27 -97 -40 -145c0 0 -45 2 -92 2zM301 652c-20 -68 -69 -232 -122 -417c82 -1 130 -1 249 -1c-34 115 -78 259 -127 418zM303 754
c-36 27 -47 35 -47 35c85 105 130 169 130 169c42 -30 62 -44 62 -44c-97 -102 -145 -160 -145 -160z" />
    <glyph glyph-name="Edieresis" unicode="&#xcb;" horiz-adv-x="561" 
d="M85 4c0 0 -1 286 -8 690c0 0 189 2 426 7c0 0 0 -26 1 -75c0 0 -157 -1 -337 -5c0 0 0 -97 2 -260c19 0 152 -1 296 1c0 0 0 -31 1 -79c0 0 -155 3 -296 1c1 -62 2 -132 4 -208l340 -4s0 -28 -1 -75c0 0 -231 6 -428 7zM211 777c-32 0 -56 23 -56 58c0 34 26 54 57 54
c38 0 57 -28 57 -56c0 -36 -24 -56 -58 -56zM392 778c-31 0 -55 22 -55 58c0 30 23 53 56 53c29 0 53 -20 53 -55c0 -33 -21 -56 -54 -56z" />
    <glyph glyph-name="Egrave" unicode="&#xc8;" horiz-adv-x="561" 
d="M85 4c0 0 -1 286 -8 690c0 0 189 2 426 7c0 0 0 -26 1 -75c0 0 -157 -1 -337 -5c0 0 0 -97 2 -260c19 0 152 -1 296 1c0 0 0 -31 1 -79c0 0 -155 3 -296 1c1 -62 2 -132 4 -208l340 -4s0 -28 -1 -75c0 0 -231 6 -428 7zM308 751c0 0 -47 56 -144 158c0 0 20 14 62 45
c0 0 46 -64 130 -168c0 0 -12 -8 -48 -35z" />
    <glyph glyph-name="Iacute" unicode="&#xcd;" horiz-adv-x="269" 
d="M91 -1c0 0 0 305 -4 695c0 0 32 1 90 1c0 0 1 -333 5 -696c0 0 -41 1 -91 0zM125 754c-36 27 -47 35 -47 35c85 105 130 169 130 169c42 -30 62 -44 62 -44c-97 -102 -145 -160 -145 -160z" />
    <glyph glyph-name="Icircumflex" unicode="&#xce;" horiz-adv-x="269" 
d="M91 -1c0 0 0 305 -4 695c0 0 32 1 90 1c0 0 1 -333 5 -696c0 0 -41 1 -91 0zM25 747c0 0 -16 15 -45 37c0 0 52 57 118 137c0 0 24 -1 71 0c0 0 44 -53 119 -133c0 0 -14 -10 -44 -38c0 0 -48 55 -111 119c0 0 -39 -37 -108 -122z" />
    <glyph glyph-name="Idieresis" unicode="&#xcf;" horiz-adv-x="269" 
d="M91 -1c0 0 0 305 -4 695c0 0 32 1 90 1c0 0 1 -333 5 -696c0 0 -41 1 -91 0zM45 777c-32 0 -56 23 -56 58c0 34 26 54 57 54c38 0 57 -28 57 -56c0 -36 -24 -56 -58 -56zM226 778c-31 0 -55 22 -55 58c0 30 23 53 56 53c29 0 53 -20 53 -55c0 -33 -21 -56 -54 -56z" />
    <glyph glyph-name="Igrave" unicode="&#xcc;" horiz-adv-x="269" 
d="M91 -1c0 0 0 305 -4 695c0 0 32 1 90 1c0 0 1 -333 5 -696c0 0 -41 1 -91 0zM142 751c0 0 -47 56 -144 158c0 0 20 14 62 45c0 0 46 -64 130 -168c0 0 -12 -8 -48 -35z" />
    <glyph glyph-name="Oacute" unicode="&#xd3;" horiz-adv-x="700" 
d="M350 -23c-175 0 -290 132 -290 362c0 234 114 377 294 377c176 0 286 -146 286 -375c0 -234 -111 -364 -290 -364zM349 54c110 0 195 92 195 291c0 189 -74 295 -193 295c-126 0 -195 -117 -195 -295c0 -180 74 -291 193 -291zM341 754c-36 27 -47 35 -47 35
c85 105 130 169 130 169c42 -30 62 -44 62 -44c-97 -102 -145 -160 -145 -160z" />
    <glyph glyph-name="Ocircumflex" unicode="&#xd4;" horiz-adv-x="700" 
d="M350 -23c-175 0 -290 132 -290 362c0 234 114 377 294 377c176 0 286 -146 286 -375c0 -234 -111 -364 -290 -364zM349 54c110 0 195 92 195 291c0 189 -74 295 -193 295c-126 0 -195 -117 -195 -295c0 -180 74 -291 193 -291zM241 747c0 0 -16 15 -45 37
c0 0 52 57 118 137c0 0 24 -1 71 0c0 0 44 -53 119 -133c0 0 -14 -10 -44 -38c0 0 -48 55 -111 119c0 0 -39 -37 -108 -122z" />
    <glyph glyph-name="Ograve" unicode="&#xd2;" horiz-adv-x="700" 
d="M350 -23c-175 0 -290 132 -290 362c0 234 114 377 294 377c176 0 286 -146 286 -375c0 -234 -111 -364 -290 -364zM349 54c110 0 195 92 195 291c0 189 -74 295 -193 295c-126 0 -195 -117 -195 -295c0 -180 74 -291 193 -291zM358 751c0 0 -47 56 -144 158
c0 0 20 14 62 45c0 0 46 -64 130 -168c0 0 -12 -8 -48 -35z" />
    <glyph glyph-name="Uacute" unicode="&#xda;" horiz-adv-x="633" 
d="M322 -14c-180 0 -253 111 -253 304c0 95 -2 385 -2 385s36 -2 93 -1c0 0 -2 -273 -2 -375c0 -164 52 -232 167 -232c111 0 153 78 153 237c0 124 -1 408 -1 408s27 -1 89 2c0 0 -2 -282 -2 -414c0 -202 -75 -314 -242 -314zM307 754c-36 27 -47 35 -47 35
c85 105 130 169 130 169c42 -30 62 -44 62 -44c-97 -102 -145 -160 -145 -160z" />
    <glyph glyph-name="Ucircumflex" unicode="&#xdb;" horiz-adv-x="633" 
d="M322 -14c-180 0 -253 111 -253 304c0 95 -2 385 -2 385s36 -2 93 -1c0 0 -2 -273 -2 -375c0 -164 52 -232 167 -232c111 0 153 78 153 237c0 124 -1 408 -1 408s27 -1 89 2c0 0 -2 -282 -2 -414c0 -202 -75 -314 -242 -314zM207 747c0 0 -16 15 -45 37c0 0 52 57 118 137
c0 0 24 -1 71 0c0 0 44 -53 119 -133c0 0 -14 -10 -44 -38c0 0 -48 55 -111 119c0 0 -39 -37 -108 -122z" />
    <glyph glyph-name="Ugrave" unicode="&#xd9;" horiz-adv-x="633" 
d="M322 -14c-180 0 -253 111 -253 304c0 95 -2 385 -2 385s36 -2 93 -1c0 0 -2 -273 -2 -375c0 -164 52 -232 167 -232c111 0 153 78 153 237c0 124 -1 408 -1 408s27 -1 89 2c0 0 -2 -282 -2 -414c0 -202 -75 -314 -242 -314zM324 751c0 0 -47 56 -144 158c0 0 20 14 62 45
c0 0 46 -64 130 -168c0 0 -12 -8 -48 -35z" />
    <glyph glyph-name="dotlessi" unicode="&#x131;" horiz-adv-x="261" 
d="M90 2c0 0 2 132 -2 499c0 0 35 0 86 1c0 0 0 -193 4 -499c0 0 -37 0 -88 -1z" />
    <glyph glyph-name="circumflex" unicode="&#x2c6;" horiz-adv-x="580" 
d="M173 552c0 0 -16 15 -45 37c0 0 52 57 118 137c0 0 24 -1 71 0c0 0 44 -53 119 -133c0 0 -14 -10 -44 -38c0 0 -48 55 -111 119c0 0 -39 -37 -108 -122z" />
    <glyph glyph-name="tilde" unicode="&#x2dc;" horiz-adv-x="580" 
d="M167 579c0 0 -20 6 -54 10c3 78 41 125 104 125c64 0 94 -84 135 -84c24 0 38 16 46 73c0 0 18 -5 55 -11c-9 -95 -47 -121 -100 -121c-67 0 -100 84 -140 84c-25 0 -41 -26 -46 -76z" />
    <glyph glyph-name="macron" unicode="&#xaf;" horiz-adv-x="580" 
d="M147 610c0 0 1 22 -1 62c0 0 79 -1 277 2c0 0 -2 -21 -1 -63c0 0 -100 2 -275 -1z" />
    <glyph glyph-name="breve" unicode="&#x2d8;" horiz-adv-x="580" 
d="M287 570c-96 0 -150 48 -150 135c0 0 27 -1 64 2c0 -57 33 -85 87 -85c49 0 81 28 80 96c0 0 23 -1 64 1c3 -94 -51 -149 -145 -149z" />
    <glyph glyph-name="dotaccent" unicode="&#x2d9;" horiz-adv-x="580" 
d="M287 577c-48 0 -72 33 -72 72c0 36 25 66 72 66c49 0 72 -35 72 -68c0 -45 -28 -70 -72 -70z" />
    <glyph glyph-name="ring" unicode="&#x2da;" horiz-adv-x="580" 
d="M290 556c-70 0 -114 48 -114 106c0 59 45 105 114 105c81 0 118 -52 118 -105c0 -64 -50 -106 -118 -106zM292 598c39 0 66 22 66 64c0 37 -21 65 -65 65s-66 -28 -66 -64c0 -35 22 -65 65 -65z" />
    <glyph glyph-name="cedilla" unicode="&#xb8;" horiz-adv-x="580" 
d="M272 -8l50 1s-3 -25 -5 -58c74 0 105 -37 105 -72c0 -53 -53 -86 -132 -86c-32 0 -74 11 -103 28c0 0 9 19 19 47c29 -17 57 -25 84 -25c33 0 60 13 60 35c0 23 -22 38 -96 29c0 0 8 37 18 101z" />
    <glyph glyph-name="hungarumlaut" unicode="&#x2dd;" horiz-adv-x="580" 
d="M345 559c-38 23 -50 28 -50 28c73 112 109 171 109 171c44 -25 65 -35 65 -35c-87 -110 -124 -164 -124 -164zM198 565c-34 19 -50 26 -50 26c72 113 106 171 106 171c42 -26 64 -36 64 -36c-86 -111 -120 -161 -120 -161z" />
    <glyph glyph-name="ogonek" unicode="&#x2db;" horiz-adv-x="580" 
d="M362 -207c-12 -2 -24 -3 -36 -3c-72 0 -123 31 -123 85c-1 41 33 95 102 122l55 -2c-64 -29 -91 -74 -91 -104c0 -32 38 -47 95 -43c0 0 -2 -20 -2 -55z" />
    <glyph glyph-name="caron" unicode="&#x2c7;" horiz-adv-x="580" 
d="M415 726c0 0 16 -15 45 -37c0 0 -54 -57 -120 -137c0 0 -20 1 -67 0c0 0 -46 53 -121 133c0 0 14 10 44 38c0 0 48 -55 111 -119c0 0 36 36 108 122z" />
    <glyph glyph-name="commaaccent" horiz-adv-x="609" 
d="M350 -110c0 -47 -36 -103 -89 -144c-18 19 -26 27 -29 28c27 23 45 50 55 66c-32 6 -49 29 -49 55c0 27 16 56 56 56c35 0 56 -26 56 -61z" />
    <glyph glyph-name="uni0237" unicode="&#x237;" horiz-adv-x="261" 
d="M-38 -207c0 0 2 34 3 82c19 -4 36 -6 51 -6c46 0 73 21 74 77c2 245 -2 555 -2 555c59 -1 85 1 85 1s5 -253 3 -561c0 -109 -66 -153 -156 -153c-18 0 -38 2 -58 5z" />
    <glyph glyph-name="Dcroat" unicode="&#x110;" horiz-adv-x="701" 
d="M20 305c0 0 2 27 1 77c0 0 32 -2 99 -4c-1 184 -2 311 -2 311c54 8 97 11 148 11c258 0 376 -144 376 -349c0 -231 -129 -357 -400 -357c-36 0 -79 3 -123 8c1 114 1 209 1 303h-100zM212 73c17 -1 33 -1 48 -1c183 0 288 74 288 280c0 165 -91 271 -288 271
c-17 0 -35 -1 -54 -3c0 -86 0 -169 1 -243c39 -1 83 -1 137 -1c0 0 -1 -26 1 -72c0 0 -54 1 -137 1c2 -138 4 -232 4 -232z" />
    <glyph glyph-name="dcroat" unicode="&#x111;" horiz-adv-x="592" 
d="M522 -18c0 0 -45 1 -81 1c0 0 2 48 4 121c-32 -84 -109 -122 -185 -122c-121 0 -205 104 -205 261c0 163 86 274 211 274c81 0 140 -48 170 -107c0 36 -1 83 -2 138h-78c1 33 -1 61 -1 61h78c-1 24 -2 50 -2 77c0 0 21 -1 91 1c0 0 0 -32 -1 -78c55 1 97 2 97 2
c-2 -42 -1 -64 -1 -64c-32 1 -63 1 -96 1c-1 -128 -1 -332 1 -566zM284 46c85 0 151 78 151 196c-5 116 -53 209 -156 209c-84 0 -134 -92 -134 -203c0 -118 45 -202 139 -202z" />
    <glyph glyph-name="Abreve" unicode="&#x102;" horiz-adv-x="625" 
d="M27 22c0 0 85 262 212 680c76 2 132 2 132 2s111 -360 227 -725c0 0 -48 0 -94 -2c0 0 -21 70 -55 185c-38 1 -141 3 -290 3c-14 -48 -27 -97 -40 -145c0 0 -45 2 -92 2zM301 652c-20 -68 -69 -232 -122 -417c82 -1 130 -1 249 -1c-34 115 -78 259 -127 418zM314 765
c-96 0 -150 48 -150 135c0 0 27 -1 64 2c0 -57 33 -85 87 -85c49 0 81 28 80 96c0 0 23 -1 64 1c3 -94 -51 -149 -145 -149z" />
    <glyph glyph-name="Amacron" unicode="&#x100;" horiz-adv-x="625" 
d="M27 22c0 0 85 262 212 680c76 2 132 2 132 2s111 -360 227 -725c0 0 -48 0 -94 -2c0 0 -21 70 -55 185c-38 1 -141 3 -290 3c-14 -48 -27 -97 -40 -145c0 0 -45 2 -92 2zM301 652c-20 -68 -69 -232 -122 -417c82 -1 130 -1 249 -1c-34 115 -78 259 -127 418zM175 805
c0 0 1 22 -1 62c0 0 79 -1 277 2c0 0 -2 -21 -1 -63c0 0 -100 2 -275 -1z" />
    <glyph glyph-name="Aogonek" unicode="&#x104;" horiz-adv-x="625" 
d="M568 -215c-12 -2 -24 -3 -36 -3c-72 0 -123 31 -123 85c-1 39 30 90 92 118l-52 177c-38 1 -141 3 -290 3c-14 -48 -27 -97 -40 -145c0 0 -45 2 -92 2c0 0 85 262 212 680c76 2 132 2 132 2s111 -360 227 -725h-49c-52 -29 -74 -69 -74 -96c0 -32 38 -47 95 -43
c0 0 -2 -20 -2 -55zM301 652c-20 -68 -69 -232 -122 -417c82 -1 130 -1 249 -1c-34 115 -78 259 -127 418z" />
    <glyph glyph-name="Cacute" unicode="&#x106;" horiz-adv-x="661" 
d="M349 -20c-200 0 -290 151 -290 368c0 223 102 367 292 367c149 0 224 -94 246 -238c-63 -9 -93 -17 -93 -17c-17 112 -62 177 -155 177c-134 0 -195 -127 -195 -286c0 -164 59 -292 195 -292c99 0 159 59 173 202c57 -9 95 -13 95 -13c-20 -180 -113 -268 -268 -268z
M329 754c-36 27 -47 35 -47 35c85 105 130 169 130 169c42 -30 62 -44 62 -44c-97 -102 -145 -160 -145 -160z" />
    <glyph glyph-name="Ccaron" unicode="&#x10c;" horiz-adv-x="661" 
d="M349 -20c-200 0 -290 151 -290 368c0 223 102 367 292 367c149 0 224 -94 246 -238c-63 -9 -93 -17 -93 -17c-17 112 -62 177 -155 177c-134 0 -195 -127 -195 -286c0 -164 59 -292 195 -292c99 0 159 59 173 202c57 -9 95 -13 95 -13c-20 -180 -113 -268 -268 -268z
M447 921c0 0 16 -15 45 -37c0 0 -54 -57 -120 -137c0 0 -20 1 -67 0c0 0 -46 53 -121 133c0 0 14 10 44 38c0 0 48 -55 111 -119c0 0 36 36 108 122z" />
    <glyph glyph-name="Ccircumflex" unicode="&#x108;" horiz-adv-x="661" 
d="M349 -20c-200 0 -290 151 -290 368c0 223 102 367 292 367c149 0 224 -94 246 -238c-63 -9 -93 -17 -93 -17c-17 112 -62 177 -155 177c-134 0 -195 -127 -195 -286c0 -164 59 -292 195 -292c99 0 159 59 173 202c57 -9 95 -13 95 -13c-20 -180 -113 -268 -268 -268z
M229 747c0 0 -16 15 -45 37c0 0 52 57 118 137c0 0 24 -1 71 0c0 0 44 -53 119 -133c0 0 -14 -10 -44 -38c0 0 -48 55 -111 119c0 0 -39 -37 -108 -122z" />
    <glyph glyph-name="Dcaron" unicode="&#x10e;" horiz-adv-x="660" 
d="M171 73c15 -1 29 -1 43 -1c188 0 293 73 293 280c0 163 -93 271 -281 271c-20 0 -39 -1 -61 -3c1 -291 6 -547 6 -547zM78 2c3 384 -1 687 -1 687c54 8 97 11 148 11c258 0 376 -144 376 -349c0 -231 -129 -357 -400 -357c-36 0 -79 3 -123 8zM404 921c0 0 16 -15 45 -37
c0 0 -54 -57 -120 -137c0 0 -20 1 -67 0c0 0 -46 53 -121 133c0 0 14 10 44 38c0 0 48 -55 111 -119c0 0 36 36 108 122z" />
    <glyph glyph-name="Ecaron" unicode="&#x11a;" horiz-adv-x="561" 
d="M85 4c0 0 -1 286 -8 690c0 0 189 2 426 7c0 0 0 -26 1 -75c0 0 -157 -1 -337 -5c0 0 0 -97 2 -260c19 0 152 -1 296 1c0 0 0 -31 1 -79c0 0 -155 3 -296 1c1 -62 2 -132 4 -208l340 -4s0 -28 -1 -75c0 0 -231 6 -428 7zM409 921c0 0 16 -15 45 -37c0 0 -54 -57 -120 -137
c0 0 -20 1 -67 0c0 0 -46 53 -121 133c0 0 14 10 44 38c0 0 48 -55 111 -119c0 0 36 36 108 122z" />
    <glyph glyph-name="Edotaccent" unicode="&#x116;" horiz-adv-x="561" 
d="M85 4c0 0 -1 286 -8 690c0 0 189 2 426 7c0 0 0 -26 1 -75c0 0 -157 -1 -337 -5c0 0 0 -97 2 -260c19 0 152 -1 296 1c0 0 0 -31 1 -79c0 0 -155 3 -296 1c1 -62 2 -132 4 -208l340 -4s0 -28 -1 -75c0 0 -231 6 -428 7zM300 772c-48 0 -72 33 -72 72c0 36 25 66 72 66
c49 0 72 -35 72 -68c0 -45 -28 -70 -72 -70z" />
    <glyph glyph-name="Emacron" unicode="&#x112;" horiz-adv-x="561" 
d="M85 4c0 0 -1 286 -8 690c0 0 189 2 426 7c0 0 0 -26 1 -75c0 0 -157 -1 -337 -5c0 0 0 -97 2 -260c19 0 152 -1 296 1c0 0 0 -31 1 -79c0 0 -155 3 -296 1c1 -62 2 -132 4 -208l340 -4s0 -28 -1 -75c0 0 -231 6 -428 7zM163 805c0 0 1 22 -1 62c0 0 79 -1 277 2
c0 0 -2 -21 -1 -63c0 0 -100 2 -275 -1z" />
    <glyph glyph-name="Eogonek" unicode="&#x118;" horiz-adv-x="561" 
d="M515 -195c-12 -2 -24 -3 -35 -3c-71 -1 -124 30 -124 85c-1 37 26 83 81 112c-84 2 -225 4 -352 5c0 0 -1 286 -8 690c0 0 189 2 426 7c0 0 0 -26 1 -75c0 0 -157 -1 -337 -5c0 0 0 -97 2 -260c19 0 152 -1 296 1c0 0 0 -31 1 -79c0 0 -155 3 -296 1c1 -62 2 -132 4 -208
l340 -4s0 -18 -1 -65c-64 -29 -91 -74 -91 -104c0 -32 38 -47 95 -43c0 0 -2 -20 -2 -55z" />
    <glyph glyph-name="Gbreve" unicode="&#x11e;" horiz-adv-x="674" 
d="M353 -24c-186 0 -294 126 -294 372c0 200 98 368 296 368c135 0 222 -81 244 -220c0 0 -30 -5 -85 -18c-18 104 -76 163 -162 163c-133 0 -200 -121 -200 -287c0 -183 57 -301 209 -301c103 0 180 77 174 230c-19 0 -95 0 -222 -2c0 0 0 29 -1 79c0 0 74 -2 300 0
c5 -31 7 -60 7 -87c0 -186 -105 -297 -266 -297zM336 765c-96 0 -150 48 -150 135c0 0 27 -1 64 2c0 -57 33 -85 87 -85c49 0 81 28 80 96c0 0 23 -1 64 1c3 -94 -51 -149 -145 -149z" />
    <glyph glyph-name="Gcircumflex" unicode="&#x11c;" horiz-adv-x="674" 
d="M353 -24c-186 0 -294 126 -294 372c0 200 98 368 296 368c135 0 222 -81 244 -220c0 0 -30 -5 -85 -18c-18 104 -76 163 -162 163c-133 0 -200 -121 -200 -287c0 -183 57 -301 209 -301c103 0 180 77 174 230c-19 0 -95 0 -222 -2c0 0 0 29 -1 79c0 0 74 -2 300 0
c5 -31 7 -60 7 -87c0 -186 -105 -297 -266 -297zM225 747c0 0 -16 15 -45 37c0 0 52 57 118 137c0 0 24 -1 71 0c0 0 44 -53 119 -133c0 0 -14 -10 -44 -38c0 0 -48 55 -111 119c0 0 -39 -37 -108 -122z" />
    <glyph glyph-name="Gcommaaccent" unicode="&#x122;" horiz-adv-x="674" 
d="M353 -24c-186 0 -294 126 -294 372c0 200 98 368 296 368c135 0 222 -81 244 -220c0 0 -30 -5 -85 -18c-18 104 -76 163 -162 163c-133 0 -200 -121 -200 -287c0 -183 57 -301 209 -301c103 0 180 77 174 230c-19 0 -95 0 -222 -2c0 0 0 29 -1 79c0 0 74 -2 300 0
c5 -31 7 -60 7 -87c0 -186 -105 -297 -266 -297zM393 -120c0 -47 -36 -103 -89 -144c-18 19 -26 27 -29 28c27 23 45 50 55 66c-32 6 -49 29 -49 55c0 27 16 56 56 56c35 0 56 -26 56 -61z" />
    <glyph glyph-name="Hcircumflex" unicode="&#x124;" horiz-adv-x="637" 
d="M470 -21v271c-40 1 -138 1 -301 -1l3 -229s-51 0 -91 -1c0 0 1 249 -4 656c0 0 40 0 88 1c0 0 1 -140 3 -345c29 -1 128 -3 301 -2c0 111 -2 243 -3 387c0 0 40 0 91 1c0 0 0 -329 3 -738c0 0 -45 1 -90 0zM209 747c0 0 -16 15 -45 37c0 0 52 57 118 137c0 0 24 -1 71 0
c0 0 44 -53 119 -133c0 0 -14 -10 -44 -38c0 0 -48 55 -111 119c0 0 -39 -37 -108 -122z" />
    <glyph glyph-name="Idotaccent" unicode="&#x130;" horiz-adv-x="269" 
d="M91 -1c0 0 0 305 -4 695c0 0 32 1 90 1c0 0 1 -333 5 -696c0 0 -41 1 -91 0zM134 772c-48 0 -72 33 -72 72c0 36 25 66 72 66c49 0 72 -35 72 -68c0 -45 -28 -70 -72 -70z" />
    <glyph glyph-name="Imacron" unicode="&#x12a;" horiz-adv-x="269" 
d="M91 -1c0 0 0 305 -4 695c0 0 32 1 90 1c0 0 1 -333 5 -696c0 0 -41 1 -91 0zM-3 805c0 0 1 22 -1 62c0 0 79 -1 277 2c0 0 -2 -21 -1 -63c0 0 -100 2 -275 -1z" />
    <glyph glyph-name="Iogonek" unicode="&#x12e;" horiz-adv-x="269" 
d="M159 -195c-12 -2 -24 -3 -36 -3c-72 0 -123 31 -123 85c-1 39 29 90 91 117c0 11 0 307 -4 690c0 0 32 1 90 1c0 0 1 -333 5 -696c0 0 -19 1 -40 1c-53 -29 -76 -69 -76 -97c0 -32 38 -47 95 -43c0 0 -2 -20 -2 -55z" />
    <glyph glyph-name="Jcircumflex" unicode="&#x134;" horiz-adv-x="534" 
d="M257 -19c-151 0 -215 95 -215 265c0 20 1 40 3 62c0 0 33 -2 92 -3c-1 -19 -2 -37 -2 -54c0 -132 43 -187 123 -187c79 0 127 52 127 206c0 250 -4 432 -4 432s34 0 95 3c0 0 -1 -169 -1 -452c0 -181 -80 -272 -218 -272zM318 747c0 0 -16 15 -45 37c0 0 52 57 118 137
c0 0 24 -1 71 0c0 0 44 -53 119 -133c0 0 -14 -10 -44 -38c0 0 -48 55 -111 119c0 0 -39 -37 -108 -122z" />
    <glyph glyph-name="Kcommaaccent" unicode="&#x136;" horiz-adv-x="622" 
d="M499 -23c-114 162 -194 272 -231 323c-47 -58 -82 -103 -102 -129c1 -101 3 -155 3 -155c-51 1 -91 -1 -91 -1c1 407 -1 660 -1 660c51 -2 89 -1 89 -1c-1 -159 -1 -289 0 -392c206 270 320 427 320 427c64 -4 100 -6 100 -6c-146 -188 -228 -301 -256 -340
c155 -222 270 -379 270 -379c-68 -3 -101 -7 -101 -7zM379 -120c0 -47 -36 -103 -89 -144c-18 19 -26 27 -29 28c27 23 45 50 55 66c-32 6 -49 29 -49 55c0 27 16 56 56 56c35 0 56 -26 56 -61z" />
    <glyph glyph-name="Lacute" unicode="&#x139;" horiz-adv-x="521" 
d="M83 3c0 0 -1 302 -6 686c0 0 26 -1 90 0c0 0 -1 -191 4 -607c208 -5 316 -5 316 -5c-1 -52 -1 -80 -1 -80c-244 6 -403 6 -403 6zM141 754c-36 27 -47 35 -47 35c85 105 130 169 130 169c42 -30 62 -44 62 -44c-97 -102 -145 -160 -145 -160z" />
    <glyph glyph-name="Lcaron" unicode="&#x13d;" horiz-adv-x="521" 
d="M83 3c0 0 -1 302 -6 686c0 0 26 -1 90 0c0 0 -1 -191 4 -607c208 -5 316 -5 316 -5c-1 -52 -1 -80 -1 -80c-244 6 -403 6 -403 6zM379 686c0 -47 -36 -103 -89 -144c-18 19 -26 27 -29 28c27 23 45 50 55 66c-32 6 -49 29 -49 55c0 27 16 56 56 56c35 0 56 -26 56 -61z
" />
    <glyph glyph-name="Lcommaaccent" unicode="&#x13b;" horiz-adv-x="521" 
d="M83 3c0 0 -1 302 -6 686c0 0 26 -1 90 0c0 0 -1 -191 4 -607c208 -5 316 -5 316 -5c-1 -52 -1 -80 -1 -80c-244 6 -403 6 -403 6zM341 -120c0 -47 -36 -103 -89 -144c-18 19 -26 27 -29 28c27 23 45 50 55 66c-32 6 -49 29 -49 55c0 27 16 56 56 56c35 0 56 -26 56 -61z
" />
    <glyph glyph-name="Nacute" unicode="&#x143;" horiz-adv-x="656" 
d="M80 20c0 0 2 244 -3 652c0 0 43 3 98 6c0 0 150 -275 321 -577c-1 85 -3 352 -11 615c0 0 36 -1 86 -1c0 0 1 -285 8 -730l-102 -7s-139 256 -318 572c0 -80 1 -307 7 -532c0 0 -38 1 -86 2zM319 754c-36 27 -47 35 -47 35c85 105 130 169 130 169c42 -30 62 -44 62 -44
c-97 -102 -145 -160 -145 -160z" />
    <glyph glyph-name="Ncaron" unicode="&#x147;" horiz-adv-x="656" 
d="M80 20c0 0 2 244 -3 652c0 0 43 3 98 6c0 0 150 -275 321 -577c-1 85 -3 352 -11 615c0 0 36 -1 86 -1c0 0 1 -285 8 -730l-102 -7s-139 256 -318 572c0 -80 1 -307 7 -532c0 0 -38 1 -86 2zM437 921c0 0 16 -15 45 -37c0 0 -54 -57 -120 -137c0 0 -20 1 -67 0
c0 0 -46 53 -121 133c0 0 14 10 44 38c0 0 48 -55 111 -119c0 0 36 36 108 122z" />
    <glyph glyph-name="Ncommaaccent" unicode="&#x145;" horiz-adv-x="656" 
d="M80 20c0 0 2 244 -3 652c0 0 43 3 98 6c0 0 150 -275 321 -577c-1 85 -3 352 -11 615c0 0 36 -1 86 -1c0 0 1 -285 8 -730l-102 -7s-139 256 -318 572c0 -80 1 -307 7 -532c0 0 -38 1 -86 2zM387 -120c0 -47 -36 -103 -89 -144c-18 19 -26 27 -29 28c27 23 45 50 55 66
c-32 6 -49 29 -49 55c0 27 16 56 56 56c35 0 56 -26 56 -61z" />
    <glyph glyph-name="Ohungarumlaut" unicode="&#x150;" horiz-adv-x="700" 
d="M350 -23c-175 0 -290 132 -290 362c0 234 114 377 294 377c176 0 286 -146 286 -375c0 -234 -111 -364 -290 -364zM349 54c110 0 195 92 195 291c0 189 -74 295 -193 295c-126 0 -195 -117 -195 -295c0 -180 74 -291 193 -291zM417 754c-38 23 -50 28 -50 28
c73 112 109 171 109 171c44 -25 65 -35 65 -35c-87 -110 -124 -164 -124 -164zM270 760c-34 19 -50 26 -50 26c72 113 106 171 106 171c42 -26 64 -36 64 -36c-86 -111 -120 -161 -120 -161z" />
    <glyph glyph-name="Omacron" unicode="&#x14c;" horiz-adv-x="700" 
d="M350 -23c-175 0 -290 132 -290 362c0 234 114 377 294 377c176 0 286 -146 286 -375c0 -234 -111 -364 -290 -364zM349 54c110 0 195 92 195 291c0 189 -74 295 -193 295c-126 0 -195 -117 -195 -295c0 -180 74 -291 193 -291zM213 805c0 0 1 22 -1 62c0 0 79 -1 277 2
c0 0 -2 -21 -1 -63c0 0 -100 2 -275 -1z" />
    <glyph glyph-name="Racute" unicode="&#x154;" horiz-adv-x="624" 
d="M501 -26c0 0 -70 130 -173 311c-27 -3 -56 -4 -87 -4c-23 0 -48 1 -73 3c0 -56 1 -155 4 -266c0 0 -49 1 -90 -1c0 0 1 244 -5 665c72 14 136 20 193 20c195 0 301 -75 301 -207c0 -98 -54 -164 -160 -195l181 -313s-37 -4 -91 -13zM167 360c36 -5 69 -7 99 -7
c142 0 214 43 214 137c0 87 -63 136 -199 136c-34 0 -74 -4 -117 -11c1 -180 3 -255 3 -255zM297 754c-36 27 -47 35 -47 35c85 105 130 169 130 169c42 -30 62 -44 62 -44c-97 -102 -145 -160 -145 -160z" />
    <glyph glyph-name="Rcaron" unicode="&#x158;" horiz-adv-x="624" 
d="M501 -26c0 0 -70 130 -173 311c-27 -3 -56 -4 -87 -4c-23 0 -48 1 -73 3c0 -56 1 -155 4 -266c0 0 -49 1 -90 -1c0 0 1 244 -5 665c72 14 136 20 193 20c195 0 301 -75 301 -207c0 -98 -54 -164 -160 -195l181 -313s-37 -4 -91 -13zM167 360c36 -5 69 -7 99 -7
c142 0 214 43 214 137c0 87 -63 136 -199 136c-34 0 -74 -4 -117 -11c1 -180 3 -255 3 -255zM415 921c0 0 16 -15 45 -37c0 0 -54 -57 -120 -137c0 0 -20 1 -67 0c0 0 -46 53 -121 133c0 0 14 10 44 38c0 0 48 -55 111 -119c0 0 36 36 108 122z" />
    <glyph glyph-name="Rcommaaccent" unicode="&#x156;" horiz-adv-x="624" 
d="M501 -26c0 0 -70 130 -173 311c-27 -3 -56 -4 -87 -4c-23 0 -48 1 -73 3c0 -56 1 -155 4 -266c0 0 -49 1 -90 -1c0 0 1 244 -5 665c72 14 136 20 193 20c195 0 301 -75 301 -207c0 -98 -54 -164 -160 -195l181 -313s-37 -4 -91 -13zM167 360c36 -5 69 -7 99 -7
c142 0 214 43 214 137c0 87 -63 136 -199 136c-34 0 -74 -4 -117 -11c1 -180 3 -255 3 -255zM365 -120c0 -47 -36 -103 -89 -144c-18 19 -26 27 -29 28c27 23 45 50 55 66c-32 6 -49 29 -49 55c0 27 16 56 56 56c35 0 56 -26 56 -61z" />
    <glyph glyph-name="Sacute" unicode="&#x15a;" horiz-adv-x="605" 
d="M301 -20c-153 6 -244 84 -254 244c0 0 30 2 96 10c4 -113 64 -176 160 -179c82 -2 156 38 156 113c0 53 -21 99 -189 148c-144 42 -204 109 -204 212c0 108 95 186 237 186c135 0 227 -77 240 -222c0 0 -38 -6 -91 -12c-1 90 -53 157 -149 157c-92 0 -147 -42 -147 -108
c0 -71 51 -108 182 -147c186 -55 215 -131 215 -211c0 -116 -111 -196 -252 -191zM291 754c-36 27 -47 35 -47 35c85 105 130 169 130 169c42 -30 62 -44 62 -44c-97 -102 -145 -160 -145 -160z" />
    <glyph glyph-name="Scedilla" unicode="&#x15e;" horiz-adv-x="605" 
d="M553 171c0 -109 -98 -186 -226 -191c-1 -9 -3 -26 -4 -49c74 0 105 -37 105 -72c0 -53 -53 -86 -132 -86c-32 0 -74 11 -103 28c0 0 9 19 19 47c29 -17 57 -25 84 -25c33 0 60 13 60 35c0 23 -22 38 -96 29c0 0 7 35 17 95c-139 13 -221 90 -230 242c0 0 30 2 96 10
c4 -113 64 -176 160 -179c82 -2 156 38 156 113c0 53 -21 99 -189 148c-144 42 -204 109 -204 212c0 108 95 186 237 186c135 0 227 -77 240 -222c0 0 -38 -6 -91 -12c-1 90 -53 157 -149 157c-92 0 -147 -42 -147 -108c0 -71 51 -108 182 -147c186 -55 215 -131 215 -211z
" />
    <glyph glyph-name="Scircumflex" unicode="&#x15c;" horiz-adv-x="605" 
d="M301 -20c-153 6 -244 84 -254 244c0 0 30 2 96 10c4 -113 64 -176 160 -179c82 -2 156 38 156 113c0 53 -21 99 -189 148c-144 42 -204 109 -204 212c0 108 95 186 237 186c135 0 227 -77 240 -222c0 0 -38 -6 -91 -12c-1 90 -53 157 -149 157c-92 0 -147 -42 -147 -108
c0 -71 51 -108 182 -147c186 -55 215 -131 215 -211c0 -116 -111 -196 -252 -191zM191 747c0 0 -16 15 -45 37c0 0 52 57 118 137c0 0 24 -1 71 0c0 0 44 -53 119 -133c0 0 -14 -10 -44 -38c0 0 -48 55 -111 119c0 0 -39 -37 -108 -122z" />
    <glyph glyph-name="Scommaaccent" unicode="&#x218;" horiz-adv-x="605" 
d="M301 -20c-153 6 -244 84 -254 244c0 0 30 2 96 10c4 -113 64 -176 160 -179c82 -2 156 38 156 113c0 53 -21 99 -189 148c-144 42 -204 109 -204 212c0 108 95 186 237 186c135 0 227 -77 240 -222c0 0 -38 -6 -91 -12c-1 90 -53 157 -149 157c-92 0 -147 -42 -147 -108
c0 -71 51 -108 182 -147c186 -55 215 -131 215 -211c0 -116 -111 -196 -252 -191zM359 -120c0 -47 -36 -103 -89 -144c-18 19 -26 27 -29 28c27 23 45 50 55 66c-32 6 -49 29 -49 55c0 27 16 56 56 56c35 0 56 -26 56 -61z" />
    <glyph glyph-name="Tcaron" unicode="&#x164;" horiz-adv-x="551" 
d="M28 616c0 0 0 36 -1 81c0 0 245 0 497 4c0 0 -1 -39 0 -82h-203c0 -86 1 -298 5 -629c0 0 -42 0 -92 -1c0 0 0 252 -3 629c-66 0 -137 -1 -203 -2zM384 921c0 0 16 -15 45 -37c0 0 -54 -57 -120 -137c0 0 -20 1 -67 0c0 0 -46 53 -121 133c0 0 14 10 44 38
c0 0 48 -55 111 -119c0 0 36 36 108 122z" />
    <glyph glyph-name="Tcommaaccent" unicode="&#x162;" horiz-adv-x="551" 
d="M28 616c0 0 0 36 -1 81c0 0 245 0 497 4c0 0 -1 -39 0 -82h-203c0 -86 1 -298 5 -629c0 0 -42 0 -92 -1c0 0 0 252 -3 629c-66 0 -137 -1 -203 -2zM334 -120c0 -47 -36 -103 -89 -144c-18 19 -26 27 -29 28c27 23 45 50 55 66c-32 6 -49 29 -49 55c0 27 16 56 56 56
c35 0 56 -26 56 -61z" />
    <glyph glyph-name="Ubreve" unicode="&#x16c;" horiz-adv-x="633" 
d="M322 -14c-180 0 -253 111 -253 304c0 95 -2 385 -2 385s36 -2 93 -1c0 0 -2 -273 -2 -375c0 -164 52 -232 167 -232c111 0 153 78 153 237c0 124 -1 408 -1 408s27 -1 89 2c0 0 -2 -282 -2 -414c0 -202 -75 -314 -242 -314zM318 765c-96 0 -150 48 -150 135
c0 0 27 -1 64 2c0 -57 33 -85 87 -85c49 0 81 28 80 96c0 0 23 -1 64 1c3 -94 -51 -149 -145 -149z" />
    <glyph glyph-name="Uhungarumlaut" unicode="&#x170;" horiz-adv-x="633" 
d="M322 -14c-180 0 -253 111 -253 304c0 95 -2 385 -2 385s36 -2 93 -1c0 0 -2 -273 -2 -375c0 -164 52 -232 167 -232c111 0 153 78 153 237c0 124 -1 408 -1 408s27 -1 89 2c0 0 -2 -282 -2 -414c0 -202 -75 -314 -242 -314zM383 754c-38 23 -50 28 -50 28
c73 112 109 171 109 171c44 -25 65 -35 65 -35c-87 -110 -124 -164 -124 -164zM236 760c-34 19 -50 26 -50 26c72 113 106 171 106 171c42 -26 64 -36 64 -36c-86 -111 -120 -161 -120 -161z" />
    <glyph glyph-name="Umacron" unicode="&#x16a;" horiz-adv-x="633" 
d="M322 -14c-180 0 -253 111 -253 304c0 95 -2 385 -2 385s36 -2 93 -1c0 0 -2 -273 -2 -375c0 -164 52 -232 167 -232c111 0 153 78 153 237c0 124 -1 408 -1 408s27 -1 89 2c0 0 -2 -282 -2 -414c0 -202 -75 -314 -242 -314zM179 805c0 0 1 22 -1 62c0 0 79 -1 277 2
c0 0 -2 -21 -1 -63c0 0 -100 2 -275 -1z" />
    <glyph glyph-name="Uogonek" unicode="&#x172;" horiz-adv-x="633" 
d="M359 -205c-12 -2 -24 -3 -36 -3c-72 0 -123 31 -123 85c-1 36 25 83 79 112c-149 16 -210 124 -210 301c0 95 -2 385 -2 385s36 -2 93 -1c0 0 -2 -273 -2 -375c0 -164 52 -232 167 -232c111 0 153 78 153 237c0 124 -1 408 -1 408s27 -1 89 2c0 0 -2 -282 -2 -414
c0 -197 -71 -308 -229 -314c-48 -28 -69 -66 -69 -93c0 -32 38 -47 95 -43c0 0 -2 -20 -2 -55z" />
    <glyph glyph-name="Uring" unicode="&#x16e;" horiz-adv-x="633" 
d="M322 -14c-180 0 -253 111 -253 304c0 95 -2 385 -2 385s36 -2 93 -1c0 0 -2 -273 -2 -375c0 -164 52 -232 167 -232c111 0 153 78 153 237c0 124 -1 408 -1 408s27 -1 89 2c0 0 -2 -282 -2 -414c0 -202 -75 -314 -242 -314zM314 751c-70 0 -114 48 -114 106
c0 59 45 105 114 105c81 0 118 -52 118 -105c0 -64 -50 -106 -118 -106zM316 793c39 0 66 22 66 64c0 37 -21 65 -65 65s-66 -28 -66 -64c0 -35 22 -65 65 -65z" />
    <glyph glyph-name="Zacute" unicode="&#x179;" horiz-adv-x="560" 
d="M500 -2c-198 4 -444 5 -444 5c1 41 1 68 1 68c183 289 295 471 342 549c-216 -2 -338 -6 -338 -6c0 52 -1 80 -1 80c289 2 440 7 440 7c2 -47 2 -72 2 -72c-192 -303 -297 -473 -342 -547c138 -3 342 -3 342 -3c-1 -59 -2 -81 -2 -81zM270 754c-36 27 -47 35 -47 35
c85 105 130 169 130 169c42 -30 62 -44 62 -44c-97 -102 -145 -160 -145 -160z" />
    <glyph glyph-name="Zdotaccent" unicode="&#x17b;" horiz-adv-x="560" 
d="M500 -2c-198 4 -444 5 -444 5c1 41 1 68 1 68c183 289 295 471 342 549c-216 -2 -338 -6 -338 -6c0 52 -1 80 -1 80c289 2 440 7 440 7c2 -47 2 -72 2 -72c-192 -303 -297 -473 -342 -547c138 -3 342 -3 342 -3c-1 -59 -2 -81 -2 -81zM279 772c-48 0 -72 33 -72 72
c0 36 25 66 72 66c49 0 72 -35 72 -68c0 -45 -28 -70 -72 -70z" />
    <glyph glyph-name="abreve" unicode="&#x103;" horiz-adv-x="544" 
d="M218 -16c-96 0 -168 51 -168 149c0 111 107 177 337 186v10c0 74 -35 126 -111 126c-63 0 -105 -31 -128 -107c0 0 -32 12 -79 21c33 98 105 150 212 150c119 0 192 -68 195 -206c5 -173 1 -329 1 -329s-26 -1 -75 -2c0 0 2 48 3 120c-32 -69 -94 -118 -187 -118z
M391 229v32c-183 -10 -252 -53 -252 -123c0 -53 37 -85 100 -86c84 -1 152 59 152 177zM277 570c-96 0 -150 48 -150 135c0 0 27 -1 64 2c0 -57 33 -85 87 -85c49 0 81 28 80 96c0 0 23 -1 64 1c3 -94 -51 -149 -145 -149z" />
    <glyph glyph-name="amacron" unicode="&#x101;" horiz-adv-x="544" 
d="M218 -16c-96 0 -168 51 -168 149c0 111 107 177 337 186v10c0 74 -35 126 -111 126c-63 0 -105 -31 -128 -107c0 0 -32 12 -79 21c33 98 105 150 212 150c119 0 192 -68 195 -206c5 -173 1 -329 1 -329s-26 -1 -75 -2c0 0 2 48 3 120c-32 -69 -94 -118 -187 -118z
M391 229v32c-183 -10 -252 -53 -252 -123c0 -53 37 -85 100 -86c84 -1 152 59 152 177zM137 610c0 0 1 22 -1 62c0 0 79 -1 277 2c0 0 -2 -21 -1 -63c0 0 -100 2 -275 -1z" />
    <glyph glyph-name="aogonek" unicode="&#x105;" horiz-adv-x="544" 
d="M460 -209c-12 -2 -24 -3 -36 -3c-72 0 -123 31 -123 85c-1 41 33 95 101 122l3 107c-32 -69 -94 -118 -187 -118c-96 0 -168 51 -168 149c0 111 107 177 337 186v10c0 74 -35 126 -111 126c-63 0 -105 -31 -128 -107c0 0 -32 12 -79 21c33 98 105 150 212 150
c119 0 192 -68 195 -206c5 -173 1 -329 1 -329s-15 -1 -40 -1c-49 -29 -70 -67 -70 -94c0 -32 38 -47 95 -43c0 0 -2 -20 -2 -55zM391 229v32c-183 -10 -252 -53 -252 -123c0 -53 37 -85 100 -86c84 -1 152 59 152 177z" />
    <glyph glyph-name="cacute" unicode="&#x107;" horiz-adv-x="553" 
d="M288 -22c-157 0 -234 119 -232 271c0 151 86 268 231 268c122 0 188 -68 211 -176c-53 -5 -88 -14 -88 -14c-15 66 -46 120 -124 120c-94 0 -142 -84 -142 -200c0 -119 48 -198 143 -198c68 0 108 34 132 127c0 0 24 -7 84 -15c-27 -126 -97 -183 -215 -183zM271 559
c-36 27 -47 35 -47 35c85 105 130 169 130 169c42 -30 62 -44 62 -44c-97 -102 -145 -160 -145 -160z" />
    <glyph glyph-name="ccaron" unicode="&#x10d;" horiz-adv-x="553" 
d="M288 -22c-157 0 -234 119 -232 271c0 151 86 268 231 268c122 0 188 -68 211 -176c-53 -5 -88 -14 -88 -14c-15 66 -46 120 -124 120c-94 0 -142 -84 -142 -200c0 -119 48 -198 143 -198c68 0 108 34 132 127c0 0 24 -7 84 -15c-27 -126 -97 -183 -215 -183zM389 726
c0 0 16 -15 45 -37c0 0 -54 -57 -120 -137c0 0 -20 1 -67 0c0 0 -46 53 -121 133c0 0 14 10 44 38c0 0 48 -55 111 -119c0 0 36 36 108 122z" />
    <glyph glyph-name="ccircumflex" unicode="&#x109;" horiz-adv-x="553" 
d="M288 -22c-157 0 -234 119 -232 271c0 151 86 268 231 268c122 0 188 -68 211 -176c-53 -5 -88 -14 -88 -14c-15 66 -46 120 -124 120c-94 0 -142 -84 -142 -200c0 -119 48 -198 143 -198c68 0 108 34 132 127c0 0 24 -7 84 -15c-27 -126 -97 -183 -215 -183zM171 552
c0 0 -16 15 -45 37c0 0 52 57 118 137c0 0 24 -1 71 0c0 0 44 -53 119 -133c0 0 -14 -10 -44 -38c0 0 -48 55 -111 119c0 0 -39 -37 -108 -122z" />
    <glyph glyph-name="dcaron" unicode="&#x10f;" horiz-adv-x="592" 
d="M522 -18c0 0 -45 1 -81 1c0 0 2 48 4 121c-32 -84 -109 -122 -185 -122c-121 0 -205 104 -205 261c0 163 86 274 211 274c81 0 140 -48 170 -107c-1 63 -2 160 -5 276c0 0 21 -1 91 1c0 0 -3 -315 0 -705zM284 46c85 0 151 78 151 196c-5 116 -53 209 -156 209
c-84 0 -134 -92 -134 -203c0 -118 45 -202 139 -202zM700 626c0 -47 -36 -103 -89 -144c-18 19 -26 27 -29 28c27 23 45 50 55 66c-32 6 -49 29 -49 55c0 27 16 56 56 56c35 0 56 -26 56 -61z" />
    <glyph glyph-name="ecaron" unicode="&#x11b;" horiz-adv-x="556" 
d="M285 -21c-158 0 -230 122 -229 271c0 146 85 267 239 267c154 -1 221 -139 199 -278c0 0 -104 -1 -348 -9c5 -111 54 -183 142 -183c60 0 110 28 136 110c0 0 17 -7 80 -21c-34 -97 -107 -157 -219 -157zM291 451c-80 0 -130 -61 -142 -155c45 1 127 5 264 11
c-2 77 -42 144 -122 144zM389 726c0 0 16 -15 45 -37c0 0 -54 -57 -120 -137c0 0 -20 1 -67 0c0 0 -46 53 -121 133c0 0 14 10 44 38c0 0 48 -55 111 -119c0 0 36 36 108 122z" />
    <glyph glyph-name="edotaccent" unicode="&#x117;" horiz-adv-x="556" 
d="M285 -21c-158 0 -230 122 -229 271c0 146 85 267 239 267c154 -1 221 -139 199 -278c0 0 -104 -1 -348 -9c5 -111 54 -183 142 -183c60 0 110 28 136 110c0 0 17 -7 80 -21c-34 -97 -107 -157 -219 -157zM291 451c-80 0 -130 -61 -142 -155c45 1 127 5 264 11
c-2 77 -42 144 -122 144zM280 577c-48 0 -72 33 -72 72c0 36 25 66 72 66c49 0 72 -35 72 -68c0 -45 -28 -70 -72 -70z" />
    <glyph glyph-name="emacron" unicode="&#x113;" horiz-adv-x="556" 
d="M285 -21c-158 0 -230 122 -229 271c0 146 85 267 239 267c154 -1 221 -139 199 -278c0 0 -104 -1 -348 -9c5 -111 54 -183 142 -183c60 0 110 28 136 110c0 0 17 -7 80 -21c-34 -97 -107 -157 -219 -157zM291 451c-80 0 -130 -61 -142 -155c45 1 127 5 264 11
c-2 77 -42 144 -122 144zM143 610c0 0 1 22 -1 62c0 0 79 -1 277 2c0 0 -2 -21 -1 -63c0 0 -100 2 -275 -1z" />
    <glyph glyph-name="eogonek" unicode="&#x119;" horiz-adv-x="556" 
d="M331 -213c-12 -2 -24 -3 -36 -3c-72 0 -123 31 -123 85c-1 37 26 83 80 112c-135 16 -197 130 -196 269c0 146 85 267 239 267c154 -1 221 -139 199 -278c0 0 -104 -1 -348 -9c5 -111 54 -183 142 -183c60 0 110 28 136 110c0 0 17 -7 80 -21c-31 -89 -96 -147 -193 -156
c-51 -28 -73 -68 -73 -95c0 -32 38 -47 95 -43c0 0 -2 -20 -2 -55zM291 451c-80 0 -130 -61 -142 -155c45 1 127 5 264 11c-2 77 -42 144 -122 144z" />
    <glyph glyph-name="gbreve" unicode="&#x11f;" horiz-adv-x="541" 
d="M265 129c-15 0 -29 1 -43 3c-27 -16 -39 -33 -39 -45c0 -24 29 -38 120 -45c171 -14 218 -61 218 -136c0 -110 -122 -178 -272 -178c-139 0 -219 58 -219 139c0 60 54 107 112 134c-29 17 -40 41 -40 64c0 26 21 59 63 82c-77 31 -126 99 -125 185c1 112 90 191 221 191
c142 0 225 -91 225 -196c0 -125 -103 -198 -221 -198zM263 193c81 0 135 44 135 136c0 68 -47 128 -136 128c-83 0 -135 -48 -135 -128c0 -83 51 -136 136 -136zM436 -103c0 59 -98 70 -246 80c-48 -30 -71 -65 -71 -98c0 -49 49 -82 138 -82c109 0 179 45 179 100zM265 570
c-96 0 -150 48 -150 135c0 0 27 -1 64 2c0 -57 33 -85 87 -85c49 0 81 28 80 96c0 0 23 -1 64 1c3 -94 -51 -149 -145 -149z" />
    <glyph glyph-name="gcircumflex" unicode="&#x11d;" horiz-adv-x="541" 
d="M265 129c-15 0 -29 1 -43 3c-27 -16 -39 -33 -39 -45c0 -24 29 -38 120 -45c171 -14 218 -61 218 -136c0 -110 -122 -178 -272 -178c-139 0 -219 58 -219 139c0 60 54 107 112 134c-29 17 -40 41 -40 64c0 26 21 59 63 82c-77 31 -126 99 -125 185c1 112 90 191 221 191
c142 0 225 -91 225 -196c0 -125 -103 -198 -221 -198zM263 193c81 0 135 44 135 136c0 68 -47 128 -136 128c-83 0 -135 -48 -135 -128c0 -83 51 -136 136 -136zM436 -103c0 59 -98 70 -246 80c-48 -30 -71 -65 -71 -98c0 -49 49 -82 138 -82c109 0 179 45 179 100zM151 552
c0 0 -16 15 -45 37c0 0 52 57 118 137c0 0 24 -1 71 0c0 0 44 -53 119 -133c0 0 -14 -10 -44 -38c0 0 -48 55 -111 119c0 0 -39 -37 -108 -122z" />
    <glyph glyph-name="gcommaaccent" unicode="&#x123;" horiz-adv-x="541" 
d="M265 129c-15 0 -29 1 -43 3c-27 -16 -39 -33 -39 -45c0 -24 29 -38 120 -45c171 -14 218 -61 218 -136c0 -110 -122 -178 -272 -178c-139 0 -219 58 -219 139c0 60 54 107 112 134c-29 17 -40 41 -40 64c0 26 21 59 63 82c-77 31 -126 99 -125 185c1 112 90 191 221 191
c142 0 225 -91 225 -196c0 -125 -103 -198 -221 -198zM263 193c81 0 135 44 135 136c0 68 -47 128 -136 128c-83 0 -135 -48 -135 -128c0 -83 51 -136 136 -136zM436 -103c0 59 -98 70 -246 80c-48 -30 -71 -65 -71 -98c0 -49 49 -82 138 -82c109 0 179 45 179 100zM197 625
c0 47 36 103 89 144c18 -19 26 -27 29 -28c-27 -23 -45 -50 -55 -66c32 -6 49 -29 49 -55c0 -27 -16 -56 -56 -56c-35 0 -56 26 -56 61z" />
    <glyph glyph-name="hcircumflex" unicode="&#x125;" horiz-adv-x="561" 
d="M73 19c0 0 1 273 -3 657c0 0 32 0 89 1c0 0 -2 -145 -1 -291c36 80 100 128 180 128c101 0 152 -64 155 -182c5 -192 1 -352 1 -352h-87s4 137 1 322c-2 89 -25 137 -95 137c-95 0 -152 -112 -154 -220c-1 -86 1 -199 1 -199s-37 0 -87 -1zM6 700c0 0 -16 15 -45 37
c0 0 52 57 118 137c0 0 24 -1 71 0c0 0 44 -53 119 -133c0 0 -14 -10 -44 -38c0 0 -48 55 -111 119c0 0 -39 -37 -108 -122z" />
    <glyph glyph-name="imacron" unicode="&#x12b;" horiz-adv-x="261" 
d="M90 2c0 0 2 132 -2 499c0 0 35 0 86 1c0 0 0 -193 4 -499c0 0 -37 0 -88 -1zM-4 610c0 0 1 22 -1 62c0 0 79 -1 277 2c0 0 -2 -21 -1 -63c0 0 -100 2 -275 -1z" />
    <glyph glyph-name="iogonek" unicode="&#x12f;" horiz-adv-x="261" 
d="M165 -193c-12 -2 -24 -3 -36 -3c-72 0 -123 31 -123 85c-1 38 27 86 84 114c0 0 2 134 -2 498c0 0 35 0 86 1c0 0 0 -193 4 -499h-28c-55 -29 -78 -70 -78 -98c0 -32 38 -47 95 -43c0 0 -2 -20 -2 -55zM132 565c-38 0 -67 23 -67 63c0 38 28 62 67 62c41 0 64 -30 64 -61
c0 -40 -26 -64 -64 -64z" />
    <glyph glyph-name="jcircumflex" unicode="&#x135;" horiz-adv-x="261" 
d="M-38 -207c0 0 2 34 3 82c19 -4 36 -6 51 -6c46 0 73 21 74 77c2 245 -2 555 -2 555c59 -1 85 1 85 1s5 -253 3 -561c0 -109 -66 -153 -156 -153c-18 0 -38 2 -58 5zM21 552c0 0 -16 15 -45 37c0 0 52 57 118 137c0 0 24 -1 71 0c0 0 44 -53 119 -133c0 0 -14 -10 -44 -38
c0 0 -48 55 -111 119c0 0 -39 -37 -108 -122z" />
    <glyph glyph-name="kcommaaccent" unicode="&#x137;" horiz-adv-x="517" 
d="M402 -21c-88 140 -143 226 -168 263l-76 -86c1 -98 2 -138 2 -138c-52 2 -88 2 -88 2c2 473 -2 657 -2 657c58 -2 88 -1 88 -1c-1 -201 -1 -330 0 -429c168 198 224 271 224 271c65 -4 106 -4 106 -4c-110 -121 -167 -187 -193 -218c131 -208 202 -313 202 -313
c-68 -1 -95 -4 -95 -4zM310 -120c0 -47 -36 -103 -89 -144c-18 19 -26 27 -29 28c27 23 45 50 55 66c-32 6 -49 29 -49 55c0 27 16 56 56 56c35 0 56 -26 56 -61z" />
    <glyph glyph-name="lacute" unicode="&#x13a;" horiz-adv-x="240" 
d="M163 3c-55 0 -88 1 -88 1c3 477 1 689 1 689c61 -1 89 -1 89 -1c-5 -554 -2 -689 -2 -689zM141 735c-36 27 -47 35 -47 35c85 105 130 169 130 169c42 -30 62 -44 62 -44c-97 -102 -145 -160 -145 -160z" />
    <glyph glyph-name="lcaron" unicode="&#x13e;" horiz-adv-x="240" 
d="M163 3c-55 0 -88 1 -88 1c3 477 1 689 1 689c61 -1 89 -1 89 -1c-5 -554 -2 -689 -2 -689zM343 632c0 -47 -36 -103 -89 -144c-18 19 -26 27 -29 28c27 23 45 50 55 66c-32 6 -49 29 -49 55c0 27 16 56 56 56c35 0 56 -26 56 -61z" />
    <glyph glyph-name="lcommaaccent" unicode="&#x13c;" horiz-adv-x="240" 
d="M163 3c-55 0 -88 1 -88 1c3 477 1 689 1 689c61 -1 89 -1 89 -1c-5 -554 -2 -689 -2 -689zM179 -120c0 -47 -36 -103 -89 -144c-18 19 -26 27 -29 28c27 23 45 50 55 66c-32 6 -49 29 -49 55c0 27 16 56 56 56c35 0 56 -26 56 -61z" />
    <glyph glyph-name="nacute" unicode="&#x144;" horiz-adv-x="558" 
d="M405 -22c0 0 2 169 1 324c0 82 -21 136 -95 136c-88 0 -152 -99 -153 -209c-2 -71 0 -209 0 -209s-47 1 -88 0c0 0 3 182 1 466c0 0 39 -1 74 1c0 0 -3 -63 -2 -125c34 97 112 152 196 151c112 0 149 -82 152 -183c2 -64 2 -351 2 -351c-31 -1 -88 -1 -88 -1zM282 559
c-36 27 -47 35 -47 35c85 105 130 169 130 169c42 -30 62 -44 62 -44c-97 -102 -145 -160 -145 -160z" />
    <glyph glyph-name="ncaron" unicode="&#x148;" horiz-adv-x="558" 
d="M405 -22c0 0 2 169 1 324c0 82 -21 136 -95 136c-88 0 -152 -99 -153 -209c-2 -71 0 -209 0 -209s-47 1 -88 0c0 0 3 182 1 466c0 0 39 -1 74 1c0 0 -3 -63 -2 -125c34 97 112 152 196 151c112 0 149 -82 152 -183c2 -64 2 -351 2 -351c-31 -1 -88 -1 -88 -1zM400 726
c0 0 16 -15 45 -37c0 0 -54 -57 -120 -137c0 0 -20 1 -67 0c0 0 -46 53 -121 133c0 0 14 10 44 38c0 0 48 -55 111 -119c0 0 36 36 108 122z" />
    <glyph glyph-name="ncommaaccent" unicode="&#x146;" horiz-adv-x="558" 
d="M405 -22c0 0 2 169 1 324c0 82 -21 136 -95 136c-88 0 -152 -99 -153 -209c-2 -71 0 -209 0 -209s-47 1 -88 0c0 0 3 182 1 466c0 0 39 -1 74 1c0 0 -3 -63 -2 -125c34 97 112 152 196 151c112 0 149 -82 152 -183c2 -64 2 -351 2 -351c-31 -1 -88 -1 -88 -1zM350 -120
c0 -47 -36 -103 -89 -144c-18 19 -26 27 -29 28c27 23 45 50 55 66c-32 6 -49 29 -49 55c0 27 16 56 56 56c35 0 56 -26 56 -61z" />
    <glyph glyph-name="ohungarumlaut" unicode="&#x151;" horiz-adv-x="580" 
d="M289 -20c-148 0 -234 104 -234 272c0 159 94 265 235 265c143 0 235 -104 235 -266c0 -177 -99 -271 -236 -271zM290 47c85 0 144 69 145 204c0 114 -48 199 -144 199c-84 0 -146 -76 -146 -196c0 -141 59 -207 145 -207zM357 559c-38 23 -50 28 -50 28
c73 112 109 171 109 171c44 -25 65 -35 65 -35c-87 -110 -124 -164 -124 -164zM210 565c-34 19 -50 26 -50 26c72 113 106 171 106 171c42 -26 64 -36 64 -36c-86 -111 -120 -161 -120 -161z" />
    <glyph glyph-name="omacron" unicode="&#x14d;" horiz-adv-x="580" 
d="M289 -20c-148 0 -234 104 -234 272c0 159 94 265 235 265c143 0 235 -104 235 -266c0 -177 -99 -271 -236 -271zM290 47c85 0 144 69 145 204c0 114 -48 199 -144 199c-84 0 -146 -76 -146 -196c0 -141 59 -207 145 -207zM153 610c0 0 1 22 -1 62c0 0 79 -1 277 2
c0 0 -2 -21 -1 -63c0 0 -100 2 -275 -1z" />
    <glyph glyph-name="racute" unicode="&#x155;" horiz-adv-x="378" 
d="M71 1c0 0 1 229 -1 484c0 0 33 -1 76 1c0 0 -2 -61 -2 -131c33 98 113 149 204 152c0 0 0 -31 -1 -82c-128 -15 -186 -92 -189 -234c-2 -97 2 -189 2 -189s-33 -1 -89 -1zM208 559c-36 27 -47 35 -47 35c85 105 130 169 130 169c42 -30 62 -44 62 -44
c-97 -102 -145 -160 -145 -160z" />
    <glyph glyph-name="rcaron" unicode="&#x159;" horiz-adv-x="378" 
d="M71 1c0 0 1 229 -1 484c0 0 33 -1 76 1c0 0 -2 -61 -2 -131c33 98 113 149 204 152c0 0 0 -31 -1 -82c-128 -15 -186 -92 -189 -234c-2 -97 2 -189 2 -189s-33 -1 -89 -1zM326 726c0 0 16 -15 45 -37c0 0 -54 -57 -120 -137c0 0 -20 1 -67 0c0 0 -46 53 -121 133
c0 0 14 10 44 38c0 0 48 -55 111 -119c0 0 36 36 108 122z" />
    <glyph glyph-name="rcommaaccent" unicode="&#x157;" horiz-adv-x="378" 
d="M71 1c0 0 1 229 -1 484c0 0 33 -1 76 1c0 0 -2 -61 -2 -131c33 98 113 149 204 152c0 0 0 -31 -1 -82c-128 -15 -186 -92 -189 -234c-2 -97 2 -189 2 -189s-33 -1 -89 -1zM176 -120c0 -47 -36 -103 -89 -144c-18 19 -26 27 -29 28c27 23 45 50 55 66c-32 6 -49 29 -49 55
c0 27 16 56 56 56c35 0 56 -26 56 -61z" />
    <glyph glyph-name="sacute" unicode="&#x15b;" horiz-adv-x="515" 
d="M254 -23c-111 0 -205 55 -219 187c0 0 31 1 84 8c16 -91 62 -124 139 -126c74 -2 120 32 120 78c0 35 -17 61 -144 93c-128 33 -175 81 -175 159c0 86 79 144 195 144c108 0 181 -62 205 -169c0 0 -32 -3 -80 -11c-17 71 -65 115 -133 115c-66 0 -101 -35 -101 -79
c0 -47 39 -72 134 -94c146 -34 186 -78 186 -152c0 -101 -88 -153 -211 -153zM241 559c-36 27 -47 35 -47 35c85 105 130 169 130 169c42 -30 62 -44 62 -44c-97 -102 -145 -160 -145 -160z" />
    <glyph glyph-name="scedilla" unicode="&#x15f;" horiz-adv-x="515" 
d="M465 130c0 -94 -77 -145 -187 -152l-3 -45c74 0 105 -37 105 -72c0 -53 -53 -86 -132 -86c-32 0 -74 11 -103 28c0 0 9 19 19 47c29 -17 57 -25 84 -25c33 0 60 13 60 35c0 23 -22 38 -96 29c0 0 7 33 16 89c-99 8 -180 64 -193 186c0 0 31 1 84 8
c16 -91 62 -124 139 -126c74 -2 120 32 120 78c0 35 -17 61 -144 93c-128 33 -175 81 -175 159c0 86 79 144 195 144c108 0 181 -62 205 -169c0 0 -32 -3 -80 -11c-17 71 -65 115 -133 115c-66 0 -101 -35 -101 -79c0 -47 39 -72 134 -94c146 -34 186 -78 186 -152z" />
    <glyph glyph-name="scircumflex" unicode="&#x15d;" horiz-adv-x="515" 
d="M254 -23c-111 0 -205 55 -219 187c0 0 31 1 84 8c16 -91 62 -124 139 -126c74 -2 120 32 120 78c0 35 -17 61 -144 93c-128 33 -175 81 -175 159c0 86 79 144 195 144c108 0 181 -62 205 -169c0 0 -32 -3 -80 -11c-17 71 -65 115 -133 115c-66 0 -101 -35 -101 -79
c0 -47 39 -72 134 -94c146 -34 186 -78 186 -152c0 -101 -88 -153 -211 -153zM141 552c0 0 -16 15 -45 37c0 0 52 57 118 137c0 0 24 -1 71 0c0 0 44 -53 119 -133c0 0 -14 -10 -44 -38c0 0 -48 55 -111 119c0 0 -39 -37 -108 -122z" />
    <glyph glyph-name="scommaaccent" unicode="&#x219;" horiz-adv-x="515" 
d="M254 -23c-111 0 -205 55 -219 187c0 0 31 1 84 8c16 -91 62 -124 139 -126c74 -2 120 32 120 78c0 35 -17 61 -144 93c-128 33 -175 81 -175 159c0 86 79 144 195 144c108 0 181 -62 205 -169c0 0 -32 -3 -80 -11c-17 71 -65 115 -133 115c-66 0 -101 -35 -101 -79
c0 -47 39 -72 134 -94c146 -34 186 -78 186 -152c0 -101 -88 -153 -211 -153zM309 -120c0 -47 -36 -103 -89 -144c-18 19 -26 27 -29 28c27 23 45 50 55 66c-32 6 -49 29 -49 55c0 27 16 56 56 56c35 0 56 -26 56 -61z" />
    <glyph glyph-name="tcaron" unicode="&#x165;" horiz-adv-x="427" 
d="M392 26c-47 -20 -93 -30 -134 -30c-85 0 -150 50 -152 170c-2 87 -2 183 -2 267h-78c0 52 -1 71 -1 71l79 -2c1 83 2 142 2 142c47 0 86 -1 86 -1s-2 -58 -3 -142c115 -1 189 0 189 0c-1 -53 -1 -70 -1 -70c-73 1 -135 2 -188 2c-1 -78 0 -168 2 -254
c2 -69 24 -106 80 -106c27 0 62 9 106 27c9 -52 15 -74 15 -74zM380 719c0 -47 -36 -103 -89 -144c-18 19 -26 27 -29 28c27 23 45 50 55 66c-32 6 -49 29 -49 55c0 27 16 56 56 56c35 0 56 -26 56 -61z" />
    <glyph glyph-name="tcommaaccent" unicode="&#x163;" horiz-adv-x="427" 
d="M392 26c-47 -20 -93 -30 -134 -30c-85 0 -150 50 -152 170c-2 87 -2 183 -2 267h-78c0 52 -1 71 -1 71l79 -2c1 83 2 142 2 142c47 0 86 -1 86 -1s-2 -58 -3 -142c115 -1 189 0 189 0c-1 -53 -1 -70 -1 -70c-73 1 -135 2 -188 2c-1 -78 0 -168 2 -254
c2 -69 24 -106 80 -106c27 0 62 9 106 27c9 -52 15 -74 15 -74zM297 -120c0 -47 -36 -103 -89 -144c-18 19 -26 27 -29 28c27 23 45 50 55 66c-32 6 -49 29 -49 55c0 27 16 56 56 56c35 0 56 -26 56 -61z" />
    <glyph glyph-name="ubreve" unicode="&#x16d;" horiz-adv-x="555" 
d="M240 -3c-107 0 -173 73 -173 208c0 112 -2 283 -2 283s29 -2 89 -2c0 0 -2 -107 -2 -270c0 -101 29 -147 109 -147c71 0 134 79 137 213c3 112 -1 241 -1 241s24 -1 88 -1c0 0 -3 -219 0 -532c0 0 -36 0 -78 1c0 0 2 55 3 134c-32 -83 -95 -128 -170 -128zM278 570
c-96 0 -150 48 -150 135c0 0 27 -1 64 2c0 -57 33 -85 87 -85c49 0 81 28 80 96c0 0 23 -1 64 1c3 -94 -51 -149 -145 -149z" />
    <glyph glyph-name="uhungarumlaut" unicode="&#x171;" horiz-adv-x="555" 
d="M240 -3c-107 0 -173 73 -173 208c0 112 -2 283 -2 283s29 -2 89 -2c0 0 -2 -107 -2 -270c0 -101 29 -147 109 -147c71 0 134 79 137 213c3 112 -1 241 -1 241s24 -1 88 -1c0 0 -3 -219 0 -532c0 0 -36 0 -78 1c0 0 2 55 3 134c-32 -83 -95 -128 -170 -128zM342 559
c-38 23 -50 28 -50 28c73 112 109 171 109 171c44 -25 65 -35 65 -35c-87 -110 -124 -164 -124 -164zM195 565c-34 19 -50 26 -50 26c72 113 106 171 106 171c42 -26 64 -36 64 -36c-86 -111 -120 -161 -120 -161z" />
    <glyph glyph-name="umacron" unicode="&#x16b;" horiz-adv-x="555" 
d="M240 -3c-107 0 -173 73 -173 208c0 112 -2 283 -2 283s29 -2 89 -2c0 0 -2 -107 -2 -270c0 -101 29 -147 109 -147c71 0 134 79 137 213c3 112 -1 241 -1 241s24 -1 88 -1c0 0 -3 -219 0 -532c0 0 -36 0 -78 1c0 0 2 55 3 134c-32 -83 -95 -128 -170 -128zM138 610
c0 0 1 22 -1 62c0 0 79 -1 277 2c0 0 -2 -21 -1 -63c0 0 -100 2 -275 -1z" />
    <glyph glyph-name="uogonek" unicode="&#x173;" horiz-adv-x="555" 
d="M471 -203c-12 -2 -24 -3 -36 -3c-72 0 -123 31 -123 85c-1 40 31 92 95 120c1 15 2 62 3 126c-32 -83 -95 -128 -170 -128c-107 0 -173 73 -173 208c0 112 -2 283 -2 283s29 -2 89 -2c0 0 -2 -107 -2 -270c0 -101 29 -147 109 -147c71 0 134 79 137 213
c3 112 -1 241 -1 241s24 -1 88 -1c0 0 -3 -219 0 -532h-34c-51 -28 -73 -68 -73 -95c0 -32 38 -47 95 -43c0 0 -2 -20 -2 -55z" />
    <glyph glyph-name="uring" unicode="&#x16f;" horiz-adv-x="555" 
d="M240 -3c-107 0 -173 73 -173 208c0 112 -2 283 -2 283s29 -2 89 -2c0 0 -2 -107 -2 -270c0 -101 29 -147 109 -147c71 0 134 79 137 213c3 112 -1 241 -1 241s24 -1 88 -1c0 0 -3 -219 0 -532c0 0 -36 0 -78 1c0 0 2 55 3 134c-32 -83 -95 -128 -170 -128zM273 556
c-70 0 -114 48 -114 106c0 59 45 105 114 105c81 0 118 -52 118 -105c0 -64 -50 -106 -118 -106zM275 598c39 0 66 22 66 64c0 37 -21 65 -65 65s-66 -28 -66 -64c0 -35 22 -65 65 -65z" />
    <glyph glyph-name="zacute" unicode="&#x17a;" horiz-adv-x="502" 
d="M445 -3c-285 9 -390 8 -390 8c1 47 2 63 2 63c228 290 283 363 283 363c-224 -2 -277 -6 -277 -6c0 52 -2 73 -2 73c258 2 380 4 380 4c0 -41 1 -62 1 -62c-191 -244 -281 -366 -281 -366c208 -4 286 -2 286 -2c-2 -51 -2 -75 -2 -75zM242 559c-36 27 -47 35 -47 35
c85 105 130 169 130 169c42 -30 62 -44 62 -44c-97 -102 -145 -160 -145 -160z" />
    <glyph glyph-name="zdotaccent" unicode="&#x17c;" horiz-adv-x="502" 
d="M445 -3c-285 9 -390 8 -390 8c1 47 2 63 2 63c228 290 283 363 283 363c-224 -2 -277 -6 -277 -6c0 52 -2 73 -2 73c258 2 380 4 380 4c0 -41 1 -62 1 -62c-191 -244 -281 -366 -281 -366c208 -4 286 -2 286 -2c-2 -51 -2 -75 -2 -75zM251 577c-48 0 -72 33 -72 72
c0 36 25 66 72 66c49 0 72 -35 72 -68c0 -45 -28 -70 -72 -70z" />
    <glyph glyph-name="Pcircle" unicode="&#x24c5;" horiz-adv-x="728" 
d="M369 666c194 0 309 -139 309 -353c0 -190 -99 -337 -319 -337c-189 0 -309 129 -309 344c0 203 115 346 319 346zM364 626c-167 0 -270 -128 -270 -304c0 -192 98 -305 269 -305c179 0 272 125 272 306c0 161 -93 303 -271 303zM233 132c0 0 2 87 -2 379c37 5 71 7 100 7
c144 0 195 -53 195 -130c0 -82 -69 -132 -189 -132c-11 0 -22 0 -34 1l3 -124s-42 0 -73 -1zM302 460c0 0 -1 -48 0 -148c13 -1 25 -1 36 -1c81 0 118 29 118 78c0 42 -26 73 -110 73c-13 0 -28 -1 -44 -2z" />
    <glyph glyph-name="Pcircle" unicode="&#x24df;" horiz-adv-x="728" 
d="M369 666c194 0 309 -139 309 -353c0 -190 -99 -337 -319 -337c-189 0 -309 129 -309 344c0 203 115 346 319 346zM364 626c-167 0 -270 -128 -270 -304c0 -192 98 -305 269 -305c179 0 272 125 272 306c0 161 -93 303 -271 303zM233 132c0 0 2 87 -2 379c37 5 71 7 100 7
c144 0 195 -53 195 -130c0 -82 -69 -132 -189 -132c-11 0 -22 0 -34 1l3 -124s-42 0 -73 -1zM302 460c0 0 -1 -48 0 -148c13 -1 25 -1 36 -1c81 0 118 29 118 78c0 42 -26 73 -110 73c-13 0 -28 -1 -44 -2z" />
    <glyph glyph-name="servicemark" unicode="&#x2120;" horiz-adv-x="762" 
d="M344 371c0 0 6 136 7 305c0 0 35 -1 81 2c0 0 50 -132 95 -243c17 48 56 161 88 264c0 0 38 -3 83 -4c0 0 3 -148 16 -341c0 0 -28 -1 -58 -3c0 0 -2 135 -9 290c-19 -50 -57 -158 -87 -251c0 0 -29 0 -64 1c0 0 -46 119 -94 236c-1 -55 -3 -164 1 -256c0 0 -24 1 -59 0z
M173 348c-70 0 -131 33 -138 111l60 7c5 -52 34 -72 76 -72c44 0 65 19 65 54c0 17 -9 34 -82 54c-72 20 -105 51 -105 101c0 59 45 99 118 99c84 0 120 -44 130 -106c0 0 -26 -1 -57 -7c-8 42 -21 69 -71 69c-35 0 -62 -20 -62 -52c0 -31 24 -47 83 -63
c83 -23 103 -51 103 -94c0 -65 -56 -101 -120 -101z" />
    <glyph glyph-name="space.tab" horiz-adv-x="307" 
 />
    <glyph glyph-name="dollar.tab" 
d="M360 -132c-47 1 -83 0 -83 0c3 60 4 98 4 112c-118 12 -211 82 -214 220c0 0 43 3 92 10c2 -108 61 -158 154 -158c87 0 146 47 146 103c0 52 -25 90 -165 130c-147 42 -211 90 -211 192c0 97 71 178 195 188c-1 66 -4 112 -4 112c60 -1 88 -1 88 -1
c-3 -59 -5 -94 -5 -114c118 -19 186 -104 187 -228c0 0 -33 -1 -89 -9c1 94 -44 169 -148 169c-84 0 -133 -51 -133 -110c0 -57 40 -92 173 -132c170 -51 203 -113 203 -189c0 -98 -87 -167 -191 -182c-1 -65 1 -113 1 -113z" />
    <glyph glyph-name="cent.tab" 
d="M273 -66c3 61 4 103 4 113c-137 21 -208 141 -208 296c0 160 74 281 207 302c-1 63 -4 114 -4 114c44 -1 88 1 88 1l-6 -113c107 -13 177 -86 193 -205c-57 -5 -89 -12 -89 -12c-19 93 -54 146 -138 146c-108 0 -161 -102 -161 -227c0 -149 64 -228 162 -228
c73 0 121 34 142 140c0 0 30 -8 88 -17c-20 -119 -92 -186 -196 -198c0 -69 3 -112 3 -112c-51 1 -85 0 -85 0z" />
    <glyph glyph-name="Euro.tab" 
d="M14 360c0 0 0 31 -1 65c0 0 13 0 79 1c28 145 119 244 256 244c138 0 207 -87 233 -220c-47 -4 -87 -14 -87 -14c-19 100 -63 158 -145 158c-91 0 -145 -62 -166 -166l190 4l-2 -65s-24 1 -196 -3c0 0 -3 -31 -1 -71c53 1 115 2 211 5c0 0 -1 -34 0 -65
c0 0 -25 1 -204 -3c18 -107 74 -177 166 -177c79 0 142 48 160 196c55 -4 92 -5 92 -5c-20 -180 -119 -270 -255 -268c-153 0 -232 110 -255 252l-72 -1s1 27 1 65c0 0 23 -1 64 0c-2 42 1 69 1 69z" />
    <glyph glyph-name="sterling.tab" 
d="M159 259h-89c0 40 -1 74 -1 74c21 -1 41 -1 60 -1c-21 43 -44 91 -44 147c0 123 104 197 235 197c147 0 226 -86 241 -225c0 0 -30 -4 -94 -15c-4 97 -51 161 -147 161c-93 0 -141 -59 -141 -119c0 -47 29 -96 52 -147c122 0 207 1 207 1c-1 -43 1 -76 1 -76
c-69 1 -131 2 -184 2c1 -8 2 -16 2 -24c0 -60 -28 -119 -73 -155c30 -1 127 -3 369 0c0 0 -3 -32 -2 -85c0 0 -113 4 -478 6c0 0 1 42 1 77c52 32 89 80 89 153c0 9 -1 19 -4 29z" />
    <glyph glyph-name="yen.tab" 
d="M94 192c0 0 0 28 -2 67c0 0 42 0 128 1c-26 59 -80 174 -182 387c0 0 32 0 97 4c0 0 86 -201 170 -383c0 0 64 121 197 413c0 0 36 -3 96 -4c0 0 -99 -186 -208 -413c42 1 79 1 131 3c0 0 -2 -32 -1 -67c0 0 -55 0 -169 -2c0 0 -1 -25 -1 -64l173 4s0 -30 1 -65
c0 0 -58 0 -173 -1l3 -84s-36 0 -93 -1c0 0 1 33 1 83l-172 -4s1 29 1 67c0 0 58 -1 170 0l-2 63z" />
    <glyph glyph-name="florin.tab" 
d="M480 344l-128 3c-21 -106 -41 -223 -65 -324c-30 -123 -86 -172 -180 -172c-23 0 -48 3 -75 9c0 0 4 23 9 70c18 -4 34 -6 49 -6c59 0 88 33 107 110c25 102 45 211 65 314c-66 1 -97 0 -97 0c3 54 2 70 2 70c41 -1 77 -2 109 -2l18 89c25 118 81 170 168 170
c27 0 58 -4 91 -13c-9 -44 -11 -70 -11 -70c-23 8 -43 11 -60 11c-54 0 -83 -37 -99 -107l-18 -82c80 0 114 1 114 1c0 -50 1 -71 1 -71z" />
    <glyph glyph-name="zero.tab" 
d="M308 -22c-147 0 -261 110 -261 353c0 214 108 343 261 343c169 0 261 -131 261 -339c0 -212 -99 -357 -261 -357zM312 57c94 0 165 86 165 279c0 139 -52 261 -167 261c-113 0 -170 -114 -170 -261c0 -179 57 -279 172 -279z" />
    <glyph glyph-name="one.tab" 
d="M131 -7c0 54 -1 79 -1 79c59 -2 116 -3 168 -3c1 272 -1 443 -2 490c-73 -40 -159 -88 -159 -88c-18 45 -29 70 -29 70c123 66 216 122 216 122c34 -6 57 -8 57 -8c0 -279 5 -516 7 -587c94 0 156 1 156 1c-3 -61 -2 -76 -2 -76c-199 2 -411 0 -411 0z" />
    <glyph glyph-name="two.tab" 
d="M542 -3c-269 7 -473 7 -473 7c-2 38 -2 85 -2 85c299 175 389 278 389 394c0 67 -51 120 -127 120c-107 0 -163 -71 -165 -191c0 0 -44 6 -96 12c11 177 112 253 259 253c122 0 226 -73 226 -195c0 -156 -128 -275 -362 -401c220 -5 352 2 352 2c-1 -46 -1 -86 -1 -86z
" />
    <glyph glyph-name="three.tab" 
d="M313 -23c-152 0 -260 65 -269 228c0 0 33 2 93 10c5 -118 65 -163 179 -163c88 0 153 47 153 125c0 46 -30 84 -88 101c-37 11 -84 16 -155 16c0 0 0 36 -1 71c19 -1 35 -2 51 -2c50 0 86 6 120 20c37 15 65 52 65 99c0 81 -63 126 -153 126c-88 0 -144 -46 -157 -152
c-54 12 -95 19 -95 19c26 148 129 206 254 206c142 0 244 -76 244 -191c0 -88 -59 -144 -135 -158c86 -17 143 -77 143 -158c0 -121 -109 -197 -249 -197z" />
    <glyph glyph-name="four.tab" 
d="M412 -1c0 49 1 98 2 144c-100 0 -234 -1 -374 -3c0 0 -1 23 0 75l338 459c86 -2 123 -2 123 -2c-2 -194 -2 -346 -2 -457c24 0 48 0 72 1c0 0 -1 -30 -1 -72h-70c0 -91 1 -144 1 -144c-54 -1 -89 -1 -89 -1zM416 602c-148 -201 -248 -341 -282 -388h280
c2 218 2 359 2 388z" />
    <glyph glyph-name="five.tab" 
d="M323 -22c-139 0 -227 68 -257 186c55 9 99 21 99 21c18 -99 79 -137 161 -137c95 0 157 71 157 172c0 85 -49 155 -148 155c-72 0 -126 -37 -162 -107c0 0 -39 5 -88 7c0 0 6 175 8 386c0 0 266 0 447 4c0 0 -1 -32 -1 -78c0 0 -212 1 -360 -2c-2 -47 -6 -132 -8 -226
c45 53 111 83 185 83c136 0 221 -89 222 -226c0 -145 -99 -238 -255 -238z" />
    <glyph glyph-name="six.tab" 
d="M323 -26c-165 0 -272 119 -272 345c0 221 103 357 274 357c123 0 201 -59 230 -183c-56 -3 -102 -11 -102 -11c-16 78 -53 121 -129 121c-109 0 -179 -97 -179 -278v-23c44 64 119 111 206 111c143 0 228 -89 228 -204c0 -152 -110 -235 -256 -235zM343 340
c-82 0 -148 -44 -191 -111c23 -129 93 -181 179 -181c91 0 150 65 150 153c1 81 -53 139 -138 139z" />
    <glyph glyph-name="seven.tab" 
d="M220 -9c-7 243 88 442 237 593c-128 1 -389 -2 -389 -2c1 45 0 80 0 80c222 1 482 4 482 4c1 -56 2 -84 2 -84c-162 -169 -241 -331 -235 -591c-59 1 -97 0 -97 0z" />
    <glyph glyph-name="eight.tab" 
d="M312 -27c-174 0 -269 74 -269 197c0 86 60 149 156 174c-87 28 -132 89 -132 163c0 90 81 171 241 171c162 0 243 -76 243 -169c0 -79 -46 -137 -135 -165c98 -29 155 -95 156 -176c0 -129 -117 -195 -260 -195zM309 44c99 0 166 46 166 125c0 78 -77 130 -183 145
c-93 -19 -153 -65 -153 -140c0 -81 66 -130 170 -130zM327 371c81 15 132 59 132 129c-1 67 -52 112 -151 112c-89 0 -150 -42 -150 -112c0 -65 58 -108 169 -129z" />
    <glyph glyph-name="nine.tab" 
d="M295 -23c-143 0 -229 76 -251 216c52 3 97 9 97 9c16 -105 71 -147 155 -147c100 0 173 68 173 292v5c-42 -60 -114 -99 -204 -99c-142 0 -219 94 -219 208c0 129 98 218 249 218c159 0 265 -115 265 -337c1 -254 -105 -365 -265 -365zM287 323c71 0 137 40 177 98
c-17 121 -79 184 -171 184c-95 0 -152 -64 -152 -148c0 -87 60 -134 146 -134z" />
    <glyph glyph-name="plus.tab" 
d="M268 94c1 65 2 136 2 202c-104 0 -185 -1 -185 -1c1 43 -1 75 -1 75c57 -2 123 -3 186 -3v194c47 -2 75 -2 75 -2c-1 -69 -2 -133 -2 -192c104 0 189 1 189 1c-3 -47 -2 -73 -2 -73c-59 1 -124 1 -187 1c0 -121 2 -201 2 -201c-45 0 -77 -1 -77 -1z" />
    <glyph glyph-name="minus.tab" 
d="M515 365c-1 -45 -1 -74 -1 -74c-212 4 -413 1 -413 1c1 47 0 74 0 74c195 -4 414 -1 414 -1z" />
    <glyph glyph-name="multiply.tab" 
d="M148 110c0 0 -16 16 -49 46c0 0 74 78 165 176c-88 94 -160 170 -160 170c31 30 48 48 48 48c48 -54 103 -114 156 -171c55 59 111 121 161 177c0 0 21 -23 48 -48c0 0 -75 -78 -166 -176c90 -96 163 -173 163 -173c-34 -30 -50 -46 -50 -46c-48 53 -103 114 -157 172
c-54 -58 -110 -120 -159 -175z" />
    <glyph glyph-name="divide.tab" 
d="M90 366c193 -3 418 0 436 0c-1 -44 0 -72 0 -75c-177 4 -419 1 -437 1c1 39 1 74 1 74zM306 576c33 0 57 -26 57 -64s-23 -64 -58 -64c-37 0 -57 24 -57 64c0 42 23 64 58 64zM307 210c35 0 57 -25 57 -67c0 -37 -24 -60 -58 -60c-37 0 -57 25 -57 60c0 46 24 67 58 67z
" />
    <glyph glyph-name="equal.tab" 
d="M101 196c0 0 0 18 -2 67c0 0 190 -1 417 2c0 0 -2 -25 -1 -69c0 0 -177 2 -414 0zM516 393c-238 4 -417 2 -417 2c2 48 2 69 2 69c218 -2 415 0 415 0c-1 -51 0 -71 0 -71z" />
    <glyph glyph-name="less.tab" 
d="M525 153c0 0 -3 -37 -2 -83c0 0 -206 100 -443 211c0 0 2 35 2 81c0 0 191 88 438 210c0 0 -2 -33 -2 -86c0 0 -168 -74 -361 -164c61 -29 225 -106 368 -169z" />
    <glyph glyph-name="greater.tab" 
d="M97 69c0 51 -2 80 -2 80c160 75 315 150 364 174c-186 90 -356 165 -356 165s1 30 -2 84c248 -125 428 -209 428 -209c0 -46 2 -79 2 -79c-228 -111 -434 -215 -434 -215z" />
    <glyph glyph-name="period.tab" horiz-adv-x="307" 
d="M154 -10c-46 0 -72 32 -72 77c0 47 30 76 71 76c47 0 73 -35 73 -73c0 -50 -28 -80 -72 -80z" />
    <glyph glyph-name="comma.tab" horiz-adv-x="307" 
d="M101 -158c-25 30 -38 41 -38 41c50 39 71 89 78 109c-36 3 -61 33 -61 73c0 39 28 76 74 76s73 -37 73 -88c0 -85 -56 -158 -126 -211z" />
    <glyph glyph-name="colon.tab" horiz-adv-x="307" 
d="M154 -14c-42 0 -72 29 -72 78c0 45 29 77 73 77c54 0 72 -40 72 -77c0 -50 -29 -78 -73 -78zM153 269c-44 0 -72 31 -72 79c0 44 28 75 73 75c46 0 72 -34 72 -75c0 -53 -31 -79 -73 -79z" />
    <glyph glyph-name="semicolon.tab" horiz-adv-x="307" 
d="M106 -157c-21 22 -39 36 -40 37c42 33 68 88 78 112c-35 1 -65 28 -65 69c0 46 31 80 74 80c49 0 74 -44 74 -89c0 -73 -59 -164 -121 -209zM153 270c-39 0 -72 27 -72 81c0 38 27 73 74 73c38 0 71 -30 71 -73c0 -48 -27 -81 -73 -81z" />
    <glyph glyph-name="parenleft.tab" horiz-adv-x="360" 
d="M215 -137c-81 149 -116 296 -116 437c0 172 43 330 123 451c44 -18 74 -28 74 -28c-73 -124 -105 -267 -105 -418c0 -137 27 -258 104 -414c-46 -14 -80 -28 -80 -28z" />
    <glyph glyph-name="parenright.tab" horiz-adv-x="360" 
d="M145 -139c0 0 -34 15 -81 28c69 143 105 274 105 420c0 143 -33 295 -104 416c0 0 31 12 75 32c81 -127 121 -289 121 -452c0 -148 -39 -298 -116 -444z" />
    <glyph glyph-name="bracketleft.tab" horiz-adv-x="360" 
d="M308 -117c0 0 -97 3 -206 3c0 0 2 255 -4 846c0 0 80 0 204 2c0 0 0 -29 2 -68c0 0 -48 0 -114 -2c0 0 -2 -443 1 -705c0 0 48 -2 119 -2c0 0 -2 -29 -2 -74z" />
    <glyph glyph-name="bracketright.tab" horiz-adv-x="360" 
d="M55 -120c0 42 -2 70 -2 73c65 0 113 2 120 2c2 214 -1 669 -2 717c-59 3 -105 2 -113 2c2 36 1 65 1 69c114 -2 192 -2 203 -2c-4 -480 -2 -747 -1 -858c-94 1 -195 -3 -206 -3z" />
    <glyph glyph-name="braceleft.tab" horiz-adv-x="360" 
d="M329 -112c-22 -4 -45 -7 -65 -7c-100 0 -139 45 -139 145l8 149c0 72 -22 110 -111 107l2 81c88 -4 110 21 110 86c0 47 -10 114 -10 165c0 89 44 126 129 126c23 0 47 -4 69 -9c-1 -46 0 -67 0 -67c-16 2 -30 3 -42 3c-51 0 -69 -25 -69 -78c0 -44 9 -104 9 -150
c0 -68 -16 -102 -85 -118c67 -16 82 -58 82 -127l-6 -138c0 -75 18 -101 83 -101c10 0 21 1 33 2c0 -48 2 -69 2 -69z" />
    <glyph glyph-name="braceright.tab" horiz-adv-x="360" 
d="M31 -118c0 0 2 23 2 68c15 -2 29 -3 41 -3c57 0 78 24 78 90c0 48 -9 111 -9 163c0 65 18 106 83 121c-63 13 -85 47 -85 119c0 51 10 112 10 155c0 54 -26 74 -76 74c-11 0 -24 -1 -37 -3c0 0 2 26 1 68c21 5 44 8 65 8c93 0 134 -39 134 -124c0 -53 -12 -116 -12 -165
c0 -69 26 -95 110 -90c0 -39 1 -76 2 -80c-84 4 -111 -29 -111 -101c0 -52 11 -119 11 -174c0 -91 -43 -132 -138 -133c-22 0 -47 2 -69 7z" />
    <glyph glyph-name="section.tab" 
d="M316 -200c-166 0 -250 69 -264 209c57 9 89 17 89 17c17 -113 69 -150 175 -150c74 0 141 40 141 108c0 38 -12 81 -181 106c-150 23 -209 68 -209 159c0 66 64 113 120 130c-67 23 -113 86 -113 153c0 103 79 184 233 184c141 0 218 -74 234 -206
c-62 -7 -87 -13 -87 -13c-9 95 -59 147 -146 147c-93 0 -142 -42 -142 -106c0 -62 48 -95 176 -114c178 -27 216 -81 216 -154c0 -62 -45 -117 -103 -146c57 -19 97 -65 99 -131c0 -128 -115 -193 -238 -193zM160 262c0 -54 26 -86 233 -115c44 25 73 63 73 101
c0 70 -34 88 -224 111c-60 -29 -82 -65 -82 -97z" />
    <glyph glyph-name="numbersign.tab" 
d="M378 52c0 0 1 63 1 142l-146 -1c1 -45 2 -88 4 -128c0 0 -31 2 -72 2c0 0 0 53 1 125l-113 -2s1 26 -1 69c0 0 42 -1 114 -1c0 60 0 120 -1 193c-34 0 -70 -1 -108 -2c0 0 1 26 -1 68h108c0 42 -1 84 -2 125c0 0 28 -1 71 1c0 0 -1 -52 -1 -126l145 1c0 47 -1 94 -2 139
c0 0 31 -2 70 1c0 0 -1 -55 -1 -139c37 0 76 1 117 2c0 0 -2 -28 -2 -66h-115c0 -58 1 -123 2 -196c37 0 77 1 118 2c0 0 -2 -27 -1 -68c0 0 -47 1 -116 1c0 -46 1 -94 2 -142c0 0 -29 2 -71 0zM232 452c0 -61 0 -124 1 -194h146l-1 196c-43 0 -92 -1 -146 -2z" />
    <glyph glyph-name="zero.numerator" horiz-adv-x="428" 
d="M215 288c-111 0 -175 83 -175 218c0 133 70 210 178 210c115 0 170 -83 170 -207c0 -142 -66 -221 -173 -221zM216 344c61 0 102 51 102 166c0 92 -36 152 -102 152c-68 0 -106 -60 -106 -153c0 -107 39 -165 106 -165z" />
    <glyph glyph-name="one.numerator" horiz-adv-x="280" 
d="M127 300c1 168 -1 286 -2 332c-42 -23 -82 -46 -82 -46c-12 31 -23 54 -23 54c75 41 123 70 123 70c24 -3 48 -4 48 -4c0 -206 4 -405 4 -405c-34 -1 -68 -1 -68 -1z" />
    <glyph glyph-name="two.numerator" horiz-adv-x="380" 
d="M335 358v-58c-164 4 -293 4 -293 4c-2 24 -2 62 -2 62c139 65 230 144 230 225c0 48 -26 76 -75 76c-59 0 -80 -39 -84 -102c0 0 -30 5 -66 7c1 94 63 147 150 147c96 0 145 -51 145 -126c0 -92 -96 -181 -213 -237c135 -2 208 2 208 2z" />
    <glyph glyph-name="three.numerator" horiz-adv-x="404" 
d="M200 287c-99 0 -161 51 -170 135c0 0 32 4 72 12c7 -66 40 -94 99 -94c61 0 93 27 93 68c0 33 -20 54 -45 63c-28 10 -71 11 -103 9v50c48 -3 87 0 110 12c20 9 34 29 34 56c0 42 -30 73 -87 73c-48 0 -76 -30 -84 -84c-42 6 -71 9 -71 9c10 80 69 125 156 125
c93 0 155 -46 155 -116c0 -52 -39 -92 -98 -99c68 -8 103 -50 103 -101c0 -69 -64 -118 -164 -118z" />
    <glyph glyph-name="four.numerator" horiz-adv-x="398" 
d="M256 301c0 31 0 61 1 91l-231 -3s0 16 -1 47c125 167 207 281 207 281c55 -2 89 -2 89 -2c-1 -160 -1 -206 -1 -273l43 1v-51h-43v-90c-34 0 -64 -1 -64 -1zM258 660c-85 -113 -141 -189 -163 -219h162c1 126 1 198 1 219z" />
    <glyph glyph-name="five.numerator" horiz-adv-x="406" 
d="M203 288c-76 0 -142 37 -158 121c42 3 71 10 71 10c12 -56 43 -79 93 -79c46 0 87 28 87 99c0 56 -29 91 -85 91c-46 0 -77 -27 -91 -57c0 0 -36 4 -67 5c0 0 3 101 5 231c0 0 172 0 284 2c0 0 -1 -25 -1 -54c0 0 -127 1 -219 -1l-4 -122c26 27 67 45 108 45
c86 0 139 -53 140 -141c0 -95 -68 -150 -163 -150z" />
    <glyph glyph-name="six.numerator" horiz-adv-x="415" 
d="M215 286c-112 0 -175 81 -175 212c0 137 66 221 180 221c79 0 134 -41 148 -116c-39 -3 -71 -8 -71 -8c-9 44 -32 71 -78 71c-72 0 -110 -70 -110 -164v-3c28 36 75 61 126 61c87 -1 145 -54 145 -133c0 -87 -74 -141 -165 -141zM221 510c-45 0 -83 -26 -108 -64
c13 -75 53 -107 106 -107c47 0 90 30 90 85c1 45 -25 86 -88 86z" />
    <glyph glyph-name="seven.numerator" horiz-adv-x="337" 
d="M103 297c-2 146 46 266 138 356c-123 1 -226 -1 -226 -1c1 28 0 58 0 58c137 0 302 1 302 1c-1 -36 0 -54 0 -54c-102 -103 -146 -210 -144 -360c-37 1 -70 0 -70 0z" />
    <glyph glyph-name="eight.numerator" horiz-adv-x="404" 
d="M205 286c-110 0 -170 52 -170 126c0 50 41 88 95 102c-56 18 -83 54 -83 96c0 66 59 109 155 109c116 0 158 -54 158 -107c0 -45 -27 -83 -85 -98c59 -15 94 -62 94 -104c0 -80 -71 -124 -164 -124zM203 336c58 0 95 33 95 75c0 36 -30 71 -97 82c-54 -7 -95 -38 -95 -78
c0 -47 38 -79 97 -79zM206 534c61 12 84 39 84 71c0 41 -32 65 -87 65c-56 0 -87 -25 -87 -64c0 -38 32 -61 90 -72z" />
    <glyph glyph-name="nine.numerator" horiz-adv-x="412" 
d="M200 288c-89 0 -147 40 -164 125c40 4 69 9 69 9c14 -57 47 -81 96 -81c62 0 101 42 103 163c-31 -32 -73 -50 -125 -50c-87 0 -144 50 -144 125c0 85 65 141 164 141c109 0 173 -72 173 -207c0 -160 -72 -225 -172 -225zM196 501c42 0 77 19 106 54
c-9 76 -47 116 -105 116c-57 0 -91 -39 -91 -88c0 -52 31 -82 90 -82z" />
    <glyph glyph-name="zero.denominator" horiz-adv-x="428" 
d="M215 -23c-111 0 -175 83 -175 218c0 133 70 210 178 210c115 0 170 -83 170 -207c0 -142 -66 -221 -173 -221zM216 33c61 0 102 51 102 166c0 92 -36 152 -102 152c-68 0 -106 -60 -106 -153c0 -107 39 -165 106 -165z" />
    <glyph glyph-name="one.denominator" horiz-adv-x="280" 
d="M127 -11c1 168 -1 286 -2 332c-42 -23 -82 -46 -82 -46c-12 31 -23 54 -23 54c75 41 123 70 123 70c24 -3 48 -4 48 -4c0 -206 4 -405 4 -405c-34 -1 -68 -1 -68 -1z" />
    <glyph glyph-name="two.denominator" horiz-adv-x="380" 
d="M335 47v-58c-164 4 -293 4 -293 4c-2 24 -2 62 -2 62c139 65 230 144 230 225c0 48 -26 76 -75 76c-59 0 -80 -39 -84 -102c0 0 -30 5 -66 7c1 94 63 147 150 147c96 0 145 -51 145 -126c0 -92 -96 -181 -213 -237c135 -2 208 2 208 2z" />
    <glyph glyph-name="three.denominator" horiz-adv-x="404" 
d="M200 -24c-99 0 -161 51 -170 135c0 0 32 4 72 12c7 -66 40 -94 99 -94c61 0 93 27 93 68c0 33 -20 54 -45 63c-28 10 -71 11 -103 9v50c48 -3 87 0 110 12c20 9 34 29 34 56c0 42 -30 73 -87 73c-48 0 -76 -30 -84 -84c-42 6 -71 9 -71 9c10 80 69 125 156 125
c93 0 155 -46 155 -116c0 -52 -39 -92 -98 -99c68 -8 103 -50 103 -101c0 -69 -64 -118 -164 -118z" />
    <glyph glyph-name="four.denominator" horiz-adv-x="398" 
d="M256 -10c0 31 0 61 1 91l-231 -3s0 16 -1 47c125 167 207 281 207 281c55 -2 89 -2 89 -2c-1 -160 -1 -206 -1 -273l43 1v-51h-43v-90c-34 0 -64 -1 -64 -1zM258 349c-85 -113 -141 -189 -163 -219h162c1 126 1 198 1 219z" />
    <glyph glyph-name="five.denominator" horiz-adv-x="406" 
d="M203 -23c-76 0 -142 37 -158 121c42 3 71 10 71 10c12 -56 43 -79 93 -79c46 0 87 28 87 99c0 56 -29 91 -85 91c-46 0 -77 -27 -91 -57c0 0 -36 4 -67 5c0 0 3 101 5 231c0 0 172 0 284 2c0 0 -1 -25 -1 -54c0 0 -127 1 -219 -1l-4 -122c26 27 67 45 108 45
c86 0 139 -53 140 -141c0 -95 -68 -150 -163 -150z" />
    <glyph glyph-name="six.denominator" horiz-adv-x="415" 
d="M215 -25c-112 0 -175 81 -175 212c0 137 66 221 180 221c79 0 134 -41 148 -116c-39 -3 -71 -8 -71 -8c-9 44 -32 71 -78 71c-72 0 -110 -70 -110 -164v-3c28 36 75 61 126 61c87 -1 145 -54 145 -133c0 -87 -74 -141 -165 -141zM221 199c-45 0 -83 -26 -108 -64
c13 -75 53 -107 106 -107c47 0 90 30 90 85c1 45 -25 86 -88 86z" />
    <glyph glyph-name="seven.denominator" horiz-adv-x="337" 
d="M103 -14c-2 146 46 266 138 356c-123 1 -226 -1 -226 -1c1 28 0 58 0 58c137 0 302 1 302 1c-1 -36 0 -54 0 -54c-102 -103 -146 -210 -144 -360c-37 1 -70 0 -70 0z" />
    <glyph glyph-name="eight.denominator" horiz-adv-x="404" 
d="M205 -25c-110 0 -170 52 -170 126c0 50 41 88 95 102c-56 18 -83 54 -83 96c0 66 59 109 155 109c116 0 158 -54 158 -107c0 -45 -27 -83 -85 -98c59 -15 94 -62 94 -104c0 -80 -71 -124 -164 -124zM203 25c58 0 95 33 95 75c0 36 -30 71 -97 82c-54 -7 -95 -38 -95 -78
c0 -47 38 -79 97 -79zM206 223c61 12 84 39 84 71c0 41 -32 65 -87 65c-56 0 -87 -25 -87 -64c0 -38 32 -61 90 -72z" />
    <glyph glyph-name="nine.denominator" horiz-adv-x="412" 
d="M200 -23c-89 0 -147 40 -164 125c40 4 69 9 69 9c14 -57 47 -81 96 -81c62 0 101 42 103 163c-31 -32 -73 -50 -125 -50c-87 0 -144 50 -144 125c0 85 65 141 164 141c109 0 173 -72 173 -207c0 -160 -72 -225 -172 -225zM196 190c42 0 77 19 106 54
c-9 76 -47 116 -105 116c-57 0 -91 -39 -91 -88c0 -52 31 -82 90 -82z" />
    <glyph glyph-name="dollar.cap" horiz-adv-x="595" 
d="M338 -121c-47 1 -83 0 -83 0l4 104c-126 17 -203 94 -212 241c0 0 30 2 96 10c4 -107 57 -176 155 -179c82 -2 151 38 151 113c0 55 -24 100 -171 145c-156 48 -212 108 -212 215c0 98 78 169 189 183c-1 62 -4 105 -4 105c60 -1 88 -1 88 -1c-3 -49 -4 -81 -5 -103
c118 -14 188 -95 199 -220c0 0 -38 -6 -91 -12c-1 87 -48 157 -144 157c-92 0 -142 -44 -142 -108c0 -69 45 -109 176 -149c164 -50 211 -109 211 -209c0 -102 -87 -179 -207 -190c0 -59 2 -102 2 -102z" />
    <glyph glyph-name="cent.cap" horiz-adv-x="587" 
d="M259 -66c3 62 4 108 4 118c-137 21 -208 141 -208 296c0 160 74 281 207 302c-1 64 -4 119 -4 119c44 -1 88 1 88 1l-6 -118c107 -13 177 -86 193 -205c-57 -5 -89 -12 -89 -12c-19 93 -54 146 -138 146c-108 0 -161 -102 -161 -227c0 -149 64 -228 162 -228
c73 0 121 34 142 140c0 0 30 -8 88 -17c-20 -119 -92 -186 -196 -198c0 -69 3 -117 3 -117c-51 1 -85 0 -85 0z" />
    <glyph glyph-name="Euro.cap" horiz-adv-x="714" 
d="M31 375c0 0 0 33 -1 67c0 0 28 -1 89 0c27 162 124 278 278 278c145 0 229 -89 255 -223c-65 -7 -98 -14 -98 -14c-20 103 -64 158 -155 158c-102 0 -164 -75 -185 -197c64 1 144 2 256 5l-2 -67s-74 0 -261 -3c0 0 -4 -37 0 -70l275 6s-1 -36 0 -67c0 0 -75 0 -268 -3
c21 -120 82 -192 182 -192c86 0 150 44 180 176c61 -13 93 -18 93 -18c-30 -154 -127 -237 -272 -235c-148 0 -250 95 -278 268c-28 -1 -54 -2 -85 -2c0 0 1 29 1 67h77s-3 25 -1 68z" />
    <glyph glyph-name="sterling.cap" horiz-adv-x="605" 
d="M144 284h-83c0 40 -1 74 -1 74l53 -1c-20 42 -39 88 -39 142c0 129 89 215 237 215c175 0 247 -116 249 -246c0 0 -36 -4 -97 -13c-6 113 -47 178 -153 178c-88 0 -138 -55 -138 -138c0 -57 19 -99 38 -139c132 0 219 1 219 1c-1 -43 1 -76 1 -76c-72 1 -136 2 -190 2
c5 -17 8 -35 8 -55c0 -60 -26 -115 -67 -149c35 -1 134 -3 363 0c0 0 -3 -32 -2 -85c0 0 -113 4 -478 6c0 0 1 42 1 77c52 32 89 80 89 153c0 18 -4 36 -10 54z" />
    <glyph glyph-name="yen.cap" horiz-adv-x="608" 
d="M249 -10c-1 6 0 36 -1 76c-52 -1 -111 -2 -177 -4c0 0 1 29 1 67c0 0 57 -1 175 0c0 23 -1 48 -2 73l-170 -5s0 28 -2 67c0 0 49 0 145 1c-31 69 -93 201 -196 416c0 0 31 1 99 5c0 0 46 -110 170 -378c0 0 69 131 196 397c0 0 40 -1 99 -3c0 0 -86 -159 -221 -434l147 4
s-2 -32 -1 -67c0 0 -59 0 -175 -2c0 0 -1 -29 0 -73l178 4s0 -30 1 -65c0 0 -62 0 -178 -1c0 -24 1 -48 2 -77c0 0 -35 1 -90 -1z" />
    <glyph glyph-name="florin.cap" horiz-adv-x="543" 
d="M446 359l-126 3c-12 -72 -24 -144 -45 -230c-29 -123 -88 -172 -179 -172c-23 0 -48 3 -76 9c0 0 4 23 9 70c19 -4 36 -6 51 -6c58 0 89 34 108 110c21 85 34 153 46 220c-64 1 -93 0 -93 0c3 54 2 68 2 68c38 -1 72 -2 102 -2c7 34 13 70 22 109c25 119 80 170 166 170
c27 0 57 -4 90 -13c-9 -44 -11 -70 -11 -70c-22 7 -42 11 -59 11c-54 0 -84 -36 -100 -107c-8 -35 -15 -68 -21 -101c81 -1 113 0 113 0c0 -50 1 -69 1 -69z" />
    <glyph glyph-name="zero.cap" horiz-adv-x="687" 
d="M344 -23c-172 0 -284 127 -284 371c0 202 103 361 284 361c200 0 283 -166 283 -356c0 -230 -101 -376 -283 -376zM348 54c108 0 184 105 184 300c0 138 -62 281 -186 281c-120 0 -191 -129 -191 -281c0 -200 76 -300 193 -300z" />
    <glyph glyph-name="one.cap" horiz-adv-x="403" 
d="M194 -3c2 306 -1 539 -2 597c-75 -40 -142 -78 -142 -78c-19 47 -30 73 -30 73c129 70 202 115 202 115c36 -6 60 -8 60 -8c0 -352 6 -698 6 -698c-54 -2 -94 -1 -94 -1z" />
    <glyph glyph-name="two.cap" horiz-adv-x="599" 
d="M541 -3c-283 7 -489 7 -489 7c-2 40 -2 87 -2 87c223 119 400 254 400 405c0 83 -54 140 -148 140c-86 0 -143 -61 -148 -182c0 0 -37 6 -95 10c4 162 98 249 247 249c158 0 243 -93 243 -212c0 -173 -166 -318 -361 -420c225 -4 354 2 354 2c-1 -48 -1 -86 -1 -86z" />
    <glyph glyph-name="three.cap" horiz-adv-x="627" 
d="M316 -24c-161 0 -262 86 -276 232c0 0 35 3 98 11c18 -116 82 -167 186 -167c84 0 161 45 161 133c0 61 -36 94 -91 111c-29 9 -66 14 -112 14c-16 0 -34 0 -54 -1c0 0 0 38 -1 75c22 -2 41 -3 60 -3c54 0 94 7 127 22c37 18 64 55 64 104c0 71 -53 136 -162 136
c-90 0 -145 -55 -167 -161c-52 10 -97 18 -97 18c22 130 116 217 265 217c162 0 255 -92 255 -201c0 -86 -60 -152 -146 -167c102 -16 156 -90 156 -167c0 -127 -118 -206 -266 -206z" />
    <glyph glyph-name="four.cap" horiz-adv-x="625" 
d="M423 -1c0 53 1 104 2 154c-105 0 -246 -2 -394 -4c0 0 -1 23 0 77c209 283 356 484 356 484c90 -3 127 -3 127 -3c-2 -205 -2 -364 -2 -481c26 0 52 0 78 1c0 0 -1 -29 -1 -73h-76c0 -98 1 -154 1 -154c-57 -1 -91 -1 -91 -1zM427 637c-158 -215 -265 -363 -300 -412h298
c2 232 2 385 2 412z" />
    <glyph glyph-name="five.cap" horiz-adv-x="626" 
d="M313 -23c-115 0 -235 56 -268 201c59 12 95 22 95 22c23 -97 91 -151 178 -151c92 0 165 66 165 188c0 104 -60 170 -158 170c-79 0 -132 -41 -170 -114c0 0 -41 5 -93 7c0 0 6 174 9 396c0 0 280 0 470 4c0 0 -1 -32 -1 -80c0 0 -225 1 -381 -2c-2 -48 -6 -134 -8 -235
c46 61 112 93 196 93c144 0 233 -94 234 -243c0 -153 -107 -256 -268 -256z" />
    <glyph glyph-name="six.cap" horiz-adv-x="663" 
d="M347 -27c-184 0 -287 146 -287 363c0 237 124 376 286 376c142 0 217 -70 247 -185c-59 -9 -100 -20 -100 -20c-19 80 -65 129 -148 129c-117 0 -188 -127 -188 -294v-16c48 65 126 109 220 109c154 0 236 -93 236 -210c0 -170 -124 -252 -266 -252zM361 367
c-70 0 -143 -40 -198 -115c22 -140 95 -206 195 -206c95 0 154 75 154 168c1 81 -45 153 -151 153z" />
    <glyph glyph-name="seven.cap" horiz-adv-x="549" 
d="M176 -9c-7 259 96 469 257 627c-129 2 -398 -2 -398 -2c1 47 0 81 0 81c234 1 487 4 487 4c1 -59 2 -88 2 -88c-169 -170 -253 -370 -250 -622c-62 1 -98 0 -98 0z" />
    <glyph glyph-name="eight.cap" horiz-adv-x="644" 
d="M326 -28c-177 0 -281 80 -281 210c0 87 62 154 162 180c-92 32 -142 97 -142 169c0 102 91 182 257 182c177 0 260 -84 260 -180c0 -80 -55 -142 -147 -171c105 -32 163 -107 164 -182c0 -134 -125 -208 -273 -208zM323 42c98 0 175 56 175 139c0 70 -62 133 -187 151
c-93 -14 -167 -70 -167 -146c0 -88 78 -144 179 -144zM334 390c86 15 152 60 152 133c-1 66 -53 124 -164 124c-95 0 -163 -50 -163 -124c0 -68 60 -111 175 -133z" />
    <glyph glyph-name="nine.cap" horiz-adv-x="649" 
d="M311 -24c-139 0 -233 78 -260 221c57 5 98 13 98 13c23 -108 74 -158 167 -158c97 0 176 74 178 303c-44 -48 -120 -89 -209 -89c-136 0 -235 79 -235 214c0 142 112 235 261 235c173 0 277 -137 277 -355c1 -267 -108 -384 -277 -384zM303 334c78 0 137 36 187 102
c-17 130 -83 204 -181 204c-94 0 -160 -68 -160 -159c0 -94 60 -147 154 -147z" />
    <glyph glyph-name="percent.cap" horiz-adv-x="779" 
d="M197 352c-105 0 -162 77 -162 189c0 103 62 177 164 177c103 0 163 -69 163 -184c0 -127 -77 -182 -165 -182zM197 405c58 0 95 41 96 132c0 83 -37 129 -94 129c-58 0 -95 -54 -95 -130c0 -81 36 -131 93 -131zM191 -20c-37 7 -54 8 -54 8c274 441 436 715 436 715
c36 -6 58 -7 58 -7c-306 -497 -440 -716 -440 -716zM579 -18c-106 0 -162 77 -162 182s62 184 163 184c107 0 164 -77 164 -183c0 -122 -72 -183 -165 -183zM581 35c56 0 93 46 93 126c0 84 -31 133 -96 133c-56 0 -91 -55 -91 -127c0 -78 32 -132 94 -132z" />
    <glyph glyph-name="perthousand.cap" horiz-adv-x="1164" 
d="M197 352c-105 0 -162 77 -162 189c0 103 64 177 164 177c104 0 163 -71 163 -184c0 -126 -76 -182 -165 -182zM191 -20c-37 7 -54 8 -54 8c274 441 436 715 436 715c36 -6 58 -7 58 -7c-306 -497 -440 -716 -440 -716zM197 405c57 0 95 41 96 132c0 83 -37 128 -94 128
c-56 0 -95 -52 -95 -129c0 -81 36 -131 93 -131zM579 -18c-105 0 -162 76 -162 182c0 104 61 184 163 184c107 0 164 -77 164 -183c0 -121 -72 -183 -165 -183zM581 35c55 0 93 45 93 126c0 83 -30 133 -96 133c-56 0 -91 -56 -91 -127c0 -80 32 -132 94 -132zM965 -7
c-94 0 -163 66 -163 183c0 109 63 184 164 184c103 0 163 -73 163 -178c0 -120 -67 -189 -164 -189zM963 47c58 0 96 44 97 132c0 81 -38 128 -94 128c-55 0 -95 -50 -95 -130c0 -83 36 -130 92 -130z" />
    <glyph glyph-name="questiondown.cap" horiz-adv-x="592" 
d="M361 517c0 -100 3 -184 3 -184c-159 8 -218 -41 -218 -138c0 -73 50 -137 148 -137c97 0 145 61 166 169c0 0 35 -11 92 -20c-21 -131 -111 -225 -252 -225c-167 0 -250 102 -250 207c0 134 85 203 220 209c3 58 1 117 1 117c59 0 90 2 90 2zM311 715c48 0 72 -30 72 -74
c0 -41 -29 -70 -71 -70c-45 0 -70 30 -70 74c0 43 28 70 69 70z" />
    <glyph glyph-name="exclamdown.cap" horiz-adv-x="315" 
d="M156 709c46 0 74 -31 74 -76c0 -39 -24 -73 -73 -73c-47 0 -72 35 -72 76c0 44 32 73 71 73zM198 504c0 0 3 -217 13 -517c0 0 -51 2 -102 0c0 0 4 242 6 516c0 0 37 -1 83 1z" />
    <glyph glyph-name="parenleft.cap" horiz-adv-x="307" 
d="M186 -75c-76 139 -116 275 -116 405c0 152 47 306 123 421c44 -18 74 -28 74 -28c-66 -114 -105 -256 -105 -387c0 -128 37 -247 104 -384c-46 -14 -80 -27 -80 -27z" />
    <glyph glyph-name="parenright.cap" horiz-adv-x="307" 
d="M121 -77c0 0 -34 14 -81 28c67 137 105 260 105 388c0 131 -39 273 -104 386c0 0 31 12 75 32c74 -117 121 -271 121 -421c0 -132 -42 -273 -116 -413z" />
    <glyph glyph-name="bracketleft.cap" horiz-adv-x="339" 
d="M297 -56c0 0 -97 4 -206 3c0 0 2 194 -4 785c0 0 80 0 204 2c0 0 0 -29 2 -68c0 0 -48 0 -114 -2c0 0 -2 -382 1 -644c0 0 48 -2 119 -2c0 0 -2 -29 -2 -74z" />
    <glyph glyph-name="bracketright.cap" horiz-adv-x="339" 
d="M44 -59c0 42 -2 70 -2 73c65 0 113 2 120 2c2 214 -1 608 -2 656c-59 3 -105 2 -113 2c2 36 1 65 1 69c114 -2 192 -2 203 -2c-4 -480 -2 -686 -1 -796c-94 0 -195 -3 -206 -4z" />
    <glyph glyph-name="braceleft.cap" horiz-adv-x="377" 
d="M337 -51c-20 -4 -43 -7 -63 -7c-93 0 -141 38 -141 140l8 130c0 68 -26 104 -111 100l2 82c82 -5 110 18 110 84c0 41 -10 94 -10 138c0 85 41 124 127 124c23 0 48 -4 71 -9c-1 -46 0 -67 0 -67c-15 2 -29 3 -41 3c-50 0 -70 -22 -70 -78c0 -36 9 -86 9 -124
c0 -64 -18 -99 -85 -113c66 -16 82 -57 82 -122l-6 -120c0 -67 20 -93 81 -93c10 0 22 1 35 2c0 -49 2 -70 2 -70z" />
    <glyph glyph-name="braceright.cap" horiz-adv-x="377" 
d="M40 -57c0 0 2 23 2 68c13 -2 25 -3 36 -3c55 -1 83 21 83 86c0 41 -9 94 -9 138c0 65 19 104 83 120c-61 11 -86 48 -86 115c0 43 11 93 11 129c0 52 -24 72 -79 72c-10 0 -22 -1 -34 -2c0 0 2 26 1 68c19 4 44 8 68 8c93 0 131 -44 131 -119c0 -47 -12 -100 -12 -143
c0 -63 26 -90 110 -87c0 -39 1 -75 2 -80c-82 5 -111 -29 -111 -97c0 -46 11 -101 11 -149c0 -90 -46 -132 -140 -132c-21 0 -44 3 -67 8z" />
    <glyph glyph-name="slash.cap" horiz-adv-x="383" 
d="M15 -47c157 447 267 780 267 780c52 -2 86 0 86 0c-214 -610 -268 -780 -268 -780c-49 1 -85 0 -85 0z" />
    <glyph glyph-name="backslash.cap" horiz-adv-x="383" 
d="M368 -46c0 0 -37 1 -86 0c0 0 -54 169 -267 780c0 0 33 -2 85 0c0 0 110 -333 268 -780z" />
    <glyph glyph-name="bar.cap" horiz-adv-x="269" 
d="M95 -51c0 0 1 367 -3 789c0 0 28 -2 83 -2c0 0 -2 -291 2 -785c0 0 -33 0 -82 -2z" />
    <glyph glyph-name="at.cap" horiz-adv-x="903" 
d="M446 576c67 0 110 -60 122 -127l17 99s35 -2 76 0c0 0 -41 -186 -57 -282c-2 -12 -3 -23 -3 -32c0 -43 20 -57 54 -57c56 0 120 70 120 209c0 160 -124 273 -305 273c-230 0 -342 -166 -342 -340c0 -191 132 -290 293 -290c66 0 126 8 187 31l18 -66
c-73 -21 -141 -32 -208 -32c-216 0 -363 144 -363 359c0 218 157 401 417 401c237 0 376 -156 376 -333c0 -184 -103 -277 -209 -277c-61 0 -109 36 -112 110c-37 -65 -93 -106 -153 -106c-88 0 -148 75 -148 178c0 72 25 153 85 216c38 40 88 66 135 66zM456 508
c-29 0 -55 -14 -80 -39c-47 -47 -67 -111 -67 -168c0 -79 36 -121 81 -121c27 0 58 16 80 38c38 38 64 96 64 161c0 64 -26 129 -78 129z" />
    <glyph glyph-name="copyright.cap" horiz-adv-x="805" 
d="M405 122c-117 0 -200 96 -200 220c0 133 78 232 200 232c112 0 174 -77 186 -161c-45 -3 -77 -10 -77 -10c-8 67 -39 110 -109 110c-80 0 -127 -73 -127 -170c0 -99 57 -155 131 -155c59 0 96 39 109 104c37 -8 72 -14 72 -14c-17 -96 -93 -156 -185 -156zM397 -24
c-187 0 -337 131 -337 378c0 194 130 368 347 368c210 0 338 -158 338 -375c0 -242 -144 -371 -348 -371zM402 18c157 0 296 99 296 327c0 200 -108 334 -294 334s-298 -148 -298 -335c0 -209 125 -326 296 -326z" />
    <glyph glyph-name="Pcircle.cap" horiz-adv-x="805" 
d="M408 722c218 0 337 -160 337 -378c0 -220 -148 -368 -347 -368c-210 0 -338 158 -338 375c0 234 160 371 348 371zM403 680c-173 0 -296 -128 -296 -327c0 -200 108 -334 294 -334s298 148 298 335c0 195 -118 326 -296 326zM252 132c0 0 2 137 -2 429c41 5 78 7 110 7
c164 0 225 -65 225 -150c0 -87 -77 -152 -222 -152c-13 0 -26 0 -40 1c0 -44 1 -90 2 -134c0 0 -42 0 -73 -1zM321 510c0 0 0 -83 1 -188c15 -1 30 -2 44 -2c105 0 149 42 149 99c0 50 -35 93 -152 93c-13 0 -27 -1 -42 -2z" />
    <glyph glyph-name="space.captab" horiz-adv-x="325" 
 />
    <glyph glyph-name="dollar.captab" horiz-adv-x="650" 
d="M366 -121c-47 1 -83 0 -83 0l4 104c-126 17 -203 94 -212 241c0 0 30 2 96 10c4 -107 57 -176 155 -179c82 -2 151 38 151 113c0 55 -24 100 -171 145c-156 48 -212 108 -212 215c0 98 78 169 189 183c-1 62 -4 105 -4 105c60 -1 88 -1 88 -1c-3 -49 -4 -81 -5 -103
c118 -14 188 -95 199 -220c0 0 -38 -6 -91 -12c-1 87 -48 157 -144 157c-92 0 -142 -44 -142 -108c0 -69 45 -109 176 -149c164 -50 211 -109 211 -209c0 -102 -87 -179 -207 -190c0 -59 2 -102 2 -102z" />
    <glyph glyph-name="cent.captab" horiz-adv-x="650" 
d="M291 -66c3 62 4 108 4 118c-137 21 -208 141 -208 296c0 160 74 281 207 302c-1 64 -4 119 -4 119c44 -1 88 1 88 1l-6 -118c107 -13 177 -86 193 -205c-57 -5 -89 -12 -89 -12c-19 93 -54 146 -138 146c-108 0 -161 -102 -161 -227c0 -149 64 -228 162 -228
c73 0 121 34 142 140c0 0 30 -8 88 -17c-20 -119 -92 -186 -196 -198c0 -69 3 -117 3 -117c-51 1 -85 0 -85 0z" />
    <glyph glyph-name="Euro.captab" horiz-adv-x="650" 
d="M20 375c0 0 0 33 -1 67c0 0 22 0 82 1c26 161 120 277 264 277c141 0 216 -97 240 -223c-65 -7 -98 -14 -98 -14c-17 87 -49 158 -140 158c-97 0 -152 -79 -171 -197l232 5l-2 -67s-55 0 -236 -3c0 0 -3 -33 0 -69c61 1 139 2 250 5c0 0 -1 -36 0 -67c0 0 -56 0 -244 -3
c21 -119 81 -192 168 -192c81 0 138 55 165 176c61 -13 93 -18 93 -18c-28 -145 -118 -237 -257 -235c-143 0 -237 100 -264 267l-78 -1s1 29 1 67h71s-2 27 -1 68c-26 -1 -45 -2 -74 -2z" />
    <glyph glyph-name="sterling.captab" horiz-adv-x="650" 
d="M167 284h-83c0 40 -1 74 -1 74l53 -1c-20 42 -39 88 -39 142c0 129 89 215 237 215c175 0 247 -116 249 -246c0 0 -36 -4 -97 -13c-6 113 -47 178 -153 178c-88 0 -138 -55 -138 -138c0 -57 19 -99 38 -139c132 0 219 1 219 1c-1 -43 1 -76 1 -76c-72 1 -136 2 -190 2
c5 -17 8 -35 8 -55c0 -60 -26 -115 -67 -149c35 -1 134 -3 363 0c0 0 -3 -32 -2 -85c0 0 -113 4 -478 6c0 0 1 42 1 77c52 32 89 80 89 153c0 18 -4 36 -10 54z" />
    <glyph glyph-name="yen.captab" horiz-adv-x="650" 
d="M270 -10c-1 6 0 36 -1 76c-52 -1 -111 -2 -177 -4c0 0 1 29 1 67c0 0 57 -1 175 0c0 23 -1 48 -2 73l-170 -5s0 28 -2 67c0 0 49 0 145 1c-31 69 -93 201 -196 416c0 0 31 1 99 5c0 0 46 -110 170 -378c0 0 69 131 196 397c0 0 40 -1 99 -3c0 0 -86 -159 -221 -434l147 4
s-2 -32 -1 -67c0 0 -59 0 -175 -2c0 0 -1 -29 0 -73l178 4s0 -30 1 -65c0 0 -62 0 -178 -1c0 -24 1 -48 2 -77c0 0 -35 1 -90 -1z" />
    <glyph glyph-name="florin.captab" horiz-adv-x="650" 
d="M500 359l-126 3c-12 -72 -24 -144 -45 -230c-29 -123 -88 -172 -179 -172c-23 0 -48 3 -76 9c0 0 4 23 9 70c19 -4 36 -6 51 -6c58 0 89 34 108 110c21 85 34 153 46 220c-64 1 -93 0 -93 0c3 54 2 68 2 68c38 -1 72 -2 102 -2c7 34 13 70 22 109c25 119 80 170 166 170
c27 0 57 -4 90 -13c-9 -44 -11 -70 -11 -70c-22 7 -42 11 -59 11c-54 0 -84 -36 -100 -107c-8 -35 -15 -68 -21 -101c81 -1 113 0 113 0c0 -50 1 -69 1 -69z" />
    <glyph glyph-name="zero.captab" horiz-adv-x="650" 
d="M325 -23c-151 0 -269 117 -269 371c0 199 89 361 269 361c186 0 268 -166 268 -356c0 -240 -105 -376 -268 -376zM329 54c92 0 169 92 169 300c0 154 -47 281 -171 281c-117 0 -176 -110 -176 -281c0 -200 70 -300 178 -300z" />
    <glyph glyph-name="one.captab" horiz-adv-x="650" 
d="M132 -5c0 54 -1 79 -1 79c62 -2 122 -3 176 -3c2 280 -1 469 -2 523c-77 -42 -162 -87 -162 -87c-19 47 -30 73 -30 73c129 70 222 124 222 124c36 -6 60 -8 60 -8c0 -284 3 -538 5 -626c93 0 158 1 158 1c-3 -61 -2 -76 -2 -76c-199 2 -424 0 -424 0z" />
    <glyph glyph-name="two.captab" horiz-adv-x="650" 
d="M567 -3c-283 7 -489 7 -489 7c-2 40 -2 87 -2 87c223 119 400 254 400 405c0 83 -54 140 -148 140c-86 0 -143 -61 -148 -182c0 0 -37 6 -95 10c4 162 98 249 247 249c158 0 243 -93 243 -212c0 -173 -166 -318 -361 -420c225 -4 354 2 354 2c-1 -48 -1 -86 -1 -86z" />
    <glyph glyph-name="three.captab" horiz-adv-x="650" 
d="M328 -24c-161 0 -262 86 -276 232c0 0 35 3 98 11c18 -116 82 -167 186 -167c84 0 161 45 161 133c0 61 -36 94 -91 111c-29 9 -66 14 -112 14c-16 0 -34 0 -54 -1c0 0 0 38 -1 75c22 -2 41 -3 60 -3c54 0 94 7 127 22c37 18 64 55 64 104c0 71 -53 136 -162 136
c-90 0 -145 -55 -167 -161c-52 10 -97 18 -97 18c22 130 116 217 265 217c162 0 255 -92 255 -201c0 -86 -60 -152 -146 -167c102 -16 156 -90 156 -167c0 -127 -118 -206 -266 -206z" />
    <glyph glyph-name="four.captab" horiz-adv-x="650" 
d="M436 -1c0 53 1 104 2 154c-105 0 -246 -2 -394 -4c0 0 -1 23 0 77c209 283 356 484 356 484c90 -3 127 -3 127 -3c-2 -205 -2 -364 -2 -481c26 0 52 0 78 1c0 0 -1 -29 -1 -73h-76c0 -98 1 -154 1 -154c-57 -1 -91 -1 -91 -1zM440 637c-158 -215 -265 -363 -300 -412h298
c2 232 2 385 2 412z" />
    <glyph glyph-name="five.captab" horiz-adv-x="650" 
d="M325 -23c-115 0 -235 56 -268 201c59 12 95 22 95 22c23 -97 91 -151 178 -151c92 0 165 66 165 188c0 104 -60 170 -158 170c-79 0 -132 -41 -170 -114c0 0 -41 5 -93 7c0 0 6 174 9 396c0 0 280 0 470 4c0 0 -1 -32 -1 -80c0 0 -225 1 -381 -2c-2 -48 -6 -134 -8 -235
c46 61 112 93 196 93c144 0 233 -94 234 -243c0 -153 -107 -256 -268 -256z" />
    <glyph glyph-name="six.captab" horiz-adv-x="650" 
d="M337 -27c-170 0 -281 139 -281 363c0 240 123 376 280 376c132 0 210 -65 241 -185c-59 -9 -100 -20 -100 -20c-20 82 -61 129 -142 129c-110 0 -182 -121 -182 -294v-16c48 66 127 109 214 109c147 0 230 -90 230 -210c0 -164 -120 -252 -260 -252zM351 367
c-65 0 -135 -38 -192 -116c21 -137 91 -205 189 -205c86 0 148 71 148 168c1 81 -39 153 -145 153z" />
    <glyph glyph-name="seven.captab" horiz-adv-x="650" 
d="M227 -9c-7 259 105 469 267 627c-131 2 -418 -2 -418 -2c1 47 0 81 0 81c234 1 507 4 507 4c1 -59 2 -88 2 -88c-169 -170 -263 -370 -260 -622c-62 1 -98 0 -98 0z" />
    <glyph glyph-name="eight.captab" horiz-adv-x="650" 
d="M329 -28c-177 0 -281 80 -281 210c0 87 62 154 162 180c-92 32 -142 97 -142 169c0 102 91 182 257 182c177 0 260 -84 260 -180c0 -80 -55 -142 -147 -171c105 -32 163 -107 164 -182c0 -134 -125 -208 -273 -208zM326 42c98 0 175 56 175 139c0 70 -62 133 -187 151
c-93 -14 -167 -70 -167 -146c0 -88 78 -144 179 -144zM337 390c86 15 152 60 152 133c-1 66 -53 124 -164 124c-95 0 -163 -50 -163 -124c0 -68 60 -111 175 -133z" />
    <glyph glyph-name="nine.captab" horiz-adv-x="650" 
d="M312 -24c-139 0 -233 78 -260 221c57 5 98 13 98 13c23 -108 74 -158 167 -158c97 0 176 74 178 303c-44 -48 -120 -89 -209 -89c-136 0 -235 79 -235 214c0 142 112 235 261 235c173 0 277 -137 277 -355c1 -267 -108 -384 -277 -384zM304 334c78 0 137 36 187 102
c-17 130 -83 204 -181 204c-94 0 -160 -68 -160 -159c0 -94 60 -147 154 -147z" />
    <glyph glyph-name="plus.captab" horiz-adv-x="650" 
d="M286 94c1 65 2 136 2 202c-104 0 -185 -1 -185 -1c1 43 -1 75 -1 75c57 -2 123 -3 186 -3v194c47 -2 75 -2 75 -2c-1 -69 -2 -133 -2 -192c104 0 189 1 189 1c-3 -47 -2 -73 -2 -73c-59 1 -124 1 -187 1c0 -121 2 -201 2 -201c-45 0 -77 -1 -77 -1z" />
    <glyph glyph-name="minus.captab" horiz-adv-x="650" 
d="M533 365c-1 -45 -1 -74 -1 -74c-212 4 -413 1 -413 1c1 47 0 74 0 74c195 -4 414 -1 414 -1z" />
    <glyph glyph-name="multiply.captab" horiz-adv-x="650" 
d="M166 110c0 0 -16 16 -49 46c0 0 74 78 165 176c-88 94 -160 170 -160 170c31 30 48 48 48 48c48 -54 103 -114 156 -171c55 59 111 121 161 177c0 0 21 -23 48 -48c0 0 -75 -78 -166 -176c90 -96 163 -173 163 -173c-34 -30 -50 -46 -50 -46c-48 53 -103 114 -157 172
c-54 -58 -110 -120 -159 -175z" />
    <glyph glyph-name="divide.captab" horiz-adv-x="650" 
d="M108 366c193 -3 418 0 436 0c-1 -44 0 -72 0 -75c-177 4 -419 1 -437 1c1 39 1 74 1 74zM324 576c33 0 57 -26 57 -64s-23 -64 -58 -64c-37 0 -57 24 -57 64c0 42 23 64 58 64zM325 210c35 0 57 -25 57 -67c0 -37 -24 -60 -58 -60c-37 0 -57 25 -57 60c0 46 24 67 58 67z
" />
    <glyph glyph-name="equal.captab" horiz-adv-x="650" 
d="M119 196c0 0 0 18 -2 67c0 0 190 -1 417 2c0 0 -2 -25 -1 -69c0 0 -177 2 -414 0zM534 393c-238 4 -417 2 -417 2c2 48 2 69 2 69c218 -2 415 0 415 0c-1 -51 0 -71 0 -71z" />
    <glyph glyph-name="less.captab" horiz-adv-x="650" 
d="M543 153c0 0 -3 -37 -2 -83c0 0 -206 100 -443 211c0 0 2 35 2 81c0 0 191 88 438 210c0 0 -2 -33 -2 -86c0 0 -168 -74 -361 -164c61 -29 225 -106 368 -169z" />
    <glyph glyph-name="greater.captab" horiz-adv-x="650" 
d="M115 69c0 51 -2 80 -2 80c160 75 315 150 364 174c-186 90 -356 165 -356 165s1 30 -2 84c248 -125 428 -209 428 -209c0 -46 2 -79 2 -79c-228 -111 -434 -215 -434 -215z" />
    <glyph glyph-name="period.captab" horiz-adv-x="325" 
d="M163 -10c-46 0 -72 32 -72 77c0 47 30 76 71 76c47 0 73 -35 73 -73c0 -50 -28 -80 -72 -80z" />
    <glyph glyph-name="comma.captab" horiz-adv-x="325" 
d="M110 -158c-25 30 -38 41 -38 41c50 39 71 89 78 109c-36 3 -61 33 -61 73c0 39 28 76 74 76s73 -37 73 -88c0 -85 -56 -158 -126 -211z" />
    <glyph glyph-name="colon.captab" horiz-adv-x="325" 
d="M163 -14c-42 0 -72 29 -72 78c0 45 29 77 73 77c54 0 72 -40 72 -77c0 -50 -29 -78 -73 -78zM162 269c-44 0 -72 31 -72 79c0 44 28 75 73 75c46 0 72 -34 72 -75c0 -53 -31 -79 -73 -79z" />
    <glyph glyph-name="semicolon.captab" horiz-adv-x="325" 
d="M115 -157c-21 22 -39 36 -40 37c42 33 68 88 78 112c-35 1 -65 28 -65 69c0 46 31 80 74 80c49 0 74 -44 74 -89c0 -73 -59 -164 -121 -209zM162 270c-39 0 -72 27 -72 81c0 38 27 73 74 73c38 0 71 -30 71 -73c0 -48 -27 -81 -73 -81z" />
    <glyph glyph-name="parenleft.captab" horiz-adv-x="390" 
d="M228 -75c-76 139 -116 275 -116 405c0 152 47 306 123 421c44 -18 74 -28 74 -28c-66 -114 -105 -256 -105 -387c0 -128 37 -247 104 -384c-46 -14 -80 -27 -80 -27z" />
    <glyph glyph-name="parenright.captab" horiz-adv-x="390" 
d="M163 -77c0 0 -34 14 -81 28c67 137 105 260 105 388c0 131 -39 273 -104 386c0 0 31 12 75 32c74 -117 121 -271 121 -421c0 -132 -42 -273 -116 -413z" />
    <glyph glyph-name="bracketleft.captab" horiz-adv-x="390" 
d="M323 -56c0 0 -97 4 -206 3c0 0 2 194 -4 785c0 0 80 0 204 2c0 0 0 -29 2 -68c0 0 -48 0 -114 -2c0 0 -2 -382 1 -644c0 0 48 -2 119 -2c0 0 -2 -29 -2 -74z" />
    <glyph glyph-name="bracketright.captab" horiz-adv-x="390" 
d="M70 -59c0 42 -2 70 -2 73c65 0 113 2 120 2c2 214 -1 608 -2 656c-59 3 -105 2 -113 2c2 36 1 65 1 69c114 -2 192 -2 203 -2c-4 -480 -2 -686 -1 -796c-94 0 -195 -3 -206 -4z" />
    <glyph glyph-name="braceleft.captab" horiz-adv-x="390" 
d="M344 -51c-20 -4 -43 -7 -63 -7c-93 0 -141 38 -141 140l8 130c0 68 -26 104 -111 100l2 82c82 -5 110 18 110 84c0 41 -10 94 -10 138c0 85 41 124 127 124c23 0 48 -4 71 -9c-1 -46 0 -67 0 -67c-15 2 -29 3 -41 3c-50 0 -70 -22 -70 -78c0 -36 9 -86 9 -124
c0 -64 -18 -99 -85 -113c66 -16 82 -57 82 -122l-6 -120c0 -67 20 -93 81 -93c10 0 22 1 35 2c0 -49 2 -70 2 -70z" />
    <glyph glyph-name="braceright.captab" horiz-adv-x="390" 
d="M47 -57c0 0 2 23 2 68c13 -2 25 -3 36 -3c55 -1 83 21 83 86c0 41 -9 94 -9 138c0 65 19 104 83 120c-61 11 -86 48 -86 115c0 43 11 93 11 129c0 52 -24 72 -79 72c-10 0 -22 -1 -34 -2c0 0 2 26 1 68c19 4 44 8 68 8c93 0 131 -44 131 -119c0 -47 -12 -100 -12 -143
c0 -63 26 -90 110 -87c0 -39 1 -75 2 -80c-82 5 -111 -29 -111 -97c0 -46 11 -101 11 -149c0 -90 -46 -132 -140 -132c-21 0 -44 3 -67 8z" />
    <glyph glyph-name="section.captab" horiz-adv-x="650" 
d="M334 -200c-166 0 -255 69 -269 209c57 9 89 17 89 17c17 -113 74 -150 180 -150c74 0 146 40 146 108c0 47 -26 82 -186 106c-142 21 -214 63 -214 159c0 66 64 113 120 130c-67 23 -113 86 -113 153c0 103 84 184 238 184c141 0 223 -74 239 -206
c-62 -7 -87 -13 -87 -13c-9 95 -64 147 -151 147c-93 0 -147 -42 -147 -106c0 -63 47 -94 190 -116c166 -26 212 -72 212 -152c0 -62 -45 -117 -103 -146c57 -19 97 -65 99 -131c0 -128 -120 -193 -243 -193zM173 262c0 -54 35 -86 243 -115c44 25 73 63 73 101
c0 70 -43 88 -234 111c-60 -29 -82 -65 -82 -97z" />
    <glyph glyph-name="numbersign.captab" horiz-adv-x="650" 
d="M396 52c0 0 1 63 1 142l-146 -1c1 -45 2 -88 4 -128c0 0 -31 2 -72 2c0 0 0 53 1 125l-113 -2s1 26 -1 69c0 0 42 -1 114 -1c0 60 0 120 -1 193c-34 0 -70 -1 -108 -2c0 0 1 26 -1 68h108c0 42 -1 84 -2 125c0 0 28 -1 71 1c0 0 -1 -52 -1 -126l145 1c0 47 -1 94 -2 139
c0 0 31 -2 70 1c0 0 -1 -55 -1 -139c37 0 76 1 117 2c0 0 -2 -28 -2 -66h-115c0 -58 1 -123 2 -196c37 0 77 1 118 2c0 0 -2 -27 -1 -68c0 0 -47 1 -116 1c0 -46 1 -94 2 -142c0 0 -29 2 -71 0zM250 452c0 -61 0 -124 1 -194h146l-1 196c-43 0 -92 -1 -146 -2z" />
    <glyph glyph-name="Eth" unicode="&#xd0;" horiz-adv-x="701" 
d="M20 305c0 0 2 27 1 77c0 0 32 -2 99 -4c-1 184 -2 311 -2 311c54 8 97 11 148 11c258 0 376 -144 376 -349c0 -231 -129 -357 -400 -357c-36 0 -79 3 -123 8c1 114 1 209 1 303h-100zM212 73c17 -1 33 -1 48 -1c183 0 288 74 288 280c0 165 -91 271 -288 271
c-17 0 -35 -1 -54 -3c0 -86 0 -169 1 -243c39 -1 83 -1 137 -1c0 0 -1 -26 1 -72c0 0 -54 1 -137 1c2 -138 4 -232 4 -232z" />
    <glyph glyph-name="eth" unicode="&#xf0;" horiz-adv-x="580" 
d="M289 -21c-146 0 -234 113 -234 276c0 138 83 261 213 261c71 0 142 -57 172 -132c-10 79 -31 138 -77 190l-36 -35s-13 14 -39 37c0 0 16 16 36 38c-19 16 -41 31 -65 47c0 0 18 22 41 55c26 -15 50 -32 71 -50c15 16 29 33 44 50c0 0 13 -14 46 -45l-47 -47
c73 -85 111 -200 111 -345c0 -207 -112 -300 -236 -300zM292 46c78 0 144 67 144 208c0 91 -61 196 -153 196c-73 0 -139 -76 -139 -200c0 -116 60 -204 148 -204z" />
    </font>
</defs>
</svg>
